<?xml version="1.0" encoding="UTF-8" standalone="no"?>
<!-- Created with Inkscape (http://www.inkscape.org/) -->

<svg
   width="134.4895mm"
   height="123.70557mm"
   viewBox="0 0 134.4895 123.70558"
   version="1.1"
   id="svg5"
   sodipodi:docname="raices.svg"
   inkscape:version="1.2.2 (b0a8486541, 2022-12-01)"
   xmlns:inkscape="http://www.inkscape.org/namespaces/inkscape"
   xmlns:sodipodi="http://sodipodi.sourceforge.net/DTD/sodipodi-0.dtd"
   xmlns="http://www.w3.org/2000/svg"
   xmlns:svg="http://www.w3.org/2000/svg">
  <sodipodi:namedview
     id="namedview7"
     pagecolor="#ffffff"
     bordercolor="#666666"
     borderopacity="1.0"
     inkscape:showpageshadow="2"
     inkscape:pageopacity="0.0"
     inkscape:pagecheckerboard="0"
     inkscape:deskcolor="#d1d1d1"
     inkscape:document-units="mm"
     showgrid="false"
     inkscape:zoom="2.1190784"
     inkscape:cx="214.71598"
     inkscape:cy="177.43563"
     inkscape:window-width="1920"
     inkscape:window-height="1021"
     inkscape:window-x="0"
     inkscape:window-y="0"
     inkscape:window-maximized="1"
     inkscape:current-layer="layer1"
     showguides="true" />
  <defs
     id="defs2">
    <marker
       style="overflow:visible"
       id="marker2749"
       refX="0"
       refY="0"
       orient="auto-start-reverse"
       inkscape:stockid="Arrow2"
       markerWidth="7.6999998"
       markerHeight="5.5999999"
       viewBox="0 0 7.7 5.6"
       inkscape:isstock="true"
       inkscape:collect="always"
       preserveAspectRatio="xMidYMid">
      <path
         transform="scale(0.7)"
         d="M -2,-4 9,0 -2,4 c 2,-2.33 2,-5.66 0,-8 z"
         style="fill:context-stroke;fill-rule:evenodd;stroke:none"
         id="path2747" />
    </marker>
    <marker
       style="overflow:visible"
       id="Arrow2"
       refX="0"
       refY="0"
       orient="auto-start-reverse"
       inkscape:stockid="Arrow2"
       markerWidth="7.6999998"
       markerHeight="5.5999999"
       viewBox="0 0 7.7 5.6"
       inkscape:isstock="true"
       inkscape:collect="always"
       preserveAspectRatio="xMidYMid">
      <path
         transform="scale(0.7)"
         d="M -2,-4 9,0 -2,4 c 2,-2.33 2,-5.66 0,-8 z"
         style="fill:context-stroke;fill-rule:evenodd;stroke:none"
         id="arrow2L" />
    </marker>
    <clipPath
       id="clipPath4853">
      <path
         d="M 0,0 H 13 V 10.671875 H 0 Z m 0,0"
         id="path4400" />
    </clipPath>
    <clipPath
       id="clipPath3776">
      <path
         d="M 0,0 H 12 V 15.492188 H 0 Z m 0,0"
         id="path5489" />
    </clipPath>
    <clipPath
       id="clipPath1210">
      <path
         d="m 87,0 h 20 V 21.070312 H 87 Z m 0,0"
         id="path3698" />
    </clipPath>
    <clipPath
       id="clipPath2899">
      <path
         d="M 2,0 H 8 V 24.742188 H 2 Z m 0,0"
         id="path7428" />
    </clipPath>
    <clipPath
       id="clipPath5012">
      <path
         d="m 43,0 h 6 v 24.742188 h -6 z m 0,0"
         id="path7394" />
    </clipPath>
    <clipPath
       id="clipPath4318">
      <path
         d="M 2,0 H 8 V 24.742188 H 2 Z m 0,0"
         id="path4013" />
    </clipPath>
    <clipPath
       id="clipPath9070">
      <path
         d="m 43,0 h 6 v 24.742188 h -6 z m 0,0"
         id="path8427" />
    </clipPath>
    <clipPath
       id="clipPath5580">
      <path
         d="M 2,0 H 8 V 24.742188 H 2 Z m 0,0"
         id="path734" />
    </clipPath>
    <clipPath
       id="clipPath6734">
      <path
         d="m 43,0 h 6 v 24.742188 h -6 z m 0,0"
         id="path28" />
    </clipPath>
    <clipPath
       id="clipPath7186">
      <path
         d="m 13,0 h 6 v 24.742188 h -6 z m 0,0"
         id="path8583" />
    </clipPath>
    <clipPath
       id="clipPath3059">
      <path
         d="M 0,0 H 11 V 17.214844 H 0 Z m 0,0"
         id="path1140" />
    </clipPath>
    <clipPath
       id="clipPath4234">
      <path
         d="M 0,0 H 11 V 10.671875 H 0 Z m 0,0"
         id="path2197" />
    </clipPath>
    <clipPath
       id="clipPath8378">
      <path
         d="M 45,0 H 68 V 29.648438 H 45 Z m 0,0"
         id="path1509" />
    </clipPath>
    <clipPath
       id="clipPath7939">
      <path
         d="m 66,0 h 73.29687 V 2 H 66 Z m 0,0"
         id="path2235" />
    </clipPath>
    <clipPath
       id="clipPath8047">
      <path
         d="m 27,0 h 2 v 24.785156 h -2 z m 0,0"
         id="path7296" />
    </clipPath>
    <clipPath
       id="clipPath7398">
      <path
         d="m 98,0 h 2 v 24.785156 h -2 z m 0,0"
         id="path8295" />
    </clipPath>
    <clipPath
       id="clipPath3176">
      <path
         d="m 77,0 h 7 v 24.742188 h -7 z m 0,0"
         id="path5542" />
    </clipPath>
    <clipPath
       id="clipPath8402">
      <path
         d="m 97,0 h 7 v 24.742188 h -7 z m 0,0"
         id="path5055" />
    </clipPath>
    <clipPath
       id="clipPath6132">
      <path
         d="M 2,0 H 8 V 24.742188 H 2 Z m 0,0"
         id="path3493" />
    </clipPath>
    <clipPath
       id="clipPath9063">
      <path
         d="m 47,0 h 6 v 24.742188 h -6 z m 0,0"
         id="path4727" />
    </clipPath>
    <clipPath
       id="clipPath3248">
      <path
         d="M 2,0 H 8 V 24.742188 H 2 Z m 0,0"
         id="path4995" />
    </clipPath>
    <clipPath
       id="clipPath2465">
      <path
         d="m 43,0 h 6 v 24.742188 h -6 z m 0,0"
         id="path9569" />
    </clipPath>
    <clipPath
       id="clipPath9195">
      <path
         d="M 63,0 H 86 V 29.648438 H 63 Z m 0,0"
         id="path5826" />
    </clipPath>
    <clipPath
       id="clipPath2813">
      <path
         d="m 84,0 h 73.14062 V 2 H 84 Z m 0,0"
         id="path7576" />
    </clipPath>
    <clipPath
       id="clipPath919">
      <path
         d="M 1,0 H 12 V 10.671875 H 1 Z m 0,0"
         id="path7796" />
    </clipPath>
    <clipPath
       id="clipPath7695">
      <path
         d="M 1,2 H 12 V 13.871094 H 1 Z m 0,0"
         id="path5258" />
    </clipPath>
    <clipPath
       id="clipPath5663">
      <path
         d="M 2,0 H 22 V 16.644531 H 2 Z m 0,0"
         id="path4626" />
    </clipPath>
    <clipPath
       id="clipPath4487">
      <path
         d="M 0,0 H 22 V 16.644531 H 0 Z m 0,0"
         id="path3502" />
    </clipPath>
    <clipPath
       id="clipPath316">
      <path
         d="M 2,0 H 19 V 24.785156 H 2 Z m 0,0"
         id="path8831" />
    </clipPath>
    <clipPath
       id="clipPath2706">
      <path
         d="M 47,0 H 57 V 24.785156 H 47 Z m 0,0"
         id="path1047" />
    </clipPath>
    <clipPath
       id="clipPath143">
      <path
         d="M 59,0 H 88 V 24.785156 H 59 Z m 0,0"
         id="path8180" />
    </clipPath>
    <clipPath
       id="clipPath7646">
      <path
         d="M 34,28 H 54 V 44.445312 H 34 Z m 0,0"
         id="path5149" />
    </clipPath>
    <clipPath
       id="clipPath7468">
      <path
         d="M 39,28 H 60 V 44.71875 H 39 Z m 0,0"
         id="path6400" />
    </clipPath>
    <clipPath
       id="clipPath4555">
      <path
         d="M 4,0 H 17 V 57.386719 H 4 Z m 0,0"
         id="path1749" />
    </clipPath>
    <clipPath
       id="clipPath8582">
      <path
         d="M 69,0 H 81 V 57.386719 H 69 Z m 0,0"
         id="path1265" />
    </clipPath>
  </defs>
  <g
     inkscape:label="Capa 1"
     inkscape:groupmode="layer"
     id="layer1"
     transform="translate(-16.759667,-48.624399)">
    <path
       style="fill:none;stroke:#000000;stroke-width:1;stroke-linecap:round;stroke-linejoin:miter;stroke-dasharray:none;stroke-opacity:1;marker-end:url(#Arrow2)"
       d="M 79.915617,171.82997 V 54.924399"
       id="path223" />
    <path
       style="fill:none;stroke:#000000;stroke-width:1;stroke-linecap:round;stroke-linejoin:miter;stroke-dasharray:none;stroke-opacity:1;marker-end:url(#Arrow2)"
       d="M 17.259667,114.20427 H 143.29759"
       id="path1121" />
    <g
       inkscape:label=""
       transform="translate(141.21159,120.01036)"
       id="g1603">
      <g
         id="g1601"
         transform="matrix(0.352778,0,0,0.352778,-0.242535,0.0881504)">
        <g
           clip-path="url(#clipPath4853)"
           clip-rule="nonzero"
           id="g19">
          <g
             style="fill:#000000;fill-opacity:1"
             id="g17">
            <g
               id="use15"
               transform="translate(0,10.672)">
              <path
                 style="stroke:none"
                 d="m 11.75,-10.109375 c -0.796875,0.140625 -1.09375,0.734375 -1.09375,1.21875 0,0.59375 0.46875,0.78125 0.8125,0.78125 0.75,0 1.265625,-0.640625 1.265625,-1.3125 0,-1.03125 -1.1875,-1.5 -2.234375,-1.5 -1.5,0 -2.34375,1.484375 -2.5625,1.953125 -0.578125,-1.859375 -2.109375,-1.953125 -2.5625,-1.953125 -2.53125,0 -3.859375,3.234375 -3.859375,3.78125 0,0.109375 0.09375,0.234375 0.265625,0.234375 0.203125,0 0.25,-0.15625 0.296875,-0.25 0.84375,-2.75 2.5,-3.28125 3.21875,-3.28125 1.125,0 1.34375,1.046875 1.34375,1.640625 C 6.640625,-8.25 6.5,-7.6875 6.1875,-6.5 l -0.828125,3.40625 c -0.375,1.484375 -1.09375,2.84375 -2.40625,2.84375 -0.125,0 -0.75,0 -1.265625,-0.3125 0.890625,-0.1875 1.09375,-0.921875 1.09375,-1.21875 0,-0.5 -0.375,-0.796875 -0.84375,-0.796875 -0.59375,0 -1.25,0.515625 -1.25,1.3125 0,1.046875 1.171875,1.515625 2.234375,1.515625 1.1875,0 2.03125,-0.9375 2.5625,-1.953125 C 5.875,-0.25 7.109375,0.25 8.03125,0.25 c 2.53125,0 3.859375,-3.25 3.859375,-3.796875 0,-0.125 -0.09375,-0.21875 -0.25,-0.21875 -0.21875,0 -0.234375,0.125 -0.3125,0.328125 -0.671875,2.171875 -2.109375,3.1875 -3.21875,3.1875 -0.875,0 -1.34375,-0.640625 -1.34375,-1.65625 0,-0.546875 0.09375,-0.9375 0.5,-2.578125 L 8.125,-7.859375 C 8.5,-9.34375 9.34375,-10.4375 10.484375,-10.4375 c 0.04687,0 0.734375,0 1.265625,0.328125 z m 0,0"
                 id="path26" />
            </g>
          </g>
        </g>
      </g>
    </g>
    <g
       inkscape:label=""
       transform="translate(70.147037,56.284685)"
       id="g1679">
      <g
         id="g1677"
         transform="matrix(0.352778,0,0,0.352778,-0.237023,0.0881504)">
        <g
           clip-path="url(#clipPath3776)"
           clip-rule="nonzero"
           id="g1675">
          <g
             style="fill:#000000;fill-opacity:1"
             id="g1673">
            <g
               id="g1671"
               transform="translate(0,10.672)">
              <path
                 style="stroke:none"
                 d="M 6.515625,2.78125 C 5.84375,3.71875 4.875,4.5625 3.671875,4.5625 3.375,4.5625 2.1875,4.515625 1.8125,3.375 1.890625,3.390625 2,3.390625 2.0625,3.390625 2.796875,3.390625 3.296875,2.75 3.296875,2.1875 3.296875,1.609375 2.828125,1.40625 2.453125,1.40625 2.0625,1.40625 1.1875,1.703125 1.1875,2.921875 1.1875,4.1875 2.25,5.0625 3.671875,5.0625 c 2.46875,0 4.984375,-2.28125 5.671875,-5.03125 l 2.421875,-9.671875 c 0.03125,-0.125 0.07813,-0.265625 0.07813,-0.421875 0,-0.375 -0.296875,-0.625 -0.671875,-0.625 -0.21875,0 -0.734375,0.109375 -0.9375,0.84375 l -1.82813,7.296875 c -0.125,0.4375 -0.125,0.484375 -0.328125,0.765625 -0.5,0.6875 -1.3125,1.53125 -2.5,1.53125 C 4.1875,-0.25 4.0625,-1.609375 4.0625,-2.28125 c 0,-1.40625 0.671875,-3.3125 1.34375,-5.109375 0.265625,-0.71875 0.421875,-1.0625 0.421875,-1.5625 0,-1.03125 -0.75,-1.96875 -1.96875,-1.96875 -2.265625,0 -3.1875,3.59375 -3.1875,3.78125 0,0.109375 0.09375,0.234375 0.265625,0.234375 0.234375,0 0.25,-0.109375 0.34375,-0.453125 0.609375,-2.078125 1.546875,-3.078125 2.515625,-3.078125 0.21875,0 0.640625,0 0.640625,0.828125 0,0.640625 -0.28125,1.359375 -0.640625,2.296875 -1.21875,3.25 -1.21875,4.0625 -1.21875,4.65625 0,2.359375 1.6875,2.90625 2.921875,2.90625 0.71875,0 1.609375,-0.21875 2.484375,-1.140625 L 8,-0.875 C 7.625,0.59375 7.390625,1.5625 6.515625,2.78125 Z m 0,0"
                 id="path1669" />
            </g>
          </g>
        </g>
      </g>
    </g>
    <circle
       style="fill:none;stroke:#000000;stroke-width:0.564999;stroke-linecap:round;stroke-opacity:1"
       id="path331"
       cx="80.112785"
       cy="114.08646"
       r="47.971825" />
    <path
       style="fill:none;stroke:#ff0000;stroke-width:0.7;stroke-linecap:round;stroke-linejoin:miter;stroke-dasharray:none;stroke-opacity:1;marker-end:url(#marker2749)"
       d="M 80.07452,113.8416 91.330378,72.050269"
       id="path2861" />
    <path
       style="fill:none;stroke:#ff0000;stroke-width:0.7;stroke-linecap:round;stroke-linejoin:miter;stroke-dasharray:none;stroke-opacity:1;marker-end:url(#marker2749)"
       d="M 79.84317,114.07092 49.365751,83.332542"
       id="path2863" />
    <path
       style="fill:none;stroke:#ff0000;stroke-width:0.7;stroke-linecap:round;stroke-linejoin:miter;stroke-dasharray:none;stroke-opacity:1;marker-end:url(#marker2749)"
       d="M 79.867474,114.28039 37.678879,125.58478"
       id="path2865" />
    <path
       style="fill:none;stroke:#ff0000;stroke-width:0.7;stroke-linecap:round;stroke-linejoin:miter;stroke-dasharray:none;stroke-opacity:1;marker-end:url(#marker2749)"
       d="M 79.948722,114.19792 68.644314,156.38651"
       id="path2867" />
    <path
       style="fill:none;stroke:#ff0000;stroke-width:0.7;stroke-linecap:round;stroke-linejoin:miter;stroke-dasharray:none;stroke-opacity:1;marker-end:url(#marker2749)"
       d="m 80.084242,114.22112 30.884188,30.8842"
       id="path2869" />
    <path
       style="fill:none;stroke:#000000;stroke-width:0.465;stroke-linecap:round;stroke-linejoin:miter;stroke-dasharray:none;stroke-opacity:1"
       d="m 98.147729,109.6304 c 1.31192,1.35491 1.102897,2.73988 0.666976,4.12934"
       id="path2871"
       sodipodi:nodetypes="cc" />
    <path
       style="fill:none;stroke:#ff0000;stroke-width:0.7;stroke-linecap:round;stroke-linejoin:miter;stroke-dasharray:none;stroke-opacity:1;marker-end:url(#marker2749)"
       d="m 80.032353,114.15214 42.188587,-11.3044"
       id="path2554" />
    <g
       inkscape:label=""
       transform="translate(109.12926,106.8725)"
       id="g3690">
      <g
         id="surface1"
         transform="matrix(0.352778,0,0,0.352778,-0.760677,-0.00366008)">
        <g
           clip-path="url(#clipPath5663)"
           clip-rule="nonzero"
           id="g30">
          <g
             style="fill:#000000;fill-opacity:1"
             id="g28">
            <g
               id="use24"
               transform="translate(0,16.646)">
              <path
                 style="stroke:none"
                 d="m 6.59375,-15.828125 c 0,-0.53125 -0.03125,-0.546875 -0.375,-0.546875 -0.96875,1.15625 -2.421875,1.53125 -3.8125,1.578125 -0.078125,0 -0.203125,0 -0.21875,0.04687 -0.03125,0.0625 -0.03125,0.109375 -0.03125,0.625 0.765625,0 2.0625,-0.15625 3.046875,-0.75 v 13.0625 c 0,0.875 -0.046875,1.171875 -2.1875,1.171875 H 2.28125 V 0 c 1.1875,-0.03125 2.421875,-0.046875 3.609375,-0.046875 1.203125,0 2.4375,0.015625 3.625,0.046875 v -0.640625 h -0.75 c -2.125,0 -2.171875,-0.28125 -2.171875,-1.171875 z m 0,0"
                 id="path41" />
            </g>
            <g
               id="use26"
               transform="translate(11.367364,16.646)">
              <path
                 style="stroke:none"
                 d="m 2.828125,-14.5 c 0.25,0.109375 1.265625,0.421875 2.296875,0.421875 2.3125,0 3.578125,-1.234375 4.296875,-1.953125 0,-0.203125 0,-0.328125 -0.15625,-0.328125 -0.015625,0 -0.078125,0 -0.265625,0.109375 -0.875,0.359375 -1.890625,0.65625 -3.125,0.65625 -0.75,0 -1.859375,-0.09375 -3.078125,-0.640625 -0.265625,-0.125 -0.3125,-0.125 -0.34375,-0.125 -0.125,0 -0.15625,0.03125 -0.15625,0.53125 v 7.171875 c 0,0.453125 0,0.578125 0.25,0.578125 0.125,0 0.171875,-0.046875 0.296875,-0.21875 0.796875,-1.125 1.890625,-1.59375 3.125,-1.59375 0.875,0 2.734375,0.546875 2.734375,4.78125 0,0.796875 0,2.234375 -0.75,3.375 -0.625,1.015625 -1.578125,1.53125 -2.65625,1.53125 C 3.671875,-0.203125 2,-1.34375 1.5625,-3.25 c 0.09375,0.03125 0.296875,0.078125 0.390625,0.078125 0.328125,0 0.953125,-0.171875 0.953125,-0.9375 0,-0.671875 -0.484375,-0.953125 -0.953125,-0.953125 -0.5625,0 -0.9375,0.359375 -0.9375,1.046875 0,2.15625 1.703125,4.40625 4.34375,4.40625 2.546875,0 4.96875,-2.203125 4.96875,-5.390625 0,-2.984375 -1.921875,-5.28125 -4.328125,-5.28125 -1.265625,0 -2.328125,0.46875 -3.171875,1.359375 z m 0,0"
                 id="path45" />
            </g>
          </g>
        </g>
        <g
           style="fill:#000000;fill-opacity:1"
           id="g34">
          <g
             id="use32"
             transform="translate(22.736,7.651)">
            <path
               style="stroke:none"
               d="m 7.640625,-4.3125 c 0,-1.828125 -1.53125,-3.328125 -3.328125,-3.328125 -1.875,0 -3.359375,1.53125 -3.359375,3.328125 0,1.828125 1.484375,3.34375 3.359375,3.34375 1.796875,0 3.328125,-1.5 3.328125,-3.34375 z M 4.3125,-1.65625 c -1.5,0 -2.671875,-1.203125 -2.671875,-2.65625 0,-1.4375 1.1875,-2.640625 2.671875,-2.640625 1.421875,0 2.640625,1.171875 2.640625,2.640625 0,1.484375 -1.21875,2.65625 -2.640625,2.65625 z m 0,0"
               id="path49" />
          </g>
        </g>
      </g>
    </g>
    <path
       style="fill:none;stroke:#000000;stroke-width:0.465;stroke-linecap:butt;stroke-linejoin:miter;stroke-dasharray:none;stroke-opacity:1"
       d="m 83.105166,103.83892 c 3.793661,0.50424 6.657469,2.29143 6.941026,7.63866"
       id="path4125"
       sodipodi:nodetypes="cc" />
    <g
       inkscape:label=""
       transform="translate(89.122301,99.221798)"
       id="g4714">
      <g
         id="g4712"
         transform="matrix(0.352778,0,0,0.352778,-0.330729,-0.00366008)">
        <g
           clip-path="url(#clipPath4487)"
           clip-rule="nonzero"
           id="g4704">
          <g
             style="fill:#000000;fill-opacity:1"
             id="g4702">
            <g
               id="g4696"
               transform="translate(0,16.646)">
              <path
                 style="stroke:none"
                 d="m 2.625,-8.546875 c 0,-5.921875 2.78125,-7.265625 4.390625,-7.265625 0.515625,0 1.78125,0.09375 2.28125,1.0625 -0.40625,0 -1.140625,0 -1.140625,0.875 0,0.671875 0.546875,0.890625 0.890625,0.890625 0.21875,0 0.890625,-0.09375 0.890625,-0.9375 0,-1.5625 -1.234375,-2.453125 -2.953125,-2.453125 -2.9375,0 -6.046875,3.0625 -6.046875,8.546875 0,6.734375 2.796875,8.21875 4.78125,8.21875 2.40625,0 4.6875,-2.15625 4.6875,-5.46875 0,-3.09375 -2,-5.359375 -4.53125,-5.359375 -1.515625,0 -2.625,1 -3.25,2.734375 z m 3.09375,8.34375 c -3.046875,0 -3.046875,-4.5625 -3.046875,-5.46875 0,-1.78125 0.84375,-4.359375 3.15625,-4.359375 0.421875,0 1.625,0 2.453125,1.703125 0.4375,0.96875 0.4375,1.984375 0.4375,3.21875 0,1.34375 0,2.328125 -0.515625,3.328125 -0.546875,1.015625 -1.34375,1.578125 -2.484375,1.578125 z m 0,0"
                 id="path4694" />
            </g>
            <g
               id="g4700"
               transform="translate(11.367364,16.646)">
              <path
                 style="stroke:none"
                 d="m 10.40625,-7.953125 c 0,-1.515625 -0.01563,-4.09375 -1.0625,-6.078125 -0.921875,-1.734375 -2.375,-2.34375 -3.671875,-2.34375 -1.1875,0 -2.703125,0.546875 -3.640625,2.328125 -0.984375,1.859375 -1.09375,4.15625 -1.09375,6.09375 0,1.40625 0.03125,3.5625 0.796875,5.453125 1.0625,2.546875 2.96875,2.890625 3.9375,2.890625 1.140625,0 2.875,-0.46875 3.890625,-2.8125 0.75,-1.71875 0.84375,-3.71875 0.84375,-5.53125 z M 5.671875,0 C 4.09375,0 3.140625,-1.359375 2.796875,-3.25 2.53125,-4.703125 2.53125,-6.84375 2.53125,-8.234375 c 0,-1.90625 0,-3.484375 0.3125,-5 0.484375,-2.109375 1.859375,-2.75 2.828125,-2.75 1.015625,0 2.328125,0.671875 2.796875,2.703125 0.328125,1.40625 0.359375,3.078125 0.359375,5.046875 0,1.625 0,3.59375 -0.296875,5.0625 C 8,-0.46875 6.546875,0 5.671875,0 Z m 0,0"
                 id="path4698" />
            </g>
          </g>
        </g>
        <g
           style="fill:#000000;fill-opacity:1"
           id="g4710">
          <g
             id="g4708"
             transform="translate(22.736,7.651)">
            <path
               style="stroke:none"
               d="m 7.640625,-4.3125 c 0,-1.828125 -1.53125,-3.328125 -3.328125,-3.328125 -1.875,0 -3.359375,1.53125 -3.359375,3.328125 0,1.828125 1.484375,3.34375 3.359375,3.34375 1.796875,0 3.328125,-1.5 3.328125,-3.34375 z M 4.3125,-1.65625 c -1.5,0 -2.671875,-1.203125 -2.671875,-2.65625 0,-1.4375 1.1875,-2.640625 2.671875,-2.640625 1.421875,0 2.640625,1.171875 2.640625,2.640625 0,1.484375 -1.21875,2.65625 -2.640625,2.65625 z m 0,0"
               id="path4706" />
          </g>
        </g>
      </g>
    </g>
    <path
       style="fill:none;stroke:#000000;stroke-width:0.465;stroke-linecap:butt;stroke-linejoin:miter;stroke-dasharray:none;stroke-opacity:1"
       d="m 73.166796,106.66081 c 2.050873,-3.2311 4.87555,-5.07952 9.847433,-3.09113"
       id="path5868"
       sodipodi:nodetypes="cc" />
    <g
       inkscape:label=""
       transform="translate(68.805522,93.664539)"
       id="g5890">
      <g
         id="g5888"
         transform="matrix(0.352778,0,0,0.352778,-0.330729,-0.00366008)">
        <g
           clip-path="url(#clipPath4487)"
           clip-rule="nonzero"
           id="g5880">
          <g
             style="fill:#000000;fill-opacity:1"
             id="g5878">
            <g
               id="g5872"
               transform="translate(0,16.646)">
              <path
                 style="stroke:none"
                 d="m 2.625,-8.546875 c 0,-5.921875 2.78125,-7.265625 4.390625,-7.265625 0.515625,0 1.78125,0.09375 2.28125,1.0625 -0.40625,0 -1.140625,0 -1.140625,0.875 0,0.671875 0.546875,0.890625 0.890625,0.890625 0.21875,0 0.890625,-0.09375 0.890625,-0.9375 0,-1.5625 -1.234375,-2.453125 -2.953125,-2.453125 -2.9375,0 -6.046875,3.0625 -6.046875,8.546875 0,6.734375 2.796875,8.21875 4.78125,8.21875 2.40625,0 4.6875,-2.15625 4.6875,-5.46875 0,-3.09375 -2,-5.359375 -4.53125,-5.359375 -1.515625,0 -2.625,1 -3.25,2.734375 z m 3.09375,8.34375 c -3.046875,0 -3.046875,-4.5625 -3.046875,-5.46875 0,-1.78125 0.84375,-4.359375 3.15625,-4.359375 0.421875,0 1.625,0 2.453125,1.703125 0.4375,0.96875 0.4375,1.984375 0.4375,3.21875 0,1.34375 0,2.328125 -0.515625,3.328125 -0.546875,1.015625 -1.34375,1.578125 -2.484375,1.578125 z m 0,0"
                 id="path5870" />
            </g>
            <g
               id="g5876"
               transform="translate(11.367364,16.646)">
              <path
                 style="stroke:none"
                 d="m 10.40625,-7.953125 c 0,-1.515625 -0.01563,-4.09375 -1.0625,-6.078125 -0.921875,-1.734375 -2.375,-2.34375 -3.671875,-2.34375 -1.1875,0 -2.703125,0.546875 -3.640625,2.328125 -0.984375,1.859375 -1.09375,4.15625 -1.09375,6.09375 0,1.40625 0.03125,3.5625 0.796875,5.453125 1.0625,2.546875 2.96875,2.890625 3.9375,2.890625 1.140625,0 2.875,-0.46875 3.890625,-2.8125 0.75,-1.71875 0.84375,-3.71875 0.84375,-5.53125 z M 5.671875,0 C 4.09375,0 3.140625,-1.359375 2.796875,-3.25 2.53125,-4.703125 2.53125,-6.84375 2.53125,-8.234375 c 0,-1.90625 0,-3.484375 0.3125,-5 0.484375,-2.109375 1.859375,-2.75 2.828125,-2.75 1.015625,0 2.328125,0.671875 2.796875,2.703125 0.328125,1.40625 0.359375,3.078125 0.359375,5.046875 0,1.625 0,3.59375 -0.296875,5.0625 C 8,-0.46875 6.546875,0 5.671875,0 Z m 0,0"
                 id="path5874" />
            </g>
          </g>
        </g>
        <g
           style="fill:#000000;fill-opacity:1"
           id="g5886">
          <g
             id="g5884"
             transform="translate(22.736,7.651)">
            <path
               style="stroke:none"
               d="m 7.640625,-4.3125 c 0,-1.828125 -1.53125,-3.328125 -3.328125,-3.328125 -1.875,0 -3.359375,1.53125 -3.359375,3.328125 0,1.828125 1.484375,3.34375 3.359375,3.34375 1.796875,0 3.328125,-1.5 3.328125,-3.34375 z M 4.3125,-1.65625 c -1.5,0 -2.671875,-1.203125 -2.671875,-2.65625 0,-1.4375 1.1875,-2.640625 2.671875,-2.640625 1.421875,0 2.640625,1.171875 2.640625,2.640625 0,1.484375 -1.21875,2.65625 -2.640625,2.65625 z m 0,0"
               id="path5882" />
          </g>
        </g>
      </g>
    </g>
    <g
       inkscape:label=""
       transform="translate(127.51158,91.613805)"
       id="g9501">
      <g
         id="g9499"
         transform="matrix(0.352778,0,0,0.352778,-1.51584,-0.00101423)">
        <g
           style="fill:#000000;fill-opacity:1"
           id="g38">
          <g
             id="use36"
             transform="translate(0,0.95599997)">
            <path
               style="stroke:none"
               d="m 12.3125,41.78125 c 0.04687,0.03125 0.265625,0.265625 0.28125,0.265625 H 13.125 c 0.07813,0 0.265625,-0.01563 0.265625,-0.234375 0,-0.09375 -0.04687,-0.140625 -0.09375,-0.21875 C 12.4375,40.734375 11.140625,39.421875 9.65625,36.796875 7.078125,32.203125 6.125,26.296875 6.125,20.5625 c 0,-10.625 3,-16.859375 7.1875,-21.09375 0.07813,-0.0625 0.07813,-0.140625 0.07813,-0.1875 0,-0.234375 -0.171875,-0.234375 -0.453125,-0.234375 -0.3125,0 -0.359375,0 -0.578125,0.1875 C 10.09375,1.1875 7.53125,4.515625 5.875,9.5625 c -1.015625,3.15625 -1.578125,7 -1.578125,10.96875 0,5.671875 1.03125,12.078125 4.78125,17.625 0.65625,0.9375 1.53125,1.90625 1.53125,1.9375 0.25,0.28125 0.578125,0.671875 0.765625,0.828125 z m 0,0"
               id="path71" />
          </g>
        </g>
        <g
           style="fill:#000000;fill-opacity:1"
           id="g42">
          <g
             id="use40"
             transform="translate(14.28,27.716)">
            <path
               style="stroke:none"
               d="m 6.59375,-15.828125 c 0,-0.53125 -0.03125,-0.546875 -0.375,-0.546875 -0.96875,1.15625 -2.421875,1.53125 -3.8125,1.578125 -0.078125,0 -0.203125,0 -0.21875,0.04687 -0.03125,0.0625 -0.03125,0.109375 -0.03125,0.625 0.765625,0 2.0625,-0.15625 3.046875,-0.75 v 13.0625 c 0,0.875 -0.046875,1.171875 -2.1875,1.171875 H 2.28125 V 0 c 1.1875,-0.03125 2.421875,-0.046875 3.609375,-0.046875 1.203125,0 2.4375,0.015625 3.625,0.046875 v -0.640625 h -0.75 c -2.125,0 -2.171875,-0.28125 -2.171875,-1.171875 z m 0,0"
               id="path75" />
          </g>
        </g>
        <g
           style="fill:#000000;fill-opacity:1"
           id="g46">
          <g
             id="use44"
             transform="translate(25.648001,27.716)">
            <path
               style="stroke:none"
               d="m 4.828125,0.09375 c 0,-1.4375 -0.46875,-2.5 -1.484375,-2.5 -0.796875,0 -1.1875,0.640625 -1.1875,1.1875 C 2.15625,-0.671875 2.53125,0 3.375,0 3.6875,0 3.96875,-0.09375 4.1875,-0.328125 4.234375,-0.375 4.265625,-0.375 4.28125,-0.375 c 0.0625,0 0.0625,0.34375 0.0625,0.46875 0,0.828125 -0.15625,2.4375 -1.59375,4.046875 C 2.484375,4.4375 2.484375,4.484375 2.484375,4.53125 c 0,0.125 0.125,0.25 0.234375,0.25 0.203125,0 2.109375,-1.828125 2.109375,-4.6875 z m 0,0"
               id="path79" />
          </g>
        </g>
        <g
           style="fill:#000000;fill-opacity:1"
           id="g50">
          <g
             id="use48"
             transform="translate(41.755001,10.948)">
            <path
               style="stroke:none"
               d="M 6.421875,-9.34375 H 9.21875 C 8.546875,-6.5625 8.125,-4.765625 8.125,-2.78125 c 0,0.359375 0,3.03125 1.015625,3.03125 0.53125,0 0.96875,-0.46875 0.96875,-0.890625 0,-0.125 0,-0.171875 -0.171875,-0.546875 -0.671875,-1.71875 -0.671875,-3.84375 -0.671875,-4.015625 0,-0.15625 0,-1.90625 0.515625,-4.140625 h 2.78125 c 0.328125,0 1.140625,0 1.140625,-0.796875 0,-0.546875 -0.46875,-0.546875 -0.921875,-0.546875 H 4.640625 c -0.578125,0 -1.421875,0 -2.5625,1.21875 -0.640625,0.71875 -1.4375,2.03125 -1.4375,2.1875 0,0.140625 0.125,0.1875 0.28125,0.1875 0.171875,0 0.1875,-0.0625 0.3125,-0.21875 C 2.53125,-9.34375 3.8125,-9.34375 4.4375,-9.34375 H 5.84375 C 5.296875,-7.484375 4.6875,-5.328125 2.65625,-0.984375 2.453125,-0.59375 2.453125,-0.546875 2.453125,-0.390625 2.453125,0.125 2.90625,0.25 3.125,0.25 3.84375,0.25 4.046875,-0.390625 4.34375,-1.4375 4.734375,-2.703125 4.734375,-2.75 4.984375,-3.734375 Z m 0,0"
               id="path83" />
          </g>
        </g>
        <path
           style="fill:none;stroke:#000000;stroke-width:0.956;stroke-linecap:butt;stroke-linejoin:miter;stroke-miterlimit:10;stroke-opacity:1"
           d="M -0.00115625,4.6875e-4 H 22.737125"
           transform="matrix(1,0,0,-1,37.716,21.52)"
           id="path52" />
        <g
           clip-path="url(#clipPath7468)"
           clip-rule="nonzero"
           id="g60">
          <g
             style="fill:#000000;fill-opacity:1"
             id="g58">
            <g
               id="use54"
               transform="translate(37.716,44.719002)">
              <path
                 style="stroke:none"
                 d="m 6.59375,-15.828125 c 0,-0.53125 -0.03125,-0.546875 -0.375,-0.546875 -0.96875,1.15625 -2.421875,1.53125 -3.8125,1.578125 -0.078125,0 -0.203125,0 -0.21875,0.04687 -0.03125,0.0625 -0.03125,0.109375 -0.03125,0.625 0.765625,0 2.0625,-0.15625 3.046875,-0.75 v 13.0625 c 0,0.875 -0.046875,1.171875 -2.1875,1.171875 H 2.28125 V 0 c 1.1875,-0.03125 2.421875,-0.046875 3.609375,-0.046875 1.203125,0 2.4375,0.015625 3.625,0.046875 v -0.640625 h -0.75 c -2.125,0 -2.171875,-0.28125 -2.171875,-1.171875 z m 0,0"
                 id="path87" />
            </g>
            <g
               id="use56"
               transform="translate(49.083363,44.719002)">
              <path
                 style="stroke:none"
                 d="m 10.328125,-3.84375 h -0.4375 C 9.640625,-2.078125 9.4375,-1.78125 9.34375,-1.640625 9.21875,-1.4375 7.4375,-1.4375 7.09375,-1.4375 H 2.328125 c 0.890625,-0.96875 2.625,-2.71875 4.734375,-4.75 1.515625,-1.4375 3.265625,-3.125 3.265625,-5.578125 C 10.328125,-14.6875 8,-16.375 5.40625,-16.375 c -2.734375,0 -4.390625,2.390625 -4.390625,4.625 0,0.96875 0.71875,1.09375 1.015625,1.09375 0.25,0 0.984375,-0.140625 0.984375,-1.015625 0,-0.765625 -0.640625,-0.984375 -0.984375,-0.984375 -0.140625,0 -0.296875,0.01563 -0.390625,0.0625 0.46875,-2.09375 1.90625,-3.140625 3.421875,-3.140625 2.15625,0 3.5625,1.703125 3.5625,3.96875 0,2.15625 -1.265625,4.015625 -2.671875,5.625 L 1.015625,-0.5625 V 0 h 8.71875 z m 0,0"
                 id="path91" />
            </g>
          </g>
        </g>
        <g
           style="fill:#000000;fill-opacity:1"
           id="g64">
          <g
             id="use62"
             transform="translate(61.646999,0.95599997)">
            <path
               style="stroke:none"
               d="M 9.9375,20.53125 C 9.9375,13.671875 8.34375,6.390625 3.640625,1 3.296875,0.625 2.421875,-0.3125 1.84375,-0.8125 1.671875,-0.953125 1.625,-0.953125 1.3125,-0.953125 c -0.234375,0 -0.453125,0 -0.453125,0.234375 0,0.09375 0.09375,0.1875 0.140625,0.234375 0.8125,0.84375 2.109375,2.15625 3.59375,4.78125 2.578125,4.59375 3.53125,10.5 3.53125,16.234375 0,10.375 -2.859375,16.71875 -7.171875,21.09375 -0.046875,0.04687 -0.09375,0.109375 -0.09375,0.1875 0,0.234375 0.21875,0.234375 0.453125,0.234375 0.3125,0 0.359375,0 0.578125,-0.1875 C 4.15625,39.90625 6.71875,36.578125 8.359375,31.53125 9.421875,28.25 9.9375,24.390625 9.9375,20.53125 Z m 0,0"
               id="path95" />
          </g>
        </g>
      </g>
    </g>
    <g
       inkscape:label=""
       transform="translate(18.760715,62.658268)"
       id="g10636">
      <g
         id="g10634"
         transform="matrix(0.352778,0,0,0.352778,-1.75286,-0.00101423)">
        <g
           clip-path="url(#clipPath4555)"
           clip-rule="nonzero"
           id="g10608">
          <g
             style="fill:#000000;fill-opacity:1"
             id="g44">
            <g
               id="use42"
               transform="translate(0,0.95599997)">
              <path
                 style="stroke:none"
                 d="m 16.734375,56.15625 c 0,-0.09375 -0.04687,-0.140625 -0.09375,-0.21875 C 15.75,55.0625 14.15625,53.453125 12.546875,50.875 8.703125,44.703125 6.953125,36.9375 6.953125,27.734375 6.953125,21.296875 7.8125,13 11.765625,5.875 c 1.890625,-3.390625 3.84375,-5.34375 4.890625,-6.40625 0.07813,-0.0625 0.07813,-0.109375 0.07813,-0.1875 0,-0.234375 -0.171875,-0.234375 -0.5,-0.234375 -0.34375,0 -0.390625,0 -0.75,0.359375 -8,7.28125 -10.515625,18.234375 -10.515625,28.296875 0,9.40625 2.15625,18.859375 8.234375,26.015625 0.46875,0.546875 1.375,1.53125 2.359375,2.390625 0.28125,0.28125 0.328125,0.28125 0.671875,0.28125 0.328125,0 0.5,0 0.5,-0.234375 z m 0,0"
                 id="path81" />
            </g>
          </g>
        </g>
        <g
           style="fill:#000000;fill-opacity:1"
           id="g10613">
          <g
             id="g10611"
             transform="translate(17.601,34.889)">
            <path
               style="stroke:none"
               d="m 6.59375,-15.828125 c 0,-0.53125 -0.03125,-0.546875 -0.375,-0.546875 -0.96875,1.15625 -2.421875,1.53125 -3.8125,1.578125 -0.078125,0 -0.203125,0 -0.21875,0.04687 -0.03125,0.0625 -0.03125,0.109375 -0.03125,0.625 0.765625,0 2.0625,-0.15625 3.046875,-0.75 v 13.0625 c 0,0.875 -0.046875,1.171875 -2.1875,1.171875 H 2.28125 V 0 c 1.1875,-0.03125 2.421875,-0.046875 3.609375,-0.046875 1.203125,0 2.4375,0.015625 3.625,0.046875 v -0.640625 h -0.75 c -2.125,0 -2.171875,-0.28125 -2.171875,-1.171875 z m 0,0"
               id="path85" />
          </g>
        </g>
        <g
           style="fill:#000000;fill-opacity:1"
           id="g54">
          <g
             id="use52"
             transform="translate(28.969,34.889)">
            <path
               style="stroke:none"
               d="m 4.828125,0.09375 c 0,-1.4375 -0.46875,-2.5 -1.484375,-2.5 -0.796875,0 -1.1875,0.640625 -1.1875,1.1875 C 2.15625,-0.671875 2.53125,0 3.375,0 3.6875,0 3.96875,-0.09375 4.1875,-0.328125 4.234375,-0.375 4.265625,-0.375 4.28125,-0.375 c 0.0625,0 0.0625,0.34375 0.0625,0.46875 0,0.828125 -0.15625,2.4375 -1.59375,4.046875 C 2.484375,4.4375 2.484375,4.484375 2.484375,4.53125 c 0,0.125 0.125,0.25 0.234375,0.25 0.203125,0 2.109375,-1.828125 2.109375,-4.6875 z m 0,0"
               id="path89" />
          </g>
        </g>
        <g
           style="fill:#000000;fill-opacity:1"
           id="g10621">
          <g
             id="g10619"
             transform="translate(41.036999,18.120001)">
            <path
               style="stroke:none"
               d="m 5.484375,-8.421875 c 2.203125,0 3.171875,1.90625 3.171875,4.109375 0,2.96875 -1.59375,4.109375 -3.03125,4.109375 -1.3125,0 -3.4375,-0.640625 -4.109375,-2.546875 0.125,0.046875 0.25,0.046875 0.375,0.046875 0.59375,0 1.03125,-0.390625 1.03125,-1.03125 0,-0.71875 -0.546875,-1.046875 -1.03125,-1.046875 -0.421875,0 -1.078125,0.203125 -1.078125,1.109375 0,2.28125 2.234375,4.0625 4.859375,4.0625 2.75,0 4.859375,-2.15625 4.859375,-4.671875 0,-2.40625 -1.984375,-4.140625 -4.34375,-4.421875 1.890625,-0.390625 3.703125,-2.078125 3.703125,-4.328125 0,-1.9375 -1.953125,-3.34375 -4.1875,-3.34375 -2.265625,0 -4.234375,1.375 -4.234375,3.359375 0,0.875 0.640625,1.015625 0.953125,1.015625 0.53125,0 0.96875,-0.3125 0.96875,-0.953125 0,-0.65625 -0.4375,-0.96875 -0.96875,-0.96875 -0.09375,0 -0.21875,0 -0.3125,0.04687 0.71875,-1.640625 2.671875,-1.9375 3.546875,-1.9375 0.859375,0 2.5,0.421875 2.5,2.796875 0,0.703125 -0.109375,1.9375 -0.9375,3.03125 -0.75,0.96875 -1.59375,1.015625 -2.40625,1.09375 -0.125,0 -0.703125,0.046875 -0.796875,0.046875 -0.171875,0.015625 -0.28125,0.046875 -0.28125,0.21875 0,0.171875 0.03125,0.203125 0.53125,0.203125 z m 0,0"
               id="path93" />
          </g>
        </g>
        <g
           style="fill:#000000;fill-opacity:1"
           id="g62">
          <g
             id="use60"
             transform="translate(52.404999,18.120001)">
            <path
               style="stroke:none"
               d="M 6.421875,-9.34375 H 9.21875 C 8.546875,-6.5625 8.125,-4.765625 8.125,-2.78125 c 0,0.359375 0,3.03125 1.015625,3.03125 0.53125,0 0.96875,-0.46875 0.96875,-0.890625 0,-0.125 0,-0.171875 -0.171875,-0.546875 -0.671875,-1.71875 -0.671875,-3.84375 -0.671875,-4.015625 0,-0.15625 0,-1.90625 0.515625,-4.140625 h 2.78125 c 0.328125,0 1.140625,0 1.140625,-0.796875 0,-0.546875 -0.46875,-0.546875 -0.921875,-0.546875 H 4.640625 c -0.578125,0 -1.421875,0 -2.5625,1.21875 -0.640625,0.71875 -1.4375,2.03125 -1.4375,2.1875 0,0.140625 0.125,0.1875 0.28125,0.1875 0.171875,0 0.1875,-0.0625 0.3125,-0.21875 C 2.53125,-9.34375 3.8125,-9.34375 4.4375,-9.34375 H 5.84375 C 5.296875,-7.484375 4.6875,-5.328125 2.65625,-0.984375 2.453125,-0.59375 2.453125,-0.546875 2.453125,-0.390625 2.453125,0.125 2.90625,0.25 3.125,0.25 3.84375,0.25 4.046875,-0.390625 4.34375,-1.4375 4.734375,-2.703125 4.734375,-2.75 4.984375,-3.734375 Z m 0,0"
               id="path97" />
          </g>
        </g>
        <path
           style="fill:none;stroke:#000000;stroke-width:0.956;stroke-linecap:butt;stroke-linejoin:miter;stroke-miterlimit:10;stroke-opacity:1"
           d="M -0.00184375,5.9375e-4 H 26.0255"
           transform="matrix(1,0,0,-1,41.037,28.692)"
           id="path64" />
        <g
           style="fill:#000000;fill-opacity:1"
           id="g68">
          <g
             id="use66"
             transform="translate(48.365002,51.891998)">
            <path
               style="stroke:none"
               d="m 8.328125,-16.03125 c 0,-0.515625 -0.03125,-0.546875 -0.46875,-0.546875 L 0.5,-4.859375 v 0.640625 h 6.390625 v 2.4375 c 0,0.890625 -0.046875,1.140625 -1.78125,1.140625 H 4.640625 V 0 c 0.78125,-0.046875 2.125,-0.046875 2.96875,-0.046875 0.84375,0 2.171875,0 2.96875,0.046875 v -0.640625 h -0.46875 c -1.734375,0 -1.78125,-0.25 -1.78125,-1.140625 v -2.4375 h 2.53125 v -0.640625 h -2.53125 z m -1.359375,1.640625 v 9.53125 H 0.984375 Z m 0,0"
               id="path101" />
          </g>
        </g>
        <g
           clip-path="url(#clipPath8582)"
           clip-rule="nonzero"
           id="g74">
          <g
             style="fill:#000000;fill-opacity:1"
             id="g72">
            <g
               id="use70"
               transform="translate(68.257004,0.95599997)">
              <path
                 style="stroke:none"
                 d="M 12.59375,27.734375 C 12.59375,18.34375 10.453125,8.875 4.375,1.71875 3.890625,1.171875 2.984375,0.1875 2.015625,-0.671875 1.71875,-0.953125 1.671875,-0.953125 1.34375,-0.953125 c -0.296875,0 -0.5,0 -0.5,0.234375 0,0.09375 0.09375,0.1875 0.140625,0.234375 C 1.8125,0.375 3.421875,1.984375 5.015625,4.5625 8.875,10.734375 10.609375,18.5 10.609375,27.703125 10.609375,34.140625 9.75,42.4375 5.8125,49.5625 c -1.890625,3.390625 -3.875,5.375 -4.875,6.375 -0.046875,0.07813 -0.09375,0.140625 -0.09375,0.21875 0,0.234375 0.203125,0.234375 0.5,0.234375 0.328125,0 0.375,0 0.734375,-0.359375 C 10.09375,48.75 12.59375,37.796875 12.59375,27.734375 Z m 0,0"
                 id="path105" />
            </g>
          </g>
        </g>
      </g>
    </g>
  </g>
</svg>
