<?xml version="1.0" encoding="UTF-8" standalone="no"?>
<!-- Created with Inkscape (http://www.inkscape.org/) -->

<svg
   width="60.324924mm"
   height="60.324924mm"
   viewBox="0 0 60.324924 60.324924"
   version="1.1"
   id="svg1"
   inkscape:version="1.4.2 (ebf0e940d0, 2025-05-08)"
   sodipodi:docname="calendario-2026.svg"
   xmlns:inkscape="http://www.inkscape.org/namespaces/inkscape"
   xmlns:sodipodi="http://sodipodi.sourceforge.net/DTD/sodipodi-0.dtd"
   xmlns="http://www.w3.org/2000/svg"
   xmlns:svg="http://www.w3.org/2000/svg">
  <sodipodi:namedview
     id="namedview1"
     pagecolor="#ffffff"
     bordercolor="#000000"
     borderopacity="0.25"
     inkscape:showpageshadow="2"
     inkscape:pageopacity="0.0"
     inkscape:pagecheckerboard="0"
     inkscape:deskcolor="#d1d1d1"
     inkscape:document-units="mm"
     inkscape:zoom="2.0233293"
     inkscape:cx="234.02023"
     inkscape:cy="174.71204"
     inkscape:window-width="1920"
     inkscape:window-height="1012"
     inkscape:window-x="0"
     inkscape:window-y="0"
     inkscape:window-maximized="1"
     inkscape:current-layer="layer1" />
  <defs
     id="defs1" />
  <g
     inkscape:label="Capa 1"
     inkscape:groupmode="layer"
     id="layer1"
     transform="translate(-104.856,-148.5)">
    <g
       inkscape:label="QR Code: https://calendar.google.com/calendar/u/0?cid=MmRlOTgyY2I1Yjk1N2Y0MzUyMjMwZjljZjg3Y2ZkNDFmMjVlMTk1ZGRiZTY3YmZiYmRiYWJmY2VkNzMyNWI5N0Bncm91cC5jYWxlbmRhci5nb29nbGUuY29t"
       transform="matrix(0.264583,0,0,0.264583,104.856,148.5)"
       id="g2">
      <rect
         x="0"
         y="0"
         width="228"
         height="228"
         style="fill:#ffffff;stroke:none"
         id="rect1" />
      <g
         style="fill:#000000;stroke:none"
         id="g1">
        <path
           d="m 211.6,212 h -7.2 c -0.221,0 -0.4,-0.179 -0.4,-0.4 v -3.2 c 0,-0.221 0.179,-0.4 0.4,-0.4 h 3.2 c 0.221,0 0.4,-0.179 0.4,-0.4 v -3.2 c 0,-0.221 0.179,-0.4 0.4,-0.4 h 3.2 c 0.221,0 0.4,0.179 0.4,0.4 v 7.2 c 0,0.221 -0.179,0.4 -0.4,0.4 z m -32,0 h -11.2 c -0.221,0 -0.4,-0.179 -0.4,-0.4 V 200 h 3.6 c 0.221,0 0.4,0.179 0.4,0.4 v 7.2 c 0,0.221 0.179,0.4 0.4,0.4 h 7.2 c 0.221,0 0.4,0.179 0.4,0.4 v 3.2 c 0,0.221 -0.179,0.4 -0.4,0.4 z m -16,0 h -7.2 c -0.221,0 -0.4,-0.179 -0.4,-0.4 V 208 h 3.6 c 0.221,0 0.4,-0.179 0.4,-0.4 V 204 h 3.6 c 0.221,0 0.4,0.179 0.4,0.4 v 7.2 c 0,0.221 -0.179,0.4 -0.4,0.4 z m -24,0 h -7.2 c -0.221,0 -0.4,-0.179 -0.4,-0.4 v -19.2 c 0,-0.221 -0.179,-0.4 -0.4,-0.4 h -7.2 c -0.221,0 -0.4,0.179 -0.4,0.4 v 3.2 c 0,0.221 0.179,0.4 0.4,0.4 h 3.2 c 0.221,0 0.4,0.179 0.4,0.4 v 3.2 c 0,0.221 -0.179,0.4 -0.4,0.4 h -3.2 c -0.221,0 -0.4,0.179 -0.4,0.4 v 3.2 c 0,0.221 -0.179,0.4 -0.4,0.4 H 120 v -3.6 c 0,-0.221 -0.179,-0.4 -0.4,-0.4 h -3.2 c -0.221,0 -0.4,0.179 -0.4,0.4 v 3.2 c 0,0.221 0.179,0.4 0.4,0.4 h 3.6 v 4 h -3.6 c -0.221,0 -0.4,0.179 -0.4,0.4 v 3.2 c 0,0.221 -0.179,0.4 -0.4,0.4 h -3.2 c -0.221,0 -0.4,-0.179 -0.4,-0.4 v -3.2 c 0,-0.221 -0.179,-0.4 -0.4,-0.4 h -3.2 c -0.221,0 -0.4,-0.179 -0.4,-0.4 v -3.2 c 0,-0.221 -0.179,-0.4 -0.4,-0.4 h -3.2 c -0.221,0 -0.4,-0.179 -0.4,-0.4 V 200 h 7.6 c 0.221,0 0.4,-0.179 0.4,-0.4 v -3.2 c 0,-0.221 -0.179,-0.4 -0.4,-0.4 H 104 v -7.6 c 0,-0.221 -0.179,-0.4 -0.4,-0.4 h -3.2 c -0.221,0 -0.4,0.179 -0.4,0.4 v 3.2 c 0,0.221 -0.1791,0.4 -0.4,0.4 H 96 v -8 h 7.6 c 0.221,0 0.4,-0.179 0.4,-0.4 v -7.2 c 0,-0.221 0.179,-0.4 0.4,-0.4 h 7.2 c 0.221,0 0.4,-0.179 0.4,-0.4 v -3.2 c 0,-0.221 0.179,-0.4 0.4,-0.4 h 19.2 c 0.221,0 0.4,0.179 0.4,0.4 v 3.2 c 0,0.221 -0.179,0.4 -0.4,0.4 h -7.2 c -0.221,0 -0.4,0.179 -0.4,0.4 v 3.2 c 0,0.221 0.179,0.4 0.4,0.4 h 19.2 c 0.221,0 0.4,0.179 0.4,0.4 v 3.6 h -15.6 c -0.221,0 -0.4,0.179 -0.4,0.4 v 3.2 c 0,0.221 0.179,0.4 0.4,0.4 h 7.2 c 0.221,0 0.4,0.179 0.4,0.4 v 7.2 c 0,0.221 0.179,0.4 0.4,0.4 h 15.2 c 0.221,0 0.4,0.179 0.4,0.4 v 3.2 c 0,0.221 0.179,0.4 0.4,0.4 h 3.2 c 0.221,0 0.4,-0.179 0.4,-0.4 v -3.2 c 0,-0.221 0.179,-0.4 0.4,-0.4 h 3.2 c 0.221,0 0.4,-0.179 0.4,-0.4 v -3.2 c 0,-0.221 0.179,-0.4 0.4,-0.4 h 3.2 c 0.221,0 0.4,-0.179 0.4,-0.4 v -7.2 c 0,-0.221 -0.179,-0.4 -0.4,-0.4 h -3.2 c -0.221,0 -0.4,0.179 -0.4,0.4 v 3.2 c 0,0.221 -0.179,0.4 -0.4,0.4 h -11.2 c -0.221,0 -0.4,0.179 -0.4,0.4 v 3.2 c 0,0.221 -0.179,0.4 -0.4,0.4 h -7.2 c -0.221,0 -0.4,-0.179 -0.4,-0.4 v -3.2 c 0,-0.221 0.179,-0.4 0.4,-0.4 h 3.2 c 0.221,0 0.4,-0.179 0.4,-0.4 V 184 h 11.6 c 0.221,0 0.4,-0.179 0.4,-0.4 v -3.2 c 0,-0.221 -0.179,-0.4 -0.4,-0.4 h -3.2 c -0.221,0 -0.4,-0.179 -0.4,-0.4 V 176 h 3.6 c 0.221,0 0.4,-0.179 0.4,-0.4 v -3.2 c 0,-0.221 -0.179,-0.4 -0.4,-0.4 H 152 v -3.6 c 0,-0.221 0.179,-0.4 0.4,-0.4 h 3.2 c 0.221,0 0.4,-0.179 0.4,-0.4 v -3.2 c 0,-0.221 -0.179,-0.4 -0.4,-0.4 h -3.2 c -0.221,0 -0.4,-0.179 -0.4,-0.4 v -7.2 c 0,-0.221 -0.179,-0.4 -0.4,-0.4 H 148 v -3.6 c 0,-0.221 0.179,-0.4 0.4,-0.4 h 7.6 v 7.6 c 0,0.221 0.179,0.4 0.4,0.4 h 15.2 c 0.221,0 0.4,-0.179 0.4,-0.4 v -7.2 c 0,-0.221 0.179,-0.4 0.4,-0.4 h 3.2 c 0.221,0 0.4,-0.179 0.4,-0.4 v -3.2 c 0,-0.221 -0.179,-0.4 -0.4,-0.4 h -7.2 c -0.221,0 -0.4,0.179 -0.4,0.4 v 3.2 c 0,0.221 -0.179,0.4 -0.4,0.4 H 156 v -3.6 c 0,-0.221 -0.179,-0.4 -0.4,-0.4 h -7.2 c -0.221,0 -0.4,-0.179 -0.4,-0.4 V 144 h 3.6 c 0.221,0 0.4,-0.179 0.4,-0.4 v -3.2 c 0,-0.221 -0.179,-0.4 -0.4,-0.4 h -3.2 c -0.221,0 -0.4,0.179 -0.4,0.4 v 3.6 h -4 v -3.6 c 0,-0.221 -0.179,-0.4 -0.4,-0.4 h -3.2 c -0.221,0 -0.4,-0.179 -0.4,-0.4 v -3.2 c 0,-0.221 -0.179,-0.4 -0.4,-0.4 H 132 v -3.6 c 0,-0.221 0.179,-0.4 0.4,-0.4 h 7.2 c 0.221,0 0.4,-0.179 0.4,-0.4 V 128 h 4 v 3.6 c 0,0.221 0.179,0.4 0.4,0.4 h 3.2 c 0.221,0 0.4,-0.179 0.4,-0.4 v -3.2 c 0,-0.221 -0.179,-0.4 -0.4,-0.4 H 144 v -3.6 c 0,-0.221 0.179,-0.4 0.4,-0.4 h 3.2 c 0.221,0 0.4,-0.179 0.4,-0.4 V 120 h 11.6 c 0.221,0 0.4,0.179 0.4,0.4 v 3.2 c 0,0.221 -0.179,0.4 -0.4,0.4 h -7.2 c -0.221,0 -0.4,0.179 -0.4,0.4 v 3.2 c 0,0.221 0.179,0.4 0.4,0.4 H 164 v 4 h -3.6 c -0.221,0 -0.4,0.179 -0.4,0.4 v 3.6 h -4 v -3.6 c 0,-0.221 -0.179,-0.4 -0.4,-0.4 h -3.2 c -0.221,0 -0.4,0.179 -0.4,0.4 v 3.2 c 0,0.221 0.179,0.4 0.4,0.4 h 3.6 v 7.6 c 0,0.221 0.179,0.4 0.4,0.4 h 3.2 c 0.221,0 0.4,-0.179 0.4,-0.4 V 136 h 4 v 7.6 c 0,0.221 0.179,0.4 0.4,0.4 h 3.2 c 0.221,0 0.4,-0.179 0.4,-0.4 V 136 h 8 v 4 h -3.6 c -0.221,0 -0.4,0.179 -0.4,0.4 v 3.2 c 0,0.221 0.179,0.4 0.4,0.4 h 3.2 c 0.221,0 0.4,-0.179 0.4,-0.4 V 140 h 3.6 c 0.221,0 0.4,-0.179 0.4,-0.4 v -3.2 c 0,-0.221 -0.179,-0.4 -0.4,-0.4 H 176 v -3.6 c 0,-0.221 -0.179,-0.4 -0.4,-0.4 H 168 v -3.6 c 0,-0.221 -0.179,-0.4 -0.4,-0.4 H 164 v -3.6 c 0,-0.221 0.179,-0.4 0.4,-0.4 h 3.2 c 0.221,0 0.4,-0.179 0.4,-0.4 V 120 h 7.6 c 0.221,0 0.4,-0.179 0.4,-0.4 v -15.2 c 0,-0.221 0.179,-0.4 0.4,-0.4 h 3.2 c 0.221,0 0.4,-0.179 0.4,-0.4 V 100 h 3.6 c 0.221,0 0.4,-0.1791 0.4,-0.4 v -3.2 c 0,-0.2209 -0.179,-0.4 -0.4,-0.4 h -3.2 c -0.221,0 -0.4,0.1791 -0.4,0.4 v 3.6 h -7.6 c -0.221,0 -0.4,-0.1791 -0.4,-0.4 V 88.4 c 0,-0.2209 0.179,-0.4 0.4,-0.4 h 7.6 v 3.6 c 0,0.2209 0.179,0.4 0.4,0.4 h 7.2 c 0.221,0 0.4,0.1791 0.4,0.4 v 3.2 c 0,0.2209 0.179,0.4 0.4,0.4 h 3.6 v 3.6 c 0,0.2209 -0.179,0.4 -0.4,0.4 h -3.2 c -0.221,0 -0.4,0.179 -0.4,0.4 v 3.2 c 0,0.221 0.179,0.4 0.4,0.4 h 7.2 c 0.221,0 0.4,-0.179 0.4,-0.4 v -3.2 c 0,-0.221 0.179,-0.4 0.4,-0.4 h 3.2 c 0.221,0 0.4,-0.1791 0.4,-0.4 V 96 h 3.6 c 0.221,0 0.4,-0.1791 0.4,-0.4 V 92.4 C 204,92.1791 203.821,92 203.6,92 H 200 v -4 h 3.6 c 0.221,0 0.4,-0.1791 0.4,-0.4 v -7.2 c 0,-0.2209 0.179,-0.4 0.4,-0.4 h 3.2 c 0.221,0 0.4,-0.1791 0.4,-0.4 v -3.2 c 0,-0.2209 -0.179,-0.4 -0.4,-0.4 h -3.2 c -0.221,0 -0.4,-0.1791 -0.4,-0.4 v -3.2 c 0,-0.2209 -0.179,-0.4 -0.4,-0.4 h -7.2 c -0.221,0 -0.4,-0.1791 -0.4,-0.4 v -3.2 c 0,-0.2209 0.179,-0.4 0.4,-0.4 h 3.2 c 0.221,0 0.4,-0.1791 0.4,-0.4 v -3.2 c 0,-0.2209 0.179,-0.4 0.4,-0.4 h 3.2 c 0.221,0 0.4,0.1791 0.4,0.4 v 3.2 c 0,0.2209 0.179,0.4 0.4,0.4 h 3.6 v 3.6 c 0,0.2209 0.179,0.4 0.4,0.4 h 3.2 c 0.221,0 0.4,0.1791 0.4,0.4 v 19.2 c 0,0.2209 -0.179,0.4 -0.4,0.4 h -3.2 c -0.221,0 -0.4,0.1791 -0.4,0.4 v 3.2 c 0,0.2209 0.179,0.4 0.4,0.4 h 3.2 c 0.221,0 0.4,0.1791 0.4,0.4 v 3.2 c 0,0.2209 -0.179,0.4 -0.4,0.4 h -3.2 c -0.221,0 -0.4,0.179 -0.4,0.4 v 3.2 c 0,0.221 0.179,0.4 0.4,0.4 h 3.2 c 0.221,0 0.4,0.179 0.4,0.4 v 19.2 c 0,0.221 -0.179,0.4 -0.4,0.4 h -11.2 c -0.221,0 -0.4,0.179 -0.4,0.4 v 3.2 c 0,0.221 0.179,0.4 0.4,0.4 h 3.2 c 0.221,0 0.4,0.179 0.4,0.4 v 3.6 h -7.6 c -0.221,0 -0.4,-0.179 -0.4,-0.4 v -3.2 c 0,-0.221 -0.179,-0.4 -0.4,-0.4 h -3.2 c -0.221,0 -0.4,0.179 -0.4,0.4 v 11.2 c 0,0.221 0.179,0.4 0.4,0.4 h 3.6 v 7.6 c 0,0.221 -0.179,0.4 -0.4,0.4 H 192 v -3.6 c 0,-0.221 -0.179,-0.4 -0.4,-0.4 h -3.2 c -0.221,0 -0.4,0.179 -0.4,0.4 v 3.2 c 0,0.221 0.179,0.4 0.4,0.4 h 3.6 v 7.6 c 0,0.221 -0.179,0.4 -0.4,0.4 h -7.2 c -0.221,0 -0.4,0.179 -0.4,0.4 v 3.6 h -3.6 c -0.221,0 -0.4,0.179 -0.4,0.4 v 3.2 c 0,0.221 -0.179,0.4 -0.4,0.4 h -3.2 c -0.221,0 -0.4,0.179 -0.4,0.4 v 3.2 c 0,0.221 -0.179,0.4 -0.4,0.4 H 172 v -3.6 c 0,-0.221 -0.179,-0.4 -0.4,-0.4 h -3.2 c -0.221,0 -0.4,0.179 -0.4,0.4 v 3.6 h -3.6 c -0.221,0 -0.4,-0.179 -0.4,-0.4 v -3.2 c 0,-0.221 -0.179,-0.4 -0.4,-0.4 h -3.2 c -0.221,0 -0.4,0.179 -0.4,0.4 v 11.2 c 0,0.221 0.179,0.4 0.4,0.4 h 3.6 v 3.6 c 0,0.221 0.179,0.4 0.4,0.4 h 3.6 v 3.6 c 0,0.221 0.179,0.4 0.4,0.4 h 3.6 v 11.6 c 0,0.221 -0.179,0.4 -0.4,0.4 h -3.2 c -0.221,0 -0.4,0.179 -0.4,0.4 v 3.6 h -7.6 c -0.221,0 -0.4,0.179 -0.4,0.4 v 3.6 h -3.6 c -0.221,0 -0.4,0.179 -0.4,0.4 v 3.6 h -3.6 c -0.221,0 -0.4,-0.179 -0.4,-0.4 v -3.2 c 0,-0.221 -0.179,-0.4 -0.4,-0.4 h -3.2 c -0.221,0 -0.4,0.179 -0.4,0.4 v 3.2 c 0,0.221 -0.179,0.4 -0.4,0.4 H 140 v -3.6 c 0,-0.221 -0.179,-0.4 -0.4,-0.4 h -3.2 c -0.221,0 -0.4,0.179 -0.4,0.4 v 3.2 c 0,0.221 0.179,0.4 0.4,0.4 h 3.6 v 3.6 c 0,0.221 -0.179,0.4 -0.4,0.4 z m -16,0 h -3.2 c -0.221,0 -0.4,-0.179 -0.4,-0.4 V 208 h 3.6 c 0.221,0 0.4,0.179 0.4,0.4 v 3.2 c 0,0.221 -0.179,0.4 -0.4,0.4 z m -24,0 h -3.2 c -0.2209,0 -0.4,-0.179 -0.4,-0.4 v -3.2 c 0,-0.221 0.1791,-0.4 0.4,-0.4 h 3.2 c 0.2209,0 0.4,0.179 0.4,0.4 v 3.2 c 0,0.221 -0.1791,0.4 -0.4,0.4 z m -8,0 h -3.2 c -0.2209,0 -0.4,-0.179 -0.4,-0.4 v -3.2 C 88,208.179 87.8209,208 87.6,208 H 84 v -3.6 c 0,-0.221 0.1791,-0.4 0.4,-0.4 H 92 v 7.6 c 0,0.221 -0.1791,0.4 -0.4,0.4 z m -8,0 H 80.4 C 80.1791,212 80,211.821 80,211.6 V 208 h 4 v 3.6 c 0,0.221 -0.1791,0.4 -0.4,0.4 z m -12,0 H 60.4 c -0.2209,0 -0.4,-0.179 -0.4,-0.4 v -3.2 c 0,-0.221 0.1791,-0.4 0.4,-0.4 h 3.2 c 0.2209,0 0.4,-0.179 0.4,-0.4 v -3.2 C 64,204.179 63.8209,204 63.6,204 H 56.4 C 56.1791,204 56,203.821 56,203.6 V 200 h 7.6 c 0.2209,0 0.4,-0.179 0.4,-0.4 v -3.2 C 64,196.179 63.8209,196 63.6,196 H 56 v -4 h 3.6 c 0.2209,0 0.4,-0.179 0.4,-0.4 v -3.2 c 0,-0.221 0.1791,-0.4 0.4,-0.4 h 3.2 c 0.2209,0 0.4,-0.179 0.4,-0.4 v -3.2 c 0,-0.221 -0.1791,-0.4 -0.4,-0.4 h -7.2 c -0.2209,0 -0.4,0.179 -0.4,0.4 v 7.6 h -4 v -3.6 C 52,188.179 51.8209,188 51.6,188 H 48.4 C 48.1791,188 48,187.821 48,187.6 V 176.4 C 48,176.179 47.8209,176 47.6,176 H 44 v -3.6 c 0,-0.221 -0.1791,-0.4 -0.4,-0.4 h -7.2 c -0.2209,0 -0.4,-0.179 -0.4,-0.4 v -7.2 C 36,164.179 35.8209,164 35.6,164 H 32 v -7.6 C 32,156.179 31.8209,156 31.6,156 H 28 v -4 h 3.6 c 0.2209,0 0.4,-0.179 0.4,-0.4 V 144 h 3.6 c 0.2209,0 0.4,-0.179 0.4,-0.4 V 136 h 7.6 c 0.2209,0 0.4,-0.179 0.4,-0.4 V 132 h 3.6 c 0.2209,0 0.4,-0.179 0.4,-0.4 V 128 h 4 v 7.6 c 0,0.221 -0.1791,0.4 -0.4,0.4 h -3.2 c -0.2209,0 -0.4,0.179 -0.4,0.4 v 3.2 c 0,0.221 0.1791,0.4 0.4,0.4 h 3.2 c 0.2209,0 0.4,0.179 0.4,0.4 v 3.2 c 0,0.221 -0.1791,0.4 -0.4,0.4 H 44 v -3.6 c 0,-0.221 -0.1791,-0.4 -0.4,-0.4 h -3.2 c -0.2209,0 -0.4,0.179 -0.4,0.4 v 3.2 c 0,0.221 0.1791,0.4 0.4,0.4 H 44 v 4 h -3.6 c -0.2209,0 -0.4,0.179 -0.4,0.4 v 3.6 h -3.6 c -0.2209,0 -0.4,0.179 -0.4,0.4 v 3.2 c 0,0.221 0.1791,0.4 0.4,0.4 H 40 v 3.6 c 0,0.221 0.1791,0.4 0.4,0.4 h 3.2 c 0.2209,0 0.4,-0.179 0.4,-0.4 v -3.2 C 44,156.179 43.8209,156 43.6,156 H 40 v -4 h 3.6 c 0.2209,0 0.4,-0.179 0.4,-0.4 V 148 h 3.6 c 0.2209,0 0.4,0.179 0.4,0.4 v 7.2 c 0,0.221 0.1791,0.4 0.4,0.4 H 52 v 3.6 c 0,0.221 0.1791,0.4 0.4,0.4 h 7.2 c 0.2209,0 0.4,0.179 0.4,0.4 V 164 H 48.4 c -0.2209,0 -0.4,0.179 -0.4,0.4 v 3.2 c 0,0.221 0.1791,0.4 0.4,0.4 h 3.2 c 0.2209,0 0.4,0.179 0.4,0.4 v 11.2 c 0,0.221 0.1791,0.4 0.4,0.4 h 3.2 c 0.2209,0 0.4,-0.179 0.4,-0.4 v -3.2 c 0,-0.221 0.1791,-0.4 0.4,-0.4 H 60 v 3.6 c 0,0.221 0.1791,0.4 0.4,0.4 H 68 v 3.6 c 0,0.221 0.1791,0.4 0.4,0.4 h 15.2 c 0.2209,0 0.4,-0.179 0.4,-0.4 v -7.2 c 0,-0.221 -0.1791,-0.4 -0.4,-0.4 h -3.2 c -0.2209,0 -0.4,-0.179 -0.4,-0.4 v -3.2 C 80,172.179 79.8209,172 79.6,172 H 68.4 C 68.1791,172 68,171.821 68,171.6 V 164 h 3.6 c 0.2209,0 0.4,0.179 0.4,0.4 v 3.2 c 0,0.221 0.1791,0.4 0.4,0.4 h 7.2 c 0.2209,0 0.4,-0.179 0.4,-0.4 V 164 h 7.6 c 0.2209,0 0.4,-0.179 0.4,-0.4 v -3.2 c 0,-0.221 -0.1791,-0.4 -0.4,-0.4 h -7.2 c -0.2209,0 -0.4,0.179 -0.4,0.4 V 164 H 76.4 C 76.1791,164 76,163.821 76,163.6 V 152 h 8 v 3.6 c 0,0.221 0.1791,0.4 0.4,0.4 h 3.2 c 0.2209,0 0.4,-0.179 0.4,-0.4 V 152 h 3.6 c 0.2209,0 0.4,-0.179 0.4,-0.4 v -3.2 C 92,148.179 91.8209,148 91.6,148 H 88 v -4 h 11.6 c 0.2209,0 0.4,-0.179 0.4,-0.4 v -3.2 c 0,-0.221 0.179,-0.4 0.4,-0.4 h 3.2 c 0.221,0 0.4,-0.179 0.4,-0.4 v -3.2 c 0,-0.221 -0.179,-0.4 -0.4,-0.4 h -3.2 c -0.221,0 -0.4,-0.179 -0.4,-0.4 V 124 h 3.6 c 0.221,0 0.4,-0.179 0.4,-0.4 v -7.2 c 0,-0.221 -0.179,-0.4 -0.4,-0.4 h -3.2 c -0.221,0 -0.4,-0.179 -0.4,-0.4 V 112 h 3.6 c 0.221,0 0.4,-0.179 0.4,-0.4 v -3.2 c 0,-0.221 -0.179,-0.4 -0.4,-0.4 h -3.2 c -0.221,0 -0.4,0.179 -0.4,0.4 v 3.6 h -3.6 c -0.2209,0 -0.4,0.179 -0.4,0.4 v 7.2 c 0,0.221 0.1791,0.4 0.4,0.4 h 3.2 c 0.2209,0 0.4,0.179 0.4,0.4 v 3.6 h -3.6 c -0.2209,0 -0.4,0.179 -0.4,0.4 v 7.2 c 0,0.221 -0.1791,0.4 -0.4,0.4 H 92 V 116.4 C 92,116.179 91.8209,116 91.6,116 H 84.4 C 84.1791,116 84,115.821 84,115.6 V 112 h 7.6 c 0.2209,0 0.4,-0.179 0.4,-0.4 v -3.2 c 0,-0.221 0.1791,-0.4 0.4,-0.4 h 3.2 c 0.2209,0 0.4,-0.179 0.4,-0.4 v -3.2 C 96,104.179 95.8209,104 95.6,104 H 84.4 c -0.2209,0 -0.4,0.179 -0.4,0.4 v 7.6 h -4 v -3.6 c 0,-0.221 -0.1791,-0.4 -0.4,-0.4 h -3.2 c -0.2209,0 -0.4,0.179 -0.4,0.4 v 3.6 h -4 v -8 h 7.6 c 0.2209,0 0.4,-0.179 0.4,-0.4 V 100 h 7.6 c 0.2209,0 0.4,-0.1791 0.4,-0.4 V 96.4 C 88,96.1791 87.8209,96 87.6,96 H 80 V 92.4 C 80,92.1791 79.8209,92 79.6,92 H 76.4 C 76.1791,92 76,91.8209 76,91.6 V 88 h 7.6 c 0.2209,0 0.4,0.1791 0.4,0.4 v 3.2 c 0,0.2209 0.1791,0.4 0.4,0.4 h 3.2 C 87.8209,92 88,91.8209 88,91.6 V 88.4 C 88,88.1791 88.1791,88 88.4,88 H 92 v 11.6 c 0,0.2209 0.1791,0.4 0.4,0.4 H 108 v 3.6 c 0,0.221 0.179,0.4 0.4,0.4 h 23.2 c 0.221,0 0.4,-0.179 0.4,-0.4 V 96.4 C 132,96.1791 131.821,96 131.6,96 H 128 v -3.6 c 0,-0.2209 -0.179,-0.4 -0.4,-0.4 h -7.2 C 120.179,92 120,91.8209 120,91.6 V 88 h 11.6 c 0.221,0 0.4,-0.1791 0.4,-0.4 V 80.4 C 132,80.1791 131.821,80 131.6,80 H 128 v -4 h 15.6 c 0.221,0 0.4,-0.1791 0.4,-0.4 V 72 h 16 v 4 h -7.6 c -0.221,0 -0.4,0.1791 -0.4,0.4 v 7.2 c 0,0.2209 -0.179,0.4 -0.4,0.4 H 148 v -3.6 c 0,-0.2209 -0.179,-0.4 -0.4,-0.4 h -11.2 c -0.221,0 -0.4,0.1791 -0.4,0.4 v 3.2 c 0,0.2209 0.179,0.4 0.4,0.4 H 148 v 4 h -11.6 c -0.221,0 -0.4,0.1791 -0.4,0.4 v 7.2 c 0,0.2209 0.179,0.4 0.4,0.4 h 7.6 v 3.6 c 0,0.2209 0.179,0.4 0.4,0.4 h 3.2 c 0.221,0 0.4,0.179 0.4,0.4 v 3.2 c 0,0.221 -0.179,0.4 -0.4,0.4 h -7.2 c -0.221,0 -0.4,0.179 -0.4,0.4 v 3.2 c 0,0.221 -0.179,0.4 -0.4,0.4 h -7.2 c -0.221,0 -0.4,0.179 -0.4,0.4 v 3.2 c 0,0.221 -0.179,0.4 -0.4,0.4 h -7.2 c -0.221,0 -0.4,0.179 -0.4,0.4 v 7.2 c 0,0.221 0.179,0.4 0.4,0.4 h 3.6 v 3.6 c 0,0.221 -0.179,0.4 -0.4,0.4 h -3.2 c -0.221,0 -0.4,0.179 -0.4,0.4 V 136 h -4 v -7.6 c 0,-0.221 -0.179,-0.4 -0.4,-0.4 h -3.2 c -0.221,0 -0.4,0.179 -0.4,0.4 v 7.6 h -3.6 c -0.221,0 -0.4,0.179 -0.4,0.4 v 3.2 c 0,0.221 0.179,0.4 0.4,0.4 h 3.6 v 3.6 c 0,0.221 -0.179,0.4 -0.4,0.4 h -3.2 c -0.221,0 -0.4,0.179 -0.4,0.4 v 3.6 h -7.6 c -0.221,0 -0.4,0.179 -0.4,0.4 v 7.2 c 0,0.221 -0.179,0.4 -0.4,0.4 H 100 v -7.6 c 0,-0.221 -0.1791,-0.4 -0.4,-0.4 h -3.2 c -0.2209,0 -0.4,0.179 -0.4,0.4 v 7.2 c 0,0.221 0.1791,0.4 0.4,0.4 h 3.6 v 4 h -7.6 c -0.2209,0 -0.4,0.179 -0.4,0.4 v 3.2 c 0,0.221 0.1791,0.4 0.4,0.4 h 7.2 c 0.2209,0 0.4,-0.179 0.4,-0.4 V 160 h 3.6 c 0.221,0 0.4,0.179 0.4,0.4 v 3.2 c 0,0.221 0.179,0.4 0.4,0.4 h 7.2 c 0.221,0 0.4,-0.179 0.4,-0.4 V 160 h 3.6 c 0.221,0 0.4,0.179 0.4,0.4 v 3.2 c 0,0.221 0.179,0.4 0.4,0.4 h 3.2 c 0.221,0 0.4,-0.179 0.4,-0.4 V 156 h 4 v 11.6 c 0,0.221 -0.179,0.4 -0.4,0.4 h -15.2 c -0.221,0 -0.4,0.179 -0.4,0.4 v 3.2 c 0,0.221 -0.179,0.4 -0.4,0.4 h -7.2 c -0.221,0 -0.4,0.179 -0.4,0.4 v 3.2 c 0,0.221 -0.1791,0.4 -0.4,0.4 H 92 v -4 h 3.6 c 0.2209,0 0.4,-0.179 0.4,-0.4 v -3.2 c 0,-0.221 -0.1791,-0.4 -0.4,-0.4 h -3.2 c -0.2209,0 -0.4,0.179 -0.4,0.4 v 3.6 h -4 v -3.6 c 0,-0.221 -0.1791,-0.4 -0.4,-0.4 h -3.2 c -0.2209,0 -0.4,0.179 -0.4,0.4 v 3.2 c 0,0.221 0.1791,0.4 0.4,0.4 H 88 v 3.6 c 0,0.221 0.1791,0.4 0.4,0.4 H 92 v 3.6 c 0,0.221 0.1791,0.4 0.4,0.4 h 3.2 c 0.2209,0 0.4,0.179 0.4,0.4 v 3.6 h -7.6 c -0.2209,0 -0.4,0.179 -0.4,0.4 v 3.2 c 0,0.221 -0.1791,0.4 -0.4,0.4 h -7.2 c -0.2209,0 -0.4,0.179 -0.4,0.4 v 3.2 c 0,0.221 -0.1791,0.4 -0.4,0.4 h -3.2 c -0.2209,0 -0.4,0.179 -0.4,0.4 v 3.6 h -7.6 c -0.2209,0 -0.4,0.179 -0.4,0.4 v 3.2 c 0,0.221 0.1791,0.4 0.4,0.4 H 76 v 4 h -3.6 c -0.2209,0 -0.4,0.179 -0.4,0.4 v 7.2 c 0,0.221 -0.1791,0.4 -0.4,0.4 z m -20,0 h -3.2 c -0.2209,0 -0.4,-0.179 -0.4,-0.4 v -19.2 c 0,-0.221 0.1791,-0.4 0.4,-0.4 H 52 v 3.6 c 0,0.221 0.1791,0.4 0.4,0.4 H 56 v 4 h -3.6 c -0.2209,0 -0.4,0.179 -0.4,0.4 v 11.2 c 0,0.221 -0.1791,0.4 -0.4,0.4 z m -8,0 H 16.4 c -0.2209,0 -0.4,-0.179 -0.4,-0.4 v -27.2 c 0,-0.221 0.1791,-0.4 0.4,-0.4 h 27.2 c 0.2209,0 0.4,0.179 0.4,0.4 v 27.2 c 0,0.221 -0.1791,0.4 -0.4,0.4 z m 152,-4 h -11.2 c -0.221,0 -0.4,-0.179 -0.4,-0.4 v -3.2 c 0,-0.221 0.179,-0.4 0.4,-0.4 h 3.2 c 0.221,0 0.4,-0.179 0.4,-0.4 V 200 h 4 v 3.6 c 0,0.221 0.179,0.4 0.4,0.4 h 3.2 c 0.221,0 0.4,0.179 0.4,0.4 v 3.2 c 0,0.221 -0.179,0.4 -0.4,0.4 z m -116,0 H 76.4 C 76.1791,208 76,207.821 76,207.6 V 204 h 3.6 c 0.2209,0 0.4,0.179 0.4,0.4 V 208 Z M 40,207.6 V 188.4 C 40,188.179 39.8209,188 39.6,188 H 20.4 c -0.2209,0 -0.4,0.179 -0.4,0.4 v 19.2 c 0,0.221 0.1791,0.4 0.4,0.4 h 19.2 c 0.2209,0 0.4,-0.179 0.4,-0.4 z M 203.6,204 h -3.2 c -0.221,0 -0.4,-0.179 -0.4,-0.4 V 200 h 3.6 c 0.221,0 0.4,0.179 0.4,0.4 v 3.2 c 0,0.221 -0.179,0.4 -0.4,0.4 z m -108,0 H 92 v -4 h 3.6 c 0.2209,0 0.4,0.179 0.4,0.4 v 3.2 c 0,0.221 -0.1791,0.4 -0.4,0.4 z m -60,0 H 24.4 c -0.2209,0 -0.4,-0.179 -0.4,-0.4 v -11.2 c 0,-0.221 0.1791,-0.4 0.4,-0.4 h 11.2 c 0.2209,0 0.4,0.179 0.4,0.4 v 11.2 c 0,0.221 -0.1791,0.4 -0.4,0.4 z m 164,-4 H 192 v -3.6 c 0,-0.221 -0.179,-0.4 -0.4,-0.4 h -3.2 c -0.221,0 -0.4,0.179 -0.4,0.4 v 3.6 h -3.6 c -0.221,0 -0.4,-0.179 -0.4,-0.4 v -3.2 c 0,-0.221 -0.179,-0.4 -0.4,-0.4 h -7.2 c -0.221,0 -0.4,-0.179 -0.4,-0.4 v -11.2 c 0,-0.221 -0.179,-0.4 -0.4,-0.4 H 172 v -3.6 c 0,-0.221 -0.179,-0.4 -0.4,-0.4 H 168 v -3.6 c 0,-0.221 -0.179,-0.4 -0.4,-0.4 H 164 v -3.6 c 0,-0.221 0.179,-0.4 0.4,-0.4 h 3.2 c 0.221,0 0.4,-0.179 0.4,-0.4 V 168 h 4 v 7.6 c 0,0.221 0.179,0.4 0.4,0.4 h 3.2 c 0.221,0 0.4,-0.179 0.4,-0.4 v -3.2 c 0,-0.221 0.179,-0.4 0.4,-0.4 h 3.6 v 3.6 c 0,0.221 0.179,0.4 0.4,0.4 h 11.2 c 0.221,0 0.4,-0.179 0.4,-0.4 V 172 h 7.6 c 0.221,0 0.4,0.179 0.4,0.4 v 3.6 h -3.6 c -0.221,0 -0.4,0.179 -0.4,0.4 v 15.2 c 0,0.221 0.179,0.4 0.4,0.4 h 7.6 v 3.6 c 0,0.221 -0.179,0.4 -0.4,0.4 h -3.2 c -0.221,0 -0.4,0.179 -0.4,0.4 v 3.6 z m -96,0 h -3.2 c -0.221,0 -0.4,-0.179 -0.4,-0.4 v -3.2 c 0,-0.221 0.179,-0.4 0.4,-0.4 h 3.6 v 4 z m -12,0 H 88.4 C 88.1791,200 88,199.821 88,199.6 V 196 h 4 v 4 z m -12,0 H 76 v -4 h 3.6 c 0.2209,0 0.4,0.179 0.4,0.4 v 3.2 c 0,0.221 -0.1791,0.4 -0.4,0.4 z m 16,-4 H 92 v -3.6 c 0,-0.221 0.1791,-0.4 0.4,-0.4 H 96 v 3.6 c 0,0.221 -0.1791,0.4 -0.4,0.4 z m -8,0 h -3.2 c -0.2209,0 -0.4,-0.179 -0.4,-0.4 v -3.2 c 0,-0.221 0.1791,-0.4 0.4,-0.4 h 3.2 c 0.2209,0 0.4,0.179 0.4,0.4 v 3.6 z m 120,-4 H 204 v -4 h 4 v 3.6 c 0,0.221 -0.179,0.4 -0.4,0.4 z M 192,191.6 v -11.2 c 0,-0.221 -0.179,-0.4 -0.4,-0.4 h -11.2 c -0.221,0 -0.4,0.179 -0.4,0.4 v 11.2 c 0,0.221 0.179,0.4 0.4,0.4 h 11.2 c 0.221,0 0.4,-0.179 0.4,-0.4 z m -72,0 v -11.2 c 0,-0.221 -0.179,-0.4 -0.4,-0.4 h -11.2 c -0.221,0 -0.4,0.179 -0.4,0.4 v 11.2 c 0,0.221 0.179,0.4 0.4,0.4 h 11.2 c 0.221,0 0.4,-0.179 0.4,-0.4 z m -48,0 v -3.2 c 0,-0.221 -0.1791,-0.4 -0.4,-0.4 h -3.2 c -0.2209,0 -0.4,0.179 -0.4,0.4 v 3.2 c 0,0.221 0.1791,0.4 0.4,0.4 h 3.2 c 0.2209,0 0.4,-0.179 0.4,-0.4 z M 211.6,188 H 208 v -4 h 3.6 c 0.221,0 0.4,0.179 0.4,0.4 v 3.2 c 0,0.221 -0.179,0.4 -0.4,0.4 z m -8,0 h -3.2 c -0.221,0 -0.4,-0.179 -0.4,-0.4 V 176 h 3.6 c 0.221,0 0.4,-0.179 0.4,-0.4 V 168 h 7.6 c 0.221,0 0.4,0.179 0.4,0.4 v 11.2 c 0,0.221 -0.179,0.4 -0.4,0.4 h -3.2 c -0.221,0 -0.4,0.179 -0.4,0.4 v 3.6 h -3.6 c -0.221,0 -0.4,0.179 -0.4,0.4 v 3.6 z m -16,0 h -3.2 c -0.221,0 -0.4,-0.179 -0.4,-0.4 v -3.2 c 0,-0.221 0.179,-0.4 0.4,-0.4 h 3.2 c 0.221,0 0.4,0.179 0.4,0.4 v 3.2 c 0,0.221 -0.179,0.4 -0.4,0.4 z m -72,0 h -3.2 c -0.221,0 -0.4,-0.179 -0.4,-0.4 v -3.2 c 0,-0.221 0.179,-0.4 0.4,-0.4 h 3.2 c 0.221,0 0.4,0.179 0.4,0.4 v 3.2 c 0,0.221 -0.179,0.4 -0.4,0.4 z m -44,-8 H 68 v -3.6 c 0,-0.221 0.1791,-0.4 0.4,-0.4 h 3.2 c 0.2209,0 0.4,0.179 0.4,0.4 v 3.2 c 0,0.221 -0.1791,0.4 -0.4,0.4 z m -28,0 h -3.2 c -0.2209,0 -0.4,-0.179 -0.4,-0.4 v -3.2 c 0,-0.221 0.1791,-0.4 0.4,-0.4 H 44 v 3.6 c 0,0.221 -0.1791,0.4 -0.4,0.4 z m -16,0 H 16.4 c -0.2209,0 -0.4,-0.179 -0.4,-0.4 v -3.2 c 0,-0.221 0.1791,-0.4 0.4,-0.4 h 3.2 c 0.2209,0 0.4,-0.179 0.4,-0.4 v -7.2 c 0,-0.221 0.1791,-0.4 0.4,-0.4 H 24 v 3.6 c 0,0.221 0.1791,0.4 0.4,0.4 h 7.2 c 0.2209,0 0.4,0.179 0.4,0.4 v 3.2 c 0,0.221 -0.1791,0.4 -0.4,0.4 h -3.2 c -0.2209,0 -0.4,0.179 -0.4,0.4 v 3.2 c 0,0.221 -0.1791,0.4 -0.4,0.4 z m 124,-4 h -15.2 c -0.221,0 -0.4,-0.179 -0.4,-0.4 v -7.2 c 0,-0.221 -0.179,-0.4 -0.4,-0.4 h -7.2 c -0.221,0 -0.4,-0.179 -0.4,-0.4 v -3.2 c 0,-0.221 0.179,-0.4 0.4,-0.4 h 7.2 c 0.221,0 0.4,-0.179 0.4,-0.4 V 160 h 4 v 11.6 c 0,0.221 0.179,0.4 0.4,0.4 H 152 v 4 z m -88,0 H 60 v -3.6 c 0,-0.221 0.1791,-0.4 0.4,-0.4 h 3.2 c 0.2209,0 0.4,0.179 0.4,0.4 v 3.2 c 0,0.221 -0.1791,0.4 -0.4,0.4 z m 128,-4 H 180 v -3.6 c 0,-0.221 0.179,-0.4 0.4,-0.4 h 7.2 c 0.221,0 0.4,-0.179 0.4,-0.4 V 164 h 4 v 8 z m 12,-4 h -7.2 c -0.221,0 -0.4,-0.179 -0.4,-0.4 v -3.2 c 0,-0.221 -0.179,-0.4 -0.4,-0.4 H 192 v -3.6 c 0,-0.221 0.179,-0.4 0.4,-0.4 h 3.2 c 0.221,0 0.4,-0.179 0.4,-0.4 v -3.2 c 0,-0.221 0.179,-0.4 0.4,-0.4 h 3.6 v 3.6 c 0,0.221 0.179,0.4 0.4,0.4 h 3.6 v 8 z m -140,0 H 60.4 C 60.1791,168 60,167.821 60,167.6 V 164 h 4 v 3.6 c 0,0.221 -0.1791,0.4 -0.4,0.4 z M 44,167.6 v -3.2 c 0,-0.221 -0.1791,-0.4 -0.4,-0.4 h -3.2 c -0.2209,0 -0.4,0.179 -0.4,0.4 v 3.2 c 0,0.221 0.1791,0.4 0.4,0.4 h 3.2 c 0.2209,0 0.4,-0.179 0.4,-0.4 z M 31.6,168 H 24 v -4 h 8 v 3.6 c 0,0.221 -0.1791,0.4 -0.4,0.4 z m 180,-4 h -3.2 c -0.221,0 -0.4,-0.179 -0.4,-0.4 v -3.2 c 0,-0.221 -0.179,-0.4 -0.4,-0.4 H 204 v -3.6 c 0,-0.221 -0.179,-0.4 -0.4,-0.4 H 200 v -7.6 c 0,-0.221 0.179,-0.4 0.4,-0.4 h 11.2 c 0.221,0 0.4,0.179 0.4,0.4 v 15.2 c 0,0.221 -0.179,0.4 -0.4,0.4 z m -24,0 h -3.2 c -0.221,0 -0.4,-0.179 -0.4,-0.4 V 160 h 3.6 c 0.221,0 0.4,0.179 0.4,0.4 v 3.6 z m -120,0 H 64 v -7.6 c 0,-0.221 -0.1791,-0.4 -0.4,-0.4 h -3.2 c -0.2209,0 -0.4,-0.179 -0.4,-0.4 v -3.2 c 0,-0.221 0.1791,-0.4 0.4,-0.4 h 7.2 c 0.2209,0 0.4,0.179 0.4,0.4 v 3.2 c 0,0.221 0.1791,0.4 0.4,0.4 h 3.2 c 0.2209,0 0.4,0.179 0.4,0.4 v 3.2 c 0,0.221 -0.1791,0.4 -0.4,0.4 h -3.2 c -0.2209,0 -0.4,0.179 -0.4,0.4 v 3.6 z m -44,0 h -7.2 c -0.2209,0 -0.4,-0.179 -0.4,-0.4 v -7.2 c 0,-0.221 0.1791,-0.4 0.4,-0.4 H 20 v 3.6 c 0,0.221 0.1791,0.4 0.4,0.4 H 24 v 4 z m 124,-4 H 140 v -3.6 c 0,-0.221 0.179,-0.4 0.4,-0.4 h 7.6 v 3.6 c 0,0.221 -0.179,0.4 -0.4,0.4 z m -12,0 h -7.2 c -0.221,0 -0.4,-0.179 -0.4,-0.4 v -3.2 c 0,-0.221 -0.179,-0.4 -0.4,-0.4 H 124 v -8 h 3.6 c 0.221,0 0.4,0.179 0.4,0.4 v 3.2 c 0,0.221 0.179,0.4 0.4,0.4 h 3.6 v 3.6 c 0,0.221 0.179,0.4 0.4,0.4 h 3.2 c 0.221,0 0.4,0.179 0.4,0.4 v 3.6 z m -24,0 h -3.2 c -0.221,0 -0.4,-0.179 -0.4,-0.4 v -3.2 c 0,-0.221 0.179,-0.4 0.4,-0.4 h 3.2 c 0.221,0 0.4,0.179 0.4,0.4 v 3.6 z m -84,0 H 24 v -4 h 4 v 3.6 c 0,0.221 -0.1791,0.4 -0.4,0.4 z m 92,-4 h -3.2 c -0.221,0 -0.4,-0.179 -0.4,-0.4 v -3.2 c 0,-0.221 -0.179,-0.4 -0.4,-0.4 h -3.2 c -0.221,0 -0.4,-0.179 -0.4,-0.4 V 148 h 8 v 8 z m -64,0 H 52 v -7.6 c 0,-0.221 0.1791,-0.4 0.4,-0.4 H 56 v 7.6 c 0,0.221 -0.1791,0.4 -0.4,0.4 z m -32,0 H 20 v -11.6 c 0,-0.221 -0.1791,-0.4 -0.4,-0.4 h -3.2 c -0.2209,0 -0.4,-0.179 -0.4,-0.4 v -3.2 c 0,-0.221 0.1791,-0.4 0.4,-0.4 h 3.2 c 0.2209,0 0.4,-0.179 0.4,-0.4 V 136 h 3.6 c 0.2209,0 0.4,0.179 0.4,0.4 v 3.2 c 0,0.221 0.1791,0.4 0.4,0.4 h 3.2 c 0.2209,0 0.4,-0.179 0.4,-0.4 v -15.2 c 0,-0.221 0.1791,-0.4 0.4,-0.4 H 32 v 7.6 c 0,0.221 0.1791,0.4 0.4,0.4 H 36 v 4 h -3.6 c -0.2209,0 -0.4,0.179 -0.4,0.4 v 7.6 h -7.6 c -0.2209,0 -0.4,0.179 -0.4,0.4 v 3.2 c 0,0.221 0.1791,0.4 0.4,0.4 h 3.2 c 0.2209,0 0.4,0.179 0.4,0.4 v 3.6 h -3.6 c -0.2209,0 -0.4,0.179 -0.4,0.4 v 3.6 z m 120,-4 H 132 v -3.6 c 0,-0.221 0.179,-0.4 0.4,-0.4 h 3.2 c 0.221,0 0.4,-0.179 0.4,-0.4 V 144 h 8 v 7.6 c 0,0.221 -0.179,0.4 -0.4,0.4 z m -56,0 H 84 v -4 h 4 v 4 z m -12,0 H 72.4 C 72.1791,152 72,151.821 72,151.6 V 148 h 4 v 4 z M 184,147.6 v -3.2 c 0,-0.221 -0.179,-0.4 -0.4,-0.4 h -3.2 c -0.221,0 -0.4,0.179 -0.4,0.4 v 3.2 c 0,0.221 0.179,0.4 0.4,0.4 h 3.2 c 0.221,0 0.4,-0.179 0.4,-0.4 z M 123.6,148 H 120 v -8 h 3.6 c 0.221,0 0.4,-0.179 0.4,-0.4 V 136 h 8 v 3.6 c 0,0.221 0.179,0.4 0.4,0.4 h 3.2 c 0.221,0 0.4,0.179 0.4,0.4 v 3.6 h -11.6 c -0.221,0 -0.4,0.179 -0.4,0.4 v 3.6 z m -40,0 H 76 v -3.6 C 76,144.179 75.8209,144 75.6,144 H 72 v -4 h 7.6 c 0.2209,0 0.4,0.179 0.4,0.4 v 3.2 c 0,0.221 0.1791,0.4 0.4,0.4 H 84 v 4 z m -12,0 h -3.2 c -0.2209,0 -0.4,-0.179 -0.4,-0.4 v -3.2 c 0,-0.221 0.1791,-0.4 0.4,-0.4 H 72 v 4 z m -12,0 H 56 v -15.6 c 0,-0.221 0.1791,-0.4 0.4,-0.4 H 60 v 3.6 c 0,0.221 0.1791,0.4 0.4,0.4 h 3.2 c 0.2209,0 0.4,-0.179 0.4,-0.4 v -3.2 C 64,132.179 63.8209,132 63.6,132 H 60 v -11.6 c 0,-0.221 0.1791,-0.4 0.4,-0.4 h 3.2 c 0.2209,0 0.4,-0.179 0.4,-0.4 V 116 h 3.6 c 0.2209,0 0.4,-0.179 0.4,-0.4 V 112 h 4 v 7.6 c 0,0.221 0.1791,0.4 0.4,0.4 h 3.2 c 0.2209,0 0.4,0.179 0.4,0.4 v 3.2 c 0,0.221 0.1791,0.4 0.4,0.4 h 3.2 c 0.2209,0 0.4,-0.179 0.4,-0.4 v -3.2 c 0,-0.221 0.1791,-0.4 0.4,-0.4 h 7.2 c 0.2209,0 0.4,0.179 0.4,0.4 v 3.2 c 0,0.221 -0.1791,0.4 -0.4,0.4 h -3.2 c -0.2209,0 -0.4,0.179 -0.4,0.4 v 3.6 h -7.6 c -0.2209,0 -0.4,0.179 -0.4,0.4 v 3.6 h -7.6 c -0.2209,0 -0.4,0.179 -0.4,0.4 v 3.2 c 0,0.221 0.1791,0.4 0.4,0.4 h 3.2 c 0.2209,0 0.4,0.179 0.4,0.4 V 140 H 60.4 c -0.2209,0 -0.4,0.179 -0.4,0.4 v 7.2 c 0,0.221 -0.1791,0.4 -0.4,0.4 z m 152,-4 h -3.2 c -0.221,0 -0.4,-0.179 -0.4,-0.4 v -3.2 c 0,-0.221 -0.179,-0.4 -0.4,-0.4 h -3.2 c -0.221,0 -0.4,-0.179 -0.4,-0.4 V 132 h 3.6 c 0.221,0 0.4,0.179 0.4,0.4 v 3.2 c 0,0.221 0.179,0.4 0.4,0.4 h 3.2 c 0.221,0 0.4,0.179 0.4,0.4 v 7.2 c 0,0.221 -0.179,0.4 -0.4,0.4 z m -124,0 H 84 v -7.6 c 0,-0.221 0.1791,-0.4 0.4,-0.4 h 3.2 c 0.2209,0 0.4,-0.179 0.4,-0.4 V 132 h 4 v 3.6 c 0,0.221 0.1791,0.4 0.4,0.4 h 3.2 c 0.2209,0 0.4,0.179 0.4,0.4 v 3.2 c 0,0.221 -0.1791,0.4 -0.4,0.4 h -7.2 c -0.2209,0 -0.4,0.179 -0.4,0.4 v 3.6 z m 112,-4 H 196 v -3.6 c 0,-0.221 0.179,-0.4 0.4,-0.4 h 3.2 c 0.221,0 0.4,0.179 0.4,0.4 v 3.2 c 0,0.221 -0.179,0.4 -0.4,0.4 z m -80,0 H 116 v -4 h 4 v 4 z m 48,-4 H 164 v -4 h 4 v 4 z m -88,0 H 76.4 C 76.1791,136 76,135.821 76,135.6 V 132 h 3.6 c 0.2209,0 0.4,0.179 0.4,0.4 v 3.2 c 0,0.221 -0.1791,0.4 -0.4,0.4 z m -60,0 h -3.2 c -0.2209,0 -0.4,-0.179 -0.4,-0.4 v -23.2 c 0,-0.221 0.1791,-0.4 0.4,-0.4 H 20 v 7.6 c 0,0.221 0.1791,0.4 0.4,0.4 H 24 v 3.6 c 0,0.221 -0.1791,0.4 -0.4,0.4 h -3.2 c -0.2209,0 -0.4,0.179 -0.4,0.4 V 136 Z M 188,131.6 v -7.2 c 0,-0.221 -0.179,-0.4 -0.4,-0.4 h -7.2 c -0.221,0 -0.4,0.179 -0.4,0.4 v 3.2 c 0,0.221 0.179,0.4 0.4,0.4 h 3.2 c 0.221,0 0.4,0.179 0.4,0.4 v 3.2 c 0,0.221 0.179,0.4 0.4,0.4 h 3.2 c 0.221,0 0.4,-0.179 0.4,-0.4 z M 87.6,132 H 84.4 C 84.1791,132 84,131.821 84,131.6 V 128 h 3.6 c 0.2209,0 0.4,0.179 0.4,0.4 v 3.6 z m -44,0 H 36 v -3.6 c 0,-0.221 0.1791,-0.4 0.4,-0.4 H 44 v 4 z m 96,-4 h -3.2 c -0.221,0 -0.4,-0.179 -0.4,-0.4 v -3.2 c 0,-0.221 0.179,-0.4 0.4,-0.4 h 3.2 c 0.221,0 0.4,0.179 0.4,0.4 V 128 Z M 112,127.6 v -3.2 c 0,-0.221 -0.179,-0.4 -0.4,-0.4 h -3.2 c -0.221,0 -0.4,0.179 -0.4,0.4 v 3.2 c 0,0.221 0.179,0.4 0.4,0.4 h 3.2 c 0.221,0 0.4,-0.179 0.4,-0.4 z m -40,0 v -3.2 c 0,-0.221 -0.1791,-0.4 -0.4,-0.4 h -3.2 c -0.2209,0 -0.4,0.179 -0.4,0.4 v 3.2 c 0,0.221 0.1791,0.4 0.4,0.4 h 3.2 c 0.2209,0 0.4,-0.179 0.4,-0.4 z M 55.6,128 H 52 v -4 h 3.6 c 0.2209,0 0.4,0.179 0.4,0.4 v 3.2 c 0,0.221 -0.1791,0.4 -0.4,0.4 z m -8,0 H 44 v -3.6 C 44,124.179 43.8209,124 43.6,124 H 32 v -7.6 C 32,116.179 31.8209,116 31.6,116 H 28 v -3.6 c 0,-0.221 0.1791,-0.4 0.4,-0.4 h 3.2 c 0.2209,0 0.4,-0.179 0.4,-0.4 v -3.2 c 0,-0.221 -0.1791,-0.4 -0.4,-0.4 h -7.2 c -0.2209,0 -0.4,0.179 -0.4,0.4 v 3.2 c 0,0.221 -0.1791,0.4 -0.4,0.4 H 20 v -3.6 c 0,-0.221 -0.1791,-0.4 -0.4,-0.4 h -3.2 c -0.2209,0 -0.4,-0.179 -0.4,-0.4 v -3.2 c 0,-0.221 0.1791,-0.4 0.4,-0.4 h 19.2 c 0.2209,0 0.4,-0.179 0.4,-0.4 V 96 h 7.6 c 0.2209,0 0.4,0.1791 0.4,0.4 v 3.6 h -3.6 c -0.2209,0 -0.4,0.179 -0.4,0.4 v 3.2 c 0,0.221 0.1791,0.4 0.4,0.4 h 3.2 c 0.2209,0 0.4,-0.179 0.4,-0.4 V 100 h 4 v 3.6 c 0,0.221 0.1791,0.4 0.4,0.4 h 7.2 c 0.2209,0 0.4,-0.179 0.4,-0.4 V 96.4 C 56,96.1791 56.1791,96 56.4,96 h 3.2 C 59.8209,96 60,95.8209 60,95.6 V 92.4 C 60,92.1791 60.1791,92 60.4,92 h 3.2 c 0.2209,0 0.4,0.1791 0.4,0.4 v 7.2 c 0,0.2209 0.1791,0.4 0.4,0.4 h 7.2 c 0.2209,0 0.4,0.179 0.4,0.4 V 104 H 60.4 c -0.2209,0 -0.4,0.179 -0.4,0.4 v 3.2 c 0,0.221 0.1791,0.4 0.4,0.4 h 7.2 c 0.2209,0 0.4,0.179 0.4,0.4 v 3.6 h -3.6 c -0.2209,0 -0.4,0.179 -0.4,0.4 v 3.6 h -8 v -7.6 c 0,-0.221 -0.1791,-0.4 -0.4,-0.4 h -3.2 c -0.2209,0 -0.4,0.179 -0.4,0.4 v 7.2 c 0,0.221 0.1791,0.4 0.4,0.4 H 56 v 3.6 c 0,0.221 -0.1791,0.4 -0.4,0.4 h -3.2 c -0.2209,0 -0.4,0.179 -0.4,0.4 v 3.6 h -3.6 c -0.2209,0 -0.4,0.179 -0.4,0.4 V 128 Z M 208,119.6 v -3.2 c 0,-0.221 -0.179,-0.4 -0.4,-0.4 H 204 v -3.6 c 0,-0.221 0.179,-0.4 0.4,-0.4 h 3.2 c 0.221,0 0.4,-0.179 0.4,-0.4 v -3.2 c 0,-0.221 -0.179,-0.4 -0.4,-0.4 h -11.2 c -0.221,0 -0.4,0.179 -0.4,0.4 v 7.2 c 0,0.221 0.179,0.4 0.4,0.4 h 7.6 v 3.6 c 0,0.221 0.179,0.4 0.4,0.4 h 3.2 c 0.221,0 0.4,-0.179 0.4,-0.4 z m -16,0 v -11.2 c 0,-0.221 -0.179,-0.4 -0.4,-0.4 h -11.2 c -0.221,0 -0.4,0.179 -0.4,0.4 v 11.2 c 0,0.221 0.179,0.4 0.4,0.4 h 11.2 c 0.221,0 0.4,-0.179 0.4,-0.4 z m -24.4,0.4 h -3.2 c -0.221,0 -0.4,-0.179 -0.4,-0.4 V 116 h 4 v 4 z m -20,0 H 128 v -3.6 c 0,-0.221 0.179,-0.4 0.4,-0.4 h 7.2 c 0.221,0 0.4,-0.179 0.4,-0.4 v -3.2 c 0,-0.221 0.179,-0.4 0.4,-0.4 h 7.2 c 0.221,0 0.4,0.179 0.4,0.4 v 3.2 c 0,0.221 0.179,0.4 0.4,0.4 h 3.6 v 4 z M 120,119.6 v -11.2 c 0,-0.221 -0.179,-0.4 -0.4,-0.4 h -11.2 c -0.221,0 -0.4,0.179 -0.4,0.4 v 11.2 c 0,0.221 0.179,0.4 0.4,0.4 h 11.2 c 0.221,0 0.4,-0.179 0.4,-0.4 z m -72,0 V 108.4 C 48,108.179 47.8209,108 47.6,108 H 36.4 c -0.2209,0 -0.4,0.179 -0.4,0.4 v 11.2 c 0,0.221 0.1791,0.4 0.4,0.4 h 11.2 c 0.2209,0 0.4,-0.179 0.4,-0.4 z M 27.6,120 H 24 v -3.6 c 0,-0.221 0.1791,-0.4 0.4,-0.4 H 28 v 3.6 c 0,0.221 -0.1791,0.4 -0.4,0.4 z m 160,-4 h -3.2 c -0.221,0 -0.4,-0.179 -0.4,-0.4 v -3.2 c 0,-0.221 0.179,-0.4 0.4,-0.4 h 3.2 c 0.221,0 0.4,0.179 0.4,0.4 v 3.2 c 0,0.221 -0.179,0.4 -0.4,0.4 z m -16,0 H 168 v -4 h 3.6 c 0.221,0 0.4,0.179 0.4,0.4 v 3.2 c 0,0.221 -0.179,0.4 -0.4,0.4 z m -8,0 H 148 v -7.6 c 0,-0.221 0.179,-0.4 0.4,-0.4 h 3.6 v 3.6 c 0,0.221 0.179,0.4 0.4,0.4 h 3.2 c 0.221,0 0.4,-0.179 0.4,-0.4 V 108 h 3.6 c 0.221,0 0.4,-0.179 0.4,-0.4 v -3.2 c 0,-0.221 -0.179,-0.4 -0.4,-0.4 H 156 v -7.6 c 0,-0.2209 0.179,-0.4 0.4,-0.4 h 7.2 c 0.221,0 0.4,-0.1791 0.4,-0.4 v -3.2 c 0,-0.2209 -0.179,-0.4 -0.4,-0.4 h -7.2 C 156.179,92 156,91.8209 156,91.6 V 80.4 c 0,-0.2209 0.179,-0.4 0.4,-0.4 h 3.2 c 0.221,0 0.4,-0.1791 0.4,-0.4 V 76 h 3.6 c 0.221,0 0.4,0.1791 0.4,0.4 V 84 h -3.6 c -0.221,0 -0.4,0.1791 -0.4,0.4 v 3.2 c 0,0.2209 0.179,0.4 0.4,0.4 h 3.2 c 0.221,0 0.4,-0.1791 0.4,-0.4 V 84 h 4 v 15.6 c 0,0.2209 -0.179,0.4 -0.4,0.4 h -3.2 c -0.221,0 -0.4,0.179 -0.4,0.4 v 7.2 c 0,0.221 0.179,0.4 0.4,0.4 h 3.6 v 4 h -3.6 c -0.221,0 -0.4,0.179 -0.4,0.4 v 3.6 z m -48,0 h -3.2 c -0.221,0 -0.4,-0.179 -0.4,-0.4 v -3.2 c 0,-0.221 0.179,-0.4 0.4,-0.4 h 3.2 c 0.221,0 0.4,0.179 0.4,0.4 v 3.2 c 0,0.221 -0.179,0.4 -0.4,0.4 z m -36,0 H 76.4 C 76.1791,116 76,115.821 76,115.6 V 112 h 4 v 3.6 c 0,0.221 -0.1791,0.4 -0.4,0.4 z m -36,0 h -3.2 c -0.2209,0 -0.4,-0.179 -0.4,-0.4 v -3.2 c 0,-0.221 0.1791,-0.4 0.4,-0.4 h 3.2 c 0.2209,0 0.4,0.179 0.4,0.4 v 3.2 c 0,0.221 -0.1791,0.4 -0.4,0.4 z m 128,-8 H 168 v -3.6 c 0,-0.221 0.179,-0.4 0.4,-0.4 h 3.2 c 0.221,0 0.4,0.179 0.4,0.4 v 3.2 c 0,0.221 -0.179,0.4 -0.4,0.4 z m -16,0 H 152 v -3.6 c 0,-0.221 0.179,-0.4 0.4,-0.4 h 3.6 v 4 z m -28,-8 h -7.2 c -0.221,0 -0.4,-0.1791 -0.4,-0.4 v -3.2 c 0,-0.2209 0.179,-0.4 0.4,-0.4 h 7.6 v 3.6 c 0,0.2209 -0.179,0.4 -0.4,0.4 z m -12,0 H 108 v -7.6 c 0,-0.2209 -0.179,-0.4 -0.4,-0.4 h -7.2 c -0.221,0 -0.4,0.1791 -0.4,0.4 v 3.2 c 0,0.2209 -0.1791,0.4 -0.4,0.4 H 96.4 C 96.1791,96 96,95.8209 96,95.6 V 88 h 3.6 c 0.2209,0 0.4,-0.1791 0.4,-0.4 V 84 h 3.6 c 0.221,0 0.4,-0.1791 0.4,-0.4 V 80 h 3.6 c 0.221,0 0.4,-0.1791 0.4,-0.4 V 76 h 3.6 c 0.221,0 0.4,0.1791 0.4,0.4 v 3.2 c 0,0.2209 0.179,0.4 0.4,0.4 h 7.6 v 8 h -3.6 c -0.221,0 -0.4,0.1791 -0.4,0.4 v 11.2 c 0,0.2209 -0.179,0.4 -0.4,0.4 z m -36,0 H 76.4 C 76.1791,100 76,99.8209 76,99.6 V 96.4 C 76,96.1791 76.1791,96 76.4,96 H 80 v 4 z m -28,0 H 48 V 96.4 C 48,96.1791 48.1791,96 48.4,96 h 3.2 c 0.2209,0 0.4,0.1791 0.4,0.4 v 3.2 c 0,0.2209 -0.1791,0.4 -0.4,0.4 z m -20,0 H 28.4 C 28.1791,100 28,99.8209 28,99.6 V 96.4 C 28,96.1791 27.8209,96 27.6,96 H 24.4 C 24.1791,96 24,96.1791 24,96.4 v 3.2 c 0,0.2209 -0.1791,0.4 -0.4,0.4 H 16.4 C 16.1791,100 16,99.8209 16,99.6 V 96.4 C 16,96.1791 16.1791,96 16.4,96 h 3.2 C 19.8209,96 20,95.8209 20,95.6 V 92.4 C 20,92.1791 19.8209,92 19.6,92 H 16.4 C 16.1791,92 16,91.8209 16,91.6 V 84.4 C 16,84.1791 16.1791,84 16.4,84 H 20 v 3.6 c 0,0.2209 0.1791,0.4 0.4,0.4 H 31.6 C 31.8209,88 32,87.8209 32,87.6 V 84.4 C 32,84.1791 32.1791,84 32.4,84 h 3.2 c 0.2209,0 0.4,0.1791 0.4,0.4 v 3.2 c 0,0.2209 0.1791,0.4 0.4,0.4 H 44 v 3.6 C 44,91.8209 43.8209,92 43.6,92 H 36.4 C 36.1791,92 36,92.1791 36,92.4 V 96 H 32.4 C 32.1791,96 32,96.1791 32,96.4 v 3.2 c 0,0.2209 -0.1791,0.4 -0.4,0.4 z m 168,-4 H 192 V 84 h 7.6 c 0.221,0 0.4,0.1791 0.4,0.4 V 88 h -3.6 c -0.221,0 -0.4,0.1791 -0.4,0.4 v 3.2 c 0,0.2209 0.179,0.4 0.4,0.4 h 3.6 v 4 z m -48,0 H 144 v -3.6 c 0,-0.2209 0.179,-0.4 0.4,-0.4 h 3.2 c 0.221,0 0.4,-0.1791 0.4,-0.4 V 88 h 3.6 c 0.221,0 0.4,0.1791 0.4,0.4 v 7.2 c 0,0.2209 -0.179,0.4 -0.4,0.4 z m -80,0 H 68.4 C 68.1791,96 68,95.8209 68,95.6 V 92.4 C 68,92.1791 68.1791,92 68.4,92 h 3.2 c 0.2209,0 0.4,0.1791 0.4,0.4 v 3.2 c 0,0.2209 -0.1791,0.4 -0.4,0.4 z m -16,-4 H 52.4 C 52.1791,92 52,91.8209 52,91.6 V 88 h 4 v 3.6 c 0,0.2209 -0.1791,0.4 -0.4,0.4 z m 132,-4 H 180 V 84.4 C 180,84.1791 179.821,84 179.6,84 H 168 v -3.6 c 0,-0.2209 0.179,-0.4 0.4,-0.4 h 7.2 c 0.221,0 0.4,-0.1791 0.4,-0.4 v -7.2 c 0,-0.2209 0.179,-0.4 0.4,-0.4 h 3.6 v 7.6 c 0,0.2209 0.179,0.4 0.4,0.4 H 192 v 4 h -3.6 c -0.221,0 -0.4,0.1791 -0.4,0.4 v 3.2 c 0,0.2209 -0.179,0.4 -0.4,0.4 z m -92,0 H 92 v -4 h 4 v 4 z m -20,0 H 72.4 C 72.1791,88 72,87.8209 72,87.6 V 84 h 4 v 4 z m -16,0 H 56 V 84.4 C 56,84.1791 56.1791,84 56.4,84 H 60 v 3.6 c 0,0.2209 -0.1791,0.4 -0.4,0.4 z m -8,0 H 44 V 84.4 C 44,84.1791 43.8209,84 43.6,84 H 40.4 C 40.1791,84 40,83.8209 40,83.6 V 80.4 C 40,80.1791 40.1791,80 40.4,80 H 48 v 3.6 c 0,0.2209 0.1791,0.4 0.4,0.4 h 3.2 c 0.2209,0 0.4,0.1791 0.4,0.4 V 88 Z m 76,-4 h -3.2 C 124.179,84 124,83.8209 124,83.6 V 80 h 4 v 3.6 c 0,0.2209 -0.179,0.4 -0.4,0.4 z m -28,0 H 96 V 80.4 C 96,80.1791 96.1791,80 96.4,80 h 3.6 v 4 z m -8,0 H 84.4 C 84.1791,84 84,83.8209 84,83.6 V 80.4 C 84,80.1791 84.1791,80 84.4,80 h 7.2 c 0.2209,0 0.4,0.1791 0.4,0.4 V 84 Z m -12,0 H 76 v -8 h 3.6 c 0.2209,0 0.4,0.1791 0.4,0.4 v 7.2 c 0,0.2209 -0.1791,0.4 -0.4,0.4 z m -8,0 H 60 v -4 h 7.6 C 67.8209,80 68,79.8209 68,79.6 V 72.4 C 68,72.1791 68.1791,72 68.4,72 H 76 v 4 H 72.4 C 72.1791,76 72,76.1791 72,76.4 V 84 Z m -48,0 H 20 V 80.4 C 20,80.1791 20.1791,80 20.4,80 h 3.2 c 0.2209,0 0.4,0.1791 0.4,0.4 v 3.2 c 0,0.2209 -0.1791,0.4 -0.4,0.4 z m 172,-4 H 192 v -4 h 3.6 c 0.221,0 0.4,0.1791 0.4,0.4 v 3.2 c 0,0.2209 -0.179,0.4 -0.4,0.4 z m -72,0 H 120 v -3.6 c 0,-0.2209 -0.179,-0.4 -0.4,-0.4 h -3.2 C 116.179,76 116,75.8209 116,75.6 V 72 h 7.6 c 0.221,0 0.4,-0.1791 0.4,-0.4 V 68 h 7.6 c 0.221,0 0.4,-0.1791 0.4,-0.4 V 48 h 12 v 12 h -7.6 c -0.221,0 -0.4,0.1791 -0.4,0.4 v 3.2 c 0,0.2209 0.179,0.4 0.4,0.4 h 7.6 v 8 h -15.6 c -0.221,0 -0.4,0.1791 -0.4,0.4 V 76 h -3.6 c -0.221,0 -0.4,0.1791 -0.4,0.4 V 80 Z m -20,0 H 100 V 68.4 c 0,-0.2209 0.179,-0.4 0.4,-0.4 h 3.6 v 3.6 c 0,0.2209 0.179,0.4 0.4,0.4 h 3.6 v 4 h -3.6 c -0.221,0 -0.4,0.1791 -0.4,0.4 V 80 Z m -44,0 H 48 v -4 h 3.6 C 51.8209,76 52,75.8209 52,75.6 V 72.4 C 52,72.1791 52.1791,72 52.4,72 h 3.2 C 55.8209,72 56,71.8209 56,71.6 V 68.4 C 56,68.1791 55.8209,68 55.6,68 H 40 v -4 h 3.6 C 43.8209,64 44,63.8209 44,63.6 V 60.4 C 44,60.1791 43.8209,60 43.6,60 H 40.4 C 40.1791,60 40,60.1791 40,60.4 V 64 H 36.4 C 36.1791,64 36,63.8209 36,63.6 V 60.4 C 36,60.1791 35.8209,60 35.6,60 H 32.4 C 32.1791,60 32,59.8209 32,59.6 V 56 h 15.6 c 0.2209,0 0.4,0.1791 0.4,0.4 v 7.2 c 0,0.2209 0.1791,0.4 0.4,0.4 h 7.2 C 55.8209,64 56,63.8209 56,63.6 V 60.4 C 56,60.1791 56.1791,60 56.4,60 h 3.2 c 0.2209,0 0.4,0.1791 0.4,0.4 v 7.2 c 0,0.2209 0.1791,0.4 0.4,0.4 H 64 v 3.6 C 64,71.8209 63.8209,72 63.6,72 H 60.4 C 60.1791,72 60,72.1791 60,72.4 V 80 Z m -24,0 H 32.4 C 32.1791,80 32,79.8209 32,79.6 V 76.4 C 32,76.1791 32.1791,76 32.4,76 H 36 v 3.6 c 0,0.2209 -0.1791,0.4 -0.4,0.4 z m 156,-4 h -3.2 C 188.179,76 188,75.8209 188,75.6 V 72.4 C 188,72.1791 187.821,72 187.6,72 H 180 v -4 h 7.6 c 0.221,0 0.4,-0.1791 0.4,-0.4 v -3.2 c 0,-0.2209 0.179,-0.4 0.4,-0.4 h 3.6 v 12 z m -20,0 h -3.2 C 168.179,76 168,75.8209 168,75.6 V 72 h 3.6 c 0.221,0 0.4,0.1791 0.4,0.4 v 3.2 c 0,0.2209 -0.179,0.4 -0.4,0.4 z m -76,0 H 92.4 C 92.1791,76 92,75.8209 92,75.6 V 72 h 3.6 c 0.2209,0 0.4,0.1791 0.4,0.4 v 3.2 c 0,0.2209 -0.1791,0.4 -0.4,0.4 z m -48,0 H 36 V 72.4 C 36,72.1791 35.8209,72 35.6,72 H 24.4 C 24.1791,72 24,72.1791 24,72.4 v 3.2 C 24,75.8209 23.8209,76 23.6,76 H 16.4 C 16.1791,76 16,75.8209 16,75.6 V 64.4 C 16,64.1791 16.1791,64 16.4,64 h 3.2 C 19.8209,64 20,63.8209 20,63.6 V 60.4 C 20,60.1791 20.1791,60 20.4,60 H 24 v 7.6 c 0,0.2209 0.1791,0.4 0.4,0.4 h 3.2 C 27.8209,68 28,67.8209 28,67.6 V 64.4 C 28,64.1791 28.1791,64 28.4,64 h 3.2 c 0.2209,0 0.4,0.1791 0.4,0.4 v 3.2 c 0,0.2209 0.1791,0.4 0.4,0.4 H 40 v 3.6 c 0,0.2209 0.1791,0.4 0.4,0.4 h 7.2 c 0.2209,0 0.4,0.1791 0.4,0.4 V 76 Z m 120,-4 H 160 v -3.6 c 0,-0.2209 -0.179,-0.4 -0.4,-0.4 h -3.2 c -0.221,0 -0.4,-0.1791 -0.4,-0.4 v -3.2 c 0,-0.2209 0.179,-0.4 0.4,-0.4 h 7.6 v 3.6 c 0,0.2209 0.179,0.4 0.4,0.4 h 3.2 c 0.221,0 0.4,0.1791 0.4,0.4 V 72 Z m -52,0 H 108 v -4 h 3.6 c 0.221,0 0.4,-0.1791 0.4,-0.4 V 64 h 3.6 c 0.221,0 0.4,0.1791 0.4,0.4 V 72 Z m -24,0 H 88.4 C 88.1791,72 88,71.8209 88,71.6 V 68 h 4 v 4 z m -12,0 H 76 v -4 h 3.6 c 0.2209,0 0.4,0.1791 0.4,0.4 v 3.2 c 0,0.2209 -0.1791,0.4 -0.4,0.4 z m 132,-4 H 208 v -3.6 c 0,-0.2209 0.179,-0.4 0.4,-0.4 h 3.2 c 0.221,0 0.4,0.1791 0.4,0.4 v 3.2 c 0,0.2209 -0.179,0.4 -0.4,0.4 z m -32,0 h -7.2 C 172.179,68 172,67.8209 172,67.6 V 64 h 3.6 c 0.221,0 0.4,-0.1791 0.4,-0.4 v -3.2 c 0,-0.2209 0.179,-0.4 0.4,-0.4 h 3.2 c 0.221,0 0.4,-0.1791 0.4,-0.4 V 48.4 c 0,-0.2209 0.179,-0.4 0.4,-0.4 h 3.2 c 0.221,0 0.4,0.1791 0.4,0.4 v 3.2 c 0,0.2209 0.179,0.4 0.4,0.4 h 3.2 c 0.221,0 0.4,-0.1791 0.4,-0.4 v -3.2 c 0,-0.2209 0.179,-0.4 0.4,-0.4 h 3.2 c 0.221,0 0.4,0.1791 0.4,0.4 V 56 h -3.6 c -0.221,0 -0.4,0.1791 -0.4,0.4 v 3.2 c 0,0.2209 -0.179,0.4 -0.4,0.4 h -3.2 c -0.221,0 -0.4,0.1791 -0.4,0.4 v 3.2 c 0,0.2209 -0.179,0.4 -0.4,0.4 h -3.2 c -0.221,0 -0.4,0.1791 -0.4,0.4 V 68 Z m -28,0 h -3.2 C 148.179,68 148,67.8209 148,67.6 V 64 h 3.6 c 0.221,0 0.4,0.1791 0.4,0.4 v 3.2 c 0,0.2209 -0.179,0.4 -0.4,0.4 z m -28,0 h -3.2 c -0.221,0 -0.4,-0.1791 -0.4,-0.4 v -3.2 c 0,-0.2209 0.179,-0.4 0.4,-0.4 h 3.6 v 4 z m -16,0 H 104 v -3.6 c 0,-0.2209 0.179,-0.4 0.4,-0.4 h 3.6 v 4 z m -12,0 H 92 V 64.4 C 92,64.1791 92.1791,64 92.4,64 H 96 v 3.6 c 0,0.2209 -0.1791,0.4 -0.4,0.4 z m -8,0 H 84.4 C 84.1791,68 84,67.8209 84,67.6 V 64.4 C 84,64.1791 84.1791,64 84.4,64 h 3.2 c 0.2209,0 0.4,0.1791 0.4,0.4 V 68 Z m -12,0 H 64 V 60.4 C 64,60.1791 64.1791,60 64.4,60 H 68 v 3.6 c 0,0.2209 0.1791,0.4 0.4,0.4 h 3.2 C 71.8209,64 72,63.8209 72,63.6 V 60.4 C 72,60.1791 71.8209,60 71.6,60 H 68 V 56.4 C 68,56.1791 68.1791,56 68.4,56 h 11.2 c 0.2209,0 0.4,0.1791 0.4,0.4 v 3.2 C 80,59.8209 79.8209,60 79.6,60 H 76.4 C 76.1791,60 76,60.1791 76,60.4 V 68 Z m 120,-4 H 192 v -8 h 3.6 c 0.221,0 0.4,-0.1791 0.4,-0.4 v -7.2 c 0,-0.2209 0.179,-0.4 0.4,-0.4 h 3.2 c 0.221,0 0.4,0.1791 0.4,0.4 v 11.2 c 0,0.2209 -0.179,0.4 -0.4,0.4 h -3.2 c -0.221,0 -0.4,0.1791 -0.4,0.4 v 3.2 c 0,0.2209 -0.179,0.4 -0.4,0.4 z m -24,0 H 164 v -8 h 7.6 c 0.221,0 0.4,0.1791 0.4,0.4 V 64 Z m -24,0 H 144 v -4 h 3.6 c 0.221,0 0.4,0.1791 0.4,0.4 V 64 Z m -20,0 H 124 v -3.6 c 0,-0.2209 0.179,-0.4 0.4,-0.4 h 3.2 c 0.221,0 0.4,0.1791 0.4,0.4 v 3.2 c 0,0.2209 -0.179,0.4 -0.4,0.4 z m -16,0 H 108 v -7.6 c 0,-0.2209 -0.179,-0.4 -0.4,-0.4 h -3.2 C 104.179,56 104,55.8209 104,55.6 V 40.4 c 0,-0.2209 -0.179,-0.4 -0.4,-0.4 h -3.2 c -0.221,0 -0.4,0.1791 -0.4,0.4 v 11.2 c 0,0.2209 -0.1791,0.4 -0.4,0.4 H 96 V 48.4 C 96,48.1791 95.8209,48 95.6,48 H 92 v -4 h 3.6 C 95.8209,44 96,43.8209 96,43.6 V 36.4 C 96,36.1791 95.8209,36 95.6,36 H 84.4 C 84.1791,36 84,36.1791 84,36.4 V 48 H 80 V 40.4 C 80,40.1791 79.8209,40 79.6,40 H 76.4 C 76.1791,40 76,40.1791 76,40.4 v 3.2 C 76,43.8209 75.8209,44 75.6,44 H 72 V 40.4 C 72,40.1791 71.8209,40 71.6,40 H 68 v -8 h 3.6 c 0.2209,0 0.4,0.1791 0.4,0.4 v 3.2 c 0,0.2209 0.1791,0.4 0.4,0.4 h 7.2 C 79.8209,36 80,35.8209 80,35.6 V 32 h 7.6 C 87.8209,32 88,31.8209 88,31.6 V 28.4 C 88,28.1791 87.8209,28 87.6,28 H 84.4 C 84.1791,28 84,27.8209 84,27.6 V 24 h 3.6 C 87.8209,24 88,23.8209 88,23.6 V 20.4 C 88,20.1791 88.1791,20 88.4,20 H 92 v 3.6 c 0,0.2209 0.1791,0.4 0.4,0.4 h 7.2 c 0.2209,0 0.4,-0.1791 0.4,-0.4 v -3.2 c 0,-0.2209 0.179,-0.4 0.4,-0.4 h 3.2 c 0.221,0 0.4,0.1791 0.4,0.4 v 3.2 c 0,0.2209 0.179,0.4 0.4,0.4 h 7.2 c 0.221,0 0.4,-0.1791 0.4,-0.4 v -7.2 c 0,-0.2209 0.179,-0.4 0.4,-0.4 h 7.2 c 0.221,0 0.4,0.1791 0.4,0.4 V 20 h -3.6 c -0.221,0 -0.4,0.1791 -0.4,0.4 v 7.2 c 0,0.2209 0.179,0.4 0.4,0.4 h 3.2 c 0.221,0 0.4,0.1791 0.4,0.4 v 3.2 c 0,0.2209 0.179,0.4 0.4,0.4 h 3.6 v 3.6 c 0,0.2209 0.179,0.4 0.4,0.4 h 7.6 v 12 h -7.6 c -0.221,0 -0.4,0.1791 -0.4,0.4 v 3.2 c 0,0.2209 -0.179,0.4 -0.4,0.4 h -3.2 c -0.221,0 -0.4,0.1791 -0.4,0.4 v 7.2 c 0,0.2209 -0.179,0.4 -0.4,0.4 h -7.2 c -0.221,0 -0.4,0.1791 -0.4,0.4 V 64 Z m -12,0 H 96 v -8 h 3.6 c 0.2209,0 0.4,0.1791 0.4,0.4 v 7.2 c 0,0.2209 -0.1791,0.4 -0.4,0.4 z m 112,-4 h -7.2 c -0.221,0 -0.4,-0.1791 -0.4,-0.4 v -3.2 c 0,-0.2209 0.179,-0.4 0.4,-0.4 h 7.2 c 0.221,0 0.4,0.1791 0.4,0.4 v 3.2 c 0,0.2209 -0.179,0.4 -0.4,0.4 z m -56,0 h -3.2 C 152.179,60 152,59.8209 152,59.6 V 56 h 4 v 3.6 c 0,0.2209 -0.179,0.4 -0.4,0.4 z m -68,0 H 84.4 C 84.1791,60 84,59.8209 84,59.6 V 48 h 8 v 3.6 c 0,0.2209 0.1791,0.4 0.4,0.4 H 96 v 4 H 88.4 C 88.1791,56 88,56.1791 88,56.4 v 3.2 c 0,0.2209 -0.1791,0.4 -0.4,0.4 z m -60,0 H 24 V 52.4 C 24,52.1791 23.8209,52 23.6,52 H 16.4 C 16.1791,52 16,51.8209 16,51.6 V 48.4 C 16,48.1791 16.1791,48 16.4,48 h 19.2 c 0.2209,0 0.4,0.1791 0.4,0.4 v 3.2 C 36,51.8209 35.8209,52 35.6,52 H 32.4 C 32.1791,52 32,52.1791 32,52.4 V 56 H 28.4 C 28.1791,56 28,56.1791 28,56.4 v 3.2 c 0,0.2209 -0.1791,0.4 -0.4,0.4 z m 136,-4 H 156 v -4 h 3.6 c 0.221,0 0.4,-0.1791 0.4,-0.4 V 48 h 8 v 3.6 c 0,0.2209 -0.179,0.4 -0.4,0.4 h -3.2 c -0.221,0 -0.4,0.1791 -0.4,0.4 V 56 Z m -12,0 h -3.2 C 148.179,56 148,55.8209 148,55.6 V 48 h 3.6 c 0.221,0 0.4,-0.1791 0.4,-0.4 V 40.4 C 152,40.1791 151.821,40 151.6,40 H 148 v -3.6 c 0,-0.2209 0.179,-0.4 0.4,-0.4 h 7.2 c 0.221,0 0.4,-0.1791 0.4,-0.4 v -3.2 c 0,-0.2209 -0.179,-0.4 -0.4,-0.4 h -7.2 C 148.179,32 148,31.8209 148,31.6 V 28 h 3.6 c 0.221,0 0.4,-0.1791 0.4,-0.4 V 24 h 4 v 3.6 c 0,0.2209 0.179,0.4 0.4,0.4 h 11.2 c 0.221,0 0.4,0.1791 0.4,0.4 V 36 h -3.6 c -0.221,0 -0.4,0.1791 -0.4,0.4 v 7.2 c 0,0.2209 -0.179,0.4 -0.4,0.4 H 160 v -3.6 c 0,-0.2209 -0.179,-0.4 -0.4,-0.4 h -3.2 c -0.221,0 -0.4,0.1791 -0.4,0.4 v 3.2 c 0,0.2209 0.179,0.4 0.4,0.4 h 3.6 v 4 h -3.6 c -0.221,0 -0.4,0.1791 -0.4,0.4 V 52 h -3.6 c -0.221,0 -0.4,0.1791 -0.4,0.4 V 56 Z m -88,0 H 52.4 C 52.1791,56 52,55.8209 52,55.6 V 52.4 C 52,52.1791 51.8209,52 51.6,52 H 40.4 C 40.1791,52 40,51.8209 40,51.6 V 48.4 C 40,48.1791 40.1791,48 40.4,48 H 51.6 C 51.8209,48 52,47.8209 52,47.6 V 44 h 4 v 3.6 c 0,0.2209 0.1791,0.4 0.4,0.4 h 3.2 C 59.8209,48 60,47.8209 60,47.6 V 44 h 4 v 3.6 c 0,0.2209 0.1791,0.4 0.4,0.4 h 3.2 C 67.8209,48 68,47.8209 68,47.6 V 44 h 4 v 7.6 C 72,51.8209 71.8209,52 71.6,52 H 64.4 C 64.1791,52 64,52.1791 64,52.4 v 3.2 c 0,0.2209 -0.1791,0.4 -0.4,0.4 z m 144,-4 h -3.2 c -0.221,0 -0.4,-0.1791 -0.4,-0.4 v -3.2 c 0,-0.2209 0.179,-0.4 0.4,-0.4 h 3.2 c 0.221,0 0.4,0.1791 0.4,0.4 v 3.2 c 0,0.2209 -0.179,0.4 -0.4,0.4 z m -128,0 H 76.4 C 76.1791,52 76,51.8209 76,51.6 V 48.4 C 76,48.1791 76.1791,48 76.4,48 H 80 v 3.6 c 0,0.2209 -0.1791,0.4 -0.4,0.4 z m 92,-4 H 168 V 36 h 3.6 c 0.221,0 0.4,0.1791 0.4,0.4 v 11.2 c 0,0.2209 -0.179,0.4 -0.4,0.4 z m -24,0 H 144 v -8 h 4 v 8 z M 120,47.6 V 36.4 c 0,-0.2209 -0.179,-0.4 -0.4,-0.4 h -11.2 c -0.221,0 -0.4,0.1791 -0.4,0.4 v 11.2 c 0,0.2209 0.179,0.4 0.4,0.4 h 11.2 c 0.221,0 0.4,-0.1791 0.4,-0.4 z M 211.6,44 H 184.4 C 184.179,44 184,43.8209 184,43.6 V 16.4 c 0,-0.2209 0.179,-0.4 0.4,-0.4 h 27.2 c 0.221,0 0.4,0.1791 0.4,0.4 v 27.2 c 0,0.2209 -0.179,0.4 -0.4,0.4 z m -32,0 h -3.2 c -0.221,0 -0.4,-0.1791 -0.4,-0.4 v -3.2 c 0,-0.2209 0.179,-0.4 0.4,-0.4 h 3.2 c 0.221,0 0.4,0.1791 0.4,0.4 v 3.2 c 0,0.2209 -0.179,0.4 -0.4,0.4 z m -40,0 h -3.2 C 136.179,44 136,43.8209 136,43.6 V 36.4 C 136,36.1791 135.821,36 135.6,36 H 132 V 28.4 C 132,28.1791 131.821,28 131.6,28 H 128 V 20.4 C 128,20.1791 127.821,20 127.6,20 H 124 v -3.6 c 0,-0.2209 0.179,-0.4 0.4,-0.4 h 15.2 c 0.221,0 0.4,0.1791 0.4,0.4 V 24 h -3.6 c -0.221,0 -0.4,0.1791 -0.4,0.4 v 3.2 c 0,0.2209 0.179,0.4 0.4,0.4 h 3.6 v 7.6 c 0,0.2209 0.179,0.4 0.4,0.4 h 3.2 c 0.221,0 0.4,0.1791 0.4,0.4 V 40 h -3.6 c -0.221,0 -0.4,0.1791 -0.4,0.4 v 3.2 c 0,0.2209 -0.179,0.4 -0.4,0.4 z M 128,43.6 v -3.2 c 0,-0.2209 -0.179,-0.4 -0.4,-0.4 h -3.2 c -0.221,0 -0.4,0.1791 -0.4,0.4 v 3.2 c 0,0.2209 0.179,0.4 0.4,0.4 h 3.2 c 0.221,0 0.4,-0.1791 0.4,-0.4 z M 115.6,44 h -3.2 c -0.221,0 -0.4,-0.1791 -0.4,-0.4 v -3.2 c 0,-0.2209 0.179,-0.4 0.4,-0.4 h 3.2 c 0.221,0 0.4,0.1791 0.4,0.4 v 3.2 c 0,0.2209 -0.179,0.4 -0.4,0.4 z m -24,0 H 88.4 C 88.1791,44 88,43.8209 88,43.6 V 40.4 C 88,40.1791 88.1791,40 88.4,40 h 3.2 c 0.2209,0 0.4,0.1791 0.4,0.4 V 44 Z m -24,0 H 64 v -4 h 4 v 4 z m -8,0 H 56 V 40.4 C 56,40.1791 56.1791,40 56.4,40 H 60 v 4 z m -8,0 H 48.4 C 48.1791,44 48,43.8209 48,43.6 V 36.4 C 48,36.1791 48.1791,36 48.4,36 h 3.2 c 0.2209,0 0.4,0.1791 0.4,0.4 V 44 Z m -8,0 H 16.4 C 16.1791,44 16,43.8209 16,43.6 V 16.4 C 16,16.1791 16.1791,16 16.4,16 h 27.2 c 0.2209,0 0.4,0.1791 0.4,0.4 V 43.6 C 44,43.8209 43.8209,44 43.6,44 Z M 208,39.6 V 20.4 c 0,-0.2209 -0.179,-0.4 -0.4,-0.4 h -19.2 c -0.221,0 -0.4,0.1791 -0.4,0.4 v 19.2 c 0,0.2209 0.179,0.4 0.4,0.4 h 19.2 c 0.221,0 0.4,-0.1791 0.4,-0.4 z M 63.6,40 H 60 V 36.4 C 60,36.1791 60.1791,36 60.4,36 h 3.2 c 0.2209,0 0.4,0.1791 0.4,0.4 V 40 Z M 40,39.6 V 20.4 C 40,20.1791 39.8209,20 39.6,20 H 20.4 C 20.1791,20 20,20.1791 20,20.4 v 19.2 c 0,0.2209 0.1791,0.4 0.4,0.4 H 39.6 C 39.8209,40 40,39.8209 40,39.6 Z M 203.6,36 H 192.4 C 192.179,36 192,35.8209 192,35.6 V 24.4 c 0,-0.2209 0.179,-0.4 0.4,-0.4 h 11.2 c 0.221,0 0.4,0.1791 0.4,0.4 v 11.2 c 0,0.2209 -0.179,0.4 -0.4,0.4 z m -168,0 H 24.4 C 24.1791,36 24,35.8209 24,35.6 V 24.4 C 24,24.1791 24.1791,24 24.4,24 h 11.2 c 0.2209,0 0.4,0.1791 0.4,0.4 v 11.2 c 0,0.2209 -0.1791,0.4 -0.4,0.4 z m 140,-4 h -3.2 C 172.179,32 172,31.8209 172,31.6 V 24.4 C 172,24.1791 171.821,24 171.6,24 H 156 v -7.6 c 0,-0.2209 0.179,-0.4 0.4,-0.4 h 11.2 c 0.221,0 0.4,0.1791 0.4,0.4 v 3.2 c 0,0.2209 0.179,0.4 0.4,0.4 h 7.2 c 0.221,0 0.4,-0.1791 0.4,-0.4 v -3.2 c 0,-0.2209 0.179,-0.4 0.4,-0.4 h 3.2 c 0.221,0 0.4,0.1791 0.4,0.4 v 11.2 c 0,0.2209 -0.179,0.4 -0.4,0.4 h -3.2 c -0.221,0 -0.4,0.1791 -0.4,0.4 v 3.2 c 0,0.2209 -0.179,0.4 -0.4,0.4 z m -48,0 H 124 v -3.6 c 0,-0.2209 0.179,-0.4 0.4,-0.4 h 3.6 v 3.6 c 0,0.2209 -0.179,0.4 -0.4,0.4 z M 108,31.6 V 28.4 C 108,28.1791 107.821,28 107.6,28 H 92.4 C 92.1791,28 92,28.1791 92,28.4 v 3.2 c 0,0.2209 0.1791,0.4 0.4,0.4 h 15.2 c 0.221,0 0.4,-0.1791 0.4,-0.4 z M 79.6,32 H 76.4 C 76.1791,32 76,31.8209 76,31.6 V 28.4 C 76,28.1791 76.1791,28 76.4,28 h 3.2 c 0.2209,0 0.4,0.1791 0.4,0.4 V 32 Z m -12,0 H 64.4 C 64.1791,32 64,31.8209 64,31.6 V 28.4 C 64,28.1791 64.1791,28 64.4,28 H 68 v 4 z m -16,0 H 48.4 C 48.1791,32 48,31.8209 48,31.6 V 28.4 C 48,28.1791 48.1791,28 48.4,28 H 52 v 3.6 c 0,0.2209 -0.1791,0.4 -0.4,0.4 z m 96,-4 H 140 v -4 h 3.6 c 0.221,0 0.4,-0.1791 0.4,-0.4 v -7.2 c 0,-0.2209 0.179,-0.4 0.4,-0.4 h 3.2 c 0.221,0 0.4,0.1791 0.4,0.4 v 3.2 c 0,0.2209 0.179,0.4 0.4,0.4 h 3.2 c 0.221,0 0.4,0.1791 0.4,0.4 V 24 h -3.6 c -0.221,0 -0.4,0.1791 -0.4,0.4 V 28 Z m -76,0 H 68 V 24.4 C 68,24.1791 68.1791,24 68.4,24 h 3.2 c 0.2209,0 0.4,0.1791 0.4,0.4 v 3.2 c 0,0.2209 -0.1791,0.4 -0.4,0.4 z m -12,0 H 52 V 24.4 C 52,24.1791 51.8209,24 51.6,24 H 48.4 C 48.1791,24 48,23.8209 48,23.6 V 20.4 C 48,20.1791 48.1791,20 48.4,20 h 3.2 C 51.8209,20 52,19.8209 52,19.6 V 16.4 C 52,16.1791 52.1791,16 52.4,16 h 3.2 c 0.2209,0 0.4,0.1791 0.4,0.4 v 3.2 c 0,0.2209 0.1791,0.4 0.4,0.4 H 60 v 7.6 c 0,0.2209 -0.1791,0.4 -0.4,0.4 z m 64,-4 h -3.2 C 120.179,24 120,23.8209 120,23.6 V 20 h 4 v 3.6 c 0,0.2209 -0.179,0.4 -0.4,0.4 z m -40,0 H 76.4 C 76.1791,24 76,23.8209 76,23.6 V 20 h 7.6 c 0.2209,0 0.4,0.1791 0.4,0.4 V 24 Z m 12,-4 H 92 V 16.4 C 92,16.1791 92.1791,16 92.4,16 h 3.2 c 0.2209,0 0.4,0.1791 0.4,0.4 v 3.2 c 0,0.2209 -0.1791,0.4 -0.4,0.4 z m -20,0 H 72.4 C 72.1791,20 72,19.8209 72,19.6 V 16.4 C 72,16.1791 72.1791,16 72.4,16 h 3.2 c 0.2209,0 0.4,0.1791 0.4,0.4 V 20 Z m -12,0 H 60 V 16.4 C 60,16.1791 60.1791,16 60.4,16 h 3.2 c 0.2209,0 0.4,0.1791 0.4,0.4 v 3.2 c 0,0.2209 -0.1791,0.4 -0.4,0.4 z"
           id="path1" />
      </g>
    </g>
  </g>
</svg>
