<?xml version="1.0" encoding="UTF-8" standalone="no"?>
<!-- Created with Inkscape (http://www.inkscape.org/) -->

<svg
   width="81.337914mm"
   height="76.312454mm"
   viewBox="0 0 81.337914 76.312454"
   version="1.1"
   id="svg5"
   sodipodi:docname="fig-07.svg"
   inkscape:version="1.4 (e7c3feb100, 2024-10-09)"
   xmlns:inkscape="http://www.inkscape.org/namespaces/inkscape"
   xmlns:sodipodi="http://sodipodi.sourceforge.net/DTD/sodipodi-0.dtd"
   xmlns="http://www.w3.org/2000/svg"
   xmlns:svg="http://www.w3.org/2000/svg">
  <sodipodi:namedview
     id="namedview7"
     pagecolor="#ffffff"
     bordercolor="#666666"
     borderopacity="1.0"
     inkscape:showpageshadow="2"
     inkscape:pageopacity="0.0"
     inkscape:pagecheckerboard="0"
     inkscape:deskcolor="#d1d1d1"
     inkscape:document-units="mm"
     showgrid="false"
     inkscape:zoom="2.0989207"
     inkscape:cx="45.02314"
     inkscape:cy="137.4516"
     inkscape:window-width="1920"
     inkscape:window-height="1016"
     inkscape:window-x="0"
     inkscape:window-y="0"
     inkscape:window-maximized="1"
     inkscape:current-layer="layer1"
     showguides="false" />
  <defs
     id="defs2">
    <marker
       style="overflow:visible"
       id="marker2812"
       refX="0"
       refY="0"
       orient="auto"
       inkscape:stockid="Dot"
       markerWidth="5.6666665"
       markerHeight="5.6666665"
       viewBox="0 0 5.6666667 5.6666667"
       inkscape:isstock="true"
       inkscape:collect="always"
       preserveAspectRatio="xMidYMid">
      <path
         transform="scale(0.5)"
         style="fill:context-stroke;fill-rule:evenodd;stroke:context-stroke;stroke-width:1pt"
         d="M 5,0 C 5,2.76 2.76,5 0,5 -2.76,5 -5,2.76 -5,0 c 0,-2.76 2.3,-5 5,-5 2.76,0 5,2.24 5,5 z"
         id="path2810"
         sodipodi:nodetypes="sssss" />
    </marker>
    <marker
       style="overflow:visible"
       id="Dot"
       refX="0"
       refY="0"
       orient="auto"
       inkscape:stockid="Dot"
       markerWidth="5.6666665"
       markerHeight="5.6666665"
       viewBox="0 0 5.6666667 5.6666667"
       inkscape:isstock="true"
       inkscape:collect="always"
       preserveAspectRatio="xMidYMid">
      <path
         transform="scale(0.5)"
         style="fill:context-stroke;fill-rule:evenodd;stroke:context-stroke;stroke-width:1pt"
         d="M 5,0 C 5,2.76 2.76,5 0,5 -2.76,5 -5,2.76 -5,0 c 0,-2.76 2.3,-5 5,-5 2.76,0 5,2.24 5,5 z"
         id="Dot1"
         sodipodi:nodetypes="sssss" />
    </marker>
    <marker
       style="overflow:visible"
       id="Arrow2"
       refX="0"
       refY="0"
       orient="auto-start-reverse"
       inkscape:stockid="Arrow2"
       markerWidth="7.6999998"
       markerHeight="5.5999999"
       viewBox="0 0 7.7 5.6"
       inkscape:isstock="true"
       inkscape:collect="always"
       preserveAspectRatio="xMidYMid">
      <path
         transform="scale(0.7)"
         d="M -2,-4 9,0 -2,4 c 2,-2.33 2,-5.66 0,-8 z"
         style="fill:context-stroke;fill-rule:evenodd;stroke:none"
         id="arrow2L" />
    </marker>
    <clipPath
       id="clipPath6524">
      <path
         d="m 61,0 h 6 v 24.742188 h -6 z m 0,0"
         id="path2122" />
    </clipPath>
    <clipPath
       id="clipPath8615">
      <path
         d="m 82,0 h 7 v 24.742188 h -7 z m 0,0"
         id="path5694" />
    </clipPath>
    <clipPath
       id="clipPath8948">
      <path
         d="M 1,0 H 18.679688 V 16.9375 H 1 Z m 0,0"
         id="path6228" />
    </clipPath>
    <clipPath
       id="clipPath5422">
      <path
         d="m 118,0 h 13 v 22.03125 h -13 z m 0,0"
         id="path1556" />
    </clipPath>
    <clipPath
       id="clipPath9208">
      <path
         d="m 127,0 h 13 v 22.03125 h -13 z m 0,0"
         id="path1597" />
    </clipPath>
    <clipPath
       id="clipPath6456">
      <path
         d="M 1,0 H 14 V 22.03125 H 1 Z m 0,0"
         id="path2608" />
    </clipPath>
    <clipPath
       id="clipPath5936">
      <path
         d="m 14,3 h 8 v 11.390625 h -8 z m 0,0"
         id="path9311" />
    </clipPath>
    <clipPath
       id="clipPath8327">
      <path
         d="m 15,3 h 6 v 11.390625 h -6 z m 0,0"
         id="path3182" />
    </clipPath>
    <clipPath
       id="clipPath8962">
      <path
         d="M 0,0 H 13 V 10.671875 H 0 Z m 0,0"
         id="path6381" />
    </clipPath>
    <clipPath
       id="clipPath3223">
      <path
         d="M 0,0 H 12 V 15.492188 H 0 Z m 0,0"
         id="path8065" />
    </clipPath>
    <clipPath
       id="clipPath3399">
      <path
         d="m 11,3 h 8 v 11.390625 h -8 z m 0,0"
         id="path4190" />
    </clipPath>
    <clipPath
       id="clipPath1534">
      <path
         d="m 12,3 h 6 v 11.390625 h -6 z m 0,0"
         id="path8393" />
    </clipPath>
    <clipPath
       id="clipPath2042">
      <path
         d="m 31,8 h 9 v 12.652344 h -9 z m 0,0"
         id="path9363" />
    </clipPath>
    <clipPath
       id="clipPath6329">
      <path
         d="M 1,0 H 19 V 16.9375 H 1 Z m 0,0"
         id="path6600" />
    </clipPath>
    <clipPath
       id="clipPath4741">
      <path
         d="m 12,2 h 8 v 12.390625 h -8 z m 0,0"
         id="path6237" />
    </clipPath>
    <clipPath
       id="clipPath9639">
      <path
         d="m 12,2 h 8 v 12.390625 h -8 z m 0,0"
         id="path6100" />
    </clipPath>
  </defs>
  <g
     inkscape:label="Capa 1"
     inkscape:groupmode="layer"
     id="layer1"
     transform="translate(-46.376605,-110.94239)">
    <path
       style="fill:none;stroke:#434343;stroke-width:0.365;stroke-linecap:butt;stroke-linejoin:miter;stroke-dasharray:none;stroke-opacity:1"
       d="m 67.033024,170.30457 c 13.166807,-0.61806 25.759412,-5.26783 29.054647,-21.79113"
       id="path4450"
       sodipodi:nodetypes="cc" />
    <path
       style="fill:none;stroke:#000000;stroke-width:0.664999;stroke-linecap:round;stroke-linejoin:miter;stroke-dasharray:none;stroke-opacity:1;marker-start:url(#Arrow2)"
       d="m 56.260124,146.56559 v 40.32537"
       id="path236" />
    <path
       style="fill:none;stroke:#000000;stroke-width:0.665;stroke-linecap:round;stroke-linejoin:miter;stroke-dasharray:none;stroke-opacity:1;marker-start:url(#Arrow2)"
       d="M 111.69243,180.40279 H 46.709105"
       id="path1063" />
    <path
       style="fill:none;stroke:#434343;stroke-width:0.365;stroke-linecap:butt;stroke-linejoin:miter;stroke-dasharray:none;stroke-opacity:1"
       d="M 67.849374,169.92695 C 79.13162,165.55969 89.322825,159.81707 95.482426,148.99222"
       id="path4448"
       sodipodi:nodetypes="cc" />
    <path
       style="fill:none;stroke:#0903ff;stroke-width:0.665;stroke-linecap:round;stroke-linejoin:miter;stroke-dasharray:none;stroke-opacity:1;marker-start:url(#Dot);marker-mid:url(#Arrow2);marker-end:url(#marker2812)"
       d="m 66.854656,169.97581 c 1.141101,-4.70964 2.725918,-11.31462 7.86561,-14.99512 5.189315,-3.71603 11.213463,-7.53667 21.332471,-6.74868"
       id="path1127"
       sodipodi:nodetypes="csc" />
    <g
       inkscape:label=""
       transform="translate(111.06231,183.40189)"
       id="g441">
      <g
         id="surface1"
         transform="matrix(0.352778,0,0,0.352778,-0.242535,0.0881504)">
        <g
           clip-path="url(#clipPath8962)"
           clip-rule="nonzero"
           id="g19">
          <g
             style="fill:#000000;fill-opacity:1"
             id="g17">
            <g
               id="use15"
               transform="translate(0,10.672)">
              <path
                 style="stroke:none"
                 d="m 11.75,-10.109375 c -0.796875,0.140625 -1.09375,0.734375 -1.09375,1.21875 0,0.59375 0.46875,0.78125 0.8125,0.78125 0.75,0 1.265625,-0.640625 1.265625,-1.3125 0,-1.03125 -1.1875,-1.5 -2.234375,-1.5 -1.5,0 -2.34375,1.484375 -2.5625,1.953125 -0.578125,-1.859375 -2.109375,-1.953125 -2.5625,-1.953125 -2.53125,0 -3.859375,3.234375 -3.859375,3.78125 0,0.109375 0.09375,0.234375 0.265625,0.234375 0.203125,0 0.25,-0.15625 0.296875,-0.25 0.84375,-2.75 2.5,-3.28125 3.21875,-3.28125 1.125,0 1.34375,1.046875 1.34375,1.640625 C 6.640625,-8.25 6.5,-7.6875 6.1875,-6.5 l -0.828125,3.40625 c -0.375,1.484375 -1.09375,2.84375 -2.40625,2.84375 -0.125,0 -0.75,0 -1.265625,-0.3125 0.890625,-0.1875 1.09375,-0.921875 1.09375,-1.21875 0,-0.5 -0.375,-0.796875 -0.84375,-0.796875 -0.59375,0 -1.25,0.515625 -1.25,1.3125 0,1.046875 1.171875,1.515625 2.234375,1.515625 1.1875,0 2.03125,-0.9375 2.5625,-1.953125 C 5.875,-0.25 7.109375,0.25 8.03125,0.25 c 2.53125,0 3.859375,-3.25 3.859375,-3.796875 0,-0.125 -0.09375,-0.21875 -0.25,-0.21875 -0.21875,0 -0.234375,0.125 -0.3125,0.328125 -0.671875,2.171875 -2.109375,3.1875 -3.21875,3.1875 -0.875,0 -1.34375,-0.640625 -1.34375,-1.65625 0,-0.546875 0.09375,-0.9375 0.5,-2.578125 L 8.125,-7.859375 C 8.5,-9.34375 9.34375,-10.4375 10.484375,-10.4375 c 0.04687,0 0.734375,0 1.265625,0.328125 z m 0,0"
                 id="path26" />
            </g>
          </g>
        </g>
      </g>
    </g>
    <g
       inkscape:label=""
       transform="translate(49.482927,142.31564)"
       id="g539">
      <g
         id="g537"
         transform="matrix(0.352778,0,0,0.352778,-0.237023,0.0881504)">
        <g
           clip-path="url(#clipPath3223)"
           clip-rule="nonzero"
           id="g535">
          <g
             style="fill:#000000;fill-opacity:1"
             id="g533">
            <g
               id="g531"
               transform="translate(0,10.672)">
              <path
                 style="stroke:none"
                 d="M 6.515625,2.78125 C 5.84375,3.71875 4.875,4.5625 3.671875,4.5625 3.375,4.5625 2.1875,4.515625 1.8125,3.375 1.890625,3.390625 2,3.390625 2.0625,3.390625 2.796875,3.390625 3.296875,2.75 3.296875,2.1875 3.296875,1.609375 2.828125,1.40625 2.453125,1.40625 2.0625,1.40625 1.1875,1.703125 1.1875,2.921875 1.1875,4.1875 2.25,5.0625 3.671875,5.0625 c 2.46875,0 4.984375,-2.28125 5.671875,-5.03125 l 2.421875,-9.671875 c 0.03125,-0.125 0.07813,-0.265625 0.07813,-0.421875 0,-0.375 -0.296875,-0.625 -0.671875,-0.625 -0.21875,0 -0.734375,0.109375 -0.9375,0.84375 l -1.82813,7.296875 c -0.125,0.4375 -0.125,0.484375 -0.328125,0.765625 -0.5,0.6875 -1.3125,1.53125 -2.5,1.53125 C 4.1875,-0.25 4.0625,-1.609375 4.0625,-2.28125 c 0,-1.40625 0.671875,-3.3125 1.34375,-5.109375 0.265625,-0.71875 0.421875,-1.0625 0.421875,-1.5625 0,-1.03125 -0.75,-1.96875 -1.96875,-1.96875 -2.265625,0 -3.1875,3.59375 -3.1875,3.78125 0,0.109375 0.09375,0.234375 0.265625,0.234375 0.234375,0 0.25,-0.109375 0.34375,-0.453125 0.609375,-2.078125 1.546875,-3.078125 2.515625,-3.078125 0.21875,0 0.640625,0 0.640625,0.828125 0,0.640625 -0.28125,1.359375 -0.640625,2.296875 -1.21875,3.25 -1.21875,4.0625 -1.21875,4.65625 0,2.359375 1.6875,2.90625 2.921875,2.90625 0.71875,0 1.609375,-0.21875 2.484375,-1.140625 L 8,-0.875 C 7.625,0.59375 7.390625,1.5625 6.515625,2.78125 Z m 0,0"
                 id="path529" />
            </g>
          </g>
        </g>
      </g>
    </g>
    <g
       inkscape:label=""
       transform="translate(99.523214,146.862)"
       id="g789">
      <g
         id="g787"
         transform="matrix(0.352778,0,0,0.352778,-0.374826,0.0881504)">
        <g
           style="fill:#000000;fill-opacity:1"
           id="g777">
          <g
             id="g775"
             transform="translate(0,10.672)">
            <path
               style="stroke:none"
               d="m 3.140625,-2 c 1.078125,-1.21875 1.9375,-1.984375 3.171875,-3.109375 1.5,-1.28125 2.140625,-1.90625 2.484375,-2.28125 1.734375,-1.703125 2.609375,-3.140625 2.609375,-3.34375 0,-0.1875 -0.203125,-0.1875 -0.25,-0.1875 -0.171875,0 -0.234375,0.09375 -0.359375,0.265625 -0.609375,1.0625 -1.203125,1.59375 -1.84375,1.59375 -0.53125,0 -0.796875,-0.234375 -1.265625,-0.828125 -0.53125,-0.609375 -0.953125,-1.03125 -1.671875,-1.03125 -1.796875,0 -2.890625,2.25 -2.890625,2.765625 0,0.078125 0.015625,0.21875 0.25,0.21875 0.1875,0 0.21875,-0.09375 0.296875,-0.265625 C 4.09375,-9.1875 5.28125,-9.375 5.75,-9.375 c 0.515625,0 1.015625,0.1875 1.53125,0.40625 0.953125,0.390625 1.34375,0.390625 1.59375,0.390625 0.171875,0 0.265625,0 0.390625,-0.015625 C 8.453125,-7.625 7.109375,-6.4375 6,-5.421875 L 3.5,-3.125 c -1.515625,1.53125 -2.4375,3 -2.4375,3.171875 0,0.15625 0.125,0.203125 0.28125,0.203125 0.140625,0 0.171875,-0.03125 0.34375,-0.328125 0.390625,-0.609375 1.1875,-1.53125 2.109375,-1.53125 0.515625,0 0.765625,0.171875 1.265625,0.796875 0.46875,0.546875 0.890625,1.0625 1.671875,1.0625 2.4375,0 3.828125,-3.15625 3.828125,-3.71875 0,-0.09375 -0.03125,-0.25 -0.28125,-0.25 -0.1875,0 -0.21875,0.09375 -0.296875,0.34375 -0.546875,1.46875 -2,2.0625 -2.96875,2.0625 C 6.5,-1.3125 6,-1.484375 5.484375,-1.703125 c -1,-0.40625 -1.265625,-0.40625 -1.59375,-0.40625 -0.25,0 -0.515625,0 -0.75,0.109375 z m 0,0"
               id="path773" />
          </g>
        </g>
        <g
           clip-path="url(#clipPath1534)"
           clip-rule="nonzero"
           id="g785">
          <g
             style="fill:#000000;fill-opacity:1"
             id="g783">
            <g
               id="g781"
               transform="translate(11.275,14.39)">
              <path
                 style="stroke:none"
                 d="m 4.578125,-11 c 0,-0.359375 -0.015625,-0.375 -0.25,-0.375 -0.671875,0.796875 -1.6875,1.0625 -2.65625,1.09375 -0.046875,0 -0.140625,0 -0.15625,0.03125 C 1.5,-10.203125 1.5,-10.171875 1.5,-9.8125 c 0.53125,0 1.421875,-0.109375 2.109375,-0.515625 V -1.25 c 0,0.59375 -0.03125,0.796875 -1.515625,0.796875 H 1.578125 V 0 c 0.828125,-0.015625 1.6875,-0.03125 2.515625,-0.03125 0.828125,0 1.6875,0.015625 2.515625,0.03125 V -0.453125 H 6.09375 c -1.484375,0 -1.515625,-0.1875 -1.515625,-0.796875 z m 0,0"
                 id="path779" />
            </g>
          </g>
        </g>
      </g>
    </g>
    <g
       inkscape:label=""
       transform="translate(94.737907,110.94239)"
       id="g949">
      <g
         id="g947"
         transform="matrix(0.352778,0,0,0.352778,-0.325217,0.205184)">
        <g
           style="fill:#000000;fill-opacity:1"
           id="g938">
          <g
             id="use27"
             transform="translate(0,16.934)">
            <path
               style="stroke:none"
               d="m 10.0625,-17.09375 c -0.203125,-0.421875 -0.296875,-0.421875 -0.5,-0.421875 -0.296875,0 -0.3125,0.04687 -0.5,0.390625 L 1.046875,-0.421875 C 1.015625,-0.375 0.921875,-0.15625 0.921875,-0.125 0.921875,-0.03125 0.9375,0 1.390625,0 H 17.71875 c 0.453125,0 0.46875,-0.03125 0.46875,-0.125 0,-0.03125 -0.09375,-0.25 -0.125,-0.296875 z m -1.109375,1.453125 6.859375,14.25 h -13.75 z m 0,0"
               id="path46" />
          </g>
        </g>
        <g
           style="fill:#000000;fill-opacity:1"
           id="g33">
          <g
             id="use31"
             transform="translate(19.138,16.934)">
            <path
               style="stroke:none"
               d="m 3.140625,-2 c 1.078125,-1.21875 1.9375,-1.984375 3.171875,-3.109375 1.5,-1.28125 2.140625,-1.90625 2.484375,-2.28125 1.734375,-1.703125 2.609375,-3.140625 2.609375,-3.34375 0,-0.1875 -0.203125,-0.1875 -0.25,-0.1875 -0.171875,0 -0.234375,0.09375 -0.359375,0.265625 -0.609375,1.0625 -1.203125,1.59375 -1.84375,1.59375 -0.53125,0 -0.796875,-0.234375 -1.265625,-0.828125 -0.53125,-0.609375 -0.953125,-1.03125 -1.671875,-1.03125 -1.796875,0 -2.890625,2.25 -2.890625,2.765625 0,0.078125 0.015625,0.21875 0.25,0.21875 0.1875,0 0.21875,-0.09375 0.296875,-0.265625 C 4.09375,-9.1875 5.28125,-9.375 5.75,-9.375 c 0.515625,0 1.015625,0.1875 1.53125,0.40625 0.953125,0.390625 1.34375,0.390625 1.59375,0.390625 0.171875,0 0.265625,0 0.390625,-0.015625 C 8.453125,-7.625 7.109375,-6.4375 6,-5.421875 L 3.5,-3.125 c -1.515625,1.53125 -2.4375,3 -2.4375,3.171875 0,0.15625 0.125,0.203125 0.28125,0.203125 0.140625,0 0.171875,-0.03125 0.34375,-0.328125 0.390625,-0.609375 1.1875,-1.53125 2.109375,-1.53125 0.515625,0 0.765625,0.171875 1.265625,0.796875 0.46875,0.546875 0.890625,1.0625 1.671875,1.0625 2.4375,0 3.828125,-3.15625 3.828125,-3.71875 0,-0.09375 -0.03125,-0.25 -0.28125,-0.25 -0.1875,0 -0.21875,0.09375 -0.296875,0.34375 -0.546875,1.46875 -2,2.0625 -2.96875,2.0625 C 6.5,-1.3125 6,-1.484375 5.484375,-1.703125 c -1,-0.40625 -1.265625,-0.40625 -1.59375,-0.40625 -0.25,0 -0.515625,0 -0.75,0.109375 z m 0,0"
               id="path50" />
          </g>
        </g>
        <g
           clip-path="url(#clipPath2042)"
           clip-rule="nonzero"
           id="g39">
          <g
             style="fill:#000000;fill-opacity:1"
             id="g37">
            <g
               id="use35"
               transform="translate(30.412001,20.652)">
              <path
                 style="stroke:none"
                 d="m 4.84375,-11.515625 c 0.015625,-0.07813 0.046875,-0.171875 0.046875,-0.265625 0,-0.171875 -0.171875,-0.171875 -0.203125,-0.171875 -0.015625,0 -0.640625,0.0625 -0.953125,0.09375 -0.296875,0.01563 -0.546875,0.04687 -0.859375,0.0625 -0.40625,0.03125 -0.53125,0.04687 -0.53125,0.359375 0,0.171875 0.171875,0.171875 0.34375,0.171875 0.875,0 0.875,0.15625 0.875,0.328125 0,0.07813 0,0.109375 -0.078125,0.421875 l -2.46875,9.84375 c -0.0625,0.265625 -0.0625,0.296875 -0.0625,0.390625 0,0.390625 0.28125,0.453125 0.453125,0.453125 0.484375,0 0.59375,-0.375 0.734375,-0.90625 L 2.9375,-3.953125 c 1.25,0.125 1.984375,0.640625 1.984375,1.46875 0,0.109375 0,0.171875 -0.046875,0.4375 -0.078125,0.25 -0.078125,0.46875 -0.078125,0.546875 0,1 0.65625,1.671875 1.546875,1.671875 0.78125,0 1.203125,-0.71875 1.328125,-0.96875 0.375,-0.625 0.59375,-1.59375 0.59375,-1.671875 0,-0.078125 -0.0625,-0.15625 -0.171875,-0.15625 -0.15625,0 -0.171875,0.078125 -0.234375,0.359375 C 7.609375,-1.375 7.25,-0.171875 6.375,-0.171875 6.03125,-0.171875 5.796875,-0.34375 5.796875,-1 5.796875,-1.328125 5.875,-1.703125 5.9375,-1.96875 6.015625,-2.265625 6.015625,-2.296875 6.015625,-2.5 c 0,-1.015625 -0.921875,-1.578125 -2.5,-1.78125 C 4.125,-4.671875 4.75,-5.34375 5,-5.59375 5.96875,-6.703125 6.640625,-7.25 7.4375,-7.25 c 0.390625,0 0.5,0.109375 0.625,0.203125 -0.640625,0.078125 -0.875,0.515625 -0.875,0.859375 0,0.421875 0.3125,0.5625 0.5625,0.5625 0.46875,0 0.875,-0.40625 0.875,-0.953125 0,-0.5 -0.390625,-1.015625 -1.171875,-1.015625 -0.9375,0 -1.71875,0.671875 -2.9375,2.046875 C 4.34375,-5.34375 3.703125,-4.6875 3.0625,-4.4375 Z m 0,0"
                 id="path54" />
            </g>
          </g>
        </g>
      </g>
    </g>
    <g
       inkscape:label=""
       transform="translate(99.330861,131.01963)"
       id="g1499">
      <g
         id="g1497"
         transform="matrix(0.352778,0,0,0.352778,-0.374826,0.0881504)">
        <g
           style="fill:#000000;fill-opacity:1"
           id="g32">
          <g
             id="use30"
             transform="translate(0,10.672)">
            <path
               style="stroke:none"
               d="m 3.140625,-2 c 1.078125,-1.21875 1.9375,-1.984375 3.171875,-3.109375 1.5,-1.28125 2.140625,-1.90625 2.484375,-2.28125 1.734375,-1.703125 2.609375,-3.140625 2.609375,-3.34375 0,-0.1875 -0.203125,-0.1875 -0.25,-0.1875 -0.171875,0 -0.234375,0.09375 -0.359375,0.265625 -0.609375,1.0625 -1.203125,1.59375 -1.84375,1.59375 -0.53125,0 -0.796875,-0.234375 -1.265625,-0.828125 -0.53125,-0.609375 -0.953125,-1.03125 -1.671875,-1.03125 -1.796875,0 -2.890625,2.25 -2.890625,2.765625 0,0.078125 0.015625,0.21875 0.25,0.21875 0.1875,0 0.21875,-0.09375 0.296875,-0.265625 C 4.09375,-9.1875 5.28125,-9.375 5.75,-9.375 c 0.515625,0 1.015625,0.1875 1.53125,0.40625 0.953125,0.390625 1.34375,0.390625 1.59375,0.390625 0.171875,0 0.265625,0 0.390625,-0.015625 C 8.453125,-7.625 7.109375,-6.4375 6,-5.421875 L 3.5,-3.125 c -1.515625,1.53125 -2.4375,3 -2.4375,3.171875 0,0.15625 0.125,0.203125 0.28125,0.203125 0.140625,0 0.171875,-0.03125 0.34375,-0.328125 0.390625,-0.609375 1.1875,-1.53125 2.109375,-1.53125 0.515625,0 0.765625,0.171875 1.265625,0.796875 0.46875,0.546875 0.890625,1.0625 1.671875,1.0625 2.4375,0 3.828125,-3.15625 3.828125,-3.71875 0,-0.09375 -0.03125,-0.25 -0.28125,-0.25 -0.1875,0 -0.21875,0.09375 -0.296875,0.34375 -0.546875,1.46875 -2,2.0625 -2.96875,2.0625 C 6.5,-1.3125 6,-1.484375 5.484375,-1.703125 c -1,-0.40625 -1.265625,-0.40625 -1.59375,-0.40625 -0.25,0 -0.515625,0 -0.75,0.109375 z m 0,0"
               id="path51" />
          </g>
        </g>
        <g
           style="fill:#000000;fill-opacity:1"
           id="g36">
          <g
             id="use34"
             transform="translate(11.275,14.39)">
            <path
               style="stroke:none"
               d="m 4.84375,-11.515625 c 0.015625,-0.07813 0.046875,-0.171875 0.046875,-0.265625 0,-0.171875 -0.171875,-0.171875 -0.203125,-0.171875 -0.015625,0 -0.640625,0.0625 -0.953125,0.09375 -0.296875,0.01563 -0.546875,0.04687 -0.859375,0.0625 -0.40625,0.03125 -0.53125,0.04687 -0.53125,0.359375 0,0.171875 0.171875,0.171875 0.34375,0.171875 0.875,0 0.875,0.15625 0.875,0.328125 0,0.07813 0,0.109375 -0.078125,0.421875 l -2.46875,9.84375 c -0.0625,0.265625 -0.0625,0.296875 -0.0625,0.390625 0,0.390625 0.28125,0.453125 0.453125,0.453125 0.484375,0 0.59375,-0.375 0.734375,-0.90625 L 2.9375,-3.953125 c 1.25,0.125 1.984375,0.640625 1.984375,1.46875 0,0.109375 0,0.171875 -0.046875,0.4375 -0.078125,0.25 -0.078125,0.46875 -0.078125,0.546875 0,1 0.65625,1.671875 1.546875,1.671875 0.78125,0 1.203125,-0.71875 1.328125,-0.96875 0.375,-0.625 0.59375,-1.59375 0.59375,-1.671875 0,-0.078125 -0.0625,-0.15625 -0.171875,-0.15625 -0.15625,0 -0.171875,0.078125 -0.234375,0.359375 C 7.609375,-1.375 7.25,-0.171875 6.375,-0.171875 6.03125,-0.171875 5.796875,-0.34375 5.796875,-1 5.796875,-1.328125 5.875,-1.703125 5.9375,-1.96875 6.015625,-2.265625 6.015625,-2.296875 6.015625,-2.5 c 0,-1.015625 -0.921875,-1.578125 -2.5,-1.78125 C 4.125,-4.671875 4.75,-5.34375 5,-5.59375 5.96875,-6.703125 6.640625,-7.25 7.4375,-7.25 c 0.390625,0 0.5,0.109375 0.625,0.203125 -0.640625,0.078125 -0.875,0.515625 -0.875,0.859375 0,0.421875 0.3125,0.5625 0.5625,0.5625 0.46875,0 0.875,-0.40625 0.875,-0.953125 0,-0.5 -0.390625,-1.015625 -1.171875,-1.015625 -0.9375,0 -1.71875,0.671875 -2.9375,2.046875 C 4.34375,-5.34375 3.703125,-4.6875 3.0625,-4.4375 Z m 0,0"
               id="path55" />
          </g>
        </g>
        <g
           style="fill:#000000;fill-opacity:1"
           id="g40">
          <g
             id="use38"
             transform="translate(20.618999,14.39)">
            <path
               style="stroke:none"
               d="m 11.34375,-3.953125 c 0.296875,0 0.609375,0 0.609375,-0.359375 0,-0.34375 -0.3125,-0.34375 -0.609375,-0.34375 h -9.3125 c -0.296875,0 -0.609375,0 -0.609375,0.34375 0,0.359375 0.3125,0.359375 0.609375,0.359375 z m 0,0"
               id="path59" />
          </g>
        </g>
        <g
           style="fill:#000000;fill-opacity:1"
           id="g44">
          <g
             id="use42"
             transform="translate(34.008999,14.39)">
            <path
               style="stroke:none"
               d="m 4.578125,-11 c 0,-0.359375 -0.015625,-0.375 -0.25,-0.375 -0.671875,0.796875 -1.6875,1.0625 -2.65625,1.09375 -0.046875,0 -0.140625,0 -0.15625,0.03125 C 1.5,-10.203125 1.5,-10.171875 1.5,-9.8125 c 0.53125,0 1.421875,-0.109375 2.109375,-0.515625 V -1.25 c 0,0.59375 -0.03125,0.796875 -1.515625,0.796875 H 1.578125 V 0 c 0.828125,-0.015625 1.6875,-0.03125 2.515625,-0.03125 0.828125,0 1.6875,0.015625 2.515625,0.03125 V -0.453125 H 6.09375 c -1.484375,0 -1.515625,-0.1875 -1.515625,-0.796875 z m 0,0"
               id="path63" />
          </g>
        </g>
      </g>
    </g>
    <g
       inkscape:label=""
       transform="translate(121.06906,114.43987)"
       id="g1994">
      <g
         id="g1992"
         transform="matrix(0.352778,0,0,0.352778,-0.374826,0.0881504)">
        <g
           style="fill:#000000;fill-opacity:1"
           id="g1982">
          <g
             id="g1980"
             transform="translate(0,10.672)">
            <path
               style="stroke:none"
               d="m 3.140625,-2 c 1.078125,-1.21875 1.9375,-1.984375 3.171875,-3.109375 1.5,-1.28125 2.140625,-1.90625 2.484375,-2.28125 1.734375,-1.703125 2.609375,-3.140625 2.609375,-3.34375 0,-0.1875 -0.203125,-0.1875 -0.25,-0.1875 -0.171875,0 -0.234375,0.09375 -0.359375,0.265625 -0.609375,1.0625 -1.203125,1.59375 -1.84375,1.59375 -0.53125,0 -0.796875,-0.234375 -1.265625,-0.828125 -0.53125,-0.609375 -0.953125,-1.03125 -1.671875,-1.03125 -1.796875,0 -2.890625,2.25 -2.890625,2.765625 0,0.078125 0.015625,0.21875 0.25,0.21875 0.1875,0 0.21875,-0.09375 0.296875,-0.265625 C 4.09375,-9.1875 5.28125,-9.375 5.75,-9.375 c 0.515625,0 1.015625,0.1875 1.53125,0.40625 0.953125,0.390625 1.34375,0.390625 1.59375,0.390625 0.171875,0 0.265625,0 0.390625,-0.015625 C 8.453125,-7.625 7.109375,-6.4375 6,-5.421875 L 3.5,-3.125 c -1.515625,1.53125 -2.4375,3 -2.4375,3.171875 0,0.15625 0.125,0.203125 0.28125,0.203125 0.140625,0 0.171875,-0.03125 0.34375,-0.328125 0.390625,-0.609375 1.1875,-1.53125 2.109375,-1.53125 0.515625,0 0.765625,0.171875 1.265625,0.796875 0.46875,0.546875 0.890625,1.0625 1.671875,1.0625 2.4375,0 3.828125,-3.15625 3.828125,-3.71875 0,-0.09375 -0.03125,-0.25 -0.28125,-0.25 -0.1875,0 -0.21875,0.09375 -0.296875,0.34375 -0.546875,1.46875 -2,2.0625 -2.96875,2.0625 C 6.5,-1.3125 6,-1.484375 5.484375,-1.703125 c -1,-0.40625 -1.265625,-0.40625 -1.59375,-0.40625 -0.25,0 -0.515625,0 -0.75,0.109375 z m 0,0"
               id="path1978" />
          </g>
        </g>
        <g
           clip-path="url(#clipPath9639)"
           clip-rule="nonzero"
           id="g1990">
          <g
             style="fill:#000000;fill-opacity:1"
             id="g1988">
            <g
               id="g1986"
               transform="translate(11.275,14.39)">
              <path
                 style="stroke:none"
                 d="m 4.84375,-11.515625 c 0.015625,-0.07813 0.046875,-0.171875 0.046875,-0.265625 0,-0.171875 -0.171875,-0.171875 -0.203125,-0.171875 -0.015625,0 -0.640625,0.0625 -0.953125,0.09375 -0.296875,0.01563 -0.546875,0.04687 -0.859375,0.0625 -0.40625,0.03125 -0.53125,0.04687 -0.53125,0.359375 0,0.171875 0.171875,0.171875 0.34375,0.171875 0.875,0 0.875,0.15625 0.875,0.328125 0,0.07813 0,0.109375 -0.078125,0.421875 l -2.46875,9.84375 c -0.0625,0.265625 -0.0625,0.296875 -0.0625,0.390625 0,0.390625 0.28125,0.453125 0.453125,0.453125 0.484375,0 0.59375,-0.375 0.734375,-0.90625 L 2.9375,-3.953125 c 1.25,0.125 1.984375,0.640625 1.984375,1.46875 0,0.109375 0,0.171875 -0.046875,0.4375 -0.078125,0.25 -0.078125,0.46875 -0.078125,0.546875 0,1 0.65625,1.671875 1.546875,1.671875 0.78125,0 1.203125,-0.71875 1.328125,-0.96875 0.375,-0.625 0.59375,-1.59375 0.59375,-1.671875 0,-0.078125 -0.0625,-0.15625 -0.171875,-0.15625 -0.15625,0 -0.171875,0.078125 -0.234375,0.359375 C 7.609375,-1.375 7.25,-0.171875 6.375,-0.171875 6.03125,-0.171875 5.796875,-0.34375 5.796875,-1 5.796875,-1.328125 5.875,-1.703125 5.9375,-1.96875 6.015625,-2.265625 6.015625,-2.296875 6.015625,-2.5 c 0,-1.015625 -0.921875,-1.578125 -2.5,-1.78125 C 4.125,-4.671875 4.75,-5.34375 5,-5.59375 5.96875,-6.703125 6.640625,-7.25 7.4375,-7.25 c 0.390625,0 0.5,0.109375 0.625,0.203125 -0.640625,0.078125 -0.875,0.515625 -0.875,0.859375 0,0.421875 0.3125,0.5625 0.5625,0.5625 0.46875,0 0.875,-0.40625 0.875,-0.953125 0,-0.5 -0.390625,-1.015625 -1.171875,-1.015625 -0.9375,0 -1.71875,0.671875 -2.9375,2.046875 C 4.34375,-5.34375 3.703125,-4.6875 3.0625,-4.4375 Z m 0,0"
                 id="path1984" />
            </g>
          </g>
        </g>
      </g>
    </g>
    <path
       style="fill:none;stroke:#000000;stroke-width:0.465;stroke-linecap:round;stroke-linejoin:miter;stroke-dasharray:none;stroke-opacity:1;marker-start:url(#marker2812);marker-mid:url(#Arrow2);marker-end:url(#marker2812)"
       d="m 106.84105,128.8042 5.51872,-5.19445 5.51873,-5.19445"
       id="path4316"
       sodipodi:nodetypes="ccc" />
    <g
       inkscape:label=""
       transform="translate(75.282459,143.62329)"
       id="g649">
      <g
         id="g647"
         transform="matrix(0.846667,0,0,0.846667,-78.2532,-63.4422)">
        <g
           style="fill:#000000;fill-opacity:1"
           id="g14">
          <g
             id="use12"
             transform="translate(91.925003,81.962997)">
            <path
               style="stroke:none"
               d="m 7.578125,-6.921875 c 0,-0.03125 -0.015625,-0.109375 -0.109375,-0.109375 -0.03125,0 -0.046875,0.015625 -0.15625,0.125 L 6.625,-6.140625 C 6.53125,-6.28125 6.078125,-7.03125 4.96875,-7.03125 2.734375,-7.03125 0.5,-4.828125 0.5,-2.515625 0.5,-0.875 1.671875,0.21875 3.203125,0.21875 c 0.859375,0 1.625,-0.390625 2.15625,-0.859375 0.921875,-0.8125 1.09375,-1.71875 1.09375,-1.75 C 6.453125,-2.5 6.34375,-2.5 6.328125,-2.5 c -0.0625,0 -0.109375,0.03125 -0.125,0.109375 -0.09375,0.28125 -0.328125,1 -1.015625,1.578125 -0.6875,0.546875 -1.3125,0.71875 -1.828125,0.71875 -0.890625,0 -1.953125,-0.515625 -1.953125,-2.0625 0,-0.578125 0.203125,-2.1875 1.203125,-3.359375 0.609375,-0.703125 1.546875,-1.203125 2.4375,-1.203125 1.015625,0 1.609375,0.765625 1.609375,1.921875 0,0.40625 -0.03125,0.40625 -0.03125,0.515625 0,0.09375 0.109375,0.09375 0.140625,0.09375 0.125,0 0.125,-0.015625 0.1875,-0.203125 z m 0,0"
               id="path21" />
          </g>
        </g>
      </g>
    </g>
    <g
       inkscape:label=""
       transform="translate(60.192631,171.96978)"
       id="g900">
      <g
         id="g898"
         transform="matrix(0.846667,0,0,0.846667,-78.187,-65.6647)">
        <g
           style="fill:#000000;fill-opacity:1"
           id="g20">
          <g
             id="use18"
             transform="translate(91.925003,81.962997)">
            <path
               style="stroke:none"
               d="m 1.328125,-0.828125 c 0.53125,-0.578125 0.828125,-0.828125 1.1875,-1.140625 0,0 0.609375,-0.53125 0.96875,-0.890625 C 4.4375,-3.78125 4.65625,-4.265625 4.65625,-4.3125 c 0,-0.09375 -0.09375,-0.09375 -0.109375,-0.09375 -0.078125,0 -0.09375,0.015625 -0.15625,0.109375 -0.296875,0.484375 -0.5,0.640625 -0.734375,0.640625 -0.25,0 -0.359375,-0.15625 -0.515625,-0.328125 -0.1875,-0.21875 -0.359375,-0.421875 -0.6875,-0.421875 -0.75,0 -1.203125,0.921875 -1.203125,1.140625 0,0.046875 0.03125,0.109375 0.109375,0.109375 0.09375,0 0.109375,-0.046875 0.140625,-0.109375 0.1875,-0.46875 0.765625,-0.46875 0.84375,-0.46875 0.203125,0 0.390625,0.0625 0.625,0.140625 0.40625,0.15625 0.515625,0.15625 0.765625,0.15625 -0.359375,0.421875 -1.1875,1.140625 -1.375,1.296875 l -0.90625,0.84375 C 0.78125,-0.625 0.421875,-0.0625 0.421875,0.015625 c 0,0.09375 0.109375,0.09375 0.125,0.09375 0.078125,0 0.09375,-0.015625 0.15625,-0.125 0.234375,-0.359375 0.53125,-0.625 0.859375,-0.625 0.21875,0 0.328125,0.09375 0.578125,0.375 0.15625,0.21875 0.34375,0.375 0.625,0.375 1,0 1.578125,-1.265625 1.578125,-1.53125 0,-0.046875 -0.046875,-0.109375 -0.125,-0.109375 -0.09375,0 -0.109375,0.0625 -0.140625,0.140625 C 3.84375,-0.75 3.203125,-0.5625 2.875,-0.5625 c -0.1875,0 -0.375,-0.0625 -0.578125,-0.125 -0.34375,-0.125 -0.5,-0.171875 -0.703125,-0.171875 -0.015625,0 -0.171875,0 -0.265625,0.03125 z m 0,0"
               id="path31" />
          </g>
        </g>
        <g
           style="fill:#000000;fill-opacity:1"
           id="g24">
          <g
             id="use22"
             transform="translate(96.557999,83.457001)">
            <path
               style="stroke:none"
               d="M 3.59375,-2.21875 C 3.59375,-2.984375 3.5,-3.546875 3.1875,-4.03125 2.96875,-4.34375 2.53125,-4.625 1.984375,-4.625 c -1.625,0 -1.625,1.90625 -1.625,2.40625 0,0.5 0,2.359375 1.625,2.359375 1.609375,0 1.609375,-1.859375 1.609375,-2.359375 z M 1.984375,-0.0625 c -0.328125,0 -0.75,-0.1875 -0.890625,-0.75 C 1,-1.21875 1,-1.796875 1,-2.3125 1,-2.828125 1,-3.359375 1.09375,-3.734375 1.25,-4.28125 1.6875,-4.4375 1.984375,-4.4375 c 0.375,0 0.734375,0.234375 0.859375,0.640625 0.109375,0.375 0.125,0.875 0.125,1.484375 0,0.515625 0,1.03125 -0.09375,1.46875 -0.140625,0.640625 -0.609375,0.78125 -0.890625,0.78125 z m 0,0"
               id="path35" />
          </g>
        </g>
      </g>
    </g>
    <path
       style="fill:none;stroke:#838383;stroke-width:0.265;stroke-linecap:round;stroke-linejoin:round;stroke-dasharray:none;stroke-opacity:1;marker-end:url(#Arrow2)"
       d="m 96.822943,119.71506 h 8.378757 l 4.05731,2.90165"
       id="path1"
       sodipodi:nodetypes="ccc" />
  </g>
</svg>
