<?xml version="1.0" encoding="UTF-8" standalone="no"?>
<!-- Created with Inkscape (http://www.inkscape.org/) -->

<svg
   width="76.242813mm"
   height="66.529327mm"
   viewBox="0 0 76.242813 66.529327"
   version="1.1"
   id="svg5"
   sodipodi:docname="fig-04.svg"
   inkscape:version="1.2.2 (b0a8486541, 2022-12-01)"
   xmlns:inkscape="http://www.inkscape.org/namespaces/inkscape"
   xmlns:sodipodi="http://sodipodi.sourceforge.net/DTD/sodipodi-0.dtd"
   xmlns="http://www.w3.org/2000/svg"
   xmlns:svg="http://www.w3.org/2000/svg">
  <sodipodi:namedview
     id="namedview7"
     pagecolor="#ffffff"
     bordercolor="#666666"
     borderopacity="1.0"
     inkscape:showpageshadow="2"
     inkscape:pageopacity="0.0"
     inkscape:pagecheckerboard="0"
     inkscape:deskcolor="#d1d1d1"
     inkscape:document-units="mm"
     showgrid="false"
     inkscape:zoom="4.1978414"
     inkscape:cx="152.93574"
     inkscape:cy="122.44388"
     inkscape:window-width="1920"
     inkscape:window-height="1013"
     inkscape:window-x="0"
     inkscape:window-y="0"
     inkscape:window-maximized="1"
     inkscape:current-layer="layer1" />
  <defs
     id="defs2">
    <marker
       style="overflow:visible"
       id="TriangleStart"
       refX="0"
       refY="0"
       orient="auto-start-reverse"
       inkscape:stockid="TriangleStart"
       markerWidth="5.3244081"
       markerHeight="6.155385"
       viewBox="0 0 5.3244081 6.1553851"
       inkscape:isstock="true"
       inkscape:collect="always"
       preserveAspectRatio="xMidYMid">
      <path
         transform="scale(0.5)"
         style="fill:context-stroke;fill-rule:evenodd;stroke:context-stroke;stroke-width:1pt"
         d="M 5.77,0 -2.88,5 V -5 Z"
         id="path135" />
    </marker>
    <clipPath
       id="clipPath6524">
      <path
         d="m 61,0 h 6 v 24.742188 h -6 z m 0,0"
         id="path2122" />
    </clipPath>
    <clipPath
       id="clipPath8615">
      <path
         d="m 82,0 h 7 v 24.742188 h -7 z m 0,0"
         id="path5694" />
    </clipPath>
    <clipPath
       id="clipPath8948">
      <path
         d="M 1,0 H 18.679688 V 16.9375 H 1 Z m 0,0"
         id="path6228" />
    </clipPath>
    <clipPath
       id="clipPath5422">
      <path
         d="m 118,0 h 13 v 22.03125 h -13 z m 0,0"
         id="path1556" />
    </clipPath>
    <clipPath
       id="clipPath9208">
      <path
         d="m 127,0 h 13 v 22.03125 h -13 z m 0,0"
         id="path1597" />
    </clipPath>
    <clipPath
       id="clipPath6456">
      <path
         d="M 1,0 H 14 V 22.03125 H 1 Z m 0,0"
         id="path2608" />
    </clipPath>
    <clipPath
       id="clipPath5936">
      <path
         d="m 14,3 h 8 v 11.390625 h -8 z m 0,0"
         id="path9311" />
    </clipPath>
    <clipPath
       id="clipPath8327">
      <path
         d="m 15,3 h 6 v 11.390625 h -6 z m 0,0"
         id="path3182" />
    </clipPath>
    <clipPath
       id="clipPath8962">
      <path
         d="M 0,0 H 13 V 10.671875 H 0 Z m 0,0"
         id="path6381" />
    </clipPath>
    <clipPath
       id="clipPath3223">
      <path
         d="M 0,0 H 12 V 15.492188 H 0 Z m 0,0"
         id="path8065" />
    </clipPath>
    <clipPath
       id="clipPath3399">
      <path
         d="m 11,3 h 8 v 11.390625 h -8 z m 0,0"
         id="path4190" />
    </clipPath>
    <clipPath
       id="clipPath1534">
      <path
         d="m 12,3 h 6 v 11.390625 h -6 z m 0,0"
         id="path8393" />
    </clipPath>
    <clipPath
       id="clipPath2042">
      <path
         d="m 31,8 h 9 v 12.652344 h -9 z m 0,0"
         id="path9363" />
    </clipPath>
    <clipPath
       id="clipPath6329">
      <path
         d="M 1,0 H 19 V 16.9375 H 1 Z m 0,0"
         id="path6600" />
    </clipPath>
    <clipPath
       id="clipPath4741">
      <path
         d="m 12,2 h 8 v 12.390625 h -8 z m 0,0"
         id="path6237" />
    </clipPath>
    <clipPath
       id="clipPath9639">
      <path
         d="m 12,2 h 8 v 12.390625 h -8 z m 0,0"
         id="path6100" />
    </clipPath>
    <clipPath
       id="clipPath4942">
      <path
         d="M 1,0 H 18.679688 V 16.9375 H 1 Z m 0,0"
         id="path5259" />
    </clipPath>
    <clipPath
       id="clipPath6870">
      <path
         d="M 0,0 H 15.570312 V 14.117188 H 0 Z m 0,0"
         id="path2640" />
    </clipPath>
  </defs>
  <g
     inkscape:label="Capa 1"
     inkscape:groupmode="layer"
     id="layer1"
     transform="translate(-58.1657, -112.674)">
    <g
       inkscape:label=""
       transform="translate(99.714492,144.3633)"
       id="g1851">
      <g
         id="surface1"
         transform="matrix(0.846667,0,0,0.846667,-78.2532,-63.4422)">
        <g
           style="fill:#000000;fill-opacity:1"
           id="g20">
          <g
             id="use18"
             transform="translate(91.925003,81.962997)">
            <path
               style="stroke:none"
               d="m 7.578125,-6.921875 c 0,-0.03125 -0.015625,-0.109375 -0.109375,-0.109375 -0.03125,0 -0.046875,0.015625 -0.15625,0.125 L 6.625,-6.140625 C 6.53125,-6.28125 6.078125,-7.03125 4.96875,-7.03125 2.734375,-7.03125 0.5,-4.828125 0.5,-2.515625 0.5,-0.875 1.671875,0.21875 3.203125,0.21875 c 0.859375,0 1.625,-0.390625 2.15625,-0.859375 0.921875,-0.8125 1.09375,-1.71875 1.09375,-1.75 C 6.453125,-2.5 6.34375,-2.5 6.328125,-2.5 c -0.0625,0 -0.109375,0.03125 -0.125,0.109375 -0.09375,0.28125 -0.328125,1 -1.015625,1.578125 -0.6875,0.546875 -1.3125,0.71875 -1.828125,0.71875 -0.890625,0 -1.953125,-0.515625 -1.953125,-2.0625 0,-0.578125 0.203125,-2.1875 1.203125,-3.359375 0.609375,-0.703125 1.546875,-1.203125 2.4375,-1.203125 1.015625,0 1.609375,0.765625 1.609375,1.921875 0,0.40625 -0.03125,0.40625 -0.03125,0.515625 0,0.09375 0.109375,0.09375 0.140625,0.09375 0.125,0 0.125,-0.015625 0.1875,-0.203125 z m 0,0"
               id="path31" />
          </g>
        </g>
        <g
           style="fill:#000000;fill-opacity:1"
           id="g24">
          <g
             id="use22"
             transform="translate(99.045998,83.457001)">
            <path
               style="stroke:none"
               d="m 2.328125,-4.4375 c 0,-0.1875 0,-0.1875 -0.203125,-0.1875 -0.453125,0.4375 -1.078125,0.4375 -1.359375,0.4375 v 0.25 c 0.15625,0 0.625,0 1,-0.1875 v 3.546875 c 0,0.234375 0,0.328125 -0.6875,0.328125 H 0.8125 V 0 c 0.125,0 0.984375,-0.03125 1.234375,-0.03125 0.21875,0 1.09375,0.03125 1.25,0.03125 V -0.25 H 3.03125 c -0.703125,0 -0.703125,-0.09375 -0.703125,-0.328125 z m 0,0"
               id="path35" />
          </g>
        </g>
      </g>
    </g>
    <g
       inkscape:label=""
       transform="translate(113.47638,120.56805)"
       id="g1997">
      <g
         id="g1995"
         transform="matrix(0.846667,0,0,0.846667,-78.2532,-63.4422)">
        <g
           style="fill:#000000;fill-opacity:1"
           id="g1987">
          <g
             id="g1985"
             transform="translate(91.925003,81.962997)">
            <path
               style="stroke:none"
               d="m 7.578125,-6.921875 c 0,-0.03125 -0.015625,-0.109375 -0.109375,-0.109375 -0.03125,0 -0.046875,0.015625 -0.15625,0.125 L 6.625,-6.140625 C 6.53125,-6.28125 6.078125,-7.03125 4.96875,-7.03125 2.734375,-7.03125 0.5,-4.828125 0.5,-2.515625 0.5,-0.875 1.671875,0.21875 3.203125,0.21875 c 0.859375,0 1.625,-0.390625 2.15625,-0.859375 0.921875,-0.8125 1.09375,-1.71875 1.09375,-1.75 C 6.453125,-2.5 6.34375,-2.5 6.328125,-2.5 c -0.0625,0 -0.109375,0.03125 -0.125,0.109375 -0.09375,0.28125 -0.328125,1 -1.015625,1.578125 -0.6875,0.546875 -1.3125,0.71875 -1.828125,0.71875 -0.890625,0 -1.953125,-0.515625 -1.953125,-2.0625 0,-0.578125 0.203125,-2.1875 1.203125,-3.359375 0.609375,-0.703125 1.546875,-1.203125 2.4375,-1.203125 1.015625,0 1.609375,0.765625 1.609375,1.921875 0,0.40625 -0.03125,0.40625 -0.03125,0.515625 0,0.09375 0.109375,0.09375 0.140625,0.09375 0.125,0 0.125,-0.015625 0.1875,-0.203125 z m 0,0"
               id="path1983" />
          </g>
        </g>
        <g
           style="fill:#000000;fill-opacity:1"
           id="g1993">
          <g
             id="g1991"
             transform="translate(99.045998,83.457001)">
            <path
               style="stroke:none"
               d="M 3.515625,-1.265625 H 3.28125 c -0.015625,0.15625 -0.09375,0.5625 -0.1875,0.625 C 3.046875,-0.59375 2.515625,-0.59375 2.40625,-0.59375 H 1.125 c 0.734375,-0.640625 0.984375,-0.84375 1.390625,-1.171875 0.515625,-0.40625 1,-0.84375 1,-1.5 0,-0.84375 -0.734375,-1.359375 -1.625,-1.359375 -0.859375,0 -1.453125,0.609375 -1.453125,1.25 0,0.34375 0.296875,0.390625 0.375,0.390625 0.15625,0 0.359375,-0.125 0.359375,-0.375 0,-0.125 -0.046875,-0.375 -0.40625,-0.375 C 0.984375,-4.21875 1.453125,-4.375 1.78125,-4.375 c 0.703125,0 1.0625,0.546875 1.0625,1.109375 0,0.609375 -0.4375,1.078125 -0.65625,1.328125 L 0.515625,-0.265625 C 0.4375,-0.203125 0.4375,-0.1875 0.4375,0 h 2.875 z m 0,0"
               id="path1989" />
          </g>
        </g>
      </g>
    </g>
    <path
       style="fill:none;stroke:#000000;stroke-width:0.665;stroke-linecap:butt;stroke-linejoin:miter;stroke-dasharray:none;stroke-opacity:1;marker-mid:url(#TriangleStart)"
       d="m 125.79049,155.33588 c 1.72526,-6.3026 -0.68261,-14.03491 -4.81455,-19.0955 -12.32288,-15.09246 -22.379677,-16.07667 -44.30752,-14.68977 -8.860128,0.56038 -15.032221,13.58719 -13.765072,22.37824 2.516861,17.46113 12.450945,19.56424 20.101743,21.22866 9.125291,1.9852 18.947449,6.22981 27.816619,3.30846 13.70863,-4.51538 13.21597,-6.72687 14.96878,-13.13009 z"
       id="path523"
       sodipodi:nodetypes="sssssss" />
    <path
       style="fill:none;stroke:#000000;stroke-width:0.665;stroke-linecap:butt;stroke-linejoin:miter;stroke-dasharray:none;stroke-opacity:1;marker-mid:url(#TriangleStart)"
       d="m 116.64695,152.04868 c 1.05506,-3.85233 -1.96024,-11.0838 -4.39023,-14.25378 -7.11519,-9.28193 -26.416342,-9.91918 -33.526207,-7.40731 -5.118815,1.80845 -6.695572,9.37011 -6.368386,14.78912 0.507119,8.39915 9.016997,7.58076 13.641235,10.34347 4.902002,2.92866 8.406366,6.95854 17.673318,4.42252 3.91405,-1.07113 11.89836,-3.98019 12.97027,-7.89402 z"
       id="path371"
       sodipodi:nodetypes="sssssss" />
    <path
       style="fill:#b3b3b3;stroke-width:3.2693;stroke-linecap:round"
       d="m 169.96831,213.18364 c -14.20187,-0.84879 -24.54043,-2.82425 -48.71552,-9.30841 -4.6512,-1.24753 -11.1275,-2.95004 -14.39178,-3.78336 -5.71445,-1.45881 -5.97124,-1.54946 -6.908313,-2.43864 -2.023876,-1.92042 -8.669827,-7.91286 -8.775808,-7.91286 -0.06086,0 -0.412914,1.39358 -0.782342,3.09683 -0.369428,1.70326 -0.786514,3.09618 -0.926858,3.09538 -0.483267,-0.003 -8.131839,-1.86009 -10.742159,-2.60856 -10.899897,-3.12539 -18.200904,-6.3176 -25.364772,-11.0902 -4.014218,-2.67429 -6.500248,-4.70033 -9.781334,-7.97151 -10.662477,-10.63025 -17.996038,-25.44562 -22.251771,-44.95337 -0.462513,-2.1201 -0.840933,-4.15907 -0.840933,-4.53105 0,-0.37198 1.023659,-3.23265 2.274798,-6.35705 1.251139,-3.12439 2.221642,-5.73387 2.156674,-5.79884 -0.06497,-0.065 -1.415944,0.067 -3.002166,0.29318 -1.586223,0.22621 -2.958718,0.33649 -3.04999,0.24506 -0.314663,-0.31522 -0.114345,-9.0614 0.286597,-12.51327 C 20.822875,86.267168 26.208762,71.426908 34.053948,59.587913 41.777405,47.932619 51.219727,39.999497 61.325406,36.675349 l 2.793179,-0.918785 5.367818,2.680759 c 2.952301,1.474417 5.402851,2.645726 5.445668,2.60291 0.04282,-0.04282 -0.0203,-1.462619 -0.140229,-3.155116 -0.119945,-1.692496 -0.180824,-3.114521 -0.135291,-3.160054 0.100185,-0.100184 9.321946,-0.637036 18.129232,-1.055407 8.652957,-0.411041 32.917017,-0.415003 38.829477,-0.0063 16.60448,1.14768 28.40958,3.259244 40.13802,7.179431 16.10041,5.381505 30.20194,14.084891 44.67616,27.573869 6.02096,5.611117 15.46453,15.818685 15.70389,16.97436 0.069,0.333083 0.50546,3.017558 0.96993,5.965502 0.46448,2.947943 0.92085,5.549704 1.01416,5.781693 0.14408,0.358212 0.52343,0.13378 2.51652,-1.488861 1.29078,-1.050861 2.41635,-1.908605 2.50129,-1.906096 0.0849,0.0025 0.97831,1.262084 1.98529,2.799058 8.58728,13.106958 13.69726,27.551448 14.97801,42.338628 0.37409,4.3191 0.15724,11.41214 -0.47018,15.37949 -0.63072,3.98819 -3.82277,16.42782 -5.52834,21.54425 -4.01441,12.04262 -12.03772,18.66382 -32.60728,26.90904 -2.6859,1.07663 -6.61222,2.57562 -8.72514,3.33108 l -3.84169,1.37357 -6.27754,-1.32029 c -3.45265,-0.72616 -6.31146,-1.28638 -6.3529,-1.24494 -0.06,0.06 1.36635,4.68455 1.77374,5.75089 0.17416,0.45585 -6.44706,1.74559 -11.43941,2.22827 -2.84874,0.27542 -10.41778,0.48548 -12.66148,0.35138 z m 4.58801,-30.53024 4.53135,-4.7048 3.3857,-1.13374 c 4.42369,-1.48134 10.23059,-3.79447 14.50659,-5.77859 12.70251,-5.89413 20.87969,-12.26827 24.17844,-18.84715 2.70651,-5.39774 2.7126,-13.64142 0.018,-24.35626 -2.15188,-8.55676 -6.89306,-19.94184 -11.42043,-27.42411 -0.75314,-1.244689 -1.40891,-2.330118 -1.45726,-2.412065 -0.0484,-0.08195 1.0876,-1.043103 2.52434,-2.135903 1.43675,-1.0928 2.5336,-2.062441 2.43746,-2.15476 -0.0962,-0.09232 -2.96196,-1.318642 -6.36847,-2.725162 -6.00179,-2.47809 -6.24901,-2.606609 -7.9803,-4.148661 -8.88379,-7.912772 -18.96969,-13.49403 -32.51671,-17.993855 -11.86073,-3.939701 -23.89226,-6.269632 -38.94859,-7.542472 -5.73007,-0.484413 -23.07305,-0.410442 -28.347899,0.12091 -6.31607,0.636236 -11.201957,1.396546 -15.484149,2.409543 -0.851628,0.201463 -1.655612,0.367532 -1.786632,0.369042 -0.13102,0.0014 -0.717738,-1.390476 -1.303818,-3.093309 -0.58608,-1.70283 -1.122069,-3.089754 -1.191088,-3.08205 -0.168882,0.01884 -9.589881,11.09237 -9.893797,11.629257 -0.131782,0.232799 -0.91064,1.044533 -1.730794,1.803851 -9.108839,8.433177 -14.820179,24.157604 -15.463967,42.575294 -0.168653,4.82489 0.05104,4.45764 -2.695031,4.50519 -0.851628,0.0147 -2.106835,0.0966 -2.789347,0.18191 l -1.240931,0.15511 4.005661,6.08931 c 2.955095,4.49226 4.14959,6.52278 4.554436,7.74207 1.490042,4.4876 3.855019,8.24629 7.19536,11.43568 5.072667,4.84344 10.985501,7.76679 23.334495,11.53676 9.364623,2.85889 15.680691,5.03639 15.680691,5.40603 0,0.0706 -0.643188,1.193 -1.429307,2.4943 -0.786118,1.3013 -1.429306,2.4517 -1.429306,2.55646 0,0.10475 2.851753,0.26635 6.337233,0.35912 l 6.33724,0.16866 3.8658,2.58405 c 10.35731,6.92322 17.10637,10.30127 24.27276,12.14905 8.25074,2.12736 17.70394,2.16204 27.75902,0.10183 0.9636,-0.19743 1.80159,-0.30938 1.86219,-0.24877 0.0952,0.0952 0.52117,1.55766 1.52034,5.21971 0.13405,0.49133 0.33275,0.89332 0.44154,0.89332 0.1088,0 2.23692,-2.11716 4.72917,-4.7048 z"
       id="path310"
       transform="matrix(0.26458333,0,0,0.26458333,58.1657,112.674)" />
  </g>
</svg>
