<?xml version="1.0" encoding="UTF-8" standalone="no"?>
<!-- Created with Inkscape (http://www.inkscape.org/) -->

<svg
   width="63.37347mm"
   height="59.395992mm"
   viewBox="0 0 63.37347 59.395993"
   version="1.1"
   id="svg5"
   sodipodi:docname="fig-07.svg"
   inkscape:version="1.2.2 (b0a8486541, 2022-12-01)"
   xmlns:inkscape="http://www.inkscape.org/namespaces/inkscape"
   xmlns:sodipodi="http://sodipodi.sourceforge.net/DTD/sodipodi-0.dtd"
   xmlns="http://www.w3.org/2000/svg"
   xmlns:svg="http://www.w3.org/2000/svg">
  <sodipodi:namedview
     id="namedview7"
     pagecolor="#ffffff"
     bordercolor="#666666"
     borderopacity="1.0"
     inkscape:showpageshadow="2"
     inkscape:pageopacity="0.0"
     inkscape:pagecheckerboard="0"
     inkscape:deskcolor="#d1d1d1"
     inkscape:document-units="mm"
     showgrid="false"
     inkscape:zoom="2.9683221"
     inkscape:cx="139.47273"
     inkscape:cy="115.89039"
     inkscape:window-width="1920"
     inkscape:window-height="1013"
     inkscape:window-x="0"
     inkscape:window-y="0"
     inkscape:window-maximized="1"
     inkscape:current-layer="layer1" />
  <defs
     id="defs2">
    <marker
       style="overflow:visible"
       id="marker1337"
       refX="0"
       refY="0"
       orient="auto-start-reverse"
       inkscape:stockid="Arrow2"
       markerWidth="7.6999998"
       markerHeight="5.5999999"
       viewBox="0 0 7.7 5.6"
       inkscape:isstock="true"
       inkscape:collect="always"
       preserveAspectRatio="xMidYMid">
      <path
         transform="scale(0.7)"
         d="M -2,-4 9,0 -2,4 c 2,-2.33 2,-5.66 0,-8 z"
         style="fill:context-stroke;fill-rule:evenodd;stroke:none"
         id="path1335" />
    </marker>
    <marker
       style="overflow:visible"
       id="Arrow2"
       refX="0"
       refY="0"
       orient="auto-start-reverse"
       inkscape:stockid="Arrow2"
       markerWidth="7.6999998"
       markerHeight="5.5999999"
       viewBox="0 0 7.7 5.6"
       inkscape:isstock="true"
       inkscape:collect="always"
       preserveAspectRatio="xMidYMid">
      <path
         transform="scale(0.7)"
         d="M -2,-4 9,0 -2,4 c 2,-2.33 2,-5.66 0,-8 z"
         style="fill:context-stroke;fill-rule:evenodd;stroke:none"
         id="arrow2L" />
    </marker>
  </defs>
  <g
     inkscape:label="Capa 1"
     inkscape:groupmode="layer"
     id="layer1"
     transform="translate(-46.307761,-86.19504)">
    <circle
       style="fill:#cccccc;stroke:#ff0000;stroke-width:0.564999;stroke-linecap:round;stroke-dasharray:none;stroke-opacity:1"
       id="path2003"
       cx="72.549942"
       cy="123.17315"
       r="16.849909" />
    <path
       style="opacity:0.494504;fill:none;stroke:#000000;stroke-width:0.565001;stroke-linecap:round;stroke-linejoin:miter;stroke-dasharray:none;stroke-opacity:1;marker-start:url(#Arrow2)"
       d="M 72.549943,89.754546 V 145.30853"
       id="path236" />
    <path
       style="opacity:0.498519;fill:none;stroke:#000000;stroke-width:0.565;stroke-linecap:round;stroke-linejoin:miter;stroke-dasharray:none;stroke-opacity:1;marker-start:url(#Arrow2)"
       d="M 106.12173,123.17315 H 46.590261"
       id="path1199" />
    <circle
       style="fill:#000000;fill-opacity:1;stroke:#000000;stroke-width:0.564999;stroke-linecap:round;stroke-dasharray:none"
       id="circle2005"
       cx="72.549942"
       cy="123.17315"
       r="1.1099297" />
    <text
       xml:space="preserve"
       style="font-size:4.23333px;line-height:1.25;font-family:'Iwona Light';-inkscape-font-specification:'Iwona Light, ';stroke-width:0.264583"
       x="62.098572"
       y="132.22075"
       id="text472"><tspan
         sodipodi:role="line"
         id="tspan470"
         style="stroke-width:0.264583"
         x="62.098572"
         y="132.22075">Convergencia</tspan></text>
    <text
       xml:space="preserve"
       style="font-size:4.23333px;line-height:1.25;font-family:'Iwona Light';-inkscape-font-specification:'Iwona Light, ';stroke-width:0.264583"
       x="48.566212"
       y="100.25801"
       id="text476"><tspan
         sodipodi:role="line"
         id="tspan474"
         style="stroke-width:0.264583"
         x="48.566212"
         y="100.25801">Divergencia</tspan></text>
    <path
       style="fill:none;stroke:#000000;stroke-width:0.265;stroke-linecap:butt;stroke-linejoin:miter;stroke-dasharray:none;stroke-opacity:1;marker-end:url(#marker1337)"
       d="m 72.577554,123.32578 10.98949,-10.98949"
       id="path1142" />
    <g
       inkscape:label=""
       transform="matrix(0.69490796,0,0,0.69490796,75.475965,110.85458)"
       id="g1794"
       style="stroke-width:1.43904">
      <g
         id="surface1"
         transform="matrix(0.846667,0,0,0.846667,-78.1738,-63.6274)"
         style="stroke-width:1.43904">
        <g
           style="fill:#000000;fill-opacity:1;stroke-width:1.43904"
           id="g14">
          <g
             id="use12"
             transform="translate(91.925003,81.962997)"
             style="stroke-width:1.43904">
            <path
               style="stroke:none;stroke-width:1.43904"
               d="m 3.734375,-6.125 c 0.0625,-0.234375 0.09375,-0.328125 0.28125,-0.359375 C 4.109375,-6.5 4.421875,-6.5 4.625,-6.5 c 0.703125,0 1.8125,0 1.8125,0.984375 0,0.34375 -0.15625,1.03125 -0.546875,1.421875 -0.265625,0.25 -0.78125,0.578125 -1.6875,0.578125 H 3.09375 Z m 1.4375,2.734375 c 1.015625,-0.21875 2.1875,-0.921875 2.1875,-1.921875 0,-0.859375 -0.890625,-1.5 -2.203125,-1.5 H 2.328125 c -0.203125,0 -0.296875,0 -0.296875,0.203125 C 2.03125,-6.5 2.125,-6.5 2.3125,-6.5 c 0.015625,0 0.203125,0 0.375,0.015625 0.1875,0.03125 0.265625,0.03125 0.265625,0.171875 0,0.03125 0,0.0625 -0.03125,0.1875 l -1.34375,5.34375 C 1.484375,-0.390625 1.46875,-0.3125 0.671875,-0.3125 0.5,-0.3125 0.40625,-0.3125 0.40625,-0.109375 0.40625,0 0.53125,0 0.546875,0 c 0.28125,0 0.984375,-0.03125 1.25,-0.03125 0.28125,0 1,0.03125 1.28125,0.03125 0.078125,0 0.1875,0 0.1875,-0.203125 0,-0.109375 -0.078125,-0.109375 -0.28125,-0.109375 -0.359375,0 -0.640625,0 -0.640625,-0.171875 0,-0.0625 0.015625,-0.109375 0.03125,-0.171875 l 0.65625,-2.640625 h 1.1875 c 0.90625,0 1.078125,0.5625 1.078125,0.90625 0,0.140625 -0.078125,0.453125 -0.140625,0.6875 C 5.09375,-1.421875 5,-1.0625 5,-0.859375 5,0.21875 6.203125,0.21875 6.328125,0.21875 c 0.84375,0 1.203125,-1 1.203125,-1.140625 0,-0.125 -0.109375,-0.125 -0.125,-0.125 -0.09375,0 -0.109375,0.0625 -0.125,0.140625 C 7.03125,-0.171875 6.59375,0 6.375,0 6.046875,0 5.96875,-0.21875 5.96875,-0.609375 c 0,-0.3125 0.0625,-0.8125 0.109375,-1.140625 0.015625,-0.140625 0.03125,-0.328125 0.03125,-0.46875 0,-0.765625 -0.671875,-1.078125 -0.9375,-1.171875 z m 0,0"
               id="path21" />
          </g>
        </g>
      </g>
    </g>
  </g>
</svg>
