<?xml version="1.0" encoding="UTF-8" standalone="no"?>
<!-- Created with Inkscape (http://www.inkscape.org/) -->

<svg
   width="39.158283mm"
   height="39.158283mm"
   viewBox="0 0 39.158283 39.158283"
   version="1.1"
   id="svg1"
   inkscape:version="1.4.2 (ebf0e940d0, 2025-05-08)"
   sodipodi:docname="telegram.svg"
   xmlns:inkscape="http://www.inkscape.org/namespaces/inkscape"
   xmlns:sodipodi="http://sodipodi.sourceforge.net/DTD/sodipodi-0.dtd"
   xmlns="http://www.w3.org/2000/svg"
   xmlns:svg="http://www.w3.org/2000/svg">
  <sodipodi:namedview
     id="namedview1"
     pagecolor="#ffffff"
     bordercolor="#000000"
     borderopacity="0.25"
     inkscape:showpageshadow="2"
     inkscape:pageopacity="0.0"
     inkscape:pagecheckerboard="0"
     inkscape:deskcolor="#d1d1d1"
     inkscape:document-units="mm"
     inkscape:zoom="2.8614198"
     inkscape:cx="57.663683"
     inkscape:cy="102.22198"
     inkscape:window-width="1920"
     inkscape:window-height="1012"
     inkscape:window-x="0"
     inkscape:window-y="0"
     inkscape:window-maximized="1"
     inkscape:current-layer="layer1" />
  <defs
     id="defs1" />
  <g
     inkscape:label="Capa 1"
     inkscape:groupmode="layer"
     id="layer1"
     transform="translate(-105.041,-148.5)">
    <g
       inkscape:label="QR Code: https://t.me/+Saf8qEVEHr1iYWUx"
       transform="matrix(0.264583,0,0,0.264583,105.041,148.5)"
       id="g2">
      <rect
         x="0"
         y="0"
         width="148"
         height="148"
         style="fill:#ffffff;stroke:none"
         id="rect1" />
      <g
         style="fill:#000000;stroke:none"
         id="g1">
        <path
           d="m 127.6,132 h -7.2 c -0.221,0 -0.4,-0.179 -0.4,-0.4 V 128 h 3.6 c 0.221,0 0.4,-0.179 0.4,-0.4 v -7.2 c 0,-0.221 -0.179,-0.4 -0.4,-0.4 H 120 v -3.6 c 0,-0.221 0.179,-0.4 0.4,-0.4 h 7.2 c 0.221,0 0.4,0.179 0.4,0.4 v 3.2 c 0,0.221 0.179,0.4 0.4,0.4 h 3.2 c 0.221,0 0.4,0.179 0.4,0.4 v 7.2 c 0,0.221 -0.179,0.4 -0.4,0.4 h -3.2 c -0.221,0 -0.4,0.179 -0.4,0.4 v 3.2 c 0,0.221 -0.179,0.4 -0.4,0.4 z m -12,0 h -3.2 c -0.221,0 -0.4,-0.179 -0.4,-0.4 V 128 h 4 v 3.6 c 0,0.221 -0.179,0.4 -0.4,0.4 z m -8,0 h -3.2 c -0.221,0 -0.4,-0.179 -0.4,-0.4 v -3.2 c 0,-0.221 -0.179,-0.4 -0.4,-0.4 h -3.2 c -0.221,0 -0.4,0.179 -0.4,0.4 v 3.2 c 0,0.221 -0.1791,0.4 -0.4,0.4 h -7.2 c -0.2209,0 -0.4,-0.179 -0.4,-0.4 v -3.2 C 92,128.179 91.8209,128 91.6,128 H 84 v -4 h 7.6 c 0.2209,0 0.4,-0.179 0.4,-0.4 V 120 h 11.6 c 0.221,0 0.4,0.179 0.4,0.4 v 3.2 c 0,0.221 0.179,0.4 0.4,0.4 h 7.2 c 0.221,0 0.4,0.179 0.4,0.4 v 3.6 h -3.6 c -0.221,0 -0.4,0.179 -0.4,0.4 v 3.2 c 0,0.221 -0.179,0.4 -0.4,0.4 z m -24,0 h -7.2 c -0.2209,0 -0.4,-0.179 -0.4,-0.4 v -3.2 c 0,-0.221 0.1791,-0.4 0.4,-0.4 H 84 v 3.6 c 0,0.221 -0.1791,0.4 -0.4,0.4 z m -12,0 h -7.2 c -0.2209,0 -0.4,-0.179 -0.4,-0.4 v -3.2 c 0,-0.221 0.1791,-0.4 0.4,-0.4 h 3.2 c 0.2209,0 0.4,-0.179 0.4,-0.4 v -3.2 c 0,-0.221 0.1791,-0.4 0.4,-0.4 h 3.2 c 0.2209,0 0.4,0.179 0.4,0.4 v 7.2 c 0,0.221 -0.1791,0.4 -0.4,0.4 z m -12,0 h -3.2 c -0.2209,0 -0.4,-0.179 -0.4,-0.4 v -7.2 C 56,124.179 55.8209,124 55.6,124 H 52 v -7.6 c 0,-0.221 -0.1791,-0.4 -0.4,-0.4 h -3.2 c -0.2209,0 -0.4,-0.179 -0.4,-0.4 v -3.2 c 0,-0.221 0.1791,-0.4 0.4,-0.4 h 3.2 c 0.2209,0 0.4,-0.179 0.4,-0.4 V 104 h 3.6 c 0.2209,0 0.4,-0.179 0.4,-0.4 V 96.4 C 56,96.1791 56.1791,96 56.4,96 h 3.2 c 0.2209,0 0.4,0.1791 0.4,0.4 v 7.2 c 0,0.221 0.1791,0.4 0.4,0.4 h 15.2 c 0.2209,0 0.4,-0.179 0.4,-0.4 V 100 h 7.6 c 0.2209,0 0.4,-0.1791 0.4,-0.4 V 96.4 C 84,96.1791 83.8209,96 83.6,96 H 76.4 C 76.1791,96 76,96.1791 76,96.4 V 100 H 64.4 C 64.1791,100 64,99.8209 64,99.6 V 92 h 7.6 C 71.8209,92 72,91.8209 72,91.6 V 88.4 C 72,88.1791 72.1791,88 72.4,88 h 7.2 c 0.2209,0 0.4,0.1791 0.4,0.4 v 3.2 c 0,0.2209 0.1791,0.4 0.4,0.4 h 7.2 C 87.8209,92 88,91.8209 88,91.6 V 88 h 3.6 c 0.2209,0 0.4,0.1791 0.4,0.4 v 7.2 c 0,0.2209 0.1791,0.4 0.4,0.4 h 23.2 c 0.221,0 0.4,-0.1791 0.4,-0.4 v -3.2 c 0,-0.2209 -0.179,-0.4 -0.4,-0.4 h -7.2 C 108.179,92 108,91.8209 108,91.6 V 88.4 C 108,88.1791 107.821,88 107.6,88 H 100 V 84.4 C 100,84.1791 99.8209,84 99.6,84 H 92.4 C 92.1791,84 92,83.8209 92,83.6 V 80 h 3.6 C 95.8209,80 96,79.8209 96,79.6 V 76.4 C 96,76.1791 96.1791,76 96.4,76 h 3.2 c 0.2209,0 0.4,-0.1791 0.4,-0.4 V 72 h 4 v 3.6 c 0,0.2209 0.179,0.4 0.4,0.4 h 7.6 v 4 h -7.6 c -0.221,0 -0.4,0.1791 -0.4,0.4 v 3.2 c 0,0.2209 0.179,0.4 0.4,0.4 h 7.2 c 0.221,0 0.4,-0.1791 0.4,-0.4 V 80 h 4 v 3.6 c 0,0.2209 0.179,0.4 0.4,0.4 h 7.6 v 3.6 c 0,0.2209 -0.179,0.4 -0.4,0.4 h -3.2 c -0.221,0 -0.4,0.1791 -0.4,0.4 v 7.2 c 0,0.2209 0.179,0.4 0.4,0.4 h 3.2 c 0.221,0 0.4,-0.1791 0.4,-0.4 v -3.2 c 0,-0.2209 0.179,-0.4 0.4,-0.4 h 3.6 v 3.6 c 0,0.2209 0.179,0.4 0.4,0.4 h 3.2 c 0.221,0 0.4,0.1791 0.4,0.4 v 15.2 c 0,0.221 -0.179,0.4 -0.4,0.4 h -3.2 c -0.221,0 -0.4,-0.179 -0.4,-0.4 v -11.2 c 0,-0.221 -0.179,-0.4 -0.4,-0.4 h -3.2 c -0.221,0 -0.4,0.179 -0.4,0.4 v 3.2 c 0,0.221 -0.179,0.4 -0.4,0.4 h -3.2 c -0.221,0 -0.4,-0.179 -0.4,-0.4 v -3.2 c 0,-0.221 -0.179,-0.4 -0.4,-0.4 h -3.2 c -0.221,0 -0.4,0.179 -0.4,0.4 v 7.2 c 0,0.221 0.179,0.4 0.4,0.4 h 3.2 c 0.221,0 0.4,0.179 0.4,0.4 v 3.2 c 0,0.221 -0.179,0.4 -0.4,0.4 h -3.2 c -0.221,0 -0.4,0.179 -0.4,0.4 v 3.2 c 0,0.221 -0.179,0.4 -0.4,0.4 h -3.2 c -0.221,0 -0.4,0.179 -0.4,0.4 v 3.2 c 0,0.221 -0.179,0.4 -0.4,0.4 h -3.2 c -0.221,0 -0.4,-0.179 -0.4,-0.4 v -3.2 c 0,-0.221 -0.179,-0.4 -0.4,-0.4 H 92.4 c -0.2209,0 -0.4,0.179 -0.4,0.4 v 3.6 h -7.6 c -0.2209,0 -0.4,0.179 -0.4,0.4 v 3.6 h -3.6 c -0.2209,0 -0.4,-0.179 -0.4,-0.4 v -7.2 c 0,-0.221 0.1791,-0.4 0.4,-0.4 h 7.2 c 0.2209,0 0.4,-0.179 0.4,-0.4 V 112 h 3.6 c 0.2209,0 0.4,-0.179 0.4,-0.4 V 104 h 3.6 c 0.2209,0 0.4,-0.179 0.4,-0.4 v -3.2 c 0,-0.221 -0.1791,-0.4 -0.4,-0.4 h -3.2 c -0.2209,0 -0.4,0.179 -0.4,0.4 v 3.6 h -3.6 c -0.2209,0 -0.4,0.179 -0.4,0.4 V 112 H 80.4 C 80.1791,112 80,111.821 80,111.6 V 108 h 3.6 c 0.2209,0 0.4,-0.179 0.4,-0.4 v -3.2 c 0,-0.221 -0.1791,-0.4 -0.4,-0.4 h -3.2 c -0.2209,0 -0.4,0.179 -0.4,0.4 v 3.6 h -3.6 c -0.2209,0 -0.4,0.179 -0.4,0.4 v 3.2 c 0,0.221 -0.1791,0.4 -0.4,0.4 h -3.2 c -0.2209,0 -0.4,-0.179 -0.4,-0.4 v -3.2 C 72,108.179 71.8209,108 71.6,108 H 56.4 c -0.2209,0 -0.4,0.179 -0.4,0.4 v 3.2 c 0,0.221 0.1791,0.4 0.4,0.4 h 3.2 c 0.2209,0 0.4,0.179 0.4,0.4 v 7.2 c 0,0.221 0.1791,0.4 0.4,0.4 H 64 v 3.6 c 0,0.221 -0.1791,0.4 -0.4,0.4 h -3.2 c -0.2209,0 -0.4,0.179 -0.4,0.4 v 7.2 c 0,0.221 -0.1791,0.4 -0.4,0.4 z m -16,0 H 16.4 c -0.2209,0 -0.4,-0.179 -0.4,-0.4 v -27.2 c 0,-0.221 0.1791,-0.4 0.4,-0.4 h 27.2 c 0.2209,0 0.4,0.179 0.4,0.4 v 27.2 c 0,0.221 -0.1791,0.4 -0.4,0.4 z m 76,-4 H 116 v -7.6 c 0,-0.221 0.179,-0.4 0.4,-0.4 h 3.6 v 8 z m -68,0 h -3.2 c -0.2209,0 -0.4,-0.179 -0.4,-0.4 v -3.2 c 0,-0.221 0.1791,-0.4 0.4,-0.4 H 52 v 3.6 c 0,0.221 -0.1791,0.4 -0.4,0.4 z M 40,127.6 V 108.4 C 40,108.179 39.8209,108 39.6,108 H 20.4 c -0.2209,0 -0.4,0.179 -0.4,0.4 v 19.2 c 0,0.221 0.1791,0.4 0.4,0.4 h 19.2 c 0.2209,0 0.4,-0.179 0.4,-0.4 z M 35.6,124 H 24.4 c -0.2209,0 -0.4,-0.179 -0.4,-0.4 v -11.2 c 0,-0.221 0.1791,-0.4 0.4,-0.4 h 11.2 c 0.2209,0 0.4,0.179 0.4,0.4 v 11.2 c 0,0.221 -0.1791,0.4 -0.4,0.4 z m 40,-4 h -3.2 c -0.2209,0 -0.4,-0.179 -0.4,-0.4 v -3.2 c 0,-0.221 0.1791,-0.4 0.4,-0.4 h 3.2 c 0.2209,0 0.4,0.179 0.4,0.4 v 3.2 c 0,0.221 -0.1791,0.4 -0.4,0.4 z m -8,0 H 64 v -7.6 c 0,-0.221 0.1791,-0.4 0.4,-0.4 h 3.2 c 0.2209,0 0.4,0.179 0.4,0.4 v 7.2 c 0,0.221 -0.1791,0.4 -0.4,0.4 z m 44.4,-8.4 v -11.2 c 0,-0.221 -0.179,-0.4 -0.4,-0.4 h -11.2 c -0.221,0 -0.4,0.179 -0.4,0.4 v 11.2 c 0,0.221 0.179,0.4 0.4,0.4 h 11.2 c 0.221,0 0.4,-0.179 0.4,-0.4 z m -4.4,-3.6 h -3.2 c -0.221,0 -0.4,-0.179 -0.4,-0.4 v -3.2 c 0,-0.221 0.179,-0.4 0.4,-0.4 h 3.2 c 0.221,0 0.4,0.179 0.4,0.4 v 3.2 c 0,0.221 -0.179,0.4 -0.4,0.4 z m -56,-4 h -3.2 c -0.2209,0 -0.4,-0.179 -0.4,-0.4 v -3.2 C 48,100.179 47.8209,100 47.6,100 H 32.4 C 32.1791,100 32,99.8209 32,99.6 V 96.4 C 32,96.1791 31.8209,96 31.6,96 H 28.4 C 28.1791,96 28,96.1791 28,96.4 v 3.2 c 0,0.2209 -0.1791,0.4 -0.4,0.4 H 16.4 C 16.1791,100 16,99.8209 16,99.6 V 96.4 C 16,96.1791 16.1791,96 16.4,96 h 7.2 C 23.8209,96 24,95.8209 24,95.6 V 92.4 C 24,92.1791 24.1791,92 24.4,92 H 36 v 3.6 c 0,0.2209 0.1791,0.4 0.4,0.4 h 7.2 C 43.8209,96 44,95.8209 44,95.6 V 92.4 C 44,92.1791 43.8209,92 43.6,92 H 36 V 88.4 C 36,88.1791 35.8209,88 35.6,88 H 32.4 C 32.1791,88 32,87.8209 32,87.6 V 84 h 8 v 3.6 c 0,0.2209 0.1791,0.4 0.4,0.4 h 7.2 C 47.8209,88 48,87.8209 48,87.6 V 72.4 C 48,72.1791 48.1791,72 48.4,72 h 3.2 c 0.2209,0 0.4,0.1791 0.4,0.4 v 3.2 c 0,0.2209 0.1791,0.4 0.4,0.4 H 56 v 4 H 52.4 C 52.1791,80 52,80.1791 52,80.4 v 7.2 c 0,0.2209 0.1791,0.4 0.4,0.4 h 3.2 c 0.2209,0 0.4,0.1791 0.4,0.4 v 3.2 C 56,91.8209 55.8209,92 55.6,92 H 52.4 C 52.1791,92 52,92.1791 52,92.4 V 104 Z m 80,-12 H 128 v -8 h 3.6 c 0.221,0 0.4,0.1791 0.4,0.4 v 7.2 c 0,0.2209 -0.179,0.4 -0.4,0.4 z m -32,0 H 96.4 C 96.1791,92 96,91.8209 96,91.6 V 88.4 C 96,88.1791 96.1791,88 96.4,88 h 3.6 v 3.6 c 0,0.2209 -0.1791,0.4 -0.4,0.4 z m -36,0 H 60.4 C 60.1791,92 60,91.8209 60,91.6 V 84.4 C 60,84.1791 59.8209,84 59.6,84 H 56.4 C 56.1791,84 56,83.8209 56,83.6 V 80 h 7.6 C 63.8209,80 64,79.8209 64,79.6 V 76.4 C 64,76.1791 64.1791,76 64.4,76 h 7.2 c 0.2209,0 0.4,0.1791 0.4,0.4 v 7.2 C 72,83.8209 71.8209,84 71.6,84 H 68.4 C 68.1791,84 68,84.1791 68,84.4 v 3.2 C 68,87.8209 67.8209,88 67.6,88 H 64.4 C 64.1791,88 64,88.1791 64,88.4 V 92 Z m 24,-4 H 84.4 C 84.1791,88 84,87.8209 84,87.6 V 84.4 C 84,84.1791 83.8209,84 83.6,84 H 76.4 C 76.1791,84 76,83.8209 76,83.6 V 68.4 C 76,68.1791 75.8209,68 75.6,68 H 72 v -4 h 3.6 C 75.8209,64 76,63.8209 76,63.6 V 60 h 3.6 c 0.2209,0 0.4,0.1791 0.4,0.4 v 3.2 c 0,0.2209 0.1791,0.4 0.4,0.4 h 3.2 C 83.8209,64 84,63.8209 84,63.6 V 56 h 8 V 80 H 88.4 C 88.1791,80 88,80.1791 88,80.4 V 88 Z m -60,0 H 16.4 C 16.1791,88 16,87.8209 16,87.6 V 84.4 C 16,84.1791 16.1791,84 16.4,84 h 3.2 C 19.8209,84 20,83.8209 20,83.6 V 76 h 3.6 c 0.2209,0 0.4,0.1791 0.4,0.4 v 7.2 c 0,0.2209 0.1791,0.4 0.4,0.4 H 28 v 3.6 c 0,0.2209 -0.1791,0.4 -0.4,0.4 z m 100,-4 H 124 V 72.4 c 0,-0.2209 -0.179,-0.4 -0.4,-0.4 h -3.2 c -0.221,0 -0.4,-0.1791 -0.4,-0.4 v -3.2 c 0,-0.2209 0.179,-0.4 0.4,-0.4 h 7.2 c 0.221,0 0.4,-0.1791 0.4,-0.4 v -3.2 c 0,-0.2209 -0.179,-0.4 -0.4,-0.4 h -3.2 c -0.221,0 -0.4,-0.1791 -0.4,-0.4 v -3.2 c 0,-0.2209 0.179,-0.4 0.4,-0.4 h 3.2 c 0.221,0 0.4,-0.1791 0.4,-0.4 v -3.2 c 0,-0.2209 -0.179,-0.4 -0.4,-0.4 h -3.2 C 124.179,56 124,55.8209 124,55.6 V 52 h 7.6 c 0.221,0 0.4,0.1791 0.4,0.4 v 23.2 c 0,0.2209 -0.179,0.4 -0.4,0.4 h -3.2 c -0.221,0 -0.4,0.1791 -0.4,0.4 V 84 Z m -84,0 H 40 v -4 h 3.6 c 0.2209,0 0.4,0.1791 0.4,0.4 v 3.2 c 0,0.2209 -0.1791,0.4 -0.4,0.4 z m -12,0 H 28 V 80.4 C 28,80.1791 28.1791,80 28.4,80 h 3.2 c 0.2209,0 0.4,0.1791 0.4,0.4 V 84 Z m 88,-4 H 116 v -4 h 3.6 c 0.221,0 0.4,0.1791 0.4,0.4 v 3.2 c 0,0.2209 -0.179,0.4 -0.4,0.4 z m -80,0 H 36.4 C 36.1791,80 36,79.8209 36,79.6 V 72 h 7.6 c 0.2209,0 0.4,0.1791 0.4,0.4 v 3.2 C 44,75.8209 43.8209,76 43.6,76 H 40.4 C 40.1791,76 40,76.1791 40,76.4 V 80 Z m 76,-4 H 112 v -8 h 3.6 c 0.221,0 0.4,0.1791 0.4,0.4 V 76 Z M 84,75.6 V 72 h 3.6 C 87.8209,72 88,71.8209 88,71.6 V 68.4 C 88,68.1791 87.8209,68 87.6,68 H 84.4 C 84.1791,68 84,68.1791 84,68.4 V 72 H 80.4 C 80.1791,72 80,72.1791 80,72.4 v 3.2 c 0,0.2209 0.1791,0.4 0.4,0.4 h 3.2 C 83.8209,76 84,75.8209 84,75.6 Z M 59.6,76 H 56 V 64.4 C 56,64.1791 56.1791,64 56.4,64 h 3.2 c 0.2209,0 0.4,0.1791 0.4,0.4 v 11.2 c 0,0.2209 -0.1791,0.4 -0.4,0.4 z m -40,0 H 16.4 C 16.1791,76 16,75.8209 16,75.6 V 68.4 C 16,68.1791 16.1791,68 16.4,68 h 7.2 c 0.2209,0 0.4,0.1791 0.4,0.4 v 3.2 C 24,71.8209 23.8209,72 23.6,72 H 20.4 C 20.1791,72 20,72.1791 20,72.4 V 76 Z m 88,-4 H 104 v -3.6 c 0,-0.2209 0.179,-0.4 0.4,-0.4 h 3.6 v 3.6 c 0,0.2209 -0.179,0.4 -0.4,0.4 z m -8,0 H 96.4 C 96.1791,72 96,71.8209 96,71.6 V 64.4 C 96,64.1791 96.1791,64 96.4,64 h 3.6 v 8 z m -28,0 H 68.4 C 68.1791,72 68,71.8209 68,71.6 V 68.4 C 68,68.1791 68.1791,68 68.4,68 H 72 v 3.6 c 0,0.2209 -0.1791,0.4 -0.4,0.4 z m -36,0 H 32.4 C 32.1791,72 32,71.8209 32,71.6 V 68.4 C 32,68.1791 32.1791,68 32.4,68 h 3.2 c 0.2209,0 0.4,0.1791 0.4,0.4 V 72 Z m 76,-4 H 108 v -3.6 c 0,-0.2209 0.179,-0.4 0.4,-0.4 h 3.2 c 0.221,0 0.4,0.1791 0.4,0.4 V 68 Z m -64,0 H 40.4 C 40.1791,68 40,67.8209 40,67.6 V 64 h 3.6 C 43.8209,64 44,63.8209 44,63.6 V 60 h 7.6 c 0.2209,0 0.4,0.1791 0.4,0.4 v 3.2 C 52,63.8209 51.8209,64 51.6,64 H 48.4 C 48.1791,64 48,64.1791 48,64.4 v 3.2 c 0,0.2209 -0.1791,0.4 -0.4,0.4 z m 72,-4 h -3.2 c -0.221,0 -0.4,-0.1791 -0.4,-0.4 v -3.2 c 0,-0.2209 0.179,-0.4 0.4,-0.4 h 3.2 c 0.221,0 0.4,0.1791 0.4,0.4 v 3.2 c 0,0.2209 -0.179,0.4 -0.4,0.4 z m -16,0 H 100 V 60.4 C 100,60.1791 99.8209,60 99.6,60 H 96.4 C 96.1791,60 96,59.8209 96,59.6 V 56 h 7.6 c 0.221,0 0.4,0.1791 0.4,0.4 v 7.2 c 0,0.2209 -0.179,0.4 -0.4,0.4 z m -32,0 H 68.4 C 68.1791,64 68,63.8209 68,63.6 V 56 h 3.6 C 71.8209,56 72,55.8209 72,55.6 V 48.4 C 72,48.1791 71.8209,48 71.6,48 H 68.4 C 68.1791,48 68,48.1791 68,48.4 V 56 H 52.4 C 52.1791,56 52,55.8209 52,55.6 V 52.4 C 52,52.1791 51.8209,52 51.6,52 H 48 V 48.4 C 48,48.1791 48.1791,48 48.4,48 h 7.2 c 0.2209,0 0.4,0.1791 0.4,0.4 v 3.2 c 0,0.2209 0.1791,0.4 0.4,0.4 h 7.2 C 63.8209,52 64,51.8209 64,51.6 V 48.4 C 64,48.1791 63.8209,48 63.6,48 H 60.4 C 60.1791,48 60,47.8209 60,47.6 V 44 h 3.6 C 63.8209,44 64,43.8209 64,43.6 V 40.4 C 64,40.1791 64.1791,40 64.4,40 h 3.2 c 0.2209,0 0.4,0.1791 0.4,0.4 v 3.2 c 0,0.2209 0.1791,0.4 0.4,0.4 h 3.2 C 71.8209,44 72,43.8209 72,43.6 V 40.4 C 72,40.1791 72.1791,40 72.4,40 H 76 V 60 H 72.4 C 72.1791,60 72,60.1791 72,60.4 V 64 Z m -32,0 H 36.4 C 36.1791,64 36,63.8209 36,63.6 V 60.4 C 36,60.1791 36.1791,60 36.4,60 H 40 v 4 z m -8,0 H 28.4 C 28.1791,64 28,63.8209 28,63.6 V 60 h 3.6 c 0.2209,0 0.4,0.1791 0.4,0.4 v 3.2 c 0,0.2209 -0.1791,0.4 -0.4,0.4 z m -12,0 H 16.4 C 16.1791,64 16,63.8209 16,63.6 V 60.4 C 16,60.1791 16.1791,60 16.4,60 H 20 v 3.6 c 0,0.2209 -0.1791,0.4 -0.4,0.4 z m 24,-4 H 40 v -4 h 4 v 4 z m -16,0 H 20 V 48.4 C 20,48.1791 20.1791,48 20.4,48 h 3.2 c 0.2209,0 0.4,0.1791 0.4,0.4 v 7.2 c 0,0.2209 0.1791,0.4 0.4,0.4 H 28 v 4 z m 92,-4 h -11.2 c -0.221,0 -0.4,-0.1791 -0.4,-0.4 v -7.2 c 0,-0.2209 0.179,-0.4 0.4,-0.4 h 7.2 c 0.221,0 0.4,0.1791 0.4,0.4 v 3.2 c 0,0.2209 0.179,0.4 0.4,0.4 h 3.6 v 3.6 c 0,0.2209 -0.179,0.4 -0.4,0.4 z m -24,0 H 92 V 52.4 C 92,52.1791 92.1791,52 92.4,52 h 3.2 c 0.2209,0 0.4,0.1791 0.4,0.4 V 56 Z m -12,0 H 80.4 C 80.1791,56 80,55.8209 80,55.6 V 52.4 C 80,52.1791 80.1791,52 80.4,52 h 3.2 c 0.2209,0 0.4,0.1791 0.4,0.4 V 56 Z m -36,0 H 44 v -4 h 4 v 3.6 c 0,0.2209 -0.1791,0.4 -0.4,0.4 z m -8,0 H 36.4 C 36.1791,56 36,55.8209 36,55.6 V 52 h 4 v 4 z m -8,0 H 28 V 52.4 C 28,52.1791 28.1791,52 28.4,52 H 32 v 3.6 c 0,0.2209 -0.1791,0.4 -0.4,0.4 z m 92,-4 H 120 v -3.6 c 0,-0.2209 0.179,-0.4 0.4,-0.4 h 3.2 c 0.221,0 0.4,0.1791 0.4,0.4 V 52 Z m -20,0 h -3.2 C 100.179,52 100,51.8209 100,51.6 V 48 h 3.6 c 0.221,0 0.4,0.1791 0.4,0.4 v 3.2 c 0,0.2209 -0.179,0.4 -0.4,0.4 z m -60,0 H 40 V 48.4 C 40,48.1791 40.1791,48 40.4,48 h 3.2 c 0.2209,0 0.4,0.1791 0.4,0.4 V 52 Z m -8,0 H 32 V 48.4 C 32,48.1791 32.1791,48 32.4,48 h 3.2 c 0.2209,0 0.4,0.1791 0.4,0.4 V 52 Z m 64,-4 H 84.4 C 84.1791,48 84,47.8209 84,47.6 V 44 h 3.6 C 87.8209,44 88,43.8209 88,43.6 V 40 h 4 v 3.6 c 0,0.2209 0.1791,0.4 0.4,0.4 h 3.2 C 95.8209,44 96,43.8209 96,43.6 V 40.4 C 96,40.1791 95.8209,40 95.6,40 H 92 v -4 h 7.6 c 0.2209,0 0.4,0.1791 0.4,0.4 V 48 Z m 32,-4 H 104.4 C 104.179,44 104,43.8209 104,43.6 V 16.4 c 0,-0.2209 0.179,-0.4 0.4,-0.4 h 27.2 c 0.221,0 0.4,0.1791 0.4,0.4 v 27.2 c 0,0.2209 -0.179,0.4 -0.4,0.4 z m -48,0 H 80.4 C 80.1791,44 80,43.8209 80,43.6 V 40.4 C 80,40.1791 79.8209,40 79.6,40 H 76 V 36.4 C 76,36.1791 76.1791,36 76.4,36 H 88 v 4 H 84.4 C 84.1791,40 84,40.1791 84,40.4 V 44 Z m -24,0 H 56.4 C 56.1791,44 56,43.8209 56,43.6 V 40.4 C 56,40.1791 55.8209,40 55.6,40 H 52.4 C 52.1791,40 52,40.1791 52,40.4 v 3.2 C 52,43.8209 51.8209,44 51.6,44 H 48.4 C 48.1791,44 48,43.8209 48,43.6 V 32.4 C 48,32.1791 48.1791,32 48.4,32 h 3.2 c 0.2209,0 0.4,0.1791 0.4,0.4 v 3.2 c 0,0.2209 0.1791,0.4 0.4,0.4 h 3.2 C 55.8209,36 56,35.8209 56,35.6 V 32.4 C 56,32.1791 56.1791,32 56.4,32 h 3.2 C 59.8209,32 60,31.8209 60,31.6 V 28.4 C 60,28.1791 59.8209,28 59.6,28 H 56.4 C 56.1791,28 56,27.8209 56,27.6 V 20.4 C 56,20.1791 55.8209,20 55.6,20 H 52.4 C 52.1791,20 52,19.8209 52,19.6 V 16.4 C 52,16.1791 52.1791,16 52.4,16 h 7.2 c 0.2209,0 0.4,0.1791 0.4,0.4 v 7.2 c 0,0.2209 0.1791,0.4 0.4,0.4 h 7.2 C 67.8209,24 68,23.8209 68,23.6 V 20.4 C 68,20.1791 68.1791,20 68.4,20 h 3.2 c 0.2209,0 0.4,0.1791 0.4,0.4 V 31.6 C 72,31.8209 71.8209,32 71.6,32 H 68.4 C 68.1791,32 68,31.8209 68,31.6 V 28.4 C 68,28.1791 67.8209,28 67.6,28 H 64.4 C 64.1791,28 64,28.1791 64,28.4 v 7.2 C 64,35.8209 63.8209,36 63.6,36 H 60.4 C 60.1791,36 60,36.1791 60,36.4 V 44 Z m -16,0 H 16.4 C 16.1791,44 16,43.8209 16,43.6 V 16.4 C 16,16.1791 16.1791,16 16.4,16 h 27.2 c 0.2209,0 0.4,0.1791 0.4,0.4 V 43.6 C 44,43.8209 43.8209,44 43.6,44 Z M 128,39.6 V 20.4 c 0,-0.2209 -0.179,-0.4 -0.4,-0.4 h -19.2 c -0.221,0 -0.4,0.1791 -0.4,0.4 v 19.2 c 0,0.2209 0.179,0.4 0.4,0.4 h 19.2 c 0.221,0 0.4,-0.1791 0.4,-0.4 z m -88,0 V 20.4 C 40,20.1791 39.8209,20 39.6,20 H 20.4 C 20.1791,20 20,20.1791 20,20.4 v 19.2 c 0,0.2209 0.1791,0.4 0.4,0.4 H 39.6 C 39.8209,40 40,39.8209 40,39.6 Z M 123.6,36 H 112.4 C 112.179,36 112,35.8209 112,35.6 V 24.4 c 0,-0.2209 0.179,-0.4 0.4,-0.4 h 11.2 c 0.221,0 0.4,0.1791 0.4,0.4 v 11.2 c 0,0.2209 -0.179,0.4 -0.4,0.4 z m -32,0 H 88 V 28.4 C 88,28.1791 87.8209,28 87.6,28 H 84.4 C 84.1791,28 84,27.8209 84,27.6 V 24 h 8 v 3.6 c 0,0.2209 0.1791,0.4 0.4,0.4 h 3.2 c 0.2209,0 0.4,0.1791 0.4,0.4 v 3.2 C 96,31.8209 95.8209,32 95.6,32 H 92.4 C 92.1791,32 92,32.1791 92,32.4 V 36 Z m -56,0 H 24.4 C 24.1791,36 24,35.8209 24,35.6 V 24.4 C 24,24.1791 24.1791,24 24.4,24 h 11.2 c 0.2209,0 0.4,0.1791 0.4,0.4 v 11.2 c 0,0.2209 -0.1791,0.4 -0.4,0.4 z m 16,-8 H 48.4 C 48.1791,28 48,27.8209 48,27.6 V 24.4 C 48,24.1791 48.1791,24 48.4,24 h 3.2 c 0.2209,0 0.4,0.1791 0.4,0.4 v 3.2 c 0,0.2209 -0.1791,0.4 -0.4,0.4 z m 44,-4 H 92 V 16.4 C 92,16.1791 92.1791,16 92.4,16 h 3.2 c 0.2209,0 0.4,0.1791 0.4,0.4 v 7.2 c 0,0.2209 -0.1791,0.4 -0.4,0.4 z m -12,0 H 76.4 C 76.1791,24 76,23.8209 76,23.6 V 20.4 C 76,20.1791 76.1791,20 76.4,20 h 3.2 C 79.8209,20 80,19.8209 80,19.6 V 16.4 C 80,16.1791 80.1791,16 80.4,16 h 7.2 c 0.2209,0 0.4,0.1791 0.4,0.4 v 3.2 C 88,19.8209 87.8209,20 87.6,20 H 84.4 C 84.1791,20 84,20.1791 84,20.4 V 24 Z"
           id="path1" />
      </g>
    </g>
  </g>
</svg>
