<?xml version="1.0" encoding="UTF-8" standalone="no"?>
<!-- Created with Inkscape (http://www.inkscape.org/) -->

<svg
   width="29.033159mm"
   height="35.964806mm"
   viewBox="0 0 29.033159 35.964806"
   version="1.1"
   id="svg5"
   sodipodi:docname="pendulo.svg"
   inkscape:version="1.2.2 (b0a8486541, 2022-12-01)"
   xmlns:inkscape="http://www.inkscape.org/namespaces/inkscape"
   xmlns:sodipodi="http://sodipodi.sourceforge.net/DTD/sodipodi-0.dtd"
   xmlns:xlink="http://www.w3.org/1999/xlink"
   xmlns="http://www.w3.org/2000/svg"
   xmlns:svg="http://www.w3.org/2000/svg">
  <sodipodi:namedview
     id="namedview7"
     pagecolor="#ffffff"
     bordercolor="#000000"
     borderopacity="0.25"
     inkscape:showpageshadow="2"
     inkscape:pageopacity="0.0"
     inkscape:pagecheckerboard="0"
     inkscape:deskcolor="#d1d1d1"
     inkscape:document-units="mm"
     showgrid="false"
     inkscape:zoom="2.3786088"
     inkscape:cx="187.50456"
     inkscape:cy="156.60415"
     inkscape:window-width="1920"
     inkscape:window-height="1128"
     inkscape:window-x="0"
     inkscape:window-y="0"
     inkscape:window-maximized="1"
     inkscape:current-layer="layer1" />
  <defs
     id="defs2">
    <marker
       style="overflow:visible"
       id="Arrow2"
       refX="0"
       refY="0"
       orient="auto-start-reverse"
       inkscape:stockid="Arrow2"
       markerWidth="7.6999998"
       markerHeight="5.5999999"
       viewBox="0 0 7.7 5.6"
       inkscape:isstock="true"
       inkscape:collect="always"
       preserveAspectRatio="xMidYMid">
      <path
         transform="scale(0.7)"
         d="M -2,-4 9,0 -2,4 c 2,-2.33 2,-5.66 0,-8 z"
         style="fill:context-stroke;fill-rule:evenodd;stroke:none"
         id="arrow2L" />
    </marker>
    <linearGradient
       inkscape:collect="always"
       id="linearGradient5459">
      <stop
         style="stop-color:#acacac;stop-opacity:1;"
         offset="0"
         id="stop5455" />
      <stop
         style="stop-color:#acacac;stop-opacity:0;"
         offset="1"
         id="stop5457" />
    </linearGradient>
    <linearGradient
       inkscape:collect="always"
       id="linearGradient4723">
      <stop
         style="stop-color:#acacac;stop-opacity:1;"
         offset="0"
         id="stop4719" />
      <stop
         style="stop-color:#acacac;stop-opacity:0;"
         offset="1"
         id="stop4721" />
    </linearGradient>
    <linearGradient
       inkscape:collect="always"
       xlink:href="#linearGradient4723"
       id="linearGradient4725"
       x1="82.430367"
       y1="43.826389"
       x2="83.642715"
       y2="43.826389"
       gradientUnits="userSpaceOnUse"
       gradientTransform="matrix(1.4976996,0,0,1.4946098,-95.452874,15.472451)" />
    <linearGradient
       inkscape:collect="always"
       xlink:href="#linearGradient5459"
       id="linearGradient5461"
       x1="80.094444"
       y1="64.460388"
       x2="85.867409"
       y2="64.460388"
       gradientUnits="userSpaceOnUse"
       gradientTransform="translate(-53.831061,49.626386)" />
    <clipPath
       id="clipPath5233">
      <path
         clip-rule="nonzero"
         d="M 0,0 H 7.425781 V 7.453125 H 0 Z m 0,0"
         id="path4149" />
    </clipPath>
    <clipPath
       id="clipPath4027">
      <path
         clip-rule="nonzero"
         d="M 0,0 H 5 V 7.574219 H 0 Z m 0,0"
         id="path3404" />
    </clipPath>
  </defs>
  <g
     inkscape:label="Layer 1"
     inkscape:groupmode="layer"
     id="layer1"
     transform="translate(-27.757479,-21.622304)">
    <g
       id="g6709"
       transform="matrix(0.50475961,0,0,0.50512607,13.823603,10.777292)"
       style="stroke-width:1.98042">
      <path
         style="fill:#acacac;fill-opacity:1;stroke:#000100;stroke-width:0.792169;stroke-linecap:round;stroke-dasharray:3.16868, 3.16868;stroke-dashoffset:0;stroke-opacity:1"
         d="m 49.350044,28.315679 0.247474,63.957813"
         id="path3132" />
      <g
         id="g5471"
         style="stroke-width:1.98042">
        <rect
           style="fill:url(#linearGradient4725);fill-opacity:1;stroke:#000100;stroke-width:0.198042;stroke-linecap:round;stroke-dasharray:none;stroke-dashoffset:0;stroke-opacity:1"
           id="rect4694"
           width="1.6659584"
           height="60.515781"
           x="28.077936"
           y="50.717911"
           transform="matrix(0.86750136,-0.49743481,0.5005178,0.86572624,0,0)" />
        <circle
           style="fill:url(#linearGradient5461);fill-opacity:1;stroke:#000100;stroke-width:0.198042;stroke-linecap:round;stroke-dasharray:none;stroke-dashoffset:0;stroke-opacity:1"
           id="path5453"
           cx="29.149866"
           cy="114.08677"
           r="2.8364794"
           transform="rotate(-29.932243)" />
      </g>
      <circle
         style="fill:#acacac;fill-opacity:1;stroke:#000100;stroke-width:0.792169;stroke-linecap:round;stroke-dasharray:none;stroke-dashoffset:0;stroke-opacity:1"
         id="path4638"
         cx="49.473782"
         cy="28.058903"
         r="1.8631778" />
      <rect
         style="fill:#acacac;fill-opacity:1;stroke:#000100;stroke-width:0.792169;stroke-linecap:round;stroke-dasharray:none;stroke-opacity:1"
         id="rect234"
         width="42.945446"
         height="6.6069908"
         x="28.001059"
         y="21.865995" />
      <path
         style="fill:none;fill-opacity:1;stroke:#000100;stroke-width:0.792169;stroke-linecap:round;stroke-dasharray:none;stroke-dashoffset:0;stroke-opacity:1;marker-end:url(#Arrow2)"
         d="m 49.575247,68.268785 c 4.948378,1.414184 10.047671,2.662487 14.865423,-3.242638"
         id="path5473"
         sodipodi:nodetypes="cc" />
    </g>
    <g
       inkscape:label=""
       transform="translate(48.72075,34.872002)"
       id="g6209">
      <g
         clip-path="url(#clipPath5233)"
         id="g16"
         transform="matrix(0.352778,0,0,0.352778,-0.148828,-6.6143e-4)">
        <g
           fill="#000000"
           fill-opacity="1"
           id="g14">
          <g
             id="use12"
             transform="translate(0,7.4549999)">
            <path
               d="m 4.078125,-6.59375 c 0.09375,-0.390625 0.125,-0.515625 1.15625,-0.515625 0.328125,0 0.421875,0 0.421875,-0.203125 0,-0.140625 -0.125,-0.140625 -0.1875,-0.140625 -0.359375,0 -1.25,0.03125 -1.609375,0.03125 -0.328125,0 -1.125,-0.03125 -1.453125,-0.03125 -0.078125,0 -0.203125,0 -0.203125,0.21875 0,0.125 0.09375,0.125 0.3125,0.125 0.015625,0 0.21875,0 0.40625,0.015625 0.203125,0.03125 0.296875,0.03125 0.296875,0.171875 0,0.046875 -0.015625,0.078125 -0.046875,0.21875 L 1.71875,-0.84375 c -0.109375,0.421875 -0.140625,0.5 -1,0.5 -0.1875,0 -0.296875,0 -0.296875,0.21875 C 0.421875,0 0.53125,0 0.71875,0 h 5.046875 c 0.265625,0 0.28125,0 0.34375,-0.1875 L 6.96875,-2.546875 C 7.015625,-2.65625 7.015625,-2.6875 7.015625,-2.6875 c 0,-0.046875 -0.03125,-0.125 -0.140625,-0.125 -0.09375,0 -0.109375,0.046875 -0.171875,0.234375 -0.375,1 -0.859375,2.234375 -2.75,2.234375 H 2.9375 c -0.15625,0 -0.171875,0 -0.25,0 C 2.578125,-0.359375 2.546875,-0.375 2.546875,-0.453125 c 0,-0.03125 0,-0.0625 0.0625,-0.25 z m 0,0"
               id="path22" />
          </g>
        </g>
      </g>
    </g>
    <g
       inkscape:label=""
       transform="translate(43.38149,46.551619)"
       id="g6300">
      <g
         clip-path="url(#clipPath4027)"
         id="g6298"
         transform="matrix(0.352778,0,0,0.352778,-0.159852,0.0393346)">
        <g
           fill="#000000"
           fill-opacity="1"
           id="g6296">
          <g
             id="g6294"
             transform="translate(0,7.5760002)">
            <path
               d="m 4.96875,-5.453125 c 0,-0.71875 -0.203125,-2.234375 -1.3125,-2.234375 -1.515625,0 -3.203125,3.078125 -3.203125,5.578125 0,1.015625 0.328125,2.234375 1.3125,2.234375 1.53125,0 3.203125,-3.140625 3.203125,-5.578125 z m -3.359375,1.5 c 0.1875,-0.703125 0.40625,-1.578125 0.84375,-2.34375 C 2.75,-6.84375 3.15625,-7.453125 3.640625,-7.453125 4.171875,-7.453125 4.25,-6.75 4.25,-6.125 c 0,0.53125 -0.09375,1.09375 -0.359375,2.171875 z m 2.1875,0.34375 c -0.125,0.5 -0.34375,1.421875 -0.765625,2.21875 C 2.65625,-0.65625 2.234375,-0.125 1.765625,-0.125 c -0.359375,0 -0.59375,-0.3125 -0.59375,-1.328125 0,-0.453125 0.078125,-1.09375 0.359375,-2.15625 z m 0,0"
               id="path6292" />
          </g>
        </g>
      </g>
    </g>
  </g>
</svg>
