<?xml version="1.0" encoding="UTF-8" standalone="no"?>
<!-- Created with Inkscape (http://www.inkscape.org/) -->

<svg
   width="91.732483mm"
   height="79.440681mm"
   viewBox="0 0 91.732483 79.440681"
   version="1.1"
   id="svg5"
   sodipodi:docname="fig-01.svg"
   inkscape:version="1.2.2 (b0a8486541, 2022-12-01)"
   xmlns:inkscape="http://www.inkscape.org/namespaces/inkscape"
   xmlns:sodipodi="http://sodipodi.sourceforge.net/DTD/sodipodi-0.dtd"
   xmlns="http://www.w3.org/2000/svg"
   xmlns:svg="http://www.w3.org/2000/svg">
  <sodipodi:namedview
     id="namedview7"
     pagecolor="#ffffff"
     bordercolor="#666666"
     borderopacity="1.0"
     inkscape:showpageshadow="2"
     inkscape:pageopacity="0.0"
     inkscape:pagecheckerboard="0"
     inkscape:deskcolor="#d1d1d1"
     inkscape:document-units="mm"
     showgrid="false"
     inkscape:zoom="2.0989207"
     inkscape:cx="71.465301"
     inkscape:cy="127.68467"
     inkscape:window-width="1920"
     inkscape:window-height="1013"
     inkscape:window-x="0"
     inkscape:window-y="0"
     inkscape:window-maximized="1"
     inkscape:current-layer="layer1" />
  <defs
     id="defs2">
    <marker
       style="overflow:visible"
       id="Arrow2"
       refX="0"
       refY="0"
       orient="auto-start-reverse"
       inkscape:stockid="Arrow2"
       markerWidth="7.6999998"
       markerHeight="5.5999999"
       viewBox="0 0 7.7 5.6"
       inkscape:isstock="true"
       inkscape:collect="always"
       preserveAspectRatio="xMidYMid">
      <path
         transform="scale(0.7)"
         d="M -2,-4 9,0 -2,4 c 2,-2.33 2,-5.66 0,-8 z"
         style="fill:context-stroke;fill-rule:evenodd;stroke:none"
         id="arrow2L" />
    </marker>
    <clipPath
       id="clipPath6524">
      <path
         d="m 61,0 h 6 v 24.742188 h -6 z m 0,0"
         id="path2122" />
    </clipPath>
    <clipPath
       id="clipPath8615">
      <path
         d="m 82,0 h 7 v 24.742188 h -7 z m 0,0"
         id="path5694" />
    </clipPath>
    <clipPath
       id="clipPath8948">
      <path
         d="M 1,0 H 18.679688 V 16.9375 H 1 Z m 0,0"
         id="path6228" />
    </clipPath>
    <clipPath
       id="clipPath5422">
      <path
         d="m 118,0 h 13 v 22.03125 h -13 z m 0,0"
         id="path1556" />
    </clipPath>
    <clipPath
       id="clipPath9208">
      <path
         d="m 127,0 h 13 v 22.03125 h -13 z m 0,0"
         id="path1597" />
    </clipPath>
    <clipPath
       id="clipPath6456">
      <path
         d="M 1,0 H 14 V 22.03125 H 1 Z m 0,0"
         id="path2608" />
    </clipPath>
    <clipPath
       id="clipPath5936">
      <path
         d="m 14,3 h 8 v 11.390625 h -8 z m 0,0"
         id="path9311" />
    </clipPath>
    <clipPath
       id="clipPath8327">
      <path
         d="m 15,3 h 6 v 11.390625 h -6 z m 0,0"
         id="path3182" />
    </clipPath>
  </defs>
  <g
     inkscape:label="Capa 1"
     inkscape:groupmode="layer"
     id="layer1"
     transform="translate(-46.4613, -109.821)">
    <path
       style="fill:none;stroke:#000000;stroke-width:0.665;stroke-linecap:round;stroke-linejoin:miter;stroke-dasharray:none;stroke-opacity:1;marker-start:url(#Arrow2)"
       d="m 56.260124,121.5862 v 65.17798"
       id="path236" />
    <path
       style="fill:none;stroke:#000000;stroke-width:0.665;stroke-linecap:round;stroke-linejoin:miter;stroke-dasharray:none;stroke-opacity:1;marker-start:url(#Arrow2)"
       d="M 134.00433,173.00317 H 46.793849"
       id="path1063" />
    <path
       style="fill:none;stroke:#0903ff;stroke-width:0.665;stroke-linecap:round;stroke-linejoin:miter;stroke-dasharray:none;stroke-opacity:1"
       d="m 71.562023,160.97607 c 17.485006,-4.78789 18.186519,-28.18345 40.758587,-28.0246"
       id="path1127"
       sodipodi:nodetypes="cc" />
    <path
       style="fill:none;stroke:#000000;stroke-width:0.264583px;stroke-linecap:butt;stroke-linejoin:miter;stroke-dasharray:1.05833, 0.529166;stroke-dashoffset:0;stroke-opacity:1"
       d="M 112.35078,133.48366 V 172.9233"
       id="path1225" />
    <path
       style="fill:none;stroke:#000000;stroke-width:0.264583px;stroke-linecap:butt;stroke-linejoin:miter;stroke-dasharray:1.05833, 0.529166;stroke-dashoffset:0;stroke-opacity:1"
       d="M 71.401768,161.47706 V 172.9233"
       id="path1227" />
    <g
       inkscape:label=""
       transform="translate(62.22467,133.22496)"
       id="g1643">
      <g
         id="surface1"
         transform="matrix(0.352778,0,0,0.352778,-0.237023,-0.00194056)">
        <g
           style="fill:#000000;fill-opacity:1"
           id="g38">
          <g
             id="use36"
             transform="translate(0,18.568001)">
            <path
               style="stroke:none"
               d="M 6.515625,2.78125 C 5.84375,3.71875 4.875,4.5625 3.671875,4.5625 3.375,4.5625 2.1875,4.515625 1.8125,3.375 1.890625,3.390625 2,3.390625 2.0625,3.390625 2.796875,3.390625 3.296875,2.75 3.296875,2.1875 3.296875,1.609375 2.828125,1.40625 2.453125,1.40625 2.0625,1.40625 1.1875,1.703125 1.1875,2.921875 1.1875,4.1875 2.25,5.0625 3.671875,5.0625 c 2.46875,0 4.984375,-2.28125 5.671875,-5.03125 l 2.421875,-9.671875 c 0.03125,-0.125 0.07813,-0.265625 0.07813,-0.421875 0,-0.375 -0.296875,-0.625 -0.671875,-0.625 -0.21875,0 -0.734375,0.109375 -0.9375,0.84375 l -1.82813,7.296875 c -0.125,0.4375 -0.125,0.484375 -0.328125,0.765625 -0.5,0.6875 -1.3125,1.53125 -2.5,1.53125 C 4.1875,-0.25 4.0625,-1.609375 4.0625,-2.28125 c 0,-1.40625 0.671875,-3.3125 1.34375,-5.109375 0.265625,-0.71875 0.421875,-1.0625 0.421875,-1.5625 0,-1.03125 -0.75,-1.96875 -1.96875,-1.96875 -2.265625,0 -3.1875,3.59375 -3.1875,3.78125 0,0.109375 0.09375,0.234375 0.265625,0.234375 0.234375,0 0.25,-0.109375 0.34375,-0.453125 0.609375,-2.078125 1.546875,-3.078125 2.515625,-3.078125 0.21875,0 0.640625,0 0.640625,0.828125 0,0.640625 -0.28125,1.359375 -0.640625,2.296875 -1.21875,3.25 -1.21875,4.0625 -1.21875,4.65625 0,2.359375 1.6875,2.90625 2.921875,2.90625 0.71875,0 1.609375,-0.21875 2.484375,-1.140625 L 8,-0.875 C 7.625,0.59375 7.390625,1.5625 6.515625,2.78125 Z m 0,0"
               id="path69" />
          </g>
        </g>
        <g
           style="fill:#000000;fill-opacity:1"
           id="g42">
          <g
             id="use40"
             transform="translate(19.608999,18.568001)">
            <path
               style="stroke:none"
               d="m 15.9375,-7.953125 c 0.375,0 0.734375,0 0.734375,-0.421875 0,-0.453125 -0.421875,-0.453125 -0.84375,-0.453125 H 1.984375 c -0.421875,0 -0.84375,0 -0.84375,0.453125 0,0.421875 0.375,0.421875 0.75,0.421875 z m -0.109375,4.40625 c 0.421875,0 0.84375,0 0.84375,-0.4375 0,-0.421875 -0.359375,-0.421875 -0.734375,-0.421875 H 1.890625 c -0.375,0 -0.75,0 -0.75,0.421875 0,0.4375 0.421875,0.4375 0.84375,0.4375 z m 0,0"
               id="path73" />
          </g>
        </g>
        <g
           style="fill:#000000;fill-opacity:1"
           id="g46">
          <g
             id="use44"
             transform="translate(44.335999,18.568001)">
            <path
               style="stroke:none"
               d="m 11.046875,-9.96875 c 0.5,0 0.703125,0 0.703125,-0.46875 0,-0.25 -0.203125,-0.25 -0.640625,-0.25 H 9.09375 c 0.46875,-2.546875 0.8125,-4.3125 1.015625,-5.09375 0.15625,-0.59375 0.671875,-1.171875 1.3125,-1.171875 0.515625,0 1.046875,0.21875 1.296875,0.453125 -0.96875,0.09375 -1.265625,0.8125 -1.265625,1.234375 0,0.5 0.375,0.796875 0.84375,0.796875 0.484375,0 1.234375,-0.421875 1.234375,-1.359375 0,-1.046875 -1.046875,-1.625 -2.125,-1.625 -1.078125,0 -2.109375,0.796875 -2.609375,1.765625 -0.453125,0.875 -0.6875,1.765625 -1.265625,5 H 5.875 c -0.46875,0 -0.71875,0 -0.71875,0.453125 0,0.265625 0.140625,0.265625 0.640625,0.265625 h 1.59375 C 6.9375,-7.65625 5.921875,-2.0625 5.359375,0.59375 4.9375,2.75 4.5625,4.5625 3.328125,4.5625 c -0.078125,0 -0.796875,0 -1.25,-0.46875 C 3.34375,3.984375 3.34375,2.90625 3.34375,2.875 3.34375,2.375 2.96875,2.078125 2.5,2.078125 2,2.078125 1.265625,2.5 1.265625,3.4375 c 0,1.078125 1.09375,1.625 2.0625,1.625 2.515625,0 3.5625,-4.546875 3.828125,-5.78125 0.453125,-1.90625 1.671875,-8.5 1.796875,-9.25 z m 0,0"
               id="path77" />
          </g>
        </g>
        <g
           clip-path="url(#clipPath6524)"
           clip-rule="nonzero"
           id="g52">
          <g
             style="fill:#000000;fill-opacity:1"
             id="g50">
            <g
               id="use48"
               transform="translate(58.945999,18.568001)">
              <path
                 style="stroke:none"
                 d="m 7.578125,6.046875 c 0,-0.03125 0,-0.078125 -0.0625,-0.15625 -1.140625,-1.15625 -4.1875,-4.328125 -4.1875,-12.0625 0,-7.734375 2.984375,-10.875 4.203125,-12.109375 0,-0.03125 0.046875,-0.07813 0.046875,-0.15625 0,-0.07813 -0.0625,-0.125 -0.171875,-0.125 -0.265625,0 -2.375,1.828125 -3.59375,4.5625 -1.234375,2.75 -1.578125,5.421875 -1.578125,7.8125 0,1.78125 0.171875,4.796875 1.65625,8 1.1875,2.578125 3.21875,4.375 3.515625,4.375 0.125,0 0.171875,-0.046875 0.171875,-0.140625 z m 0,0"
                 id="path81" />
            </g>
          </g>
        </g>
        <g
           style="fill:#000000;fill-opacity:1"
           id="g56">
          <g
             id="use54"
             transform="translate(67.723999,18.568001)">
            <path
               style="stroke:none"
               d="m 11.75,-10.109375 c -0.796875,0.140625 -1.09375,0.734375 -1.09375,1.21875 0,0.59375 0.46875,0.78125 0.8125,0.78125 0.75,0 1.265625,-0.640625 1.265625,-1.3125 0,-1.03125 -1.1875,-1.5 -2.234375,-1.5 -1.5,0 -2.34375,1.484375 -2.5625,1.953125 -0.578125,-1.859375 -2.109375,-1.953125 -2.5625,-1.953125 -2.53125,0 -3.859375,3.234375 -3.859375,3.78125 0,0.109375 0.09375,0.234375 0.265625,0.234375 0.203125,0 0.25,-0.15625 0.296875,-0.25 0.84375,-2.75 2.5,-3.28125 3.21875,-3.28125 1.125,0 1.34375,1.046875 1.34375,1.640625 C 6.640625,-8.25 6.5,-7.6875 6.1875,-6.5 l -0.828125,3.40625 c -0.375,1.484375 -1.09375,2.84375 -2.40625,2.84375 -0.125,0 -0.75,0 -1.265625,-0.3125 0.890625,-0.1875 1.09375,-0.921875 1.09375,-1.21875 0,-0.5 -0.375,-0.796875 -0.84375,-0.796875 -0.59375,0 -1.25,0.515625 -1.25,1.3125 0,1.046875 1.171875,1.515625 2.234375,1.515625 1.1875,0 2.03125,-0.9375 2.5625,-1.953125 C 5.875,-0.25 7.109375,0.25 8.03125,0.25 c 2.53125,0 3.859375,-3.25 3.859375,-3.796875 0,-0.125 -0.09375,-0.21875 -0.25,-0.21875 -0.21875,0 -0.234375,0.125 -0.3125,0.328125 -0.671875,2.171875 -2.109375,3.1875 -3.21875,3.1875 -0.875,0 -1.34375,-0.640625 -1.34375,-1.65625 0,-0.546875 0.09375,-0.9375 0.5,-2.578125 L 8.125,-7.859375 C 8.5,-9.34375 9.34375,-10.4375 10.484375,-10.4375 c 0.04687,0 0.734375,0 1.265625,0.328125 z m 0,0"
               id="path85" />
          </g>
        </g>
        <g
           clip-path="url(#clipPath8615)"
           clip-rule="nonzero"
           id="g62">
          <g
             style="fill:#000000;fill-opacity:1"
             id="g60">
            <g
               id="use58"
               transform="translate(81.515999,18.568001)">
              <path
                 style="stroke:none"
                 d="m 6.515625,-6.171875 c 0,-1.78125 -0.171875,-4.8125 -1.65625,-8 C 3.671875,-16.75 1.640625,-18.5625 1.34375,-18.5625 c -0.078125,0 -0.171875,0.03125 -0.171875,0.15625 0,0.04687 0.015625,0.0625 0.046875,0.125 1.1875,1.234375 4.203125,4.375 4.203125,12.09375 0,7.71875 -3,10.875 -4.203125,12.109375 C 1.1875,5.96875 1.171875,6 1.171875,6.046875 c 0,0.125 0.09375,0.140625 0.171875,0.140625 0.265625,0 2.375,-1.828125 3.59375,-4.546875 1.234375,-2.75 1.578125,-5.4375 1.578125,-7.8125 z m 0,0"
                 id="path89" />
            </g>
          </g>
        </g>
      </g>
    </g>
    <g
       inkscape:label=""
       transform="translate(68.650983,174.96649)"
       id="g5385">
      <g
         id="g5383"
         transform="matrix(0.352778,0,0,0.352778,-0.242535,0.0881504)">
        <g
           style="fill:#000000;fill-opacity:1"
           id="g23">
          <g
             id="use21"
             transform="translate(0,10.672)">
            <path
               style="stroke:none"
               d="m 11.75,-10.109375 c -0.796875,0.140625 -1.09375,0.734375 -1.09375,1.21875 0,0.59375 0.46875,0.78125 0.8125,0.78125 0.75,0 1.265625,-0.640625 1.265625,-1.3125 0,-1.03125 -1.1875,-1.5 -2.234375,-1.5 -1.5,0 -2.34375,1.484375 -2.5625,1.953125 -0.578125,-1.859375 -2.109375,-1.953125 -2.5625,-1.953125 -2.53125,0 -3.859375,3.234375 -3.859375,3.78125 0,0.109375 0.09375,0.234375 0.265625,0.234375 0.203125,0 0.25,-0.15625 0.296875,-0.25 0.84375,-2.75 2.5,-3.28125 3.21875,-3.28125 1.125,0 1.34375,1.046875 1.34375,1.640625 C 6.640625,-8.25 6.5,-7.6875 6.1875,-6.5 l -0.828125,3.40625 c -0.375,1.484375 -1.09375,2.84375 -2.40625,2.84375 -0.125,0 -0.75,0 -1.265625,-0.3125 0.890625,-0.1875 1.09375,-0.921875 1.09375,-1.21875 0,-0.5 -0.375,-0.796875 -0.84375,-0.796875 -0.59375,0 -1.25,0.515625 -1.25,1.3125 0,1.046875 1.171875,1.515625 2.234375,1.515625 1.1875,0 2.03125,-0.9375 2.5625,-1.953125 C 5.875,-0.25 7.109375,0.25 8.03125,0.25 c 2.53125,0 3.859375,-3.25 3.859375,-3.796875 0,-0.125 -0.09375,-0.21875 -0.25,-0.21875 -0.21875,0 -0.234375,0.125 -0.3125,0.328125 -0.671875,2.171875 -2.109375,3.1875 -3.21875,3.1875 -0.875,0 -1.34375,-0.640625 -1.34375,-1.65625 0,-0.546875 0.09375,-0.9375 0.5,-2.578125 L 8.125,-7.859375 C 8.5,-9.34375 9.34375,-10.4375 10.484375,-10.4375 c 0.04687,0 0.734375,0 1.265625,0.328125 z m 0,0"
               id="path36" />
          </g>
        </g>
        <g
           clip-path="url(#clipPath5936)"
           clip-rule="nonzero"
           id="g29">
          <g
             style="fill:#000000;fill-opacity:1"
             id="g27">
            <g
               id="use25"
               transform="translate(13.792,14.39)">
              <path
                 style="stroke:none"
                 d="m 7.234375,-5.53125 c 0,-1.046875 -0.015625,-2.84375 -0.75,-4.21875 -0.625,-1.203125 -1.640625,-1.625 -2.546875,-1.625 -0.828125,0 -1.875,0.375 -2.53125,1.609375 -0.6875,1.296875 -0.75,2.890625 -0.75,4.234375 0,0.984375 0.015625,2.484375 0.546875,3.796875 0.75,1.765625 2.0625,2.015625 2.734375,2.015625 0.796875,0 2,-0.328125 2.703125,-1.96875 0.515625,-1.1875 0.59375,-2.578125 0.59375,-3.84375 z M 3.9375,0 C 2.84375,0 2.1875,-0.953125 1.953125,-2.25 1.75,-3.265625 1.75,-4.75 1.75,-5.71875 c 0,-1.328125 0,-2.421875 0.234375,-3.46875 0.328125,-1.46875 1.28125,-1.921875 1.953125,-1.921875 0.71875,0 1.625,0.46875 1.953125,1.875 C 6.109375,-8.25 6.125,-7.09375 6.125,-5.71875 c 0,1.125 0,2.5 -0.203125,3.515625 C 5.5625,-0.328125 4.546875,0 3.9375,0 Z m 0,0"
                 id="path40" />
            </g>
          </g>
        </g>
      </g>
    </g>
    <g
       inkscape:label=""
       transform="translate(109.10124,174.96649)"
       id="g5558">
      <g
         id="g5556"
         transform="matrix(0.352778,0,0,0.352778,-0.242535,0.0881504)">
        <g
           style="fill:#000000;fill-opacity:1"
           id="g5546">
          <g
             id="g5544"
             transform="translate(0,10.672)">
            <path
               style="stroke:none"
               d="m 11.75,-10.109375 c -0.796875,0.140625 -1.09375,0.734375 -1.09375,1.21875 0,0.59375 0.46875,0.78125 0.8125,0.78125 0.75,0 1.265625,-0.640625 1.265625,-1.3125 0,-1.03125 -1.1875,-1.5 -2.234375,-1.5 -1.5,0 -2.34375,1.484375 -2.5625,1.953125 -0.578125,-1.859375 -2.109375,-1.953125 -2.5625,-1.953125 -2.53125,0 -3.859375,3.234375 -3.859375,3.78125 0,0.109375 0.09375,0.234375 0.265625,0.234375 0.203125,0 0.25,-0.15625 0.296875,-0.25 0.84375,-2.75 2.5,-3.28125 3.21875,-3.28125 1.125,0 1.34375,1.046875 1.34375,1.640625 C 6.640625,-8.25 6.5,-7.6875 6.1875,-6.5 l -0.828125,3.40625 c -0.375,1.484375 -1.09375,2.84375 -2.40625,2.84375 -0.125,0 -0.75,0 -1.265625,-0.3125 0.890625,-0.1875 1.09375,-0.921875 1.09375,-1.21875 0,-0.5 -0.375,-0.796875 -0.84375,-0.796875 -0.59375,0 -1.25,0.515625 -1.25,1.3125 0,1.046875 1.171875,1.515625 2.234375,1.515625 1.1875,0 2.03125,-0.9375 2.5625,-1.953125 C 5.875,-0.25 7.109375,0.25 8.03125,0.25 c 2.53125,0 3.859375,-3.25 3.859375,-3.796875 0,-0.125 -0.09375,-0.21875 -0.25,-0.21875 -0.21875,0 -0.234375,0.125 -0.3125,0.328125 -0.671875,2.171875 -2.109375,3.1875 -3.21875,3.1875 -0.875,0 -1.34375,-0.640625 -1.34375,-1.65625 0,-0.546875 0.09375,-0.9375 0.5,-2.578125 L 8.125,-7.859375 C 8.5,-9.34375 9.34375,-10.4375 10.484375,-10.4375 c 0.04687,0 0.734375,0 1.265625,0.328125 z m 0,0"
               id="path5542" />
          </g>
        </g>
        <g
           clip-path="url(#clipPath8327)"
           clip-rule="nonzero"
           id="g5554">
          <g
             style="fill:#000000;fill-opacity:1"
             id="g5552">
            <g
               id="g5550"
               transform="translate(13.792,14.39)">
              <path
                 style="stroke:none"
                 d="m 4.578125,-11 c 0,-0.359375 -0.015625,-0.375 -0.25,-0.375 -0.671875,0.796875 -1.6875,1.0625 -2.65625,1.09375 -0.046875,0 -0.140625,0 -0.15625,0.03125 C 1.5,-10.203125 1.5,-10.171875 1.5,-9.8125 c 0.53125,0 1.421875,-0.109375 2.109375,-0.515625 V -1.25 c 0,0.59375 -0.03125,0.796875 -1.515625,0.796875 H 1.578125 V 0 c 0.828125,-0.015625 1.6875,-0.03125 2.515625,-0.03125 0.828125,0 1.6875,0.015625 2.515625,0.03125 V -0.453125 H 6.09375 c -1.484375,0 -1.515625,-0.1875 -1.515625,-0.796875 z m 0,0"
                 id="path5548" />
            </g>
          </g>
        </g>
      </g>
    </g>
    <g
       inkscape:label=""
       transform="translate(132.5593,181.40455)"
       id="g5244">
      <g
         id="g5242"
         transform="matrix(0.352778,0,0,0.352778,-0.446484,0.084711)">
        <g
           clip-path="url(#clipPath6456)"
           clip-rule="nonzero"
           id="g5240">
          <g
             style="fill:#000000;fill-opacity:1"
             id="g5238">
            <g
               id="g5236"
               transform="translate(0,17.212999)">
              <path
                 style="stroke:none"
                 d="m 11.046875,-9.96875 c 0.5,0 0.703125,0 0.703125,-0.46875 0,-0.25 -0.203125,-0.25 -0.640625,-0.25 H 9.09375 c 0.46875,-2.546875 0.8125,-4.3125 1.015625,-5.09375 0.15625,-0.59375 0.671875,-1.171875 1.3125,-1.171875 0.515625,0 1.046875,0.21875 1.296875,0.453125 -0.96875,0.09375 -1.265625,0.8125 -1.265625,1.234375 0,0.5 0.375,0.796875 0.84375,0.796875 0.484375,0 1.234375,-0.421875 1.234375,-1.359375 0,-1.046875 -1.046875,-1.625 -2.125,-1.625 -1.078125,0 -2.109375,0.796875 -2.609375,1.765625 -0.453125,0.875 -0.6875,1.765625 -1.265625,5 H 5.875 c -0.46875,0 -0.71875,0 -0.71875,0.453125 0,0.265625 0.140625,0.265625 0.640625,0.265625 h 1.59375 C 6.9375,-7.65625 5.921875,-2.0625 5.359375,0.59375 4.9375,2.75 4.5625,4.5625 3.328125,4.5625 c -0.078125,0 -0.796875,0 -1.25,-0.46875 C 3.34375,3.984375 3.34375,2.90625 3.34375,2.875 3.34375,2.375 2.96875,2.078125 2.5,2.078125 2,2.078125 1.265625,2.5 1.265625,3.4375 c 0,1.078125 1.09375,1.625 2.0625,1.625 2.515625,0 3.5625,-4.546875 3.828125,-5.78125 0.453125,-1.90625 1.671875,-8.5 1.796875,-9.25 z m 0,0"
                 id="path5234" />
            </g>
          </g>
        </g>
      </g>
    </g>
    <text
       xml:space="preserve"
       style="font-size:8.46667px;line-height:1.25;font-family:'Iwona Light';-inkscape-font-specification:'Iwona Light, ';stroke-width:0.264583"
       x="92.105934"
       y="187.47337"
       id="text6002"><tspan
         sodipodi:role="line"
         id="tspan6000"
         style="font-size:8.46667px;stroke-width:0.264583"
         x="92.105934"
         y="187.47337">dominio de</tspan></text>
    <text
       xml:space="preserve"
       style="font-size:8.46667px;line-height:1.25;font-family:'Iwona Light';-inkscape-font-specification:'Iwona Light, ';stroke-width:0.264583"
       x="47.304726"
       y="115.74739"
       id="text6056"><tspan
         sodipodi:role="line"
         id="tspan6054"
         style="font-size:8.46667px;stroke-width:0.264583"
         x="47.304726"
         y="115.74739">rango de</tspan></text>
    <g
       inkscape:label=""
       transform="translate(79.814988,109.82081)"
       id="g6068">
      <g
         id="g6066"
         transform="matrix(0.352778,0,0,0.352778,-0.446484,0.084711)">
        <g
           clip-path="url(#clipPath6456)"
           clip-rule="nonzero"
           id="g6064">
          <g
             style="fill:#000000;fill-opacity:1"
             id="g6062">
            <g
               id="g6060"
               transform="translate(0,17.212999)">
              <path
                 style="stroke:none"
                 d="m 11.046875,-9.96875 c 0.5,0 0.703125,0 0.703125,-0.46875 0,-0.25 -0.203125,-0.25 -0.640625,-0.25 H 9.09375 c 0.46875,-2.546875 0.8125,-4.3125 1.015625,-5.09375 0.15625,-0.59375 0.671875,-1.171875 1.3125,-1.171875 0.515625,0 1.046875,0.21875 1.296875,0.453125 -0.96875,0.09375 -1.265625,0.8125 -1.265625,1.234375 0,0.5 0.375,0.796875 0.84375,0.796875 0.484375,0 1.234375,-0.421875 1.234375,-1.359375 0,-1.046875 -1.046875,-1.625 -2.125,-1.625 -1.078125,0 -2.109375,0.796875 -2.609375,1.765625 -0.453125,0.875 -0.6875,1.765625 -1.265625,5 H 5.875 c -0.46875,0 -0.71875,0 -0.71875,0.453125 0,0.265625 0.140625,0.265625 0.640625,0.265625 h 1.59375 C 6.9375,-7.65625 5.921875,-2.0625 5.359375,0.59375 4.9375,2.75 4.5625,4.5625 3.328125,4.5625 c -0.078125,0 -0.796875,0 -1.25,-0.46875 C 3.34375,3.984375 3.34375,2.90625 3.34375,2.875 3.34375,2.375 2.96875,2.078125 2.5,2.078125 2,2.078125 1.265625,2.5 1.265625,3.4375 c 0,1.078125 1.09375,1.625 2.0625,1.625 2.515625,0 3.5625,-4.546875 3.828125,-5.78125 0.453125,-1.90625 1.671875,-8.5 1.796875,-9.25 z m 0,0"
                 id="path6058" />
            </g>
          </g>
        </g>
      </g>
    </g>
    <g
       inkscape:label=""
       transform="translate(94.359082,154.02904)"
       id="g619">
      <g
         id="g617"
         transform="matrix(0.846667,0,0,0.846667,-78.1738,-63.6274)">
        <g
           style="fill:#000000;fill-opacity:1"
           id="g14">
          <g
             id="use12"
             transform="translate(91.925003,81.962997)">
            <path
               style="stroke:none"
               d="m 3.734375,-6.125 c 0.0625,-0.234375 0.09375,-0.328125 0.28125,-0.359375 C 4.109375,-6.5 4.421875,-6.5 4.625,-6.5 c 0.703125,0 1.8125,0 1.8125,0.984375 0,0.34375 -0.15625,1.03125 -0.546875,1.421875 -0.265625,0.25 -0.78125,0.578125 -1.6875,0.578125 H 3.09375 Z m 1.4375,2.734375 c 1.015625,-0.21875 2.1875,-0.921875 2.1875,-1.921875 0,-0.859375 -0.890625,-1.5 -2.203125,-1.5 H 2.328125 c -0.203125,0 -0.296875,0 -0.296875,0.203125 C 2.03125,-6.5 2.125,-6.5 2.3125,-6.5 c 0.015625,0 0.203125,0 0.375,0.015625 0.1875,0.03125 0.265625,0.03125 0.265625,0.171875 0,0.03125 0,0.0625 -0.03125,0.1875 l -1.34375,5.34375 C 1.484375,-0.390625 1.46875,-0.3125 0.671875,-0.3125 0.5,-0.3125 0.40625,-0.3125 0.40625,-0.109375 0.40625,0 0.53125,0 0.546875,0 c 0.28125,0 0.984375,-0.03125 1.25,-0.03125 0.28125,0 1,0.03125 1.28125,0.03125 0.078125,0 0.1875,0 0.1875,-0.203125 0,-0.109375 -0.078125,-0.109375 -0.28125,-0.109375 -0.359375,0 -0.640625,0 -0.640625,-0.171875 0,-0.0625 0.015625,-0.109375 0.03125,-0.171875 l 0.65625,-2.640625 h 1.1875 c 0.90625,0 1.078125,0.5625 1.078125,0.90625 0,0.140625 -0.078125,0.453125 -0.140625,0.6875 C 5.09375,-1.421875 5,-1.0625 5,-0.859375 5,0.21875 6.203125,0.21875 6.328125,0.21875 c 0.84375,0 1.203125,-1 1.203125,-1.140625 0,-0.125 -0.109375,-0.125 -0.125,-0.125 -0.09375,0 -0.109375,0.0625 -0.125,0.140625 C 7.03125,-0.171875 6.59375,0 6.375,0 6.046875,0 5.96875,-0.21875 5.96875,-0.609375 c 0,-0.3125 0.0625,-0.8125 0.109375,-1.140625 0.015625,-0.140625 0.03125,-0.328125 0.03125,-0.46875 0,-0.765625 -0.671875,-1.078125 -0.9375,-1.171875 z m 0,0"
               id="path21" />
          </g>
        </g>
      </g>
    </g>
  </g>
</svg>
