<?xml version="1.0" encoding="UTF-8" standalone="no"?>
<!-- Created with Inkscape (http://www.inkscape.org/) -->

<svg
   width="88.117157mm"
   height="96.059837mm"
   viewBox="0 0 88.117157 96.059837"
   version="1.1"
   id="svg5"
   sodipodi:docname="fig-01.svg"
   inkscape:version="1.2.2 (b0a8486541, 2022-12-01)"
   xmlns:inkscape="http://www.inkscape.org/namespaces/inkscape"
   xmlns:sodipodi="http://sodipodi.sourceforge.net/DTD/sodipodi-0.dtd"
   xmlns="http://www.w3.org/2000/svg"
   xmlns:svg="http://www.w3.org/2000/svg">
  <sodipodi:namedview
     id="namedview7"
     pagecolor="#ffffff"
     bordercolor="#666666"
     borderopacity="1.0"
     inkscape:showpageshadow="2"
     inkscape:pageopacity="0.0"
     inkscape:pagecheckerboard="0"
     inkscape:deskcolor="#d1d1d1"
     inkscape:document-units="mm"
     showgrid="false"
     inkscape:zoom="1.4841611"
     inkscape:cx="4.3795785"
     inkscape:cy="175.85692"
     inkscape:window-width="1920"
     inkscape:window-height="1013"
     inkscape:window-x="0"
     inkscape:window-y="0"
     inkscape:window-maximized="1"
     inkscape:current-layer="layer1" />
  <defs
     id="defs2">
    <marker
       style="overflow:visible"
       id="Square"
       refX="0"
       refY="0"
       orient="auto"
       inkscape:stockid="Square"
       markerWidth="5.6666665"
       markerHeight="5.6666665"
       viewBox="0 0 5.6666667 5.6666667"
       inkscape:isstock="true"
       inkscape:collect="always"
       preserveAspectRatio="xMidYMid">
      <path
         transform="scale(0.5)"
         style="fill:context-stroke;fill-rule:evenodd;stroke:context-stroke;stroke-width:1pt"
         d="M -5,-5 V 5 H 5 V -5 Z"
         id="Squere" />
    </marker>
    <marker
       style="overflow:visible"
       id="TriangleStart"
       refX="0"
       refY="0"
       orient="auto-start-reverse"
       inkscape:stockid="TriangleStart"
       markerWidth="5.3244081"
       markerHeight="6.155385"
       viewBox="0 0 5.3244081 6.1553851"
       inkscape:isstock="true"
       inkscape:collect="always"
       preserveAspectRatio="xMidYMid">
      <path
         transform="scale(0.5)"
         style="fill:context-stroke;fill-rule:evenodd;stroke:context-stroke;stroke-width:1pt"
         d="M 5.77,0 -2.88,5 V -5 Z"
         id="path135" />
    </marker>
    <marker
       style="overflow:visible"
       id="Arrow2"
       refX="0"
       refY="0"
       orient="auto-start-reverse"
       inkscape:stockid="Arrow2"
       markerWidth="7.6999998"
       markerHeight="5.5999999"
       viewBox="0 0 7.7 5.6"
       inkscape:isstock="true"
       inkscape:collect="always"
       preserveAspectRatio="xMidYMid">
      <path
         transform="scale(0.7)"
         d="M -2,-4 9,0 -2,4 c 2,-2.33 2,-5.66 0,-8 z"
         style="fill:context-stroke;fill-rule:evenodd;stroke:none"
         id="arrow2L" />
    </marker>
    <rect
       x="128.98839"
       y="473.85919"
       width="133.66151"
       height="40.081028"
       id="rect5712" />
    <rect
       x="128.98839"
       y="473.85919"
       width="148.52823"
       height="40.38644"
       id="rect5722" />
  </defs>
  <g
     inkscape:label="Capa 1"
     inkscape:groupmode="layer"
     id="layer1"
     transform="translate(-16.8736, -73.7874)">
    <g
       id="g5740"
       transform="translate(31.612952,-5.0453075)">
      <rect
         style="fill:#d9d9d9;fill-opacity:1;stroke:#000000;stroke-width:0.465;stroke-linecap:round;stroke-linejoin:round;stroke-dasharray:none;stroke-dashoffset:0;stroke-opacity:1"
         id="rect5726"
         width="40.604599"
         height="17.756962"
         x="32.540703"
         y="105.01121"
         rx="1.535307"
         ry="1.3428227" />
      <text
         xml:space="preserve"
         style="font-size:4.23333px;line-height:1.25;font-family:'Iwona Light';-inkscape-font-specification:'Iwona Light, ';text-align:center;text-anchor:middle;stroke-width:0.264583"
         x="52.86417"
         y="112.23869"
         id="text5687"><tspan
           sodipodi:role="line"
           style="text-align:center;text-anchor:middle;stroke-width:0.264583"
           x="52.86417"
           y="112.23869"
           id="tspan5685">Problema </tspan><tspan
           sodipodi:role="line"
           style="text-align:center;text-anchor:middle;stroke-width:0.264583"
           x="52.86417"
           y="117.53036"
           id="tspan5694">algebraico</tspan></text>
    </g>
    <g
       id="g5745"
       transform="translate(31.612952,-3.6756346)">
      <rect
         style="fill:#d9d9d9;fill-opacity:1;stroke:#000000;stroke-width:0.465;stroke-linecap:round;stroke-linejoin:round;stroke-dasharray:none;stroke-dashoffset:0;stroke-opacity:1"
         id="rect5724"
         width="40.604599"
         height="17.756962"
         x="32.017456"
         y="129.58749"
         rx="1.535307"
         ry="1.3428227" />
      <text
         xml:space="preserve"
         transform="matrix(0.26458333,0,0,0.26458333,0.46688927,7.6635502)"
         id="text5710"
         style="font-size:16px;line-height:1.25;font-family:'Iwona Light';-inkscape-font-specification:'Iwona Light, ';text-align:center;white-space:pre;shape-inside:url(#rect5712);display:inline"
         x="65.839996"
         y="0"><tspan
           x="151.96335"
           y="488.17937"
           id="tspan904">Solución del 
</tspan><tspan
           x="129.05934"
           y="508.17937"
           id="tspan906">problema algebraico</tspan></text>
    </g>
    <g
       id="g5750"
       transform="translate(31.612952)">
      <rect
         style="fill:#d9d9d9;fill-opacity:1;stroke:#000000;stroke-width:0.465;stroke-linecap:round;stroke-linejoin:round;stroke-dasharray:none;stroke-dashoffset:0;stroke-opacity:1"
         id="rect5716"
         width="40.604599"
         height="17.756962"
         x="32.017456"
         y="151.85782"
         rx="1.535307"
         ry="1.3428227" />
      <text
         xml:space="preserve"
         transform="matrix(0.26458333,0,0,0.26458333,-1.4152463,30.420708)"
         id="text5720"
         style="font-size:16px;line-height:1.25;font-family:'Iwona Light';-inkscape-font-specification:'Iwona Light, ';text-align:center;white-space:pre;shape-inside:url(#rect5722);display:inline"
         x="65.839996"
         y="0"><tspan
           x="129.30095"
           y="488.17937"
           id="tspan908">Solución del problema
</tspan><tspan
           x="136.55695"
           y="508.17937"
           id="tspan910">con valores iniciales</tspan></text>
    </g>
    <rect
       style="fill:#d9d9d9;fill-opacity:1;stroke:#000000;stroke-width:0.465;stroke-linecap:round;stroke-linejoin:round;stroke-dasharray:none;stroke-dashoffset:0;stroke-opacity:1"
       id="rect5728"
       width="40.604599"
       height="17.756962"
       x="64.153656"
       y="74.019943"
       rx="1.535307"
       ry="1.3428227" />
    <text
       xml:space="preserve"
       style="font-size:4.23333px;line-height:1.25;font-family:'Iwona Light';-inkscape-font-specification:'Iwona Light, ';text-align:center;text-anchor:middle;stroke-width:0.264583"
       x="84.530037"
       y="81.734261"
       id="text4171"><tspan
         sodipodi:role="line"
         id="tspan4169"
         style="text-align:center;text-anchor:middle;stroke-width:0.264583"
         x="84.530037"
         y="81.734261">Problema con</tspan><tspan
         sodipodi:role="line"
         style="text-align:center;text-anchor:middle;stroke-width:0.264583"
         x="84.530037"
         y="87.025925"
         id="tspan4951">valores iniciales</tspan></text>
    <path
       style="fill:none;stroke:#000000;stroke-width:0.465;stroke-linecap:round;stroke-linejoin:miter;stroke-dasharray:none;stroke-opacity:1;marker-end:url(#Arrow2)"
       d="m 84.455954,92.195834 v 4.650195"
       id="path5806" />
    <path
       style="fill:none;stroke:#000000;stroke-width:0.465;stroke-linecap:round;stroke-linejoin:miter;stroke-dasharray:none;stroke-opacity:1;marker-end:url(#Arrow2)"
       d="m 84.455954,118.18707 v 4.6502"
       id="path6081" />
    <path
       style="fill:none;stroke:#000000;stroke-width:0.465;stroke-linecap:round;stroke-linejoin:miter;stroke-dasharray:none;stroke-opacity:1;marker-end:url(#Arrow2)"
       d="m 84.455954,144.08927 v 4.6502"
       id="path6083" />
    <g
       inkscape:label=""
       transform="translate(22.584746,93.403873)"
       id="g6476">
      <g
         id="g6474"
         transform="matrix(0.493889,0,0,0.493889,-45.5859,-36.7842)">
        <g
           style="fill:#000000;fill-opacity:1"
           id="g6424">
          <g
             id="g6422"
             transform="translate(91.925003,81.962997)">
            <path
               style="stroke:none"
               d="m 3.015625,-3.234375 h 0.96875 c 0.75,0 0.828125,0.15625 0.828125,0.4375 0,0.078125 0,0.1875 -0.0625,0.5 C 4.71875,-2.25 4.71875,-2.21875 4.71875,-2.1875 c 0,0.078125 0.0625,0.109375 0.109375,0.109375 0.109375,0 0.109375,-0.03125 0.15625,-0.203125 L 5.53125,-4.453125 C 5.5625,-4.5625 5.5625,-4.578125 5.5625,-4.609375 5.5625,-4.625 5.546875,-4.71875 5.4375,-4.71875 5.34375,-4.71875 5.328125,-4.671875 5.296875,-4.5 5.078125,-3.734375 4.859375,-3.546875 4,-3.546875 H 3.09375 l 0.640625,-2.53125 C 3.828125,-6.4375 3.84375,-6.46875 4.28125,-6.46875 h 1.3125 c 1.21875,0 1.453125,0.328125 1.453125,1.09375 0,0.234375 0,0.265625 -0.03125,0.546875 C 7,-4.703125 7,-4.6875 7,-4.65625 c 0,0.046875 0.03125,0.125 0.125,0.125 0.109375,0 0.109375,-0.0625 0.125,-0.25 L 7.453125,-6.515625 C 7.484375,-6.78125 7.4375,-6.78125 7.1875,-6.78125 H 2.296875 c -0.1875,0 -0.296875,0 -0.296875,0.203125 0,0.109375 0.09375,0.109375 0.28125,0.109375 0.375,0 0.65625,0 0.65625,0.171875 0,0.046875 0,0.0625 -0.0625,0.25 L 1.5625,-0.78125 c -0.09375,0.390625 -0.109375,0.46875 -0.90625,0.46875 -0.171875,0 -0.28125,0 -0.28125,0.1875 C 0.375,0 0.5,0 0.53125,0 0.8125,0 1.5625,-0.03125 1.84375,-0.03125 2.171875,-0.03125 3,0 3.328125,0 3.421875,0 3.53125,0 3.53125,-0.1875 3.53125,-0.265625 3.484375,-0.296875 3.484375,-0.296875 3.453125,-0.3125 3.421875,-0.3125 3.203125,-0.3125 c -0.21875,0 -0.265625,0 -0.515625,-0.015625 -0.296875,-0.03125 -0.328125,-0.078125 -0.328125,-0.203125 0,-0.015625 0,-0.078125 0.046875,-0.21875 z m 0,0"
               id="path6420" />
          </g>
        </g>
        <g
           style="fill:#000000;fill-opacity:1"
           id="g6430">
          <g
             id="g6428"
             transform="translate(99.716003,81.962997)">
            <path
               style="stroke:none"
               d="m 3.296875,2.390625 c 0,-0.03125 0,-0.046875 -0.171875,-0.21875 C 1.890625,0.921875 1.5625,-0.96875 1.5625,-2.5 c 0,-1.734375 0.375,-3.46875 1.609375,-4.703125 0.125,-0.125 0.125,-0.140625 0.125,-0.171875 0,-0.078125 -0.03125,-0.109375 -0.09375,-0.109375 -0.109375,0 -1,0.6875 -1.59375,1.953125 -0.5,1.09375 -0.625,2.203125 -0.625,3.03125 0,0.78125 0.109375,1.984375 0.65625,3.125 C 2.25,1.84375 3.09375,2.5 3.203125,2.5 c 0.0625,0 0.09375,-0.03125 0.09375,-0.109375 z m 0,0"
               id="path6426" />
          </g>
        </g>
        <g
           style="fill:#000000;fill-opacity:1"
           id="g6436">
          <g
             id="g6434"
             transform="translate(103.59,81.962997)">
            <path
               style="stroke:none"
               d="M 3.890625,-3.734375 C 3.625,-3.71875 3.421875,-3.5 3.421875,-3.28125 c 0,0.140625 0.09375,0.296875 0.3125,0.296875 0.21875,0 0.453125,-0.171875 0.453125,-0.5625 C 4.1875,-4 3.765625,-4.40625 3,-4.40625 c -1.3125,0 -1.6875,1.015625 -1.6875,1.453125 0,0.78125 0.734375,0.921875 1.03125,0.984375 0.515625,0.109375 1.03125,0.21875 1.03125,0.765625 0,0.25 -0.21875,1.09375 -1.421875,1.09375 -0.140625,0 -0.90625,0 -1.140625,-0.53125 0.390625,0.046875 0.640625,-0.25 0.640625,-0.53125 0,-0.21875 -0.171875,-0.34375 -0.375,-0.34375 -0.265625,0 -0.5625,0.203125 -0.5625,0.65625 0,0.5625 0.578125,0.96875 1.421875,0.96875 1.625,0 2.015625,-1.203125 2.015625,-1.65625 0,-0.359375 -0.1875,-0.609375 -0.3125,-0.71875 -0.265625,-0.28125 -0.5625,-0.34375 -1,-0.421875 -0.359375,-0.078125 -0.75,-0.15625 -0.75,-0.609375 C 1.890625,-3.578125 2.125,-4.1875 3,-4.1875 c 0.25,0 0.75,0.078125 0.890625,0.453125 z m 0,0"
               id="path6432" />
          </g>
        </g>
        <g
           style="fill:#000000;fill-opacity:1"
           id="g6442">
          <g
             id="g6440"
             transform="translate(108.26,81.962997)">
            <path
               style="stroke:none"
               d="m 2.875,-2.5 c 0,-0.765625 -0.109375,-1.96875 -0.65625,-3.109375 -0.59375,-1.21875 -1.453125,-1.875 -1.546875,-1.875 -0.0625,0 -0.109375,0.046875 -0.109375,0.109375 0,0.03125 0,0.046875 0.1875,0.234375 0.984375,0.984375 1.546875,2.5625 1.546875,4.640625 0,1.71875 -0.359375,3.46875 -1.59375,4.71875 C 0.5625,2.34375 0.5625,2.359375 0.5625,2.390625 0.5625,2.453125 0.609375,2.5 0.671875,2.5 0.765625,2.5 1.671875,1.8125 2.25,0.546875 2.765625,-0.546875 2.875,-1.65625 2.875,-2.5 Z m 0,0"
               id="path6438" />
          </g>
        </g>
        <g
           style="fill:#000000;fill-opacity:1"
           id="g6448">
          <g
             id="g6446"
             transform="translate(114.90406,81.962997)">
            <path
               style="stroke:none"
               d="m 6.84375,-3.265625 c 0.15625,0 0.34375,0 0.34375,-0.1875 C 7.1875,-3.65625 7,-3.65625 6.859375,-3.65625 h -5.96875 c -0.140625,0 -0.328125,0 -0.328125,0.203125 0,0.1875 0.1875,0.1875 0.328125,0.1875 z m 0.015625,1.9375 c 0.140625,0 0.328125,0 0.328125,-0.203125 0,-0.1875 -0.1875,-0.1875 -0.34375,-0.1875 H 0.890625 c -0.140625,0 -0.328125,0 -0.328125,0.1875 0,0.203125 0.1875,0.203125 0.328125,0.203125 z m 0,0"
               id="path6444" />
          </g>
        </g>
        <g
           style="fill:#000000;fill-opacity:1"
           id="g6454">
          <g
             id="g6452"
             transform="translate(125.418,81.962997)">
            <path
               style="stroke:none"
               d="m 7.96875,-1.390625 c 0,-0.0625 -0.03125,-0.078125 -0.078125,-0.078125 H 7.78125 c -0.03125,0 -0.0625,0 -0.0625,0.015625 C 7.25,-0.8125 6.34375,-0.3125 5.6875,-0.3125 5.03125,-0.3125 4.453125,-0.453125 3.890625,-0.59375 4.53125,-0.984375 5.09375,-1.484375 5.5,-2.046875 L 6.484375,-3.4375 C 7.78125,-3.625 9.09375,-4.125 9.84375,-5.1875 c 0.296875,-0.421875 0.453125,-0.859375 0.453125,-1.1875 0,-0.46875 -0.28125,-0.765625 -0.890625,-0.765625 -0.96875,0 -2.421875,1.765625 -3.734375,3.546875 C 5.515625,-3.578125 5.375,-3.5625 5.21875,-3.5625 c -1.015625,0 -1.734375,-0.375 -1.734375,-1.03125 0,-0.265625 0.109375,-0.578125 0.359375,-0.9375 0.484375,-0.6875 1.4375,-1.234375 2.09375,-1.234375 0.03125,0 0.046875,0 0.0625,-0.015625 l 0.046875,-0.0625 c 0,-0.015625 0.015625,-0.03125 0.015625,-0.046875 0,-0.03125 -0.015625,-0.0625 -0.046875,-0.0625 0,-0.015625 0,-0.015625 -0.015625,-0.03125 -0.09375,-0.03125 -0.203125,-0.03125 -0.3125,-0.03125 -0.765625,0 -1.8125,0.609375 -2.375,1.390625 -0.265625,0.390625 -0.390625,0.734375 -0.390625,1.03125 0,0.84375 1.03125,1.25 2.265625,1.25 0.109375,0 0.21875,0 0.3125,-0.015625 C 5.203125,-2.9375 4.921875,-2.53125 4.640625,-2.140625 4.28125,-1.625 3.78125,-1.125 3.265625,-0.75 2.796875,-0.859375 2.296875,-0.953125 1.71875,-0.953125 h -0.0625 c -0.484375,0 -1.09375,0.015625 -1.421875,0.484375 C 0.15625,-0.375 0.125,-0.28125 0.125,-0.203125 c 0,0.359375 0.796875,0.375 1.3125,0.375 h 0.15625 c 0.5625,0 1.203125,-0.1875 1.828125,-0.5 l 0.125,0.046875 c 0.5625,0.234375 1.140625,0.453125 1.921875,0.453125 0.8125,0 1.921875,-0.703125 2.484375,-1.515625 C 7.96875,-1.359375 7.96875,-1.375 7.96875,-1.390625 Z M 1.640625,-0.0625 c -0.578125,0 -0.9375,-0.015625 -0.9375,-0.171875 0,-0.046875 0,-0.078125 0.046875,-0.140625 0.1875,-0.265625 0.578125,-0.359375 0.921875,-0.359375 0.484375,0 0.875,0.09375 1.265625,0.21875 C 2.484375,-0.234375 2.03125,-0.0625 1.640625,-0.0625 Z M 9.375,-6.921875 c 0.375,0 0.546875,0.203125 0.546875,0.515625 0,0.28125 -0.15625,0.6875 -0.46875,1.125 C 8.84375,-4.421875 7.78125,-3.921875 6.6875,-3.71875 7.921875,-5.421875 9.078125,-6.921875 9.375,-6.921875 Z m 0,0"
               id="path6450" />
          </g>
        </g>
        <g
           style="fill:#000000;fill-opacity:1"
           id="g6460">
          <g
             id="g6458"
             transform="translate(136.034,81.962997)">
            <path
               style="stroke:none"
               d="m 3.296875,2.390625 c 0,-0.03125 0,-0.046875 -0.171875,-0.21875 C 1.890625,0.921875 1.5625,-0.96875 1.5625,-2.5 c 0,-1.734375 0.375,-3.46875 1.609375,-4.703125 0.125,-0.125 0.125,-0.140625 0.125,-0.171875 0,-0.078125 -0.03125,-0.109375 -0.09375,-0.109375 -0.109375,0 -1,0.6875 -1.59375,1.953125 -0.5,1.09375 -0.625,2.203125 -0.625,3.03125 0,0.78125 0.109375,1.984375 0.65625,3.125 C 2.25,1.84375 3.09375,2.5 3.203125,2.5 c 0.0625,0 0.09375,-0.03125 0.09375,-0.109375 z m 0,0"
               id="path6456" />
          </g>
        </g>
        <g
           style="fill:#000000;fill-opacity:1"
           id="g6466">
          <g
             id="g6464"
             transform="translate(139.908,81.962997)">
            <path
               style="stroke:none"
               d="m 3.65625,-3.984375 h 0.859375 c 0.203125,0 0.296875,0 0.296875,-0.203125 0,-0.109375 -0.09375,-0.109375 -0.265625,-0.109375 H 3.71875 L 3.921875,-5.4375 c 0.046875,-0.203125 0.1875,-0.90625 0.25,-1.03125 0.078125,-0.1875 0.25,-0.34375 0.46875,-0.34375 0.03125,0 0.296875,0 0.484375,0.1875 -0.4375,0.03125 -0.546875,0.390625 -0.546875,0.53125 0,0.234375 0.1875,0.359375 0.375,0.359375 C 5.21875,-5.734375 5.5,-5.96875 5.5,-6.34375 c 0,-0.453125 -0.453125,-0.6875 -0.859375,-0.6875 -0.34375,0 -0.96875,0.1875 -1.265625,1.171875 -0.0625,0.203125 -0.09375,0.3125 -0.328125,1.5625 h -0.6875 c -0.203125,0 -0.3125,0 -0.3125,0.1875 0,0.125 0.09375,0.125 0.28125,0.125 h 0.65625 L 2.25,-0.046875 c -0.1875,0.96875 -0.359375,1.875 -0.875,1.875 -0.046875,0 -0.28125,0 -0.484375,-0.1875 C 1.359375,1.609375 1.453125,1.25 1.453125,1.109375 1.453125,0.875 1.265625,0.75 1.078125,0.75 0.8125,0.75 0.53125,0.984375 0.53125,1.359375 c 0,0.4375 0.4375,0.6875 0.84375,0.6875 0.546875,0 0.953125,-0.59375 1.125,-0.96875 0.328125,-0.625 0.546875,-1.828125 0.5625,-1.90625 z m 0,0"
               id="path6462" />
          </g>
        </g>
        <g
           style="fill:#000000;fill-opacity:1"
           id="g6472">
          <g
             id="g6470"
             transform="translate(145.858,81.962997)">
            <path
               style="stroke:none"
               d="m 2.875,-2.5 c 0,-0.765625 -0.109375,-1.96875 -0.65625,-3.109375 -0.59375,-1.21875 -1.453125,-1.875 -1.546875,-1.875 -0.0625,0 -0.109375,0.046875 -0.109375,0.109375 0,0.03125 0,0.046875 0.1875,0.234375 0.984375,0.984375 1.546875,2.5625 1.546875,4.640625 0,1.71875 -0.359375,3.46875 -1.59375,4.71875 C 0.5625,2.34375 0.5625,2.359375 0.5625,2.390625 0.5625,2.453125 0.609375,2.5 0.671875,2.5 0.765625,2.5 1.671875,1.8125 2.25,0.546875 2.765625,-0.546875 2.875,-1.65625 2.875,-2.5 Z m 0,0"
               id="path6468" />
          </g>
        </g>
      </g>
    </g>
    <path
       style="fill:none;stroke:#fc0407;stroke-width:0.465;stroke-linecap:round;stroke-linejoin:round;stroke-dasharray:none;stroke-opacity:1;marker-start:url(#Square);marker-end:url(#TriangleStart)"
       d="M 53.493017,95.869432 H 79.783625"
       id="path6807" />
    <path
       style="fill:none;stroke:#fc0407;stroke-width:0.465;stroke-linecap:round;stroke-linejoin:round;stroke-dasharray:none;stroke-opacity:1;marker-start:url(#Square);marker-end:url(#TriangleStart)"
       d="M 53.493017,147.76287 H 79.783625"
       id="path7647" />
    <g
       inkscape:label=""
       transform="translate(17.908763,145.11071)"
       id="g604">
      <g
         id="surface1"
         transform="matrix(0.493889,0,0,0.493889,-45.6631,-36.411)">
        <g
           style="fill:#000000;fill-opacity:1"
           id="g50">
          <g
             id="use48"
             transform="translate(91.925003,81.962997)">
            <path
               style="stroke:none"
               d="m 3.65625,-3.984375 h 0.859375 c 0.203125,0 0.296875,0 0.296875,-0.203125 0,-0.109375 -0.09375,-0.109375 -0.265625,-0.109375 H 3.71875 L 3.921875,-5.4375 c 0.046875,-0.203125 0.1875,-0.90625 0.25,-1.03125 0.078125,-0.1875 0.25,-0.34375 0.46875,-0.34375 0.03125,0 0.296875,0 0.484375,0.1875 -0.4375,0.03125 -0.546875,0.390625 -0.546875,0.53125 0,0.234375 0.1875,0.359375 0.375,0.359375 C 5.21875,-5.734375 5.5,-5.96875 5.5,-6.34375 c 0,-0.453125 -0.453125,-0.6875 -0.859375,-0.6875 -0.34375,0 -0.96875,0.1875 -1.265625,1.171875 -0.0625,0.203125 -0.09375,0.3125 -0.328125,1.5625 h -0.6875 c -0.203125,0 -0.3125,0 -0.3125,0.1875 0,0.125 0.09375,0.125 0.28125,0.125 h 0.65625 L 2.25,-0.046875 c -0.1875,0.96875 -0.359375,1.875 -0.875,1.875 -0.046875,0 -0.28125,0 -0.484375,-0.1875 C 1.359375,1.609375 1.453125,1.25 1.453125,1.109375 1.453125,0.875 1.265625,0.75 1.078125,0.75 0.8125,0.75 0.53125,0.984375 0.53125,1.359375 c 0,0.4375 0.4375,0.6875 0.84375,0.6875 0.546875,0 0.953125,-0.59375 1.125,-0.96875 0.328125,-0.625 0.546875,-1.828125 0.5625,-1.90625 z m 0,0"
               id="path97" />
          </g>
        </g>
        <g
           style="fill:#000000;fill-opacity:1"
           id="g54">
          <g
             id="use52"
             transform="translate(97.875,81.962997)">
            <path
               style="stroke:none"
               d="m 3.296875,2.390625 c 0,-0.03125 0,-0.046875 -0.171875,-0.21875 C 1.890625,0.921875 1.5625,-0.96875 1.5625,-2.5 c 0,-1.734375 0.375,-3.46875 1.609375,-4.703125 0.125,-0.125 0.125,-0.140625 0.125,-0.171875 0,-0.078125 -0.03125,-0.109375 -0.09375,-0.109375 -0.109375,0 -1,0.6875 -1.59375,1.953125 -0.5,1.09375 -0.625,2.203125 -0.625,3.03125 0,0.78125 0.109375,1.984375 0.65625,3.125 C 2.25,1.84375 3.09375,2.5 3.203125,2.5 c 0.0625,0 0.09375,-0.03125 0.09375,-0.109375 z m 0,0"
               id="path101" />
          </g>
        </g>
        <g
           style="fill:#000000;fill-opacity:1"
           id="g58">
          <g
             id="use56"
             transform="translate(101.75,81.962997)">
            <path
               style="stroke:none"
               d="m 2.046875,-3.984375 h 0.9375 c 0.203125,0 0.3125,0 0.3125,-0.203125 0,-0.109375 -0.109375,-0.109375 -0.28125,-0.109375 h -0.875 C 2.5,-5.71875 2.546875,-5.90625 2.546875,-5.96875 c 0,-0.171875 -0.125,-0.265625 -0.296875,-0.265625 -0.03125,0 -0.3125,0 -0.390625,0.359375 L 1.46875,-4.296875 h -0.9375 c -0.203125,0 -0.296875,0 -0.296875,0.1875 0,0.125 0.078125,0.125 0.28125,0.125 h 0.875 C 0.671875,-1.15625 0.625,-0.984375 0.625,-0.8125 0.625,-0.265625 1,0.109375 1.546875,0.109375 2.5625,0.109375 3.125,-1.34375 3.125,-1.421875 3.125,-1.53125 3.046875,-1.53125 3.015625,-1.53125 2.921875,-1.53125 2.90625,-1.5 2.859375,-1.390625 2.4375,-0.34375 1.90625,-0.109375 1.5625,-0.109375 c -0.203125,0 -0.3125,-0.125 -0.3125,-0.453125 0,-0.25 0.03125,-0.3125 0.0625,-0.484375 z m 0,0"
               id="path105" />
          </g>
        </g>
        <g
           style="fill:#000000;fill-opacity:1"
           id="g62">
          <g
             id="use60"
             transform="translate(105.347,81.962997)">
            <path
               style="stroke:none"
               d="m 2.875,-2.5 c 0,-0.765625 -0.109375,-1.96875 -0.65625,-3.109375 -0.59375,-1.21875 -1.453125,-1.875 -1.546875,-1.875 -0.0625,0 -0.109375,0.046875 -0.109375,0.109375 0,0.03125 0,0.046875 0.1875,0.234375 0.984375,0.984375 1.546875,2.5625 1.546875,4.640625 0,1.71875 -0.359375,3.46875 -1.59375,4.71875 C 0.5625,2.34375 0.5625,2.359375 0.5625,2.390625 0.5625,2.453125 0.609375,2.5 0.671875,2.5 0.765625,2.5 1.671875,1.8125 2.25,0.546875 2.765625,-0.546875 2.875,-1.65625 2.875,-2.5 Z m 0,0"
               id="path109" />
          </g>
        </g>
        <g
           style="fill:#000000;fill-opacity:1"
           id="g66">
          <g
             id="use64"
             transform="translate(111.99106,81.962997)">
            <path
               style="stroke:none"
               d="m 6.84375,-3.265625 c 0.15625,0 0.34375,0 0.34375,-0.1875 C 7.1875,-3.65625 7,-3.65625 6.859375,-3.65625 h -5.96875 c -0.140625,0 -0.328125,0 -0.328125,0.203125 0,0.1875 0.1875,0.1875 0.328125,0.1875 z m 0.015625,1.9375 c 0.140625,0 0.328125,0 0.328125,-0.203125 0,-0.1875 -0.1875,-0.1875 -0.34375,-0.1875 H 0.890625 c -0.140625,0 -0.328125,0 -0.328125,0.1875 0,0.203125 0.1875,0.203125 0.328125,0.203125 z m 0,0"
               id="path565" />
          </g>
        </g>
        <g
           style="fill:#000000;fill-opacity:1"
           id="g70">
          <g
             id="use68"
             transform="translate(122.505,81.962997)">
            <path
               style="stroke:none"
               d="m 7.96875,-1.390625 c 0,-0.0625 -0.03125,-0.078125 -0.078125,-0.078125 H 7.78125 c -0.03125,0 -0.0625,0 -0.0625,0.015625 C 7.25,-0.8125 6.34375,-0.3125 5.6875,-0.3125 5.03125,-0.3125 4.453125,-0.453125 3.890625,-0.59375 4.53125,-0.984375 5.09375,-1.484375 5.5,-2.046875 L 6.484375,-3.4375 C 7.78125,-3.625 9.09375,-4.125 9.84375,-5.1875 c 0.296875,-0.421875 0.453125,-0.859375 0.453125,-1.1875 0,-0.46875 -0.28125,-0.765625 -0.890625,-0.765625 -0.96875,0 -2.421875,1.765625 -3.734375,3.546875 C 5.515625,-3.578125 5.375,-3.5625 5.21875,-3.5625 c -1.015625,0 -1.734375,-0.375 -1.734375,-1.03125 0,-0.265625 0.109375,-0.578125 0.359375,-0.9375 0.484375,-0.6875 1.4375,-1.234375 2.09375,-1.234375 0.03125,0 0.046875,0 0.0625,-0.015625 l 0.046875,-0.0625 c 0,-0.015625 0.015625,-0.03125 0.015625,-0.046875 0,-0.03125 -0.015625,-0.0625 -0.046875,-0.0625 0,-0.015625 0,-0.015625 -0.015625,-0.03125 -0.09375,-0.03125 -0.203125,-0.03125 -0.3125,-0.03125 -0.765625,0 -1.8125,0.609375 -2.375,1.390625 -0.265625,0.390625 -0.390625,0.734375 -0.390625,1.03125 0,0.84375 1.03125,1.25 2.265625,1.25 0.109375,0 0.21875,0 0.3125,-0.015625 C 5.203125,-2.9375 4.921875,-2.53125 4.640625,-2.140625 4.28125,-1.625 3.78125,-1.125 3.265625,-0.75 2.796875,-0.859375 2.296875,-0.953125 1.71875,-0.953125 h -0.0625 c -0.484375,0 -1.09375,0.015625 -1.421875,0.484375 C 0.15625,-0.375 0.125,-0.28125 0.125,-0.203125 c 0,0.359375 0.796875,0.375 1.3125,0.375 h 0.15625 c 0.5625,0 1.203125,-0.1875 1.828125,-0.5 l 0.125,0.046875 c 0.5625,0.234375 1.140625,0.453125 1.921875,0.453125 0.8125,0 1.921875,-0.703125 2.484375,-1.515625 C 7.96875,-1.359375 7.96875,-1.375 7.96875,-1.390625 Z M 1.640625,-0.0625 c -0.578125,0 -0.9375,-0.015625 -0.9375,-0.171875 0,-0.046875 0,-0.078125 0.046875,-0.140625 0.1875,-0.265625 0.578125,-0.359375 0.921875,-0.359375 0.484375,0 0.875,0.09375 1.265625,0.21875 C 2.484375,-0.234375 2.03125,-0.0625 1.640625,-0.0625 Z M 9.375,-6.921875 c 0.375,0 0.546875,0.203125 0.546875,0.515625 0,0.28125 -0.15625,0.6875 -0.46875,1.125 C 8.84375,-4.421875 7.78125,-3.921875 6.6875,-3.71875 7.921875,-5.421875 9.078125,-6.921875 9.375,-6.921875 Z m 0,0"
               id="path569" />
          </g>
        </g>
        <g
           style="fill:#000000;fill-opacity:1"
           id="g577">
          <g
             id="g575"
             transform="translate(133.121,78.348)">
            <path
               style="stroke:none"
               d="m 5.1875,-1.578125 c 0.109375,0 0.28125,0 0.28125,-0.15625 0,-0.1875 -0.171875,-0.1875 -0.28125,-0.1875 H 1.03125 c -0.109375,0 -0.28125,0 -0.28125,0.171875 0,0.171875 0.15625,0.171875 0.28125,0.171875 z m 0,0"
               id="path573" />
          </g>
        </g>
        <g
           style="fill:#000000;fill-opacity:1"
           id="g583">
          <g
             id="g581"
             transform="translate(139.34801,78.348)">
            <path
               style="stroke:none"
               d="m 2.328125,-4.4375 c 0,-0.1875 0,-0.1875 -0.203125,-0.1875 -0.453125,0.4375 -1.078125,0.4375 -1.359375,0.4375 v 0.25 c 0.15625,0 0.625,0 1,-0.1875 v 3.546875 c 0,0.234375 0,0.328125 -0.6875,0.328125 H 0.8125 V 0 c 0.125,0 0.984375,-0.03125 1.234375,-0.03125 0.21875,0 1.09375,0.03125 1.25,0.03125 V -0.25 H 3.03125 c -0.703125,0 -0.703125,-0.09375 -0.703125,-0.328125 z m 0,0"
               id="path579" />
          </g>
        </g>
        <g
           style="fill:#000000;fill-opacity:1"
           id="g589">
          <g
             id="g587"
             transform="translate(143.817,81.962997)">
            <path
               style="stroke:none"
               d="m 3.296875,2.390625 c 0,-0.03125 0,-0.046875 -0.171875,-0.21875 C 1.890625,0.921875 1.5625,-0.96875 1.5625,-2.5 c 0,-1.734375 0.375,-3.46875 1.609375,-4.703125 0.125,-0.125 0.125,-0.140625 0.125,-0.171875 0,-0.078125 -0.03125,-0.109375 -0.09375,-0.109375 -0.109375,0 -1,0.6875 -1.59375,1.953125 -0.5,1.09375 -0.625,2.203125 -0.625,3.03125 0,0.78125 0.109375,1.984375 0.65625,3.125 C 2.25,1.84375 3.09375,2.5 3.203125,2.5 c 0.0625,0 0.09375,-0.03125 0.09375,-0.109375 z m 0,0"
               id="path585" />
          </g>
        </g>
        <g
           style="fill:#000000;fill-opacity:1"
           id="g595">
          <g
             id="g593"
             transform="translate(147.692,81.962997)">
            <path
               style="stroke:none"
               d="m 3.015625,-3.234375 h 0.96875 c 0.75,0 0.828125,0.15625 0.828125,0.4375 0,0.078125 0,0.1875 -0.0625,0.5 C 4.71875,-2.25 4.71875,-2.21875 4.71875,-2.1875 c 0,0.078125 0.0625,0.109375 0.109375,0.109375 0.109375,0 0.109375,-0.03125 0.15625,-0.203125 L 5.53125,-4.453125 C 5.5625,-4.5625 5.5625,-4.578125 5.5625,-4.609375 5.5625,-4.625 5.546875,-4.71875 5.4375,-4.71875 5.34375,-4.71875 5.328125,-4.671875 5.296875,-4.5 5.078125,-3.734375 4.859375,-3.546875 4,-3.546875 H 3.09375 l 0.640625,-2.53125 C 3.828125,-6.4375 3.84375,-6.46875 4.28125,-6.46875 h 1.3125 c 1.21875,0 1.453125,0.328125 1.453125,1.09375 0,0.234375 0,0.265625 -0.03125,0.546875 C 7,-4.703125 7,-4.6875 7,-4.65625 c 0,0.046875 0.03125,0.125 0.125,0.125 0.109375,0 0.109375,-0.0625 0.125,-0.25 L 7.453125,-6.515625 C 7.484375,-6.78125 7.4375,-6.78125 7.1875,-6.78125 H 2.296875 c -0.1875,0 -0.296875,0 -0.296875,0.203125 0,0.109375 0.09375,0.109375 0.28125,0.109375 0.375,0 0.65625,0 0.65625,0.171875 0,0.046875 0,0.0625 -0.0625,0.25 L 1.5625,-0.78125 c -0.09375,0.390625 -0.109375,0.46875 -0.90625,0.46875 -0.171875,0 -0.28125,0 -0.28125,0.1875 C 0.375,0 0.5,0 0.53125,0 0.8125,0 1.5625,-0.03125 1.84375,-0.03125 2.171875,-0.03125 3,0 3.328125,0 3.421875,0 3.53125,0 3.53125,-0.1875 3.53125,-0.265625 3.484375,-0.296875 3.484375,-0.296875 3.453125,-0.3125 3.421875,-0.3125 3.203125,-0.3125 c -0.21875,0 -0.265625,0 -0.515625,-0.015625 -0.296875,-0.03125 -0.328125,-0.078125 -0.328125,-0.203125 0,-0.015625 0,-0.078125 0.046875,-0.21875 z m 0,0"
               id="path591" />
          </g>
        </g>
        <g
           style="fill:#000000;fill-opacity:1"
           id="g601">
          <g
             id="g599"
             transform="translate(155.48199,81.962997)">
            <path
               style="stroke:none"
               d="m 2.875,-2.5 c 0,-0.765625 -0.109375,-1.96875 -0.65625,-3.109375 -0.59375,-1.21875 -1.453125,-1.875 -1.546875,-1.875 -0.0625,0 -0.109375,0.046875 -0.109375,0.109375 0,0.03125 0,0.046875 0.1875,0.234375 0.984375,0.984375 1.546875,2.5625 1.546875,4.640625 0,1.71875 -0.359375,3.46875 -1.59375,4.71875 C 0.5625,2.34375 0.5625,2.359375 0.5625,2.390625 0.5625,2.453125 0.609375,2.5 0.671875,2.5 0.765625,2.5 1.671875,1.8125 2.25,0.546875 2.765625,-0.546875 2.875,-1.65625 2.875,-2.5 Z m 0,0"
               id="path597" />
          </g>
        </g>
      </g>
    </g>
  </g>
</svg>
