<?xml version="1.0" encoding="UTF-8" standalone="no"?>
<!-- Created with Inkscape (http://www.inkscape.org/) -->

<svg
   width="76.242813mm"
   height="66.529327mm"
   viewBox="0 0 76.242813 66.529327"
   version="1.1"
   id="svg5"
   sodipodi:docname="fig-04.svg"
   inkscape:version="1.2.2 (b0a8486541, 2022-12-01)"
   xmlns:inkscape="http://www.inkscape.org/namespaces/inkscape"
   xmlns:sodipodi="http://sodipodi.sourceforge.net/DTD/sodipodi-0.dtd"
   xmlns="http://www.w3.org/2000/svg"
   xmlns:svg="http://www.w3.org/2000/svg">
  <sodipodi:namedview
     id="namedview7"
     pagecolor="#ffffff"
     bordercolor="#666666"
     borderopacity="1.0"
     inkscape:showpageshadow="2"
     inkscape:pageopacity="0.0"
     inkscape:pagecheckerboard="0"
     inkscape:deskcolor="#d1d1d1"
     inkscape:document-units="mm"
     showgrid="false"
     inkscape:zoom="4.1978414"
     inkscape:cx="155.67525"
     inkscape:cy="121.96745"
     inkscape:window-width="1920"
     inkscape:window-height="1013"
     inkscape:window-x="0"
     inkscape:window-y="0"
     inkscape:window-maximized="1"
     inkscape:current-layer="layer1" />
  <defs
     id="defs2">
    <marker
       style="overflow:visible"
       id="TriangleStart"
       refX="0"
       refY="0"
       orient="auto-start-reverse"
       inkscape:stockid="TriangleStart"
       markerWidth="5.3244081"
       markerHeight="6.155385"
       viewBox="0 0 5.3244081 6.1553851"
       inkscape:isstock="true"
       inkscape:collect="always"
       preserveAspectRatio="xMidYMid">
      <path
         transform="scale(0.5)"
         style="fill:context-stroke;fill-rule:evenodd;stroke:context-stroke;stroke-width:1pt"
         d="M 5.77,0 -2.88,5 V -5 Z"
         id="path135" />
    </marker>
    <clipPath
       id="clipPath6524">
      <path
         d="m 61,0 h 6 v 24.742188 h -6 z m 0,0"
         id="path2122" />
    </clipPath>
    <clipPath
       id="clipPath8615">
      <path
         d="m 82,0 h 7 v 24.742188 h -7 z m 0,0"
         id="path5694" />
    </clipPath>
    <clipPath
       id="clipPath8948">
      <path
         d="M 1,0 H 18.679688 V 16.9375 H 1 Z m 0,0"
         id="path6228" />
    </clipPath>
    <clipPath
       id="clipPath5422">
      <path
         d="m 118,0 h 13 v 22.03125 h -13 z m 0,0"
         id="path1556" />
    </clipPath>
    <clipPath
       id="clipPath9208">
      <path
         d="m 127,0 h 13 v 22.03125 h -13 z m 0,0"
         id="path1597" />
    </clipPath>
    <clipPath
       id="clipPath6456">
      <path
         d="M 1,0 H 14 V 22.03125 H 1 Z m 0,0"
         id="path2608" />
    </clipPath>
    <clipPath
       id="clipPath5936">
      <path
         d="m 14,3 h 8 v 11.390625 h -8 z m 0,0"
         id="path9311" />
    </clipPath>
    <clipPath
       id="clipPath8327">
      <path
         d="m 15,3 h 6 v 11.390625 h -6 z m 0,0"
         id="path3182" />
    </clipPath>
    <clipPath
       id="clipPath8962">
      <path
         d="M 0,0 H 13 V 10.671875 H 0 Z m 0,0"
         id="path6381" />
    </clipPath>
    <clipPath
       id="clipPath3223">
      <path
         d="M 0,0 H 12 V 15.492188 H 0 Z m 0,0"
         id="path8065" />
    </clipPath>
    <clipPath
       id="clipPath3399">
      <path
         d="m 11,3 h 8 v 11.390625 h -8 z m 0,0"
         id="path4190" />
    </clipPath>
    <clipPath
       id="clipPath1534">
      <path
         d="m 12,3 h 6 v 11.390625 h -6 z m 0,0"
         id="path8393" />
    </clipPath>
    <clipPath
       id="clipPath2042">
      <path
         d="m 31,8 h 9 v 12.652344 h -9 z m 0,0"
         id="path9363" />
    </clipPath>
    <clipPath
       id="clipPath6329">
      <path
         d="M 1,0 H 19 V 16.9375 H 1 Z m 0,0"
         id="path6600" />
    </clipPath>
    <clipPath
       id="clipPath4741">
      <path
         d="m 12,2 h 8 v 12.390625 h -8 z m 0,0"
         id="path6237" />
    </clipPath>
    <clipPath
       id="clipPath9639">
      <path
         d="m 12,2 h 8 v 12.390625 h -8 z m 0,0"
         id="path6100" />
    </clipPath>
    <clipPath
       id="clipPath4942">
      <path
         d="M 1,0 H 18.679688 V 16.9375 H 1 Z m 0,0"
         id="path5259" />
    </clipPath>
    <clipPath
       id="clipPath6870">
      <path
         d="M 0,0 H 15.570312 V 14.117188 H 0 Z m 0,0"
         id="path2640" />
    </clipPath>
  </defs>
  <g
     inkscape:label="Capa 1"
     inkscape:groupmode="layer"
     id="layer1"
     transform="translate(-58.1657, -112.674)">
    <g
       inkscape:label=""
       transform="translate(99.714492,144.3633)"
       id="g1851">
      <g
         id="surface1"
         transform="matrix(0.846667,0,0,0.846667,-78.2532,-63.4422)">
        <g
           style="fill:#000000;fill-opacity:1"
           id="g20">
          <g
             id="use18"
             transform="translate(91.925003,81.962997)">
            <path
               style="stroke:none"
               d="m 7.578125,-6.921875 c 0,-0.03125 -0.015625,-0.109375 -0.109375,-0.109375 -0.03125,0 -0.046875,0.015625 -0.15625,0.125 L 6.625,-6.140625 C 6.53125,-6.28125 6.078125,-7.03125 4.96875,-7.03125 2.734375,-7.03125 0.5,-4.828125 0.5,-2.515625 0.5,-0.875 1.671875,0.21875 3.203125,0.21875 c 0.859375,0 1.625,-0.390625 2.15625,-0.859375 0.921875,-0.8125 1.09375,-1.71875 1.09375,-1.75 C 6.453125,-2.5 6.34375,-2.5 6.328125,-2.5 c -0.0625,0 -0.109375,0.03125 -0.125,0.109375 -0.09375,0.28125 -0.328125,1 -1.015625,1.578125 -0.6875,0.546875 -1.3125,0.71875 -1.828125,0.71875 -0.890625,0 -1.953125,-0.515625 -1.953125,-2.0625 0,-0.578125 0.203125,-2.1875 1.203125,-3.359375 0.609375,-0.703125 1.546875,-1.203125 2.4375,-1.203125 1.015625,0 1.609375,0.765625 1.609375,1.921875 0,0.40625 -0.03125,0.40625 -0.03125,0.515625 0,0.09375 0.109375,0.09375 0.140625,0.09375 0.125,0 0.125,-0.015625 0.1875,-0.203125 z m 0,0"
               id="path31" />
          </g>
        </g>
        <g
           style="fill:#000000;fill-opacity:1"
           id="g24">
          <g
             id="use22"
             transform="translate(99.045998,83.457001)">
            <path
               style="stroke:none"
               d="m 2.328125,-4.4375 c 0,-0.1875 0,-0.1875 -0.203125,-0.1875 -0.453125,0.4375 -1.078125,0.4375 -1.359375,0.4375 v 0.25 c 0.15625,0 0.625,0 1,-0.1875 v 3.546875 c 0,0.234375 0,0.328125 -0.6875,0.328125 H 0.8125 V 0 c 0.125,0 0.984375,-0.03125 1.234375,-0.03125 0.21875,0 1.09375,0.03125 1.25,0.03125 V -0.25 H 3.03125 c -0.703125,0 -0.703125,-0.09375 -0.703125,-0.328125 z m 0,0"
               id="path35" />
          </g>
        </g>
      </g>
    </g>
    <g
       inkscape:label=""
       transform="translate(113.47638,120.56805)"
       id="g1997">
      <g
         id="g1995"
         transform="matrix(0.846667,0,0,0.846667,-78.2532,-63.4422)">
        <g
           style="fill:#000000;fill-opacity:1"
           id="g1987">
          <g
             id="g1985"
             transform="translate(91.925003,81.962997)">
            <path
               style="stroke:none"
               d="m 7.578125,-6.921875 c 0,-0.03125 -0.015625,-0.109375 -0.109375,-0.109375 -0.03125,0 -0.046875,0.015625 -0.15625,0.125 L 6.625,-6.140625 C 6.53125,-6.28125 6.078125,-7.03125 4.96875,-7.03125 2.734375,-7.03125 0.5,-4.828125 0.5,-2.515625 0.5,-0.875 1.671875,0.21875 3.203125,0.21875 c 0.859375,0 1.625,-0.390625 2.15625,-0.859375 0.921875,-0.8125 1.09375,-1.71875 1.09375,-1.75 C 6.453125,-2.5 6.34375,-2.5 6.328125,-2.5 c -0.0625,0 -0.109375,0.03125 -0.125,0.109375 -0.09375,0.28125 -0.328125,1 -1.015625,1.578125 -0.6875,0.546875 -1.3125,0.71875 -1.828125,0.71875 -0.890625,0 -1.953125,-0.515625 -1.953125,-2.0625 0,-0.578125 0.203125,-2.1875 1.203125,-3.359375 0.609375,-0.703125 1.546875,-1.203125 2.4375,-1.203125 1.015625,0 1.609375,0.765625 1.609375,1.921875 0,0.40625 -0.03125,0.40625 -0.03125,0.515625 0,0.09375 0.109375,0.09375 0.140625,0.09375 0.125,0 0.125,-0.015625 0.1875,-0.203125 z m 0,0"
               id="path1983" />
          </g>
        </g>
        <g
           style="fill:#000000;fill-opacity:1"
           id="g1993">
          <g
             id="g1991"
             transform="translate(99.045998,83.457001)">
            <path
               style="stroke:none"
               d="M 3.515625,-1.265625 H 3.28125 c -0.015625,0.15625 -0.09375,0.5625 -0.1875,0.625 C 3.046875,-0.59375 2.515625,-0.59375 2.40625,-0.59375 H 1.125 c 0.734375,-0.640625 0.984375,-0.84375 1.390625,-1.171875 0.515625,-0.40625 1,-0.84375 1,-1.5 0,-0.84375 -0.734375,-1.359375 -1.625,-1.359375 -0.859375,0 -1.453125,0.609375 -1.453125,1.25 0,0.34375 0.296875,0.390625 0.375,0.390625 0.15625,0 0.359375,-0.125 0.359375,-0.375 0,-0.125 -0.046875,-0.375 -0.40625,-0.375 C 0.984375,-4.21875 1.453125,-4.375 1.78125,-4.375 c 0.703125,0 1.0625,0.546875 1.0625,1.109375 0,0.609375 -0.4375,1.078125 -0.65625,1.328125 L 0.515625,-0.265625 C 0.4375,-0.203125 0.4375,-0.1875 0.4375,0 h 2.875 z m 0,0"
               id="path1989" />
          </g>
        </g>
      </g>
    </g>
    <path
       style="fill:#cccccc;stroke:#000000;stroke-width:2.13543;stroke-linecap:round"
       d="m 160.25995,213.9041 c -5.90018,-0.64351 -11.6945,-1.64622 -19.43965,-3.36402 -6.4176,-1.42337 -10.85872,-2.54727 -30.48861,-7.71563 -4.72489,-1.24402 -9.17315,-2.4105 -9.88501,-2.59217 -8.395641,-2.47398 -16.576991,-3.55352 -24.646281,-6.71667 -3.566409,-1.4224 -7.65736,-3.63995 -10.439459,-5.65884 -13.297987,-9.64996 -21.784939,-27.76809 -27.311172,-58.30448 l -0.926017,-5.11691 c 2.829328,-8.37374 -1.686734,-5.30424 -1.581786,-11.31698 v -2.03144 c 0,-8.31262 2.338956,-19.20494 6.172464,-28.744633 C 51.07001,59.060944 65.15327,42.542386 78.186311,35.937319 84.495853,32.735426 92.078494,29.169477 97.92672,30.547528 l 2.54642,-0.619181 c 1.44556,-0.351496 23.02465,-0.02117 28.44429,0.389108 26.29984,1.990934 46.75355,7.613928 64.10315,18.99036 8.90689,5.840404 17.26359,11.49074 28.52351,22.815572 4.93904,4.967514 9.17316,11.087543 9.84745,11.910432 9.00439,9.339984 6.30732,5.108781 12.72258,14.440372 4.81253,7.199639 8.42928,15.634749 10.62933,24.627289 1.85546,7.5841 2.45706,13.26766 2.45204,22.04913 -0.005,9.57027 -0.48647,11.71609 -3.85967,24.09356 -3.44961,12.65787 -7.70305,15.39801 -12.7653,20.44913 -6.01855,6.00531 -15.22894,10.93115 -31.69831,16.95266 l -5.72714,2.09395 c -13.49871,4.98369 -6.67333,3.65177 -21.4635,5.33465 -4.41227,0.48062 -16.32089,0.38586 -21.42162,-0.17046 z m -14.89163,-28.58467 c 5.9073,-0.93832 10.87565,-1.9777 17.85419,-3.73511 2.64016,-0.66487 4.83725,-1.16432 4.88242,-1.10989 5.68466,-2.3816 5.4726,-0.92147 14.8267,-5.29632 8.42611,-4.14924 16.00973,-10.54535 20.69365,-17.45324 4.29212,-6.33005 6.28728,-14.5609 5.42515,-22.38095 -0.90491,-8.20819 -4.20887,-16.7198 -9.55872,-24.62504 l -2.58785,-3.82395 c -5.95106,-6.6729 -2.67123,-3.48602 -7.9082,-8.460936 l -2.86357,-2.759647 C 172.53606,82.571736 155.8907,71.130262 141.50065,64.996154 130.4485,60.284908 119.51329,58.17376 110.6498,59.0401 c -2.1205,0.207264 -3.95586,0.273101 -4.07856,0.146305 -6.00175,1.499191 -10.714775,3.233673 -16.455147,9.005127 -4.550699,4.562122 -6.932479,7.815836 -9.940997,13.580241 -4.734048,9.070575 -7.875469,20.287127 -8.76449,31.293937 l -0.207221,2.56557 c 0.27671,6.03175 0.40232,7.73433 1.211196,14.40852 0.130551,1.11174 0.541272,3.46155 0.912714,5.2218 3.517017,16.66702 10.822963,28.46755 23.401055,37.79729 l 3.40964,2.52908 c 6.85433,3.72599 2.01723,2.15992 10.18581,5.82765 l 2.7833,1.14573 c 4.46892,1.83962 9.68504,3.16265 14.57446,3.69672 3.29214,0.35959 12.63514,-0.13624 17.68676,-0.93864 z"
       id="path6079"
       transform="matrix(0.26458333,0,0,0.26458333,58.1657,112.674)"
       sodipodi:nodetypes="sssccssccssccssssccscsssccsssccsssccsssccssccssccsss" />
    <path
       style="fill:none;stroke:#000000;stroke-width:0.665;stroke-linecap:butt;stroke-linejoin:miter;stroke-dasharray:none;stroke-opacity:1;marker-mid:url(#TriangleStart)"
       d="m 125.79049,155.33588 c 1.72526,-6.3026 -0.37933,-14.29849 -4.81455,-19.0955 -9.17913,-9.92788 -15.51446,-16.96889 -37.442303,-15.58199 -8.860128,0.56038 -16.978138,14.06882 -15.710989,22.85987 2.516861,17.46113 7.531645,19.97483 15.182443,21.63925 9.125291,1.9852 18.947449,6.22981 27.816619,3.30846 13.70863,-4.51538 13.21597,-6.72687 14.96878,-13.13009 z"
       id="path523"
       sodipodi:nodetypes="sssssss" />
    <path
       style="fill:none;stroke:#000000;stroke-width:0.665;stroke-linecap:butt;stroke-linejoin:miter;stroke-dasharray:none;stroke-opacity:1;marker-mid:url(#TriangleStart)"
       d="m 113.18287,152.11171 c 1.05506,-3.85233 -0.93078,-8.98646 -3.64308,-11.91853 -5.61338,-6.06821 -16.391072,-13.94584 -24.28333,-11.48709 -5.183172,1.61477 -8.202496,10.56884 -7.87531,15.98785 0.507119,8.39915 3.846239,12.21139 8.470477,14.9741 4.902002,2.92866 8.558101,2.81068 17.825053,0.27466 3.91405,-1.07113 8.43428,-3.91716 9.50619,-7.83099 z"
       id="path371"
       sodipodi:nodetypes="sssssss" />
  </g>
</svg>
