<?xml version="1.0" encoding="UTF-8" standalone="no"?>
<!-- Created with Inkscape (http://www.inkscape.org/) -->

<svg
   width="76.242813mm"
   height="66.529327mm"
   viewBox="0 0 76.242813 66.529327"
   version="1.1"
   id="svg5"
   sodipodi:docname="fig-03.svg"
   inkscape:version="1.2.2 (b0a8486541, 2022-12-01)"
   xmlns:inkscape="http://www.inkscape.org/namespaces/inkscape"
   xmlns:sodipodi="http://sodipodi.sourceforge.net/DTD/sodipodi-0.dtd"
   xmlns="http://www.w3.org/2000/svg"
   xmlns:svg="http://www.w3.org/2000/svg">
  <sodipodi:namedview
     id="namedview7"
     pagecolor="#ffffff"
     bordercolor="#666666"
     borderopacity="1.0"
     inkscape:showpageshadow="2"
     inkscape:pageopacity="0.0"
     inkscape:pagecheckerboard="0"
     inkscape:deskcolor="#d1d1d1"
     inkscape:document-units="mm"
     showgrid="false"
     inkscape:zoom="2.0989207"
     inkscape:cx="88.616974"
     inkscape:cy="88.140539"
     inkscape:window-width="1920"
     inkscape:window-height="1013"
     inkscape:window-x="0"
     inkscape:window-y="0"
     inkscape:window-maximized="1"
     inkscape:current-layer="layer1" />
  <defs
     id="defs2">
    <marker
       style="overflow:visible"
       id="marker1369"
       refX="0"
       refY="0"
       orient="auto-start-reverse"
       inkscape:stockid="TriangleStart"
       markerWidth="5.3244081"
       markerHeight="6.155385"
       viewBox="0 0 5.3244081 6.1553851"
       inkscape:isstock="true"
       inkscape:collect="always"
       preserveAspectRatio="xMidYMid">
      <path
         transform="scale(0.5)"
         style="fill:context-stroke;fill-rule:evenodd;stroke:context-stroke;stroke-width:1pt"
         d="M 5.77,0 -2.88,5 V -5 Z"
         id="path1367" />
    </marker>
    <marker
       style="overflow:visible"
       id="TriangleStart"
       refX="0"
       refY="0"
       orient="auto-start-reverse"
       inkscape:stockid="TriangleStart"
       markerWidth="5.3244081"
       markerHeight="6.155385"
       viewBox="0 0 5.3244081 6.1553851"
       inkscape:isstock="true"
       inkscape:collect="always"
       preserveAspectRatio="xMidYMid">
      <path
         style="fill:context-stroke;fill-rule:evenodd;stroke:context-stroke;stroke-width:0.5pt"
         d="m -1.1072586,0 4.325,2.5 v -5 z"
         id="path135" />
    </marker>
    <marker
       style="overflow:visible"
       id="Arrow2"
       refX="0"
       refY="0"
       orient="auto-start-reverse"
       inkscape:stockid="Arrow2"
       markerWidth="7.6999998"
       markerHeight="5.5999999"
       viewBox="0 0 7.7 5.6"
       inkscape:isstock="true"
       inkscape:collect="always"
       preserveAspectRatio="xMidYMid">
      <path
         transform="scale(0.7)"
         d="M -2,-4 9,0 -2,4 c 2,-2.33 2,-5.66 0,-8 z"
         style="fill:context-stroke;fill-rule:evenodd;stroke:none"
         id="arrow2L" />
    </marker>
    <clipPath
       id="clipPath6524">
      <path
         d="m 61,0 h 6 v 24.742188 h -6 z m 0,0"
         id="path2122" />
    </clipPath>
    <clipPath
       id="clipPath8615">
      <path
         d="m 82,0 h 7 v 24.742188 h -7 z m 0,0"
         id="path5694" />
    </clipPath>
    <clipPath
       id="clipPath8948">
      <path
         d="M 1,0 H 18.679688 V 16.9375 H 1 Z m 0,0"
         id="path6228" />
    </clipPath>
    <clipPath
       id="clipPath5422">
      <path
         d="m 118,0 h 13 v 22.03125 h -13 z m 0,0"
         id="path1556" />
    </clipPath>
    <clipPath
       id="clipPath9208">
      <path
         d="m 127,0 h 13 v 22.03125 h -13 z m 0,0"
         id="path1597" />
    </clipPath>
    <clipPath
       id="clipPath6456">
      <path
         d="M 1,0 H 14 V 22.03125 H 1 Z m 0,0"
         id="path2608" />
    </clipPath>
    <clipPath
       id="clipPath5936">
      <path
         d="m 14,3 h 8 v 11.390625 h -8 z m 0,0"
         id="path9311" />
    </clipPath>
    <clipPath
       id="clipPath8327">
      <path
         d="m 15,3 h 6 v 11.390625 h -6 z m 0,0"
         id="path3182" />
    </clipPath>
    <clipPath
       id="clipPath8962">
      <path
         d="M 0,0 H 13 V 10.671875 H 0 Z m 0,0"
         id="path6381" />
    </clipPath>
    <clipPath
       id="clipPath3223">
      <path
         d="M 0,0 H 12 V 15.492188 H 0 Z m 0,0"
         id="path8065" />
    </clipPath>
    <clipPath
       id="clipPath3399">
      <path
         d="m 11,3 h 8 v 11.390625 h -8 z m 0,0"
         id="path4190" />
    </clipPath>
    <clipPath
       id="clipPath1534">
      <path
         d="m 12,3 h 6 v 11.390625 h -6 z m 0,0"
         id="path8393" />
    </clipPath>
    <clipPath
       id="clipPath2042">
      <path
         d="m 31,8 h 9 v 12.652344 h -9 z m 0,0"
         id="path9363" />
    </clipPath>
    <clipPath
       id="clipPath6329">
      <path
         d="M 1,0 H 19 V 16.9375 H 1 Z m 0,0"
         id="path6600" />
    </clipPath>
    <clipPath
       id="clipPath4741">
      <path
         d="m 12,2 h 8 v 12.390625 h -8 z m 0,0"
         id="path6237" />
    </clipPath>
    <clipPath
       id="clipPath9639">
      <path
         d="m 12,2 h 8 v 12.390625 h -8 z m 0,0"
         id="path6100" />
    </clipPath>
    <clipPath
       id="clipPath4942">
      <path
         d="M 1,0 H 18.679688 V 16.9375 H 1 Z m 0,0"
         id="path5259" />
    </clipPath>
    <clipPath
       id="clipPath6870">
      <path
         d="M 0,0 H 15.570312 V 14.117188 H 0 Z m 0,0"
         id="path2640" />
    </clipPath>
  </defs>
  <g
     inkscape:label="Capa 1"
     inkscape:groupmode="layer"
     id="layer1"
     transform="translate(-58.165662,-112.67419)">
    <path
       style="fill:none;stroke:#000000;stroke-width:0.664998;stroke-linecap:round;stroke-linejoin:miter;stroke-dasharray:none;stroke-opacity:1;marker-start:url(#Arrow2)"
       d="m 91.791994,116.86368 v 62.00734"
       id="path236" />
    <path
       style="fill:none;stroke:#000000;stroke-width:0.665001;stroke-linecap:round;stroke-linejoin:miter;stroke-dasharray:none;stroke-opacity:1;marker-start:url(#Arrow2)"
       d="M 130.21897,147.9322 H 58.498162"
       id="path1063" />
    <circle
       style="fill:none;stroke:#434343;stroke-width:0.565;stroke-linecap:round;stroke-dasharray:none;marker-start:url(#marker1369);marker-mid:url(#TriangleStart)"
       id="path1070"
       cx="-67.114555"
       cy="160.49933"
       r="25.427757"
       transform="rotate(-54.525506)" />
    <path
       style="fill:none;stroke:#000000;stroke-width:0.365;stroke-linecap:butt;stroke-linejoin:miter;stroke-dasharray:none;stroke-opacity:1;marker-end:url(#Arrow2)"
       d="M 91.582119,147.89634 79.557829,128.32111"
       id="path1508" />
    <g
       inkscape:label=""
       transform="translate(77.827849,136.94164)"
       id="g4129">
      <g
         id="g4127"
         transform="matrix(0.846667,0,0,0.846667,-78.1738,-63.6274)">
        <g
           style="fill:#000000;fill-opacity:1"
           id="g4125">
          <g
             id="g4123"
             transform="translate(91.925003,81.962997)">
            <path
               style="stroke:none"
               d="m 3.734375,-6.125 c 0.0625,-0.234375 0.09375,-0.328125 0.28125,-0.359375 C 4.109375,-6.5 4.421875,-6.5 4.625,-6.5 c 0.703125,0 1.8125,0 1.8125,0.984375 0,0.34375 -0.15625,1.03125 -0.546875,1.421875 -0.265625,0.25 -0.78125,0.578125 -1.6875,0.578125 H 3.09375 Z m 1.4375,2.734375 c 1.015625,-0.21875 2.1875,-0.921875 2.1875,-1.921875 0,-0.859375 -0.890625,-1.5 -2.203125,-1.5 H 2.328125 c -0.203125,0 -0.296875,0 -0.296875,0.203125 C 2.03125,-6.5 2.125,-6.5 2.3125,-6.5 c 0.015625,0 0.203125,0 0.375,0.015625 0.1875,0.03125 0.265625,0.03125 0.265625,0.171875 0,0.03125 0,0.0625 -0.03125,0.1875 l -1.34375,5.34375 C 1.484375,-0.390625 1.46875,-0.3125 0.671875,-0.3125 0.5,-0.3125 0.40625,-0.3125 0.40625,-0.109375 0.40625,0 0.53125,0 0.546875,0 c 0.28125,0 0.984375,-0.03125 1.25,-0.03125 0.28125,0 1,0.03125 1.28125,0.03125 0.078125,0 0.1875,0 0.1875,-0.203125 0,-0.109375 -0.078125,-0.109375 -0.28125,-0.109375 -0.359375,0 -0.640625,0 -0.640625,-0.171875 0,-0.0625 0.015625,-0.109375 0.03125,-0.171875 l 0.65625,-2.640625 h 1.1875 c 0.90625,0 1.078125,0.5625 1.078125,0.90625 0,0.140625 -0.078125,0.453125 -0.140625,0.6875 C 5.09375,-1.421875 5,-1.0625 5,-0.859375 5,0.21875 6.203125,0.21875 6.328125,0.21875 c 0.84375,0 1.203125,-1 1.203125,-1.140625 0,-0.125 -0.109375,-0.125 -0.125,-0.125 -0.09375,0 -0.109375,0.0625 -0.125,0.140625 C 7.03125,-0.171875 6.59375,0 6.375,0 6.046875,0 5.96875,-0.21875 5.96875,-0.609375 c 0,-0.3125 0.0625,-0.8125 0.109375,-1.140625 0.015625,-0.140625 0.03125,-0.328125 0.03125,-0.46875 0,-0.765625 -0.671875,-1.078125 -0.9375,-1.171875 z m 0,0"
               id="path4121" />
          </g>
        </g>
      </g>
    </g>
    <g
       inkscape:label=""
       transform="translate(114.12124,128.85563)"
       id="g4307">
      <g
         id="g4305"
         transform="matrix(0.846667,0,0,0.846667,-78.2532,-63.4422)">
        <g
           style="fill:#000000;fill-opacity:1"
           id="g4303">
          <g
             id="g4301"
             transform="translate(91.925003,81.962997)">
            <path
               style="stroke:none"
               d="m 7.578125,-6.921875 c 0,-0.03125 -0.015625,-0.109375 -0.109375,-0.109375 -0.03125,0 -0.046875,0.015625 -0.15625,0.125 L 6.625,-6.140625 C 6.53125,-6.28125 6.078125,-7.03125 4.96875,-7.03125 2.734375,-7.03125 0.5,-4.828125 0.5,-2.515625 0.5,-0.875 1.671875,0.21875 3.203125,0.21875 c 0.859375,0 1.625,-0.390625 2.15625,-0.859375 0.921875,-0.8125 1.09375,-1.71875 1.09375,-1.75 C 6.453125,-2.5 6.34375,-2.5 6.328125,-2.5 c -0.0625,0 -0.109375,0.03125 -0.125,0.109375 -0.09375,0.28125 -0.328125,1 -1.015625,1.578125 -0.6875,0.546875 -1.3125,0.71875 -1.828125,0.71875 -0.890625,0 -1.953125,-0.515625 -1.953125,-2.0625 0,-0.578125 0.203125,-2.1875 1.203125,-3.359375 0.609375,-0.703125 1.546875,-1.203125 2.4375,-1.203125 1.015625,0 1.609375,0.765625 1.609375,1.921875 0,0.40625 -0.03125,0.40625 -0.03125,0.515625 0,0.09375 0.109375,0.09375 0.140625,0.09375 0.125,0 0.125,-0.015625 0.1875,-0.203125 z m 0,0"
               id="path4299" />
          </g>
        </g>
      </g>
    </g>
    <g
       inkscape:label=""
       transform="translate(129.18031,150.91452)"
       id="g5250">
      <g
         id="g5248"
         transform="matrix(0.846667,0,0,0.846667,-78.0812,-65.6647)">
        <g
           style="fill:#000000;fill-opacity:1"
           id="g14">
          <g
             id="use12"
             transform="translate(91.925003,81.962997)">
            <path
               style="stroke:none"
               d="M 3.328125,-3.015625 C 3.390625,-3.265625 3.625,-4.1875 4.3125,-4.1875 c 0.046875,0 0.296875,0 0.5,0.125 C 4.53125,-4 4.34375,-3.765625 4.34375,-3.515625 c 0,0.15625 0.109375,0.34375 0.375,0.34375 0.21875,0 0.53125,-0.171875 0.53125,-0.578125 0,-0.515625 -0.578125,-0.65625 -0.921875,-0.65625 -0.578125,0 -0.921875,0.53125 -1.046875,0.75 -0.25,-0.65625 -0.78125,-0.75 -1.078125,-0.75 -1.03125,0 -1.609375,1.28125 -1.609375,1.53125 0,0.109375 0.109375,0.109375 0.125,0.109375 0.078125,0 0.109375,-0.03125 0.125,-0.109375 0.34375,-1.0625 1,-1.3125 1.34375,-1.3125 0.1875,0 0.53125,0.09375 0.53125,0.671875 0,0.3125 -0.171875,0.96875 -0.53125,2.375 -0.15625,0.609375 -0.515625,1.03125 -0.953125,1.03125 -0.0625,0 -0.28125,0 -0.5,-0.125 0.25,-0.0625 0.46875,-0.265625 0.46875,-0.546875 0,-0.265625 -0.21875,-0.34375 -0.359375,-0.34375 -0.3125,0 -0.546875,0.25 -0.546875,0.578125 0,0.453125 0.484375,0.65625 0.921875,0.65625 0.671875,0 1.03125,-0.703125 1.046875,-0.75 0.125,0.359375 0.484375,0.75 1.078125,0.75 1.03125,0 1.59375,-1.28125 1.59375,-1.53125 0,-0.109375 -0.078125,-0.109375 -0.109375,-0.109375 -0.09375,0 -0.109375,0.046875 -0.140625,0.109375 -0.328125,1.078125 -1,1.3125 -1.3125,1.3125 -0.390625,0 -0.546875,-0.3125 -0.546875,-0.65625 0,-0.21875 0.046875,-0.4375 0.15625,-0.875 z m 0,0"
               id="path21" />
          </g>
        </g>
      </g>
    </g>
    <g
       inkscape:label=""
       transform="translate(85.471992,112.86085)"
       id="g5438">
      <g
         id="g5436"
         transform="matrix(0.846667,0,0,0.846667,-78.0812,-65.6647)">
        <g
           style="fill:#000000;fill-opacity:1"
           id="g5434">
          <g
             id="g5432"
             transform="translate(91.925003,81.962997)">
            <path
               style="stroke:none"
               d="m 4.84375,-3.796875 c 0.046875,-0.140625 0.046875,-0.15625 0.046875,-0.234375 0,-0.171875 -0.140625,-0.265625 -0.296875,-0.265625 -0.09375,0 -0.25,0.0625 -0.34375,0.203125 -0.015625,0.0625 -0.109375,0.359375 -0.140625,0.546875 -0.078125,0.25 -0.140625,0.53125 -0.203125,0.796875 l -0.453125,1.796875 c -0.03125,0.140625 -0.46875,0.84375 -1.125,0.84375 -0.5,0 -0.609375,-0.4375 -0.609375,-0.8125 C 1.71875,-1.375 1.890625,-2 2.21875,-2.875 2.375,-3.28125 2.421875,-3.390625 2.421875,-3.59375 c 0,-0.4375 -0.3125,-0.8125 -0.8125,-0.8125 -0.953125,0 -1.3125,1.453125 -1.3125,1.53125 0,0.109375 0.09375,0.109375 0.109375,0.109375 0.109375,0 0.109375,-0.03125 0.15625,-0.1875 0.28125,-0.9375 0.671875,-1.234375 1.015625,-1.234375 0.078125,0 0.25,0 0.25,0.3125 0,0.25 -0.109375,0.515625 -0.171875,0.703125 -0.40625,1.0625 -0.578125,1.625 -0.578125,2.09375 0,0.890625 0.625,1.1875 1.21875,1.1875 0.390625,0 0.71875,-0.171875 1,-0.453125 -0.125,0.515625 -0.25,1.015625 -0.640625,1.546875 -0.265625,0.328125 -0.640625,0.625 -1.09375,0.625 -0.140625,0 -0.59375,-0.03125 -0.765625,-0.421875 0.15625,0 0.296875,0 0.421875,-0.125 C 1.328125,1.203125 1.421875,1.0625 1.421875,0.875 1.421875,0.5625 1.15625,0.53125 1.0625,0.53125 0.828125,0.53125 0.5,0.6875 0.5,1.171875 c 0,0.5 0.4375,0.875 1.0625,0.875 1.015625,0 2.046875,-0.90625 2.328125,-2.03125 z m 0,0"
               id="path5430" />
          </g>
        </g>
      </g>
    </g>
  </g>
</svg>
