<?xml version="1.0" encoding="UTF-8" standalone="no"?>
<!-- Created with Inkscape (http://www.inkscape.org/) -->

<svg
   width="77.808556mm"
   height="66.883263mm"
   viewBox="0 0 77.808555 66.883262"
   version="1.1"
   id="svg5"
   sodipodi:docname="fig-09.svg"
   inkscape:version="1.2.2 (b0a8486541, 2022-12-01)"
   xmlns:inkscape="http://www.inkscape.org/namespaces/inkscape"
   xmlns:sodipodi="http://sodipodi.sourceforge.net/DTD/sodipodi-0.dtd"
   xmlns="http://www.w3.org/2000/svg"
   xmlns:svg="http://www.w3.org/2000/svg">
  <sodipodi:namedview
     id="namedview7"
     pagecolor="#ffffff"
     bordercolor="#666666"
     borderopacity="1.0"
     inkscape:showpageshadow="2"
     inkscape:pageopacity="0.0"
     inkscape:pagecheckerboard="0"
     inkscape:deskcolor="#d1d1d1"
     inkscape:document-units="mm"
     showgrid="false"
     inkscape:zoom="2.9683221"
     inkscape:cx="115.21661"
     inkscape:cy="139.47273"
     inkscape:window-width="1920"
     inkscape:window-height="1013"
     inkscape:window-x="0"
     inkscape:window-y="0"
     inkscape:window-maximized="1"
     inkscape:current-layer="layer1" />
  <defs
     id="defs2">
    <marker
       style="overflow:visible"
       id="Arrow2"
       refX="0"
       refY="0"
       orient="auto-start-reverse"
       inkscape:stockid="Arrow2"
       markerWidth="7.6999998"
       markerHeight="5.5999999"
       viewBox="0 0 7.7 5.6"
       inkscape:isstock="true"
       inkscape:collect="always"
       preserveAspectRatio="xMidYMid">
      <path
         transform="scale(0.7)"
         d="M -2,-4 9,0 -2,4 c 2,-2.33 2,-5.66 0,-8 z"
         style="fill:context-stroke;fill-rule:evenodd;stroke:none"
         id="arrow2L" />
    </marker>
    <clipPath
       id="clipPath6524">
      <path
         d="m 61,0 h 6 v 24.742188 h -6 z m 0,0"
         id="path2122" />
    </clipPath>
    <clipPath
       id="clipPath8615">
      <path
         d="m 82,0 h 7 v 24.742188 h -7 z m 0,0"
         id="path5694" />
    </clipPath>
    <clipPath
       id="clipPath8948">
      <path
         d="M 1,0 H 18.679688 V 16.9375 H 1 Z m 0,0"
         id="path6228" />
    </clipPath>
    <clipPath
       id="clipPath5422">
      <path
         d="m 118,0 h 13 v 22.03125 h -13 z m 0,0"
         id="path1556" />
    </clipPath>
    <clipPath
       id="clipPath9208">
      <path
         d="m 127,0 h 13 v 22.03125 h -13 z m 0,0"
         id="path1597" />
    </clipPath>
    <clipPath
       id="clipPath6456">
      <path
         d="M 1,0 H 14 V 22.03125 H 1 Z m 0,0"
         id="path2608" />
    </clipPath>
    <clipPath
       id="clipPath5936">
      <path
         d="m 14,3 h 8 v 11.390625 h -8 z m 0,0"
         id="path9311" />
    </clipPath>
    <clipPath
       id="clipPath8327">
      <path
         d="m 15,3 h 6 v 11.390625 h -6 z m 0,0"
         id="path3182" />
    </clipPath>
    <clipPath
       id="clipPath8962">
      <path
         d="M 0,0 H 13 V 10.671875 H 0 Z m 0,0"
         id="path6381" />
    </clipPath>
    <clipPath
       id="clipPath3223">
      <path
         d="M 0,0 H 12 V 15.492188 H 0 Z m 0,0"
         id="path8065" />
    </clipPath>
    <clipPath
       id="clipPath3399">
      <path
         d="m 11,3 h 8 v 11.390625 h -8 z m 0,0"
         id="path4190" />
    </clipPath>
    <clipPath
       id="clipPath1534">
      <path
         d="m 12,3 h 6 v 11.390625 h -6 z m 0,0"
         id="path8393" />
    </clipPath>
    <clipPath
       id="clipPath2042">
      <path
         d="m 31,8 h 9 v 12.652344 h -9 z m 0,0"
         id="path9363" />
    </clipPath>
    <clipPath
       id="clipPath6329">
      <path
         d="M 1,0 H 19 V 16.9375 H 1 Z m 0,0"
         id="path6600" />
    </clipPath>
    <clipPath
       id="clipPath4741">
      <path
         d="m 12,2 h 8 v 12.390625 h -8 z m 0,0"
         id="path6237" />
    </clipPath>
    <clipPath
       id="clipPath9639">
      <path
         d="m 12,2 h 8 v 12.390625 h -8 z m 0,0"
         id="path6100" />
    </clipPath>
    <clipPath
       id="clipPath4942">
      <path
         d="M 1,0 H 18.679688 V 16.9375 H 1 Z m 0,0"
         id="path5259" />
    </clipPath>
    <clipPath
       id="clipPath6870">
      <path
         d="M 0,0 H 15.570312 V 14.117188 H 0 Z m 0,0"
         id="path2640" />
    </clipPath>
  </defs>
  <g
     inkscape:label="Capa 1"
     inkscape:groupmode="layer"
     id="layer1"
     transform="translate(-56.599922,-112.67419)">
    <path
       style="fill:none;stroke:#000000;stroke-width:0.664998;stroke-linecap:round;stroke-linejoin:miter;stroke-dasharray:none;stroke-opacity:1;marker-start:url(#Arrow2)"
       d="m 91.791994,116.86368 v 62.00734"
       id="path236" />
    <path
       style="fill:none;stroke:#000000;stroke-width:0.665001;stroke-linecap:round;stroke-linejoin:miter;stroke-dasharray:none;stroke-opacity:1;marker-start:url(#Arrow2)"
       d="M 130.21897,147.9322 H 58.498162"
       id="path1063" />
    <circle
       style="fill:none;stroke:#434343;stroke-width:0.565;stroke-linecap:round;stroke-dasharray:none"
       id="path1070"
       cx="-67.114555"
       cy="160.49933"
       r="25.427757"
       transform="rotate(-54.525506)" />
    <g
       inkscape:label=""
       transform="translate(129.18031,150.91452)"
       id="g5250">
      <g
         id="g5248"
         transform="matrix(0.846667,0,0,0.846667,-78.0812,-65.6647)">
        <g
           style="fill:#000000;fill-opacity:1"
           id="g14">
          <g
             id="use12"
             transform="translate(91.925003,81.962997)">
            <path
               style="stroke:none"
               d="M 3.328125,-3.015625 C 3.390625,-3.265625 3.625,-4.1875 4.3125,-4.1875 c 0.046875,0 0.296875,0 0.5,0.125 C 4.53125,-4 4.34375,-3.765625 4.34375,-3.515625 c 0,0.15625 0.109375,0.34375 0.375,0.34375 0.21875,0 0.53125,-0.171875 0.53125,-0.578125 0,-0.515625 -0.578125,-0.65625 -0.921875,-0.65625 -0.578125,0 -0.921875,0.53125 -1.046875,0.75 -0.25,-0.65625 -0.78125,-0.75 -1.078125,-0.75 -1.03125,0 -1.609375,1.28125 -1.609375,1.53125 0,0.109375 0.109375,0.109375 0.125,0.109375 0.078125,0 0.109375,-0.03125 0.125,-0.109375 0.34375,-1.0625 1,-1.3125 1.34375,-1.3125 0.1875,0 0.53125,0.09375 0.53125,0.671875 0,0.3125 -0.171875,0.96875 -0.53125,2.375 -0.15625,0.609375 -0.515625,1.03125 -0.953125,1.03125 -0.0625,0 -0.28125,0 -0.5,-0.125 0.25,-0.0625 0.46875,-0.265625 0.46875,-0.546875 0,-0.265625 -0.21875,-0.34375 -0.359375,-0.34375 -0.3125,0 -0.546875,0.25 -0.546875,0.578125 0,0.453125 0.484375,0.65625 0.921875,0.65625 0.671875,0 1.03125,-0.703125 1.046875,-0.75 0.125,0.359375 0.484375,0.75 1.078125,0.75 1.03125,0 1.59375,-1.28125 1.59375,-1.53125 0,-0.109375 -0.078125,-0.109375 -0.109375,-0.109375 -0.09375,0 -0.109375,0.046875 -0.140625,0.109375 -0.328125,1.078125 -1,1.3125 -1.3125,1.3125 -0.390625,0 -0.546875,-0.3125 -0.546875,-0.65625 0,-0.21875 0.046875,-0.4375 0.15625,-0.875 z m 0,0"
               id="path21" />
          </g>
        </g>
      </g>
    </g>
    <g
       inkscape:label=""
       transform="translate(85.471992,112.86085)"
       id="g5438">
      <g
         id="g5436"
         transform="matrix(0.846667,0,0,0.846667,-78.0812,-65.6647)">
        <g
           style="fill:#000000;fill-opacity:1"
           id="g5434">
          <g
             id="g5432"
             transform="translate(91.925003,81.962997)">
            <path
               style="stroke:none"
               d="m 4.84375,-3.796875 c 0.046875,-0.140625 0.046875,-0.15625 0.046875,-0.234375 0,-0.171875 -0.140625,-0.265625 -0.296875,-0.265625 -0.09375,0 -0.25,0.0625 -0.34375,0.203125 -0.015625,0.0625 -0.109375,0.359375 -0.140625,0.546875 -0.078125,0.25 -0.140625,0.53125 -0.203125,0.796875 l -0.453125,1.796875 c -0.03125,0.140625 -0.46875,0.84375 -1.125,0.84375 -0.5,0 -0.609375,-0.4375 -0.609375,-0.8125 C 1.71875,-1.375 1.890625,-2 2.21875,-2.875 2.375,-3.28125 2.421875,-3.390625 2.421875,-3.59375 c 0,-0.4375 -0.3125,-0.8125 -0.8125,-0.8125 -0.953125,0 -1.3125,1.453125 -1.3125,1.53125 0,0.109375 0.09375,0.109375 0.109375,0.109375 0.109375,0 0.109375,-0.03125 0.15625,-0.1875 0.28125,-0.9375 0.671875,-1.234375 1.015625,-1.234375 0.078125,0 0.25,0 0.25,0.3125 0,0.25 -0.109375,0.515625 -0.171875,0.703125 -0.40625,1.0625 -0.578125,1.625 -0.578125,2.09375 0,0.890625 0.625,1.1875 1.21875,1.1875 0.390625,0 0.71875,-0.171875 1,-0.453125 -0.125,0.515625 -0.25,1.015625 -0.640625,1.546875 -0.265625,0.328125 -0.640625,0.625 -1.09375,0.625 -0.140625,0 -0.59375,-0.03125 -0.765625,-0.421875 0.15625,0 0.296875,0 0.421875,-0.125 C 1.328125,1.203125 1.421875,1.0625 1.421875,0.875 1.421875,0.5625 1.15625,0.53125 1.0625,0.53125 0.828125,0.53125 0.5,0.6875 0.5,1.171875 c 0,0.5 0.4375,0.875 1.0625,0.875 1.015625,0 2.046875,-0.90625 2.328125,-2.03125 z m 0,0"
               id="path5430" />
          </g>
        </g>
      </g>
    </g>
    <circle
       style="fill:#00f900;fill-opacity:1;stroke:#019a00;stroke-width:0.865;stroke-linecap:round;stroke-opacity:1"
       id="path1773"
       cx="117.1623"
       cy="147.93221"
       r="1.0394613" />
    <circle
       style="fill:#00f900;fill-opacity:1;stroke:#019a00;stroke-width:0.865;stroke-linecap:round;stroke-opacity:1"
       id="circle1775"
       cx="66.340691"
       cy="147.93221"
       r="1.0394613" />
    <circle
       style="fill:#f65c58;fill-opacity:1;stroke:#9a0003;stroke-width:0.865;stroke-linecap:round;stroke-opacity:1"
       id="circle1777"
       cx="91.791992"
       cy="173.23631"
       r="1.0394613" />
    <circle
       style="fill:#f65c58;fill-opacity:1;stroke:#9a0003;stroke-width:0.865;stroke-linecap:round;stroke-opacity:1"
       id="circle1779"
       cx="91.791992"
       cy="122.37747"
       r="1.0394613"
       inkscape:transform-center-x="-46.403355" />
    <g
       inkscape:label=""
       transform="translate(107.81886,118.32006)"
       id="g2655">
      <g
         id="surface1"
         transform="matrix(0.846667,0,0,0.846667,-78.8353,-63.0586)">
        <g
           style="fill:#000000;fill-opacity:1"
           id="g29">
          <g
             id="use27"
             transform="translate(91.925003,81.962997)">
            <path
               style="stroke:none"
               d="m 1.578125,-7.125 c 0,-0.171875 0,-0.359375 -0.1875,-0.359375 -0.203125,0 -0.203125,0.1875 -0.203125,0.359375 v 9.265625 c 0,0.171875 0,0.359375 0.203125,0.359375 0.1875,0 0.1875,-0.1875 0.1875,-0.359375 z m 0,0"
               id="path52" />
          </g>
        </g>
        <g
           style="fill:#000000;fill-opacity:1"
           id="g33">
          <g
             id="use31"
             transform="translate(94.693001,81.962997)">
            <path
               style="stroke:none"
               d="m 1.328125,-0.828125 c 0.53125,-0.578125 0.828125,-0.828125 1.1875,-1.140625 0,0 0.609375,-0.53125 0.96875,-0.890625 C 4.4375,-3.78125 4.65625,-4.265625 4.65625,-4.3125 c 0,-0.09375 -0.09375,-0.09375 -0.109375,-0.09375 -0.078125,0 -0.09375,0.015625 -0.15625,0.109375 -0.296875,0.484375 -0.5,0.640625 -0.734375,0.640625 -0.25,0 -0.359375,-0.15625 -0.515625,-0.328125 -0.1875,-0.21875 -0.359375,-0.421875 -0.6875,-0.421875 -0.75,0 -1.203125,0.921875 -1.203125,1.140625 0,0.046875 0.03125,0.109375 0.109375,0.109375 0.09375,0 0.109375,-0.046875 0.140625,-0.109375 0.1875,-0.46875 0.765625,-0.46875 0.84375,-0.46875 0.203125,0 0.390625,0.0625 0.625,0.140625 0.40625,0.15625 0.515625,0.15625 0.765625,0.15625 -0.359375,0.421875 -1.1875,1.140625 -1.375,1.296875 l -0.90625,0.84375 C 0.78125,-0.625 0.421875,-0.0625 0.421875,0.015625 c 0,0.09375 0.109375,0.09375 0.125,0.09375 0.078125,0 0.09375,-0.015625 0.15625,-0.125 0.234375,-0.359375 0.53125,-0.625 0.859375,-0.625 0.21875,0 0.328125,0.09375 0.578125,0.375 0.15625,0.21875 0.34375,0.375 0.625,0.375 1,0 1.578125,-1.265625 1.578125,-1.53125 0,-0.046875 -0.046875,-0.109375 -0.125,-0.109375 -0.09375,0 -0.109375,0.0625 -0.140625,0.140625 C 3.84375,-0.75 3.203125,-0.5625 2.875,-0.5625 c -0.1875,0 -0.375,-0.0625 -0.578125,-0.125 -0.34375,-0.125 -0.5,-0.171875 -0.703125,-0.171875 -0.015625,0 -0.171875,0 -0.265625,0.03125 z m 0,0"
               id="path56" />
          </g>
        </g>
        <g
           style="fill:#000000;fill-opacity:1"
           id="g37">
          <g
             id="use35"
             transform="translate(99.764,81.962997)">
            <path
               style="stroke:none"
               d="m 1.578125,-7.125 c 0,-0.171875 0,-0.359375 -0.1875,-0.359375 -0.203125,0 -0.203125,0.1875 -0.203125,0.359375 v 9.265625 c 0,0.171875 0,0.359375 0.203125,0.359375 0.1875,0 0.1875,-0.1875 0.1875,-0.359375 z m 0,0"
               id="path60" />
          </g>
        </g>
        <g
           style="fill:#000000;fill-opacity:1"
           id="g41">
          <g
             id="use39"
             transform="translate(105.299,81.962997)">
            <path
               style="stroke:none"
               d="m 6.84375,-3.265625 c 0.15625,0 0.34375,0 0.34375,-0.1875 C 7.1875,-3.65625 7,-3.65625 6.859375,-3.65625 h -5.96875 c -0.140625,0 -0.328125,0 -0.328125,0.203125 0,0.1875 0.1875,0.1875 0.328125,0.1875 z m 0.015625,1.9375 c 0.140625,0 0.328125,0 0.328125,-0.203125 0,-0.1875 -0.1875,-0.1875 -0.34375,-0.1875 H 0.890625 c -0.140625,0 -0.328125,0 -0.328125,0.1875 0,0.203125 0.1875,0.203125 0.328125,0.203125 z m 0,0"
               id="path64" />
          </g>
        </g>
        <g
           style="fill:#000000;fill-opacity:1"
           id="g45">
          <g
             id="use43"
             transform="translate(115.81751,81.962997)">
            <path
               style="stroke:none"
               d="m 2.9375,-6.375 c 0,-0.25 0,-0.265625 -0.234375,-0.265625 C 2.078125,-6 1.203125,-6 0.890625,-6 v 0.3125 c 0.203125,0 0.78125,0 1.296875,-0.265625 v 5.171875 c 0,0.359375 -0.03125,0.46875 -0.921875,0.46875 h -0.3125 V 0 c 0.34375,-0.03125 1.203125,-0.03125 1.609375,-0.03125 0.390625,0 1.265625,0 1.609375,0.03125 v -0.3125 h -0.3125 c -0.90625,0 -0.921875,-0.109375 -0.921875,-0.46875 z m 0,0"
               id="path68" />
          </g>
        </g>
      </g>
    </g>
    <g
       inkscape:label=""
       transform="translate(118.65851,140.32114)"
       id="g2860">
      <g
         id="g2858"
         transform="matrix(0.846667,0,0,0.846667,-78.5839,-63.7729)">
        <g
           style="fill:#000000;fill-opacity:1"
           id="g2856">
          <g
             id="g2854"
             transform="translate(91.925003,81.962997)">
            <path
               style="stroke:none"
               d="m 2.9375,-6.375 c 0,-0.25 0,-0.265625 -0.234375,-0.265625 C 2.078125,-6 1.203125,-6 0.890625,-6 v 0.3125 c 0.203125,0 0.78125,0 1.296875,-0.265625 v 5.171875 c 0,0.359375 -0.03125,0.46875 -0.921875,0.46875 h -0.3125 V 0 c 0.34375,-0.03125 1.203125,-0.03125 1.609375,-0.03125 0.390625,0 1.265625,0 1.609375,0.03125 v -0.3125 h -0.3125 c -0.90625,0 -0.921875,-0.109375 -0.921875,-0.46875 z m 0,0"
               id="path2852" />
          </g>
        </g>
      </g>
    </g>
    <g
       inkscape:label=""
       transform="translate(56.599909,139.53328)"
       id="g3045">
      <g
         id="g3043"
         transform="matrix(0.846667,0,0,0.846667,-78.531,-63.7729)">
        <g
           style="fill:#000000;fill-opacity:1"
           id="g20">
          <g
             id="use18"
             transform="translate(91.925003,81.962997)">
            <path
               style="stroke:none"
               d="m 6.5625,-2.296875 c 0.171875,0 0.359375,0 0.359375,-0.203125 0,-0.1875 -0.1875,-0.1875 -0.359375,-0.1875 H 1.171875 c -0.171875,0 -0.34375,0 -0.34375,0.1875 0,0.203125 0.171875,0.203125 0.34375,0.203125 z m 0,0"
               id="path31" />
          </g>
        </g>
        <g
           style="fill:#000000;fill-opacity:1"
           id="g24">
          <g
             id="use22"
             transform="translate(99.674004,81.962997)">
            <path
               style="stroke:none"
               d="m 2.9375,-6.375 c 0,-0.25 0,-0.265625 -0.234375,-0.265625 C 2.078125,-6 1.203125,-6 0.890625,-6 v 0.3125 c 0.203125,0 0.78125,0 1.296875,-0.265625 v 5.171875 c 0,0.359375 -0.03125,0.46875 -0.921875,0.46875 h -0.3125 V 0 c 0.34375,-0.03125 1.203125,-0.03125 1.609375,-0.03125 0.390625,0 1.265625,0 1.609375,0.03125 v -0.3125 h -0.3125 c -0.90625,0 -0.921875,-0.109375 -0.921875,-0.46875 z m 0,0"
               id="path35" />
          </g>
        </g>
      </g>
    </g>
    <g
       inkscape:label=""
       transform="translate(80.830436,173.88209)"
       id="g3255">
      <g
         id="g3253"
         transform="matrix(0.846667,0,0,0.846667,-78.531,-63.8126)">
        <g
           style="fill:#000000;fill-opacity:1"
           id="g3245">
          <g
             id="g3243"
             transform="translate(91.925003,81.962997)">
            <path
               style="stroke:none"
               d="m 6.5625,-2.296875 c 0.171875,0 0.359375,0 0.359375,-0.203125 0,-0.1875 -0.1875,-0.1875 -0.359375,-0.1875 H 1.171875 c -0.171875,0 -0.34375,0 -0.34375,0.1875 0,0.203125 0.171875,0.203125 0.34375,0.203125 z m 0,0"
               id="path3241" />
          </g>
        </g>
        <g
           style="fill:#000000;fill-opacity:1"
           id="g3251">
          <g
             id="g3249"
             transform="translate(99.674004,81.962997)">
            <path
               style="stroke:none"
               d="m 2.828125,-6.234375 c 0,-0.203125 -0.140625,-0.359375 -0.359375,-0.359375 -0.28125,0 -0.546875,0.265625 -0.546875,0.53125 0,0.1875 0.140625,0.359375 0.375,0.359375 0.234375,0 0.53125,-0.234375 0.53125,-0.53125 z m -0.75,3.75 c 0.109375,-0.28125 0.109375,-0.3125 0.21875,-0.578125 0.078125,-0.203125 0.125,-0.34375 0.125,-0.53125 0,-0.4375 -0.3125,-0.8125 -0.8125,-0.8125 -0.9375,0 -1.3125,1.453125 -1.3125,1.53125 0,0.109375 0.09375,0.109375 0.109375,0.109375 0.109375,0 0.109375,-0.03125 0.15625,-0.1875 0.28125,-0.9375 0.671875,-1.234375 1.015625,-1.234375 0.078125,0 0.25,0 0.25,0.3125 0,0.21875 -0.078125,0.421875 -0.109375,0.53125 -0.078125,0.25 -0.53125,1.40625 -0.6875,1.84375 -0.109375,0.25 -0.234375,0.578125 -0.234375,0.796875 0,0.46875 0.34375,0.8125 0.8125,0.8125 0.9375,0 1.3125,-1.4375 1.3125,-1.53125 0,-0.109375 -0.09375,-0.109375 -0.125,-0.109375 -0.09375,0 -0.09375,0.03125 -0.140625,0.1875 -0.1875,0.625 -0.515625,1.234375 -1.015625,1.234375 -0.171875,0 -0.25,-0.09375 -0.25,-0.328125 0,-0.25 0.0625,-0.390625 0.296875,-1 z m 0,0"
               id="path3247" />
          </g>
        </g>
      </g>
    </g>
    <g
       inkscape:label=""
       transform="translate(95.295138,116.17254)"
       id="g3475">
      <g
         id="g3473"
         transform="matrix(0.846667,0,0,0.846667,-78.0812,-63.8126)">
        <g
           style="fill:#000000;fill-opacity:1"
           id="g3471">
          <g
             id="g3469"
             transform="translate(91.925003,81.962997)">
            <path
               style="stroke:none"
               d="m 2.828125,-6.234375 c 0,-0.203125 -0.140625,-0.359375 -0.359375,-0.359375 -0.28125,0 -0.546875,0.265625 -0.546875,0.53125 0,0.1875 0.140625,0.359375 0.375,0.359375 0.234375,0 0.53125,-0.234375 0.53125,-0.53125 z m -0.75,3.75 c 0.109375,-0.28125 0.109375,-0.3125 0.21875,-0.578125 0.078125,-0.203125 0.125,-0.34375 0.125,-0.53125 0,-0.4375 -0.3125,-0.8125 -0.8125,-0.8125 -0.9375,0 -1.3125,1.453125 -1.3125,1.53125 0,0.109375 0.09375,0.109375 0.109375,0.109375 0.109375,0 0.109375,-0.03125 0.15625,-0.1875 0.28125,-0.9375 0.671875,-1.234375 1.015625,-1.234375 0.078125,0 0.25,0 0.25,0.3125 0,0.21875 -0.078125,0.421875 -0.109375,0.53125 -0.078125,0.25 -0.53125,1.40625 -0.6875,1.84375 -0.109375,0.25 -0.234375,0.578125 -0.234375,0.796875 0,0.46875 0.34375,0.8125 0.8125,0.8125 0.9375,0 1.3125,-1.4375 1.3125,-1.53125 0,-0.109375 -0.09375,-0.109375 -0.125,-0.109375 -0.09375,0 -0.09375,0.03125 -0.140625,0.1875 -0.1875,0.625 -0.515625,1.234375 -1.015625,1.234375 -0.171875,0 -0.25,-0.09375 -0.25,-0.328125 0,-0.25 0.0625,-0.390625 0.296875,-1 z m 0,0"
               id="path3467" />
          </g>
        </g>
      </g>
    </g>
  </g>
</svg>
