<?xml version="1.0" encoding="UTF-8" standalone="no"?>
<!-- Created with Inkscape (http://www.inkscape.org/) -->

<svg
   width="129.46014mm"
   height="99.236374mm"
   viewBox="0 0 129.46014 99.236375"
   version="1.1"
   id="svg5"
   sodipodi:docname="fig-05.svg"
   inkscape:version="1.2.2 (b0a8486541, 2022-12-01)"
   xmlns:inkscape="http://www.inkscape.org/namespaces/inkscape"
   xmlns:sodipodi="http://sodipodi.sourceforge.net/DTD/sodipodi-0.dtd"
   xmlns="http://www.w3.org/2000/svg"
   xmlns:svg="http://www.w3.org/2000/svg">
  <sodipodi:namedview
     id="namedview7"
     pagecolor="#ffffff"
     bordercolor="#666666"
     borderopacity="1.0"
     inkscape:showpageshadow="2"
     inkscape:pageopacity="0.0"
     inkscape:pagecheckerboard="0"
     inkscape:deskcolor="#d1d1d1"
     inkscape:document-units="mm"
     showgrid="false"
     inkscape:zoom="1.4841611"
     inkscape:cx="37.394862"
     inkscape:cy="168.44533"
     inkscape:window-width="1920"
     inkscape:window-height="1013"
     inkscape:window-x="0"
     inkscape:window-y="0"
     inkscape:window-maximized="1"
     inkscape:current-layer="layer1" />
  <defs
     id="defs2">
    <marker
       style="overflow:visible"
       id="marker1369"
       refX="0"
       refY="0"
       orient="auto-start-reverse"
       inkscape:stockid="TriangleStart"
       markerWidth="5.3244081"
       markerHeight="6.155385"
       viewBox="0 0 5.3244081 6.1553851"
       inkscape:isstock="true"
       inkscape:collect="always"
       preserveAspectRatio="xMidYMid">
      <path
         transform="scale(0.5)"
         style="fill:context-stroke;fill-rule:evenodd;stroke:context-stroke;stroke-width:1pt"
         d="M 5.77,0 -2.88,5 V -5 Z"
         id="path1367" />
    </marker>
    <marker
       style="overflow:visible"
       id="TriangleStart"
       refX="0"
       refY="0"
       orient="auto-start-reverse"
       inkscape:stockid="TriangleStart"
       markerWidth="5.3244081"
       markerHeight="6.155385"
       viewBox="0 0 5.3244081 6.1553851"
       inkscape:isstock="true"
       inkscape:collect="always"
       preserveAspectRatio="xMidYMid">
      <path
         style="fill:context-stroke;fill-rule:evenodd;stroke:context-stroke;stroke-width:0.5pt"
         d="m -1.1072586,0 4.325,2.5 v -5 z"
         id="path135" />
    </marker>
    <marker
       style="overflow:visible"
       id="Arrow2"
       refX="0"
       refY="0"
       orient="auto-start-reverse"
       inkscape:stockid="Arrow2"
       markerWidth="7.6999998"
       markerHeight="5.5999999"
       viewBox="0 0 7.7 5.6"
       inkscape:isstock="true"
       inkscape:collect="always"
       preserveAspectRatio="xMidYMid">
      <path
         transform="scale(0.7)"
         d="M -2,-4 9,0 -2,4 c 2,-2.33 2,-5.66 0,-8 z"
         style="fill:context-stroke;fill-rule:evenodd;stroke:none"
         id="arrow2L" />
    </marker>
    <clipPath
       id="clipPath6524">
      <path
         d="m 61,0 h 6 v 24.742188 h -6 z m 0,0"
         id="path2122" />
    </clipPath>
    <clipPath
       id="clipPath8615">
      <path
         d="m 82,0 h 7 v 24.742188 h -7 z m 0,0"
         id="path5694" />
    </clipPath>
    <clipPath
       id="clipPath8948">
      <path
         d="M 1,0 H 18.679688 V 16.9375 H 1 Z m 0,0"
         id="path6228" />
    </clipPath>
    <clipPath
       id="clipPath5422">
      <path
         d="m 118,0 h 13 v 22.03125 h -13 z m 0,0"
         id="path1556" />
    </clipPath>
    <clipPath
       id="clipPath9208">
      <path
         d="m 127,0 h 13 v 22.03125 h -13 z m 0,0"
         id="path1597" />
    </clipPath>
    <clipPath
       id="clipPath6456">
      <path
         d="M 1,0 H 14 V 22.03125 H 1 Z m 0,0"
         id="path2608" />
    </clipPath>
    <clipPath
       id="clipPath5936">
      <path
         d="m 14,3 h 8 v 11.390625 h -8 z m 0,0"
         id="path9311" />
    </clipPath>
    <clipPath
       id="clipPath8327">
      <path
         d="m 15,3 h 6 v 11.390625 h -6 z m 0,0"
         id="path3182" />
    </clipPath>
    <clipPath
       id="clipPath8962">
      <path
         d="M 0,0 H 13 V 10.671875 H 0 Z m 0,0"
         id="path6381" />
    </clipPath>
    <clipPath
       id="clipPath3223">
      <path
         d="M 0,0 H 12 V 15.492188 H 0 Z m 0,0"
         id="path8065" />
    </clipPath>
    <clipPath
       id="clipPath3399">
      <path
         d="m 11,3 h 8 v 11.390625 h -8 z m 0,0"
         id="path4190" />
    </clipPath>
    <clipPath
       id="clipPath1534">
      <path
         d="m 12,3 h 6 v 11.390625 h -6 z m 0,0"
         id="path8393" />
    </clipPath>
    <clipPath
       id="clipPath2042">
      <path
         d="m 31,8 h 9 v 12.652344 h -9 z m 0,0"
         id="path9363" />
    </clipPath>
    <clipPath
       id="clipPath6329">
      <path
         d="M 1,0 H 19 V 16.9375 H 1 Z m 0,0"
         id="path6600" />
    </clipPath>
    <clipPath
       id="clipPath4741">
      <path
         d="m 12,2 h 8 v 12.390625 h -8 z m 0,0"
         id="path6237" />
    </clipPath>
    <clipPath
       id="clipPath9639">
      <path
         d="m 12,2 h 8 v 12.390625 h -8 z m 0,0"
         id="path6100" />
    </clipPath>
    <clipPath
       id="clipPath4942">
      <path
         d="M 1,0 H 18.679688 V 16.9375 H 1 Z m 0,0"
         id="path5259" />
    </clipPath>
    <clipPath
       id="clipPath6870">
      <path
         d="M 0,0 H 15.570312 V 14.117188 H 0 Z m 0,0"
         id="path2640" />
    </clipPath>
  </defs>
  <g
     inkscape:label="Capa 1"
     inkscape:groupmode="layer"
     id="layer1"
     transform="translate(-30.126, -91.4944)">
    <path
       style="fill:none;stroke:#000000;stroke-width:0.664998;stroke-linecap:round;stroke-linejoin:miter;stroke-dasharray:none;stroke-opacity:1;marker-start:url(#Arrow2)"
       d="M 91.791988,95.683881 V 190.39827"
       id="path236" />
    <path
       style="fill:none;stroke:#000000;stroke-width:0.665001;stroke-linecap:round;stroke-linejoin:miter;stroke-dasharray:none;stroke-opacity:1;marker-start:url(#Arrow2)"
       d="M 155.39667,147.9322 H 30.458533"
       id="path1063" />
    <circle
       style="fill:none;stroke:#000000;stroke-width:0.565;stroke-linecap:round;stroke-dasharray:none;stroke-opacity:1;marker-start:url(#marker1369);marker-mid:url(#TriangleStart)"
       id="path1070"
       cx="-67.114555"
       cy="160.49933"
       r="25.427757"
       transform="rotate(-54.525506)" />
    <path
       style="fill:none;stroke:#000000;stroke-width:0.365;stroke-linecap:butt;stroke-linejoin:miter;stroke-dasharray:none;stroke-opacity:1;marker-end:url(#Arrow2)"
       d="M 91.582119,147.89634 79.557829,128.32111"
       id="path1508" />
    <g
       inkscape:label=""
       transform="translate(77.827849,136.94164)"
       id="g4129">
      <g
         id="g4127"
         transform="matrix(0.846667,0,0,0.846667,-78.1738,-63.6274)">
        <g
           style="fill:#000000;fill-opacity:1"
           id="g4125">
          <g
             id="g4123"
             transform="translate(91.925003,81.962997)">
            <path
               style="stroke:none"
               d="m 3.734375,-6.125 c 0.0625,-0.234375 0.09375,-0.328125 0.28125,-0.359375 C 4.109375,-6.5 4.421875,-6.5 4.625,-6.5 c 0.703125,0 1.8125,0 1.8125,0.984375 0,0.34375 -0.15625,1.03125 -0.546875,1.421875 -0.265625,0.25 -0.78125,0.578125 -1.6875,0.578125 H 3.09375 Z m 1.4375,2.734375 c 1.015625,-0.21875 2.1875,-0.921875 2.1875,-1.921875 0,-0.859375 -0.890625,-1.5 -2.203125,-1.5 H 2.328125 c -0.203125,0 -0.296875,0 -0.296875,0.203125 C 2.03125,-6.5 2.125,-6.5 2.3125,-6.5 c 0.015625,0 0.203125,0 0.375,0.015625 0.1875,0.03125 0.265625,0.03125 0.265625,0.171875 0,0.03125 0,0.0625 -0.03125,0.1875 l -1.34375,5.34375 C 1.484375,-0.390625 1.46875,-0.3125 0.671875,-0.3125 0.5,-0.3125 0.40625,-0.3125 0.40625,-0.109375 0.40625,0 0.53125,0 0.546875,0 c 0.28125,0 0.984375,-0.03125 1.25,-0.03125 0.28125,0 1,0.03125 1.28125,0.03125 0.078125,0 0.1875,0 0.1875,-0.203125 0,-0.109375 -0.078125,-0.109375 -0.28125,-0.109375 -0.359375,0 -0.640625,0 -0.640625,-0.171875 0,-0.0625 0.015625,-0.109375 0.03125,-0.171875 l 0.65625,-2.640625 h 1.1875 c 0.90625,0 1.078125,0.5625 1.078125,0.90625 0,0.140625 -0.078125,0.453125 -0.140625,0.6875 C 5.09375,-1.421875 5,-1.0625 5,-0.859375 5,0.21875 6.203125,0.21875 6.328125,0.21875 c 0.84375,0 1.203125,-1 1.203125,-1.140625 0,-0.125 -0.109375,-0.125 -0.125,-0.125 -0.09375,0 -0.109375,0.0625 -0.125,0.140625 C 7.03125,-0.171875 6.59375,0 6.375,0 6.046875,0 5.96875,-0.21875 5.96875,-0.609375 c 0,-0.3125 0.0625,-0.8125 0.109375,-1.140625 0.015625,-0.140625 0.03125,-0.328125 0.03125,-0.46875 0,-0.765625 -0.671875,-1.078125 -0.9375,-1.171875 z m 0,0"
               id="path4121" />
          </g>
        </g>
      </g>
    </g>
    <g
       inkscape:label=""
       transform="translate(114.17723,105.11563)"
       id="g4307">
      <g
         id="g4305"
         transform="matrix(0.846667,0,0,0.846667,-78.2532,-63.4422)">
        <g
           style="fill:#000000;fill-opacity:1"
           id="g4303">
          <g
             id="g4301"
             transform="translate(91.925003,81.962997)">
            <path
               style="stroke:none"
               d="m 7.578125,-6.921875 c 0,-0.03125 -0.015625,-0.109375 -0.109375,-0.109375 -0.03125,0 -0.046875,0.015625 -0.15625,0.125 L 6.625,-6.140625 C 6.53125,-6.28125 6.078125,-7.03125 4.96875,-7.03125 2.734375,-7.03125 0.5,-4.828125 0.5,-2.515625 0.5,-0.875 1.671875,0.21875 3.203125,0.21875 c 0.859375,0 1.625,-0.390625 2.15625,-0.859375 0.921875,-0.8125 1.09375,-1.71875 1.09375,-1.75 C 6.453125,-2.5 6.34375,-2.5 6.328125,-2.5 c -0.0625,0 -0.109375,0.03125 -0.125,0.109375 -0.09375,0.28125 -0.328125,1 -1.015625,1.578125 -0.6875,0.546875 -1.3125,0.71875 -1.828125,0.71875 -0.890625,0 -1.953125,-0.515625 -1.953125,-2.0625 0,-0.578125 0.203125,-2.1875 1.203125,-3.359375 0.609375,-0.703125 1.546875,-1.203125 2.4375,-1.203125 1.015625,0 1.609375,0.765625 1.609375,1.921875 0,0.40625 -0.03125,0.40625 -0.03125,0.515625 0,0.09375 0.109375,0.09375 0.140625,0.09375 0.125,0 0.125,-0.015625 0.1875,-0.203125 z m 0,0"
               id="path4299" />
          </g>
        </g>
      </g>
    </g>
    <g
       inkscape:label=""
       transform="translate(153.48085,151.90928)"
       id="g5250">
      <g
         id="g5248"
         transform="matrix(0.846667,0,0,0.846667,-78.0812,-65.6647)">
        <g
           style="fill:#000000;fill-opacity:1"
           id="g14">
          <g
             id="use12"
             transform="translate(91.925003,81.962997)">
            <path
               style="stroke:none"
               d="M 3.328125,-3.015625 C 3.390625,-3.265625 3.625,-4.1875 4.3125,-4.1875 c 0.046875,0 0.296875,0 0.5,0.125 C 4.53125,-4 4.34375,-3.765625 4.34375,-3.515625 c 0,0.15625 0.109375,0.34375 0.375,0.34375 0.21875,0 0.53125,-0.171875 0.53125,-0.578125 0,-0.515625 -0.578125,-0.65625 -0.921875,-0.65625 -0.578125,0 -0.921875,0.53125 -1.046875,0.75 -0.25,-0.65625 -0.78125,-0.75 -1.078125,-0.75 -1.03125,0 -1.609375,1.28125 -1.609375,1.53125 0,0.109375 0.109375,0.109375 0.125,0.109375 0.078125,0 0.109375,-0.03125 0.125,-0.109375 0.34375,-1.0625 1,-1.3125 1.34375,-1.3125 0.1875,0 0.53125,0.09375 0.53125,0.671875 0,0.3125 -0.171875,0.96875 -0.53125,2.375 -0.15625,0.609375 -0.515625,1.03125 -0.953125,1.03125 -0.0625,0 -0.28125,0 -0.5,-0.125 0.25,-0.0625 0.46875,-0.265625 0.46875,-0.546875 0,-0.265625 -0.21875,-0.34375 -0.359375,-0.34375 -0.3125,0 -0.546875,0.25 -0.546875,0.578125 0,0.453125 0.484375,0.65625 0.921875,0.65625 0.671875,0 1.03125,-0.703125 1.046875,-0.75 0.125,0.359375 0.484375,0.75 1.078125,0.75 1.03125,0 1.59375,-1.28125 1.59375,-1.53125 0,-0.109375 -0.078125,-0.109375 -0.109375,-0.109375 -0.09375,0 -0.109375,0.046875 -0.140625,0.109375 -0.328125,1.078125 -1,1.3125 -1.3125,1.3125 -0.390625,0 -0.546875,-0.3125 -0.546875,-0.65625 0,-0.21875 0.046875,-0.4375 0.15625,-0.875 z m 0,0"
               id="path21" />
          </g>
        </g>
      </g>
    </g>
    <g
       inkscape:label=""
       transform="translate(84.477746,93.363829)"
       id="g5438">
      <g
         id="g5436"
         transform="matrix(0.846667,0,0,0.846667,-78.0812,-65.6647)">
        <g
           style="fill:#000000;fill-opacity:1"
           id="g5434">
          <g
             id="g5432"
             transform="translate(91.925003,81.962997)">
            <path
               style="stroke:none"
               d="m 4.84375,-3.796875 c 0.046875,-0.140625 0.046875,-0.15625 0.046875,-0.234375 0,-0.171875 -0.140625,-0.265625 -0.296875,-0.265625 -0.09375,0 -0.25,0.0625 -0.34375,0.203125 -0.015625,0.0625 -0.109375,0.359375 -0.140625,0.546875 -0.078125,0.25 -0.140625,0.53125 -0.203125,0.796875 l -0.453125,1.796875 c -0.03125,0.140625 -0.46875,0.84375 -1.125,0.84375 -0.5,0 -0.609375,-0.4375 -0.609375,-0.8125 C 1.71875,-1.375 1.890625,-2 2.21875,-2.875 2.375,-3.28125 2.421875,-3.390625 2.421875,-3.59375 c 0,-0.4375 -0.3125,-0.8125 -0.8125,-0.8125 -0.953125,0 -1.3125,1.453125 -1.3125,1.53125 0,0.109375 0.09375,0.109375 0.109375,0.109375 0.109375,0 0.109375,-0.03125 0.15625,-0.1875 0.28125,-0.9375 0.671875,-1.234375 1.015625,-1.234375 0.078125,0 0.25,0 0.25,0.3125 0,0.25 -0.109375,0.515625 -0.171875,0.703125 -0.40625,1.0625 -0.578125,1.625 -0.578125,2.09375 0,0.890625 0.625,1.1875 1.21875,1.1875 0.390625,0 0.71875,-0.171875 1,-0.453125 -0.125,0.515625 -0.25,1.015625 -0.640625,1.546875 -0.265625,0.328125 -0.640625,0.625 -1.09375,0.625 -0.140625,0 -0.59375,-0.03125 -0.765625,-0.421875 0.15625,0 0.296875,0 0.421875,-0.125 C 1.328125,1.203125 1.421875,1.0625 1.421875,0.875 1.421875,0.5625 1.15625,0.53125 1.0625,0.53125 0.828125,0.53125 0.5,0.6875 0.5,1.171875 c 0,0.5 0.4375,0.875 1.0625,0.875 1.015625,0 2.046875,-0.90625 2.328125,-2.03125 z m 0,0"
               id="path5430" />
          </g>
        </g>
      </g>
    </g>
    <path
       style="fill:none;stroke:#000000;stroke-width:0.565;stroke-linecap:butt;stroke-linejoin:miter;stroke-dasharray:none;stroke-opacity:1"
       d="m 140.61221,143.05848 c -1.06212,-7.28454 -3.00364,-15.18389 -8.01054,-20.58093 -3.72075,-4.01065 -9.53079,-5.63235 -14.80616,-7.0823 -15.61062,-4.29063 -32.941121,-9.28046 -48.371027,-4.37963 -9.380228,2.97933 -17.601201,10.59469 -22.479107,19.14214 -4.301953,7.53823 -5.724154,17.06937 -4.450019,25.65454 1.193908,8.04459 3.871829,17.82487 10.97174,21.79241 7.691525,4.29814 17.574833,-3.16913 26.337765,-2.24829 12.72063,1.33672 24.324278,14.29708 36.719118,11.13991 10.3146,-2.62731 17.96467,-13.0819 22.39676,-22.75837 2.88012,-6.28808 2.68934,-13.83566 1.69147,-20.67948 z"
       id="path425"
       sodipodi:nodetypes="sssssssssss" />
    <path
       style="fill:#cccccc;stroke-width:2.13544;stroke-linecap:round;stroke-dasharray:none"
       d="m 103.93391,327.02439 c -9.541721,-0.97704 -17.761145,-5.07166 -25.983795,-12.9442 -13.972429,-13.3775 -23.685746,-36.27452 -29.066069,-68.5169 -1.494907,-8.95844 -2.932309,-28.36041 -2.284593,-30.83728 l 0.385517,-1.47422 h 44.289201 44.289199 l 0.43365,6.56937 c 1.40717,21.31758 11.57787,43.46588 27.33967,59.53645 l 6.4562,6.58268 -1.53322,2.22973 -1.53322,2.22973 2.88078,0.45539 c 1.58443,0.25047 4.01191,0.47787 5.39438,0.50534 1.63758,0.0325 3.75097,0.84006 6.06404,2.31707 12.20821,7.79552 29.23089,13.56481 42.41302,14.37453 3.5866,0.22031 6.85491,0.60687 7.26292,0.85904 0.49666,0.30695 0.67963,3.49354 0.55362,9.64173 l -0.18822,9.18325 -6.68778,-3.03423 c -8.33577,-3.78193 -17.66572,-7.03982 -25.99061,-9.07558 -5.28101,-1.29141 -8.22815,-1.56715 -16.84453,-1.57599 -12.03285,-0.0123 -15.34957,0.58324 -38.42554,6.90016 -20.49915,5.61152 -29.75027,7.04406 -39.22462,6.07393 z"
       id="path1944"
       transform="matrix(0.26458333,0,0,0.26458333,30.126033,91.93618)" />
    <path
       style="fill:#cccccc;stroke-width:2.13544;stroke-linecap:round;stroke-dasharray:none"
       d="m 46.827802,207.67542 c 0,-3.75926 1.331053,-13.2478 3.077617,-21.93908 5.817697,-28.95011 21.184328,-55.84793 44.958634,-78.69578 28.046137,-26.953217 57.510957,-39.106467 99.521857,-41.049436 8.82418,-0.408111 29.05258,0.453612 34.86818,1.485374 l 2.18979,0.388496 v 22.754418 22.754418 l -5.2218,0.47522 c -24.34909,2.21594 -44.28284,11.16081 -61.21421,27.46865 l -6.95895,6.70267 -1.98051,-1.41025 c -1.08928,-0.77563 -2.13524,-1.41025 -2.32435,-1.41025 -0.18911,0 -0.56383,2.34982 -0.8327,5.22181 -0.43207,4.61526 -0.8941,5.92618 -3.97763,11.28584 -8.15738,14.17882 -13.15566,30.87162 -13.16409,43.96423 l -0.003,4.21113 H 91.297369 46.827802 Z"
       id="path1946"
       transform="matrix(0.26458333,0,0,0.26458333,30.126033,91.93618)" />
    <path
       style="fill:#cccccc;stroke-width:2.13544;stroke-linecap:round;stroke-dasharray:none"
       d="m 330.21967,204.66108 c -2.3321,-26.70892 -14.38879,-51.15853 -32.96253,-66.84427 l -4.3543,-3.67726 1.68636,-2.21094 c 1.97326,-2.58708 1.92432,-2.61875 -4.90297,-3.17279 -4.04564,-0.3283 -5.80724,-0.93449 -11.79118,-4.0575 -11.41725,-5.95865 -24.2134,-9.6157 -37.86045,-10.82024 l -5.22181,-0.4609 V 90.902991 68.388804 h 1.53366 c 2.38204,0 24.06273,3.894881 34.17675,6.139766 21.25826,4.718434 64.57418,16.294964 79.5062,21.248674 26.86534,8.912606 40.31968,20.471516 51.54519,44.283556 7.2748,15.43164 12.03084,33.66685 15.18217,58.21012 0.7285,5.67377 1.32455,10.60754 1.32455,10.96395 0,0.40817 -16.17539,0.64801 -43.70285,0.64801 h -43.70285 z"
       id="path1948"
       transform="matrix(0.26458333,0,0,0.26458333,30.126033,91.93618)" />
    <path
       style="fill:#cccccc;stroke-width:2.13544;stroke-linecap:round;stroke-dasharray:none"
       d="m 304.21227,357.38552 c -13.11292,-1.42721 -25.83091,-6.11274 -51.72871,-19.05774 l -17.70275,-8.84871 0.18444,-10.44361 0.18443,-10.44361 6.54934,-0.46706 c 11.93552,-0.85116 26.8757,-5.32465 37.92023,-11.35433 7.56083,-4.12778 14.35633,-9.21494 21.28767,-15.93611 3.55547,-3.44765 6.69127,-6.26846 6.96843,-6.26846 0.27717,0 1.28026,0.61065 2.22909,1.357 0.94883,0.74635 1.86198,1.22015 2.02924,1.0529 0.16725,-0.16725 0.57719,-2.74505 0.91096,-5.72843 0.50383,-4.50327 1.0249,-6.0778 3.06867,-9.27274 7.45225,-11.64974 12.63429,-27.67911 14.06317,-43.50103 l 0.47158,-5.2218 h 43.63804 43.63804 l 0.40627,1.51601 c 0.65039,2.42691 0.48693,15.9211 -0.2848,23.51095 -1.5576,15.3188 -4.88834,26.16328 -12.77587,41.59663 -23.23083,45.45519 -54.88015,73.56912 -87.24496,77.49923 -6.62976,0.80506 -6.5168,0.80497 -13.81251,0.0109 z"
       id="path1950"
       transform="matrix(0.26458333,0,0,0.26458333,30.126033,91.93618)" />
    <g
       inkscape:label=""
       transform="translate(103.17195,133.38619)"
       id="g477">
      <g
         id="surface1"
         transform="matrix(0.846667,0,0,0.846667,-78.2532,-63.4422)">
        <g
           style="fill:#000000;fill-opacity:1"
           id="g20">
          <g
             id="use18"
             transform="translate(91.925003,81.962997)">
            <path
               style="stroke:none"
               d="m 7.578125,-6.921875 c 0,-0.03125 -0.015625,-0.109375 -0.109375,-0.109375 -0.03125,0 -0.046875,0.015625 -0.15625,0.125 L 6.625,-6.140625 C 6.53125,-6.28125 6.078125,-7.03125 4.96875,-7.03125 2.734375,-7.03125 0.5,-4.828125 0.5,-2.515625 0.5,-0.875 1.671875,0.21875 3.203125,0.21875 c 0.859375,0 1.625,-0.390625 2.15625,-0.859375 0.921875,-0.8125 1.09375,-1.71875 1.09375,-1.75 C 6.453125,-2.5 6.34375,-2.5 6.328125,-2.5 c -0.0625,0 -0.109375,0.03125 -0.125,0.109375 -0.09375,0.28125 -0.328125,1 -1.015625,1.578125 -0.6875,0.546875 -1.3125,0.71875 -1.828125,0.71875 -0.890625,0 -1.953125,-0.515625 -1.953125,-2.0625 0,-0.578125 0.203125,-2.1875 1.203125,-3.359375 0.609375,-0.703125 1.546875,-1.203125 2.4375,-1.203125 1.015625,0 1.609375,0.765625 1.609375,1.921875 0,0.40625 -0.03125,0.40625 -0.03125,0.515625 0,0.09375 0.109375,0.09375 0.140625,0.09375 0.125,0 0.125,-0.015625 0.1875,-0.203125 z m 0,0"
               id="path31" />
          </g>
        </g>
        <g
           style="fill:#000000;fill-opacity:1"
           id="g24">
          <g
             id="use22"
             transform="translate(99.045998,83.457001)">
            <path
               style="stroke:none"
               d="m 2.328125,-4.4375 c 0,-0.1875 0,-0.1875 -0.203125,-0.1875 -0.453125,0.4375 -1.078125,0.4375 -1.359375,0.4375 v 0.25 c 0.15625,0 0.625,0 1,-0.1875 v 3.546875 c 0,0.234375 0,0.328125 -0.6875,0.328125 H 0.8125 V 0 c 0.125,0 0.984375,-0.03125 1.234375,-0.03125 0.21875,0 1.09375,0.03125 1.25,0.03125 V -0.25 H 3.03125 c -0.703125,0 -0.703125,-0.09375 -0.703125,-0.328125 z m 0,0"
               id="path35" />
          </g>
        </g>
      </g>
    </g>
  </g>
</svg>
