<?xml version="1.0" encoding="UTF-8" standalone="no"?>
<!-- Created with Inkscape (http://www.inkscape.org/) -->

<svg
   width="178.26967mm"
   height="107.3583mm"
   viewBox="0 0 178.26967 107.3583"
   version="1.1"
   id="svg5"
   sodipodi:docname="argand.svg"
   inkscape:version="1.2.2 (b0a8486541, 2022-12-01)"
   xmlns:inkscape="http://www.inkscape.org/namespaces/inkscape"
   xmlns:sodipodi="http://sodipodi.sourceforge.net/DTD/sodipodi-0.dtd"
   xmlns="http://www.w3.org/2000/svg"
   xmlns:svg="http://www.w3.org/2000/svg">
  <sodipodi:namedview
     id="namedview7"
     pagecolor="#ffffff"
     bordercolor="#666666"
     borderopacity="1.0"
     inkscape:showpageshadow="2"
     inkscape:pageopacity="0.0"
     inkscape:pagecheckerboard="0"
     inkscape:deskcolor="#d1d1d1"
     inkscape:document-units="mm"
     showgrid="false"
     inkscape:zoom="1.4984147"
     inkscape:cx="575.94203"
     inkscape:cy="188.1989"
     inkscape:window-width="1920"
     inkscape:window-height="1021"
     inkscape:window-x="0"
     inkscape:window-y="0"
     inkscape:window-maximized="1"
     inkscape:current-layer="layer1"
     showguides="true" />
  <defs
     id="defs2">
    <marker
       style="overflow:visible"
       id="Arrow2"
       refX="0"
       refY="0"
       orient="auto-start-reverse"
       inkscape:stockid="Arrow2"
       markerWidth="7.6999998"
       markerHeight="5.5999999"
       viewBox="0 0 7.7 5.6"
       inkscape:isstock="true"
       inkscape:collect="always"
       preserveAspectRatio="xMidYMid">
      <path
         transform="scale(0.7)"
         d="M -2,-4 9,0 -2,4 c 2,-2.33 2,-5.66 0,-8 z"
         style="fill:context-stroke;fill-rule:evenodd;stroke:none"
         id="arrow2L" />
    </marker>
    <clipPath
       id="clipPath4853">
      <path
         d="M 0,0 H 13 V 10.671875 H 0 Z m 0,0"
         id="path4400" />
    </clipPath>
    <clipPath
       id="clipPath3776">
      <path
         d="M 0,0 H 12 V 15.492188 H 0 Z m 0,0"
         id="path5489" />
    </clipPath>
    <clipPath
       id="clipPath1210">
      <path
         d="m 87,0 h 20 V 21.070312 H 87 Z m 0,0"
         id="path3698" />
    </clipPath>
    <clipPath
       id="clipPath2899">
      <path
         d="M 2,0 H 8 V 24.742188 H 2 Z m 0,0"
         id="path7428" />
    </clipPath>
    <clipPath
       id="clipPath5012">
      <path
         d="m 43,0 h 6 v 24.742188 h -6 z m 0,0"
         id="path7394" />
    </clipPath>
    <clipPath
       id="clipPath4318">
      <path
         d="M 2,0 H 8 V 24.742188 H 2 Z m 0,0"
         id="path4013" />
    </clipPath>
    <clipPath
       id="clipPath9070">
      <path
         d="m 43,0 h 6 v 24.742188 h -6 z m 0,0"
         id="path8427" />
    </clipPath>
    <clipPath
       id="clipPath5580">
      <path
         d="M 2,0 H 8 V 24.742188 H 2 Z m 0,0"
         id="path734" />
    </clipPath>
    <clipPath
       id="clipPath6734">
      <path
         d="m 43,0 h 6 v 24.742188 h -6 z m 0,0"
         id="path28" />
    </clipPath>
    <clipPath
       id="clipPath7186">
      <path
         d="m 13,0 h 6 v 24.742188 h -6 z m 0,0"
         id="path8583" />
    </clipPath>
    <clipPath
       id="clipPath3059">
      <path
         d="M 0,0 H 11 V 17.214844 H 0 Z m 0,0"
         id="path1140" />
    </clipPath>
    <clipPath
       id="clipPath4234">
      <path
         d="M 0,0 H 11 V 10.671875 H 0 Z m 0,0"
         id="path2197" />
    </clipPath>
    <clipPath
       id="clipPath8378">
      <path
         d="M 45,0 H 68 V 29.648438 H 45 Z m 0,0"
         id="path1509" />
    </clipPath>
    <clipPath
       id="clipPath7939">
      <path
         d="m 66,0 h 73.29687 V 2 H 66 Z m 0,0"
         id="path2235" />
    </clipPath>
    <clipPath
       id="clipPath8047">
      <path
         d="m 27,0 h 2 v 24.785156 h -2 z m 0,0"
         id="path7296" />
    </clipPath>
    <clipPath
       id="clipPath7398">
      <path
         d="m 98,0 h 2 v 24.785156 h -2 z m 0,0"
         id="path8295" />
    </clipPath>
    <clipPath
       id="clipPath3176">
      <path
         d="m 77,0 h 7 v 24.742188 h -7 z m 0,0"
         id="path5542" />
    </clipPath>
    <clipPath
       id="clipPath8402">
      <path
         d="m 97,0 h 7 v 24.742188 h -7 z m 0,0"
         id="path5055" />
    </clipPath>
    <clipPath
       id="clipPath6132">
      <path
         d="M 2,0 H 8 V 24.742188 H 2 Z m 0,0"
         id="path3493" />
    </clipPath>
    <clipPath
       id="clipPath9063">
      <path
         d="m 47,0 h 6 v 24.742188 h -6 z m 0,0"
         id="path4727" />
    </clipPath>
    <clipPath
       id="clipPath3248">
      <path
         d="M 2,0 H 8 V 24.742188 H 2 Z m 0,0"
         id="path4995" />
    </clipPath>
    <clipPath
       id="clipPath2465">
      <path
         d="m 43,0 h 6 v 24.742188 h -6 z m 0,0"
         id="path9569" />
    </clipPath>
    <clipPath
       id="clipPath9195">
      <path
         d="M 63,0 H 86 V 29.648438 H 63 Z m 0,0"
         id="path5826" />
    </clipPath>
    <clipPath
       id="clipPath2813">
      <path
         d="m 84,0 h 73.14062 V 2 H 84 Z m 0,0"
         id="path7576" />
    </clipPath>
  </defs>
  <g
     inkscape:label="Capa 1"
     inkscape:groupmode="layer"
     id="layer1"
     transform="translate(-16.7597, -55.2531)">
    <path
       style="fill:none;stroke:#000000;stroke-width:1;stroke-linecap:round;stroke-linejoin:miter;stroke-dasharray:none;stroke-opacity:1;marker-end:url(#Arrow2)"
       d="M 38.976862,162.11143 V 61.553132"
       id="path223" />
    <path
       style="fill:none;stroke:#000000;stroke-width:1;stroke-linecap:round;stroke-linejoin:miter;stroke-dasharray:none;stroke-opacity:1;marker-end:url(#Arrow2)"
       d="M 17.259667,142.47607 H 143.29759"
       id="path1121" />
    <path
       style="fill:none;stroke:#000000;stroke-width:1;stroke-linecap:butt;stroke-linejoin:miter;stroke-dasharray:none;stroke-opacity:1;marker-end:url(#Arrow2)"
       d="M 38.878889,142.34659 91.284538,93.106142"
       id="path1133" />
    <path
       style="fill:none;stroke:#000000;stroke-width:0.465;stroke-linecap:round;stroke-linejoin:miter;stroke-dasharray:1.86, 3.72;stroke-dashoffset:0;stroke-opacity:1"
       d="M 95.707388,89.150629 V 142.19718"
       id="path1153" />
    <g
       inkscape:label=""
       transform="translate(141.21159,148.28216)"
       id="g1603">
      <g
         id="g1601"
         transform="matrix(0.352778,0,0,0.352778,-0.242535,0.0881504)">
        <g
           clip-path="url(#clipPath4853)"
           clip-rule="nonzero"
           id="g19">
          <g
             style="fill:#000000;fill-opacity:1"
             id="g17">
            <g
               id="use15"
               transform="translate(0,10.672)">
              <path
                 style="stroke:none"
                 d="m 11.75,-10.109375 c -0.796875,0.140625 -1.09375,0.734375 -1.09375,1.21875 0,0.59375 0.46875,0.78125 0.8125,0.78125 0.75,0 1.265625,-0.640625 1.265625,-1.3125 0,-1.03125 -1.1875,-1.5 -2.234375,-1.5 -1.5,0 -2.34375,1.484375 -2.5625,1.953125 -0.578125,-1.859375 -2.109375,-1.953125 -2.5625,-1.953125 -2.53125,0 -3.859375,3.234375 -3.859375,3.78125 0,0.109375 0.09375,0.234375 0.265625,0.234375 0.203125,0 0.25,-0.15625 0.296875,-0.25 0.84375,-2.75 2.5,-3.28125 3.21875,-3.28125 1.125,0 1.34375,1.046875 1.34375,1.640625 C 6.640625,-8.25 6.5,-7.6875 6.1875,-6.5 l -0.828125,3.40625 c -0.375,1.484375 -1.09375,2.84375 -2.40625,2.84375 -0.125,0 -0.75,0 -1.265625,-0.3125 0.890625,-0.1875 1.09375,-0.921875 1.09375,-1.21875 0,-0.5 -0.375,-0.796875 -0.84375,-0.796875 -0.59375,0 -1.25,0.515625 -1.25,1.3125 0,1.046875 1.171875,1.515625 2.234375,1.515625 1.1875,0 2.03125,-0.9375 2.5625,-1.953125 C 5.875,-0.25 7.109375,0.25 8.03125,0.25 c 2.53125,0 3.859375,-3.25 3.859375,-3.796875 0,-0.125 -0.09375,-0.21875 -0.25,-0.21875 -0.21875,0 -0.234375,0.125 -0.3125,0.328125 -0.671875,2.171875 -2.109375,3.1875 -3.21875,3.1875 -0.875,0 -1.34375,-0.640625 -1.34375,-1.65625 0,-0.546875 0.09375,-0.9375 0.5,-2.578125 L 8.125,-7.859375 C 8.5,-9.34375 9.34375,-10.4375 10.484375,-10.4375 c 0.04687,0 0.734375,0 1.265625,0.328125 z m 0,0"
                 id="path26" />
            </g>
          </g>
        </g>
      </g>
    </g>
    <g
       inkscape:label=""
       transform="translate(30.134687,56.284685)"
       id="g1679">
      <g
         id="g1677"
         transform="matrix(0.352778,0,0,0.352778,-0.237023,0.0881504)">
        <g
           clip-path="url(#clipPath3776)"
           clip-rule="nonzero"
           id="g1675">
          <g
             style="fill:#000000;fill-opacity:1"
             id="g1673">
            <g
               id="g1671"
               transform="translate(0,10.672)">
              <path
                 style="stroke:none"
                 d="M 6.515625,2.78125 C 5.84375,3.71875 4.875,4.5625 3.671875,4.5625 3.375,4.5625 2.1875,4.515625 1.8125,3.375 1.890625,3.390625 2,3.390625 2.0625,3.390625 2.796875,3.390625 3.296875,2.75 3.296875,2.1875 3.296875,1.609375 2.828125,1.40625 2.453125,1.40625 2.0625,1.40625 1.1875,1.703125 1.1875,2.921875 1.1875,4.1875 2.25,5.0625 3.671875,5.0625 c 2.46875,0 4.984375,-2.28125 5.671875,-5.03125 l 2.421875,-9.671875 c 0.03125,-0.125 0.07813,-0.265625 0.07813,-0.421875 0,-0.375 -0.296875,-0.625 -0.671875,-0.625 -0.21875,0 -0.734375,0.109375 -0.9375,0.84375 l -1.82813,7.296875 c -0.125,0.4375 -0.125,0.484375 -0.328125,0.765625 -0.5,0.6875 -1.3125,1.53125 -2.5,1.53125 C 4.1875,-0.25 4.0625,-1.609375 4.0625,-2.28125 c 0,-1.40625 0.671875,-3.3125 1.34375,-5.109375 0.265625,-0.71875 0.421875,-1.0625 0.421875,-1.5625 0,-1.03125 -0.75,-1.96875 -1.96875,-1.96875 -2.265625,0 -3.1875,3.59375 -3.1875,3.78125 0,0.109375 0.09375,0.234375 0.265625,0.234375 0.234375,0 0.25,-0.109375 0.34375,-0.453125 0.609375,-2.078125 1.546875,-3.078125 2.515625,-3.078125 0.21875,0 0.640625,0 0.640625,0.828125 0,0.640625 -0.28125,1.359375 -0.640625,2.296875 -1.21875,3.25 -1.21875,4.0625 -1.21875,4.65625 0,2.359375 1.6875,2.90625 2.921875,2.90625 0.71875,0 1.609375,-0.21875 2.484375,-1.140625 L 8,-0.875 C 7.625,0.59375 7.390625,1.5625 6.515625,2.78125 Z m 0,0"
                 id="path1669" />
            </g>
          </g>
        </g>
      </g>
    </g>
    <g
       inkscape:label=""
       transform="translate(98.858118,86.740759)"
       id="g1781">
      <g
         id="g1779"
         transform="matrix(0.352778,0,0,0.352778,-0.374826,0.0110243)">
        <g
           style="fill:#000000;fill-opacity:1"
           id="g35">
          <g
             id="use33"
             transform="translate(0,16.25)">
            <path
               style="stroke:none"
               d="m 3.140625,-2 c 1.078125,-1.21875 1.9375,-1.984375 3.171875,-3.109375 1.5,-1.28125 2.140625,-1.90625 2.484375,-2.28125 1.734375,-1.703125 2.609375,-3.140625 2.609375,-3.34375 0,-0.1875 -0.203125,-0.1875 -0.25,-0.1875 -0.171875,0 -0.234375,0.09375 -0.359375,0.265625 -0.609375,1.0625 -1.203125,1.59375 -1.84375,1.59375 -0.53125,0 -0.796875,-0.234375 -1.265625,-0.828125 -0.53125,-0.609375 -0.953125,-1.03125 -1.671875,-1.03125 -1.796875,0 -2.890625,2.25 -2.890625,2.765625 0,0.078125 0.015625,0.21875 0.25,0.21875 0.1875,0 0.21875,-0.09375 0.296875,-0.265625 C 4.09375,-9.1875 5.28125,-9.375 5.75,-9.375 c 0.515625,0 1.015625,0.1875 1.53125,0.40625 0.953125,0.390625 1.34375,0.390625 1.59375,0.390625 0.171875,0 0.265625,0 0.390625,-0.015625 C 8.453125,-7.625 7.109375,-6.4375 6,-5.421875 L 3.5,-3.125 c -1.515625,1.53125 -2.4375,3 -2.4375,3.171875 0,0.15625 0.125,0.203125 0.28125,0.203125 0.140625,0 0.171875,-0.03125 0.34375,-0.328125 0.390625,-0.609375 1.1875,-1.53125 2.109375,-1.53125 0.515625,0 0.765625,0.171875 1.265625,0.796875 0.46875,0.546875 0.890625,1.0625 1.671875,1.0625 2.4375,0 3.828125,-3.15625 3.828125,-3.71875 0,-0.09375 -0.03125,-0.25 -0.28125,-0.25 -0.1875,0 -0.21875,0.09375 -0.296875,0.34375 -0.546875,1.46875 -2,2.0625 -2.96875,2.0625 C 6.5,-1.3125 6,-1.484375 5.484375,-1.703125 c -1,-0.40625 -1.265625,-0.40625 -1.59375,-0.40625 -0.25,0 -0.515625,0 -0.75,0.109375 z m 0,0"
               id="path62" />
          </g>
        </g>
        <g
           style="fill:#000000;fill-opacity:1"
           id="g39">
          <g
             id="use37"
             transform="translate(19.264,16.25)">
            <path
               style="stroke:none"
               d="m 15.9375,-7.953125 c 0.375,0 0.734375,0 0.734375,-0.421875 0,-0.453125 -0.421875,-0.453125 -0.84375,-0.453125 H 1.984375 c -0.421875,0 -0.84375,0 -0.84375,0.453125 0,0.421875 0.375,0.421875 0.75,0.421875 z m -0.109375,4.40625 c 0.421875,0 0.84375,0 0.84375,-0.4375 0,-0.421875 -0.359375,-0.421875 -0.734375,-0.421875 H 1.890625 c -0.375,0 -0.75,0 -0.75,0.421875 0,0.4375 0.421875,0.4375 0.84375,0.4375 z m 0,0"
               id="path66" />
          </g>
        </g>
        <g
           style="fill:#000000;fill-opacity:1"
           id="g43">
          <g
             id="use41"
             transform="translate(43.992001,16.25)">
            <path
               style="stroke:none"
               d="m 11.75,-10.109375 c -0.796875,0.140625 -1.09375,0.734375 -1.09375,1.21875 0,0.59375 0.46875,0.78125 0.8125,0.78125 0.75,0 1.265625,-0.640625 1.265625,-1.3125 0,-1.03125 -1.1875,-1.5 -2.234375,-1.5 -1.5,0 -2.34375,1.484375 -2.5625,1.953125 -0.578125,-1.859375 -2.109375,-1.953125 -2.5625,-1.953125 -2.53125,0 -3.859375,3.234375 -3.859375,3.78125 0,0.109375 0.09375,0.234375 0.265625,0.234375 0.203125,0 0.25,-0.15625 0.296875,-0.25 0.84375,-2.75 2.5,-3.28125 3.21875,-3.28125 1.125,0 1.34375,1.046875 1.34375,1.640625 C 6.640625,-8.25 6.5,-7.6875 6.1875,-6.5 l -0.828125,3.40625 c -0.375,1.484375 -1.09375,2.84375 -2.40625,2.84375 -0.125,0 -0.75,0 -1.265625,-0.3125 0.890625,-0.1875 1.09375,-0.921875 1.09375,-1.21875 0,-0.5 -0.375,-0.796875 -0.84375,-0.796875 -0.59375,0 -1.25,0.515625 -1.25,1.3125 0,1.046875 1.171875,1.515625 2.234375,1.515625 1.1875,0 2.03125,-0.9375 2.5625,-1.953125 C 5.875,-0.25 7.109375,0.25 8.03125,0.25 c 2.53125,0 3.859375,-3.25 3.859375,-3.796875 0,-0.125 -0.09375,-0.21875 -0.25,-0.21875 -0.21875,0 -0.234375,0.125 -0.3125,0.328125 -0.671875,2.171875 -2.109375,3.1875 -3.21875,3.1875 -0.875,0 -1.34375,-0.640625 -1.34375,-1.65625 0,-0.546875 0.09375,-0.9375 0.5,-2.578125 L 8.125,-7.859375 C 8.5,-9.34375 9.34375,-10.4375 10.484375,-10.4375 c 0.04687,0 0.734375,0 1.265625,0.328125 z m 0,0"
               id="path70" />
          </g>
        </g>
        <g
           style="fill:#000000;fill-opacity:1"
           id="g47">
          <g
             id="use45"
             transform="translate(63.292,16.25)">
            <path
               style="stroke:none"
               d="m 9.34375,-5.75 h 6.5625 c 0.34375,0 0.765625,0 0.765625,-0.421875 0,-0.4375 -0.390625,-0.4375 -0.765625,-0.4375 H 9.34375 V -13.1875 c 0,-0.34375 0,-0.765625 -0.421875,-0.765625 -0.453125,0 -0.453125,0.390625 -0.453125,0.765625 v 6.578125 h -6.5625 c -0.34375,0 -0.765625,0 -0.765625,0.421875 0,0.4375 0.390625,0.4375 0.765625,0.4375 h 6.5625 v 6.5625 c 0,0.359375 0,0.78125 0.421875,0.78125 0.453125,0 0.453125,-0.40625 0.453125,-0.78125 z m 0,0"
               id="path74" />
          </g>
        </g>
        <g
           clip-path="url(#clipPath1210)"
           clip-rule="nonzero"
           id="g55">
          <g
             style="fill:#000000;fill-opacity:1"
             id="g53">
            <g
               id="use49"
               transform="translate(86.642998,16.25)">
              <path
                 style="stroke:none"
                 d="m 7.015625,-3.546875 c 0,-0.125 -0.109375,-0.21875 -0.25,-0.21875 -0.21875,0 -0.25,0.078125 -0.375,0.5 C 5.75,-1.015625 4.734375,-0.25 3.921875,-0.25 c -0.296875,0 -0.65625,-0.078125 -0.65625,-0.8125 0,-0.671875 0.296875,-1.421875 0.578125,-2.15625 l 1.734375,-4.609375 c 0.078125,-0.203125 0.25,-0.640625 0.25,-1.125 0,-1.03125 -0.75,-1.96875 -1.96875,-1.96875 -2.265625,0 -3.1875,3.59375 -3.1875,3.78125 0,0.109375 0.09375,0.234375 0.265625,0.234375 0.234375,0 0.25,-0.109375 0.34375,-0.453125 0.609375,-2.078125 1.546875,-3.078125 2.515625,-3.078125 0.21875,0 0.640625,0.03125 0.640625,0.828125 0,0.640625 -0.328125,1.453125 -0.515625,2 L 2.1875,-3 c -0.15625,0.390625 -0.296875,0.796875 -0.296875,1.234375 0,1.125 0.765625,2.015625 1.953125,2.015625 2.28125,0 3.171875,-3.625 3.171875,-3.796875 z M 6.8125,-15.46875 c 0,-0.359375 -0.296875,-0.8125 -0.84375,-0.8125 -0.5625,0 -1.203125,0.546875 -1.203125,1.1875 0,0.625 0.515625,0.8125 0.8125,0.8125 0.671875,0 1.234375,-0.640625 1.234375,-1.1875 z m 0,0"
                 id="path78" />
            </g>
            <g
               id="use51"
               transform="translate(94.92189,16.25)">
              <path
                 style="stroke:none"
                 d="M 6.515625,2.78125 C 5.84375,3.71875 4.875,4.5625 3.671875,4.5625 3.375,4.5625 2.1875,4.515625 1.8125,3.375 1.890625,3.390625 2,3.390625 2.0625,3.390625 2.796875,3.390625 3.296875,2.75 3.296875,2.1875 3.296875,1.609375 2.828125,1.40625 2.453125,1.40625 2.0625,1.40625 1.1875,1.703125 1.1875,2.921875 1.1875,4.1875 2.25,5.0625 3.671875,5.0625 c 2.46875,0 4.984375,-2.28125 5.671875,-5.03125 l 2.421875,-9.671875 c 0.03125,-0.125 0.07813,-0.265625 0.07813,-0.421875 0,-0.375 -0.296875,-0.625 -0.671875,-0.625 -0.21875,0 -0.734375,0.109375 -0.9375,0.84375 l -1.82813,7.296875 c -0.125,0.4375 -0.125,0.484375 -0.328125,0.765625 -0.5,0.6875 -1.3125,1.53125 -2.5,1.53125 C 4.1875,-0.25 4.0625,-1.609375 4.0625,-2.28125 c 0,-1.40625 0.671875,-3.3125 1.34375,-5.109375 0.265625,-0.71875 0.421875,-1.0625 0.421875,-1.5625 0,-1.03125 -0.75,-1.96875 -1.96875,-1.96875 -2.265625,0 -3.1875,3.59375 -3.1875,3.78125 0,0.109375 0.09375,0.234375 0.265625,0.234375 0.234375,0 0.25,-0.109375 0.34375,-0.453125 0.609375,-2.078125 1.546875,-3.078125 2.515625,-3.078125 0.21875,0 0.640625,0 0.640625,0.828125 0,0.640625 -0.28125,1.359375 -0.640625,2.296875 -1.21875,3.25 -1.21875,4.0625 -1.21875,4.65625 0,2.359375 1.6875,2.90625 2.921875,2.90625 0.71875,0 1.609375,-0.21875 2.484375,-1.140625 L 8,-0.875 C 7.625,0.59375 7.390625,1.5625 6.515625,2.78125 Z m 0,0"
                 id="path82" />
            </g>
          </g>
        </g>
      </g>
    </g>
    <path
       style="fill:none;stroke:#000000;stroke-width:0.565;stroke-linecap:butt;stroke-linejoin:miter;stroke-dasharray:none;stroke-opacity:1"
       d="m 49.932358,132.17326 c 3.552416,2.46874 4.583055,5.8171 3.503709,9.90143"
       id="path4134"
       sodipodi:nodetypes="cc" />
    <g
       inkscape:label=""
       transform="translate(57.679866,131.43025)"
       id="g5114">
      <g
         id="g5112"
         transform="matrix(0.352778,0,0,0.352778,-0.347266,0.084711)">
        <g
           clip-path="url(#clipPath3059)"
           clip-rule="nonzero"
           id="g5110">
          <g
             style="fill:#000000;fill-opacity:1"
             id="g5108">
            <g
               id="g5106"
               transform="translate(0,17.212999)">
              <path
                 style="stroke:none"
                 d="m 10.984375,-12.46875 c 0,-2.53125 -0.796875,-4.984375 -2.828125,-4.984375 -3.46875,0 -7.171875,7.265625 -7.171875,12.71875 0,1.140625 0.25,4.984375 2.859375,4.984375 3.375,0 7.140625,-7.09375 7.140625,-12.71875 z m -7.515625,3.5 c 0.375,-1.46875 0.890625,-3.546875 1.890625,-5.3125 0.8125,-1.484375 1.671875,-2.671875 2.765625,-2.671875 0.828125,0 1.359375,0.703125 1.359375,3.078125 0,0.890625 -0.0625,2.125 -0.78125,4.90625 z m 5.0625,0.734375 c -0.625,2.4375 -1.140625,4 -2.03125,5.5625 C 5.78125,-1.40625 4.90625,-0.25 3.859375,-0.25 c -0.765625,0 -1.375,-0.59375 -1.375,-3.046875 0,-1.609375 0.390625,-3.296875 0.78125,-4.9375 z m 0,0"
                 id="path5104" />
            </g>
          </g>
        </g>
      </g>
    </g>
    <g
       inkscape:label=""
       transform="translate(65.196997,109.50414)"
       id="g6125">
      <g
         id="surface1"
         transform="matrix(0.352778,0,0,0.352778,-0.237023,0.0881504)">
        <g
           clip-path="url(#clipPath4234)"
           clip-rule="nonzero"
           id="g6122">
          <g
             style="fill:#000000;fill-opacity:1"
             id="g6120">
            <g
               id="g6118"
               transform="translate(0,10.672)">
              <path
                 style="stroke:none"
                 d="m 9.640625,-10.140625 c -0.765625,0.15625 -1.171875,0.703125 -1.171875,1.25 0,0.59375 0.484375,0.78125 0.828125,0.78125 0.6875,0 1.265625,-0.59375 1.265625,-1.328125 0,-0.796875 -0.78125,-1.484375 -2.015625,-1.484375 -0.984375,0 -2.125,0.4375 -3.171875,1.953125 -0.171875,-1.3125 -1.15625,-1.953125 -2.15625,-1.953125 -0.96875,0 -1.453125,0.734375 -1.75,1.28125 -0.421875,0.890625 -0.796875,2.375 -0.796875,2.5 0,0.109375 0.09375,0.234375 0.265625,0.234375 0.203125,0 0.234375,-0.03125 0.375,-0.609375 C 1.6875,-9 2.15625,-10.4375 3.140625,-10.4375 c 0.59375,0 0.78125,0.421875 0.78125,1.140625 0,0.546875 -0.25,1.515625 -0.421875,2.28125 L 2.796875,-4.34375 c -0.09375,0.484375 -0.375,1.59375 -0.5,2.046875 C 2.125,-1.65625 1.859375,-0.5 1.859375,-0.375 1.859375,-0.03125 2.125,0.25 2.5,0.25 2.78125,0.25 3.25,0.078125 3.390625,-0.421875 3.46875,-0.625 4.390625,-4.359375 4.53125,-4.9375 4.65625,-5.484375 4.8125,-6 4.9375,-6.546875 c 0.09375,-0.34375 0.1875,-0.734375 0.265625,-1.0625 0.078125,-0.21875 0.75,-1.4375 1.359375,-1.984375 0.296875,-0.265625 0.953125,-0.84375 1.96875,-0.84375 0.390625,0 0.78125,0.07813 1.109375,0.296875 z m 0,0"
                 id="path6116" />
            </g>
          </g>
        </g>
      </g>
    </g>
    <g
       inkscape:label=""
       transform="translate(106.52657,94.256906)"
       id="g7812">
      <g
         id="g7810"
         transform="matrix(0.352778,0,0,0.352778,-0.788238,-0.00194056)">
        <g
           clip-path="url(#clipPath6132)"
           clip-rule="nonzero"
           id="g37">
          <g
             style="fill:#000000;fill-opacity:1"
             id="g7787">
            <g
               id="g7785"
               transform="translate(0,18.568001)">
              <path
                 style="stroke:none"
                 d="m 7.578125,6.046875 c 0,-0.03125 0,-0.078125 -0.0625,-0.15625 -1.140625,-1.15625 -4.1875,-4.328125 -4.1875,-12.0625 0,-7.734375 2.984375,-10.875 4.203125,-12.109375 0,-0.03125 0.046875,-0.07813 0.046875,-0.15625 0,-0.07813 -0.0625,-0.125 -0.171875,-0.125 -0.265625,0 -2.375,1.828125 -3.59375,4.5625 -1.234375,2.75 -1.578125,5.421875 -1.578125,7.8125 0,1.78125 0.171875,4.796875 1.65625,8 1.1875,2.578125 3.21875,4.375 3.515625,4.375 0.125,0 0.171875,-0.046875 0.171875,-0.140625 z m 0,0"
                 id="path60" />
            </g>
          </g>
        </g>
        <g
           style="fill:#000000;fill-opacity:1"
           id="g7796">
          <g
             id="g7791"
             transform="translate(8.7779999,18.568001)">
            <path
               style="stroke:none"
               d="m 11.75,-10.109375 c -0.796875,0.140625 -1.09375,0.734375 -1.09375,1.21875 0,0.59375 0.46875,0.78125 0.8125,0.78125 0.75,0 1.265625,-0.640625 1.265625,-1.3125 0,-1.03125 -1.1875,-1.5 -2.234375,-1.5 -1.5,0 -2.34375,1.484375 -2.5625,1.953125 -0.578125,-1.859375 -2.109375,-1.953125 -2.5625,-1.953125 -2.53125,0 -3.859375,3.234375 -3.859375,3.78125 0,0.109375 0.09375,0.234375 0.265625,0.234375 0.203125,0 0.25,-0.15625 0.296875,-0.25 0.84375,-2.75 2.5,-3.28125 3.21875,-3.28125 1.125,0 1.34375,1.046875 1.34375,1.640625 C 6.640625,-8.25 6.5,-7.6875 6.1875,-6.5 l -0.828125,3.40625 c -0.375,1.484375 -1.09375,2.84375 -2.40625,2.84375 -0.125,0 -0.75,0 -1.265625,-0.3125 0.890625,-0.1875 1.09375,-0.921875 1.09375,-1.21875 0,-0.5 -0.375,-0.796875 -0.84375,-0.796875 -0.59375,0 -1.25,0.515625 -1.25,1.3125 0,1.046875 1.171875,1.515625 2.234375,1.515625 1.1875,0 2.03125,-0.9375 2.5625,-1.953125 C 5.875,-0.25 7.109375,0.25 8.03125,0.25 c 2.53125,0 3.859375,-3.25 3.859375,-3.796875 0,-0.125 -0.09375,-0.21875 -0.25,-0.21875 -0.21875,0 -0.234375,0.125 -0.3125,0.328125 -0.671875,2.171875 -2.109375,3.1875 -3.21875,3.1875 -0.875,0 -1.34375,-0.640625 -1.34375,-1.65625 0,-0.546875 0.09375,-0.9375 0.5,-2.578125 L 8.125,-7.859375 C 8.5,-9.34375 9.34375,-10.4375 10.484375,-10.4375 c 0.04687,0 0.734375,0 1.265625,0.328125 z m 0,0"
               id="path64" />
          </g>
          <g
             id="g7794"
             transform="translate(22.569542,18.568001)">
            <path
               style="stroke:none"
               d="m 4.828125,0.09375 c 0,-1.4375 -0.46875,-2.5 -1.484375,-2.5 -0.796875,0 -1.1875,0.640625 -1.1875,1.1875 C 2.15625,-0.671875 2.53125,0 3.375,0 3.6875,0 3.96875,-0.09375 4.1875,-0.328125 4.234375,-0.375 4.265625,-0.375 4.28125,-0.375 c 0.0625,0 0.0625,0.34375 0.0625,0.46875 0,0.828125 -0.15625,2.4375 -1.59375,4.046875 C 2.484375,4.4375 2.484375,4.484375 2.484375,4.53125 c 0,0.125 0.125,0.25 0.234375,0.25 0.203125,0 2.109375,-1.828125 2.109375,-4.6875 z m 0,0"
               id="path68" />
          </g>
        </g>
        <g
           style="fill:#000000;fill-opacity:1"
           id="g7801">
          <g
             id="g7799"
             transform="translate(33.45108,18.568001)">
            <path
               style="stroke:none"
               d="M 6.515625,2.78125 C 5.84375,3.71875 4.875,4.5625 3.671875,4.5625 3.375,4.5625 2.1875,4.515625 1.8125,3.375 1.890625,3.390625 2,3.390625 2.0625,3.390625 2.796875,3.390625 3.296875,2.75 3.296875,2.1875 3.296875,1.609375 2.828125,1.40625 2.453125,1.40625 2.0625,1.40625 1.1875,1.703125 1.1875,2.921875 1.1875,4.1875 2.25,5.0625 3.671875,5.0625 c 2.46875,0 4.984375,-2.28125 5.671875,-5.03125 l 2.421875,-9.671875 c 0.03125,-0.125 0.07813,-0.265625 0.07813,-0.421875 0,-0.375 -0.296875,-0.625 -0.671875,-0.625 -0.21875,0 -0.734375,0.109375 -0.9375,0.84375 l -1.82813,7.296875 c -0.125,0.4375 -0.125,0.484375 -0.328125,0.765625 -0.5,0.6875 -1.3125,1.53125 -2.5,1.53125 C 4.1875,-0.25 4.0625,-1.609375 4.0625,-2.28125 c 0,-1.40625 0.671875,-3.3125 1.34375,-5.109375 0.265625,-0.71875 0.421875,-1.0625 0.421875,-1.5625 0,-1.03125 -0.75,-1.96875 -1.96875,-1.96875 -2.265625,0 -3.1875,3.59375 -3.1875,3.78125 0,0.109375 0.09375,0.234375 0.265625,0.234375 0.234375,0 0.25,-0.109375 0.34375,-0.453125 0.609375,-2.078125 1.546875,-3.078125 2.515625,-3.078125 0.21875,0 0.640625,0 0.640625,0.828125 0,0.640625 -0.28125,1.359375 -0.640625,2.296875 -1.21875,3.25 -1.21875,4.0625 -1.21875,4.65625 0,2.359375 1.6875,2.90625 2.921875,2.90625 0.71875,0 1.609375,-0.21875 2.484375,-1.140625 L 8,-0.875 C 7.625,0.59375 7.390625,1.5625 6.515625,2.78125 Z m 0,0"
               id="path72" />
          </g>
        </g>
        <g
           clip-path="url(#clipPath9063)"
           clip-rule="nonzero"
           id="g7808">
          <g
             style="fill:#000000;fill-opacity:1"
             id="g7806">
            <g
               id="g7804"
               transform="translate(46.166,18.568001)">
              <path
                 style="stroke:none"
                 d="m 6.515625,-6.171875 c 0,-1.78125 -0.171875,-4.8125 -1.65625,-8 C 3.671875,-16.75 1.640625,-18.5625 1.34375,-18.5625 c -0.078125,0 -0.171875,0.03125 -0.171875,0.15625 0,0.04687 0.015625,0.0625 0.046875,0.125 1.1875,1.234375 4.203125,4.375 4.203125,12.09375 0,7.71875 -3,10.875 -4.203125,12.109375 C 1.1875,5.96875 1.171875,6 1.171875,6.046875 c 0,0.125 0.09375,0.140625 0.171875,0.140625 0.265625,0 2.375,-1.828125 3.59375,-4.546875 1.234375,-2.75 1.578125,-5.4375 1.578125,-7.8125 z m 0,0"
                 id="path76" />
            </g>
          </g>
        </g>
      </g>
    </g>
    <g
       inkscape:label=""
       transform="translate(89.093338,116.91468)"
       id="g8961">
      <g
         id="g8959"
         transform="matrix(0.352778,0,0,0.352778,-0.237023,0.0881504)">
        <g
           clip-path="url(#clipPath3776)"
           clip-rule="nonzero"
           id="g8957">
          <g
             style="fill:#000000;fill-opacity:1"
             id="g8955">
            <g
               id="g8953"
               transform="translate(0,10.672)">
              <path
                 style="stroke:none"
                 d="M 6.515625,2.78125 C 5.84375,3.71875 4.875,4.5625 3.671875,4.5625 3.375,4.5625 2.1875,4.515625 1.8125,3.375 1.890625,3.390625 2,3.390625 2.0625,3.390625 2.796875,3.390625 3.296875,2.75 3.296875,2.1875 3.296875,1.609375 2.828125,1.40625 2.453125,1.40625 2.0625,1.40625 1.1875,1.703125 1.1875,2.921875 1.1875,4.1875 2.25,5.0625 3.671875,5.0625 c 2.46875,0 4.984375,-2.28125 5.671875,-5.03125 l 2.421875,-9.671875 c 0.03125,-0.125 0.07813,-0.265625 0.07813,-0.421875 0,-0.375 -0.296875,-0.625 -0.671875,-0.625 -0.21875,0 -0.734375,0.109375 -0.9375,0.84375 l -1.82813,7.296875 c -0.125,0.4375 -0.125,0.484375 -0.328125,0.765625 -0.5,0.6875 -1.3125,1.53125 -2.5,1.53125 C 4.1875,-0.25 4.0625,-1.609375 4.0625,-2.28125 c 0,-1.40625 0.671875,-3.3125 1.34375,-5.109375 0.265625,-0.71875 0.421875,-1.0625 0.421875,-1.5625 0,-1.03125 -0.75,-1.96875 -1.96875,-1.96875 -2.265625,0 -3.1875,3.59375 -3.1875,3.78125 0,0.109375 0.09375,0.234375 0.265625,0.234375 0.234375,0 0.25,-0.109375 0.34375,-0.453125 0.609375,-2.078125 1.546875,-3.078125 2.515625,-3.078125 0.21875,0 0.640625,0 0.640625,0.828125 0,0.640625 -0.28125,1.359375 -0.640625,2.296875 -1.21875,3.25 -1.21875,4.0625 -1.21875,4.65625 0,2.359375 1.6875,2.90625 2.921875,2.90625 0.71875,0 1.609375,-0.21875 2.484375,-1.140625 L 8,-0.875 C 7.625,0.59375 7.390625,1.5625 6.515625,2.78125 Z m 0,0"
                 id="path8951" />
            </g>
          </g>
        </g>
      </g>
    </g>
    <g
       inkscape:label=""
       transform="translate(68.046971,144.79518)"
       id="g8979">
      <g
         id="g8977"
         transform="matrix(0.352778,0,0,0.352778,-0.242535,0.0881504)">
        <g
           clip-path="url(#clipPath4853)"
           clip-rule="nonzero"
           id="g8975">
          <g
             style="fill:#000000;fill-opacity:1"
             id="g8973">
            <g
               id="g8971"
               transform="translate(0,10.672)">
              <path
                 style="stroke:none"
                 d="m 11.75,-10.109375 c -0.796875,0.140625 -1.09375,0.734375 -1.09375,1.21875 0,0.59375 0.46875,0.78125 0.8125,0.78125 0.75,0 1.265625,-0.640625 1.265625,-1.3125 0,-1.03125 -1.1875,-1.5 -2.234375,-1.5 -1.5,0 -2.34375,1.484375 -2.5625,1.953125 -0.578125,-1.859375 -2.109375,-1.953125 -2.5625,-1.953125 -2.53125,0 -3.859375,3.234375 -3.859375,3.78125 0,0.109375 0.09375,0.234375 0.265625,0.234375 0.203125,0 0.25,-0.15625 0.296875,-0.25 0.84375,-2.75 2.5,-3.28125 3.21875,-3.28125 1.125,0 1.34375,1.046875 1.34375,1.640625 C 6.640625,-8.25 6.5,-7.6875 6.1875,-6.5 l -0.828125,3.40625 c -0.375,1.484375 -1.09375,2.84375 -2.40625,2.84375 -0.125,0 -0.75,0 -1.265625,-0.3125 0.890625,-0.1875 1.09375,-0.921875 1.09375,-1.21875 0,-0.5 -0.375,-0.796875 -0.84375,-0.796875 -0.59375,0 -1.25,0.515625 -1.25,1.3125 0,1.046875 1.171875,1.515625 2.234375,1.515625 1.1875,0 2.03125,-0.9375 2.5625,-1.953125 C 5.875,-0.25 7.109375,0.25 8.03125,0.25 c 2.53125,0 3.859375,-3.25 3.859375,-3.796875 0,-0.125 -0.09375,-0.21875 -0.25,-0.21875 -0.21875,0 -0.234375,0.125 -0.3125,0.328125 -0.671875,2.171875 -2.109375,3.1875 -3.21875,3.1875 -0.875,0 -1.34375,-0.640625 -1.34375,-1.65625 0,-0.546875 0.09375,-0.9375 0.5,-2.578125 L 8.125,-7.859375 C 8.5,-9.34375 9.34375,-10.4375 10.484375,-10.4375 c 0.04687,0 0.734375,0 1.265625,0.328125 z m 0,0"
                 id="path8969" />
            </g>
          </g>
        </g>
      </g>
    </g>
    <text
       xml:space="preserve"
       style="font-size:8.46667px;line-height:1.25;font-family:'Iwona Light';-inkscape-font-specification:'Iwona Light, ';stroke-width:0.264583"
       x="90.643723"
       y="153.80482"
       id="text10050"><tspan
         sodipodi:role="line"
         id="tspan10048"
         style="font-size:8.46667px;stroke-width:0.264583"
         x="90.643723"
         y="153.80482">Eje real</tspan></text>
    <text
       xml:space="preserve"
       style="font-size:8.46667px;line-height:1.25;font-family:'Iwona Light';-inkscape-font-specification:'Iwona Light, ';stroke-width:0.264583"
       x="-126.62047"
       y="33.809109"
       id="text10104"
       transform="rotate(-90)"><tspan
         sodipodi:role="line"
         id="tspan10102"
         style="font-size:8.46667px;stroke-width:0.264583"
         x="-126.62047"
         y="33.809109">Eje imaginario</tspan></text>
    <text
       xml:space="preserve"
       style="font-size:8.46667px;line-height:1.25;font-family:'Iwona Light';-inkscape-font-specification:'Iwona Light, ';stroke-width:0.264583"
       x="108.28439"
       y="62.756248"
       id="text10199"><tspan
         sodipodi:role="line"
         id="tspan10197"
         style="font-size:8.46667px;stroke-width:0.264583"
         x="108.28439"
         y="62.756248"><tspan
           style="font-style:normal;font-variant:normal;font-weight:normal;font-stretch:normal;font-family:'Iwona Medium';-inkscape-font-specification:'Iwona Medium, '"
           id="tspan10201">Diagrama de Argand</tspan></tspan></text>
    <g
       inkscape:label=""
       transform="translate(54.638104,75.89864)"
       id="g2814">
      <g
         id="g2812"
         transform="matrix(0.352778,0,0,0.352778,-0.788238,-0.00194056)">
        <g
           clip-path="url(#clipPath3248)"
           clip-rule="nonzero"
           id="g2757">
          <g
             style="fill:#000000;fill-opacity:1"
             id="g59">
            <g
               id="g2754"
               transform="translate(0,18.568001)">
              <path
                 style="stroke:none"
                 d="m 7.578125,6.046875 c 0,-0.03125 0,-0.078125 -0.0625,-0.15625 -1.140625,-1.15625 -4.1875,-4.328125 -4.1875,-12.0625 0,-7.734375 2.984375,-10.875 4.203125,-12.109375 0,-0.03125 0.046875,-0.07813 0.046875,-0.15625 0,-0.07813 -0.0625,-0.125 -0.171875,-0.125 -0.265625,0 -2.375,1.828125 -3.59375,4.5625 -1.234375,2.75 -1.578125,5.421875 -1.578125,7.8125 0,1.78125 0.171875,4.796875 1.65625,8 1.1875,2.578125 3.21875,4.375 3.515625,4.375 0.125,0 0.171875,-0.046875 0.171875,-0.140625 z m 0,0"
                 id="path126" />
            </g>
          </g>
        </g>
        <g
           style="fill:#000000;fill-opacity:1"
           id="g2762">
          <g
             id="g2760"
             transform="translate(8.7779999,18.568001)">
            <path
               style="stroke:none"
               d="m 9.640625,-10.140625 c -0.765625,0.15625 -1.171875,0.703125 -1.171875,1.25 0,0.59375 0.484375,0.78125 0.828125,0.78125 0.6875,0 1.265625,-0.59375 1.265625,-1.328125 0,-0.796875 -0.78125,-1.484375 -2.015625,-1.484375 -0.984375,0 -2.125,0.4375 -3.171875,1.953125 -0.171875,-1.3125 -1.15625,-1.953125 -2.15625,-1.953125 -0.96875,0 -1.453125,0.734375 -1.75,1.28125 -0.421875,0.890625 -0.796875,2.375 -0.796875,2.5 0,0.109375 0.09375,0.234375 0.265625,0.234375 0.203125,0 0.234375,-0.03125 0.375,-0.609375 C 1.6875,-9 2.15625,-10.4375 3.140625,-10.4375 c 0.59375,0 0.78125,0.421875 0.78125,1.140625 0,0.546875 -0.25,1.515625 -0.421875,2.28125 L 2.796875,-4.34375 c -0.09375,0.484375 -0.375,1.59375 -0.5,2.046875 C 2.125,-1.65625 1.859375,-0.5 1.859375,-0.375 1.859375,-0.03125 2.125,0.25 2.5,0.25 2.78125,0.25 3.25,0.078125 3.390625,-0.421875 3.46875,-0.625 4.390625,-4.359375 4.53125,-4.9375 4.65625,-5.484375 4.8125,-6 4.9375,-6.546875 c 0.09375,-0.34375 0.1875,-0.734375 0.265625,-1.0625 0.078125,-0.21875 0.75,-1.4375 1.359375,-1.984375 0.296875,-0.265625 0.953125,-0.84375 1.96875,-0.84375 0.390625,0 0.78125,0.07813 1.109375,0.296875 z m 0,0"
               id="path130" />
          </g>
        </g>
        <g
           style="fill:#000000;fill-opacity:1"
           id="g2767">
          <g
             id="g2765"
             transform="translate(19.047297,18.568001)">
            <path
               style="stroke:none"
               d="m 4.828125,0.09375 c 0,-1.4375 -0.46875,-2.5 -1.484375,-2.5 -0.796875,0 -1.1875,0.640625 -1.1875,1.1875 C 2.15625,-0.671875 2.53125,0 3.375,0 3.6875,0 3.96875,-0.09375 4.1875,-0.328125 4.234375,-0.375 4.265625,-0.375 4.28125,-0.375 c 0.0625,0 0.0625,0.34375 0.0625,0.46875 0,0.828125 -0.15625,2.4375 -1.59375,4.046875 C 2.484375,4.4375 2.484375,4.484375 2.484375,4.53125 c 0,0.125 0.125,0.25 0.234375,0.25 0.203125,0 2.109375,-1.828125 2.109375,-4.6875 z m 0,0"
               id="path134" />
          </g>
        </g>
        <g
           style="fill:#000000;fill-opacity:1"
           id="g2772">
          <g
             id="g2770"
             transform="translate(29.904045,18.568001)">
            <path
               style="stroke:none"
               d="m 10.984375,-12.46875 c 0,-2.53125 -0.796875,-4.984375 -2.828125,-4.984375 -3.46875,0 -7.171875,7.265625 -7.171875,12.71875 0,1.140625 0.25,4.984375 2.859375,4.984375 3.375,0 7.140625,-7.09375 7.140625,-12.71875 z m -7.515625,3.5 c 0.375,-1.46875 0.890625,-3.546875 1.890625,-5.3125 0.8125,-1.484375 1.671875,-2.671875 2.765625,-2.671875 0.828125,0 1.359375,0.703125 1.359375,3.078125 0,0.890625 -0.0625,2.125 -0.78125,4.90625 z m 5.0625,0.734375 c -0.625,2.4375 -1.140625,4 -2.03125,5.5625 C 5.78125,-1.40625 4.90625,-0.25 3.859375,-0.25 c -0.765625,0 -1.375,-0.59375 -1.375,-3.046875 0,-1.609375 0.390625,-3.296875 0.78125,-4.9375 z m 0,0"
               id="path138" />
          </g>
        </g>
        <g
           clip-path="url(#clipPath2465)"
           clip-rule="nonzero"
           id="g79">
          <g
             style="fill:#000000;fill-opacity:1"
             id="g2777">
            <g
               id="g2775"
               transform="translate(41.898998,18.568001)">
              <path
                 style="stroke:none"
                 d="m 6.515625,-6.171875 c 0,-1.78125 -0.171875,-4.8125 -1.65625,-8 C 3.671875,-16.75 1.640625,-18.5625 1.34375,-18.5625 c -0.078125,0 -0.171875,0.03125 -0.171875,0.15625 0,0.04687 0.015625,0.0625 0.046875,0.125 1.1875,1.234375 4.203125,4.375 4.203125,12.09375 0,7.71875 -3,10.875 -4.203125,12.109375 C 1.1875,5.96875 1.171875,6 1.171875,6.046875 c 0,0.125 0.09375,0.140625 0.171875,0.140625 0.265625,0 2.375,-1.828125 3.59375,-4.546875 1.234375,-2.75 1.578125,-5.4375 1.578125,-7.8125 z m 0,0"
                 id="path142" />
            </g>
          </g>
        </g>
        <g
           style="fill:#000000;fill-opacity:1"
           id="g83">
          <g
             id="use81"
             transform="translate(57.566925,18.568001)">
            <path
               style="stroke:none"
               d="m 15.9375,-7.953125 c 0.375,0 0.734375,0 0.734375,-0.421875 0,-0.453125 -0.421875,-0.453125 -0.84375,-0.453125 H 1.984375 c -0.421875,0 -0.84375,0 -0.84375,0.453125 0,0.421875 0.375,0.421875 0.75,0.421875 z m -0.109375,4.40625 c 0.421875,0 0.84375,0 0.84375,-0.4375 0,-0.421875 -0.359375,-0.421875 -0.734375,-0.421875 H 1.890625 c -0.375,0 -0.75,0 -0.75,0.421875 0,0.4375 0.421875,0.4375 0.84375,0.4375 z m 0,0"
               id="path146" />
          </g>
        </g>
        <g
           style="fill:#000000;fill-opacity:1"
           id="g87">
          <g
             id="use85"
             transform="translate(82.290001,18.568001)">
            <path
               style="stroke:none"
               d="m 9.640625,-10.140625 c -0.765625,0.15625 -1.171875,0.703125 -1.171875,1.25 0,0.59375 0.484375,0.78125 0.828125,0.78125 0.6875,0 1.265625,-0.59375 1.265625,-1.328125 0,-0.796875 -0.78125,-1.484375 -2.015625,-1.484375 -0.984375,0 -2.125,0.4375 -3.171875,1.953125 -0.171875,-1.3125 -1.15625,-1.953125 -2.15625,-1.953125 -0.96875,0 -1.453125,0.734375 -1.75,1.28125 -0.421875,0.890625 -0.796875,2.375 -0.796875,2.5 0,0.109375 0.09375,0.234375 0.265625,0.234375 0.203125,0 0.234375,-0.03125 0.375,-0.609375 C 1.6875,-9 2.15625,-10.4375 3.140625,-10.4375 c 0.59375,0 0.78125,0.421875 0.78125,1.140625 0,0.546875 -0.25,1.515625 -0.421875,2.28125 L 2.796875,-4.34375 c -0.09375,0.484375 -0.375,1.59375 -0.5,2.046875 C 2.125,-1.65625 1.859375,-0.5 1.859375,-0.375 1.859375,-0.03125 2.125,0.25 2.5,0.25 2.78125,0.25 3.25,0.078125 3.390625,-0.421875 3.46875,-0.625 4.390625,-4.359375 4.53125,-4.9375 4.65625,-5.484375 4.8125,-6 4.9375,-6.546875 c 0.09375,-0.34375 0.1875,-0.734375 0.265625,-1.0625 0.078125,-0.21875 0.75,-1.4375 1.359375,-1.984375 0.296875,-0.265625 0.953125,-0.84375 1.96875,-0.84375 0.390625,0 0.78125,0.07813 1.109375,0.296875 z m 0,0"
               id="path150" />
          </g>
        </g>
        <g
           style="fill:#000000;fill-opacity:1"
           id="g95">
          <g
             id="use89"
             transform="translate(98.031998,18.568001)">
            <path
               style="stroke:none"
               d="m 8.65625,-8.671875 c -0.484375,0 -1.171875,0 -1.171875,0.859375 0,0.703125 0.5625,0.90625 0.890625,0.90625 0.171875,0 0.890625,-0.078125 0.890625,-0.953125 0,-1.75 -1.6875,-3.09375 -3.59375,-3.09375 -2.625,0 -4.859375,2.421875 -4.859375,5.59375 0,3.296875 2.328125,5.5625 4.859375,5.5625 3.078125,0 3.84375,-2.859375 3.84375,-3.125 0,-0.09375 -0.03125,-0.171875 -0.203125,-0.171875 -0.171875,0 -0.1875,0.015625 -0.296875,0.34375 -0.640625,2 -2.046875,2.5 -3.125,2.5 -1.578125,0 -3.484375,-1.453125 -3.484375,-5.125 0,-3.765625 1.828125,-5.125 3.296875,-5.125 0.96875,0 2.40625,0.46875 2.953125,1.828125 z m 0,0"
               id="path154" />
          </g>
          <g
             id="use91"
             transform="translate(108.10548,18.568001)">
            <path
               style="stroke:none"
               d="m 10.6875,-5.296875 c 0,-3.171875 -2.3125,-5.65625 -5.015625,-5.65625 -2.703125,0 -5,2.484375 -5,5.65625 0,3.109375 2.296875,5.5 5,5.5 2.703125,0 5.015625,-2.390625 5.015625,-5.5 z M 5.671875,-0.25 c -1.15625,0 -2.15625,-0.6875 -2.71875,-1.65625 C 2.328125,-3.015625 2.25,-4.40625 2.25,-5.5 c 0,-1.046875 0.046875,-2.328125 0.703125,-3.453125 0.484375,-0.8125 1.453125,-1.609375 2.71875,-1.609375 1.125,0 2.0625,0.625 2.65625,1.5 0.765625,1.15625 0.765625,2.796875 0.765625,3.5625 0,0.96875 -0.046875,2.453125 -0.71875,3.640625 C 7.6875,-0.71875 6.609375,-0.25 5.671875,-0.25 Z m 0,0"
               id="path158" />
          </g>
          <g
             id="use93"
             transform="translate(119.47284,18.568001)">
            <path
               style="stroke:none"
               d="m 7.65625,-10.453125 c 0,-0.453125 -0.03125,-0.46875 -0.171875,-0.46875 -0.09375,0 -0.125,0.01563 -0.421875,0.390625 -0.078125,0.09375 -0.296875,0.34375 -0.375,0.4375 -0.796875,-0.828125 -1.90625,-0.859375 -2.328125,-0.859375 -2.75,0 -3.734375,1.4375 -3.734375,2.875 0,2.234375 2.515625,2.75 3.234375,2.90625 1.5625,0.3125 2.109375,0.40625 2.640625,0.859375 0.3125,0.296875 0.859375,0.84375 0.859375,1.734375 0,1.046875 -0.59375,2.375 -2.875,2.375 -2.15625,0 -2.921875,-1.625 -3.375,-3.8125 -0.0625,-0.34375 -0.0625,-0.375 -0.265625,-0.375 -0.203125,0 -0.21875,0.03125 -0.21875,0.53125 v 3.5625 c 0,0.453125 0.015625,0.46875 0.171875,0.46875 0.125,0 0.140625,-0.015625 0.265625,-0.21875 0.15625,-0.21875 0.53125,-0.828125 0.671875,-1.0625 0.5,0.65625 1.359375,1.3125 2.75,1.3125 C 6.9375,0.203125 8.25,-1.140625 8.25,-3.078125 8.25,-4.34375 7.578125,-5 7.265625,-5.296875 6.515625,-6.078125 5.65625,-6.25 4.609375,-6.4375 3.25,-6.734375 1.515625,-7.09375 1.515625,-8.59375 c 0,-0.65625 0.34375,-2.015625 2.84375,-2.015625 2.65625,0 2.796875,2.484375 2.859375,3.28125 0.015625,0.109375 0.140625,0.140625 0.21875,0.140625 0.21875,0 0.21875,-0.078125 0.21875,-0.5 z m 0,0"
               id="path162" />
          </g>
        </g>
        <g
           style="fill:#000000;fill-opacity:1"
           id="g99">
          <g
             id="use97"
             transform="translate(132.51199,18.568001)">
            <path
               style="stroke:none"
               d="m 10.984375,-12.46875 c 0,-2.53125 -0.796875,-4.984375 -2.828125,-4.984375 -3.46875,0 -7.171875,7.265625 -7.171875,12.71875 0,1.140625 0.25,4.984375 2.859375,4.984375 3.375,0 7.140625,-7.09375 7.140625,-12.71875 z m -7.515625,3.5 c 0.375,-1.46875 0.890625,-3.546875 1.890625,-5.3125 0.8125,-1.484375 1.671875,-2.671875 2.765625,-2.671875 0.828125,0 1.359375,0.703125 1.359375,3.078125 0,0.890625 -0.0625,2.125 -0.78125,4.90625 z m 5.0625,0.734375 c -0.625,2.4375 -1.140625,4 -2.03125,5.5625 C 5.78125,-1.40625 4.90625,-0.25 3.859375,-0.25 c -0.765625,0 -1.375,-0.59375 -1.375,-3.046875 0,-1.609375 0.390625,-3.296875 0.78125,-4.9375 z m 0,0"
               id="path166" />
          </g>
        </g>
        <g
           style="fill:#000000;fill-opacity:1"
           id="g103">
          <g
             id="use101"
             transform="translate(150.004,18.568001)">
            <path
               style="stroke:none"
               d="m 9.34375,-5.75 h 6.5625 c 0.34375,0 0.765625,0 0.765625,-0.421875 0,-0.4375 -0.390625,-0.4375 -0.765625,-0.4375 H 9.34375 V -13.1875 c 0,-0.34375 0,-0.765625 -0.421875,-0.765625 -0.453125,0 -0.453125,0.390625 -0.453125,0.765625 v 6.578125 h -6.5625 c -0.34375,0 -0.765625,0 -0.765625,0.421875 0,0.4375 0.390625,0.4375 0.765625,0.4375 h 6.5625 v 6.5625 c 0,0.359375 0,0.78125 0.421875,0.78125 0.453125,0 0.453125,-0.40625 0.453125,-0.78125 z m 0,0"
               id="path170" />
          </g>
        </g>
        <g
           style="fill:#000000;fill-opacity:1"
           id="g107">
          <g
             id="use105"
             transform="translate(173.355,18.568001)">
            <path
               style="stroke:none"
               d="m 7.015625,-3.546875 c 0,-0.125 -0.109375,-0.21875 -0.25,-0.21875 -0.21875,0 -0.25,0.078125 -0.375,0.5 C 5.75,-1.015625 4.734375,-0.25 3.921875,-0.25 c -0.296875,0 -0.65625,-0.078125 -0.65625,-0.8125 0,-0.671875 0.296875,-1.421875 0.578125,-2.15625 l 1.734375,-4.609375 c 0.078125,-0.203125 0.25,-0.640625 0.25,-1.125 0,-1.03125 -0.75,-1.96875 -1.96875,-1.96875 -2.265625,0 -3.1875,3.59375 -3.1875,3.78125 0,0.109375 0.09375,0.234375 0.265625,0.234375 0.234375,0 0.25,-0.109375 0.34375,-0.453125 0.609375,-2.078125 1.546875,-3.078125 2.515625,-3.078125 0.21875,0 0.640625,0.03125 0.640625,0.828125 0,0.640625 -0.328125,1.453125 -0.515625,2 L 2.1875,-3 c -0.15625,0.390625 -0.296875,0.796875 -0.296875,1.234375 0,1.125 0.765625,2.015625 1.953125,2.015625 2.28125,0 3.171875,-3.625 3.171875,-3.796875 z M 6.8125,-15.46875 c 0,-0.359375 -0.296875,-0.8125 -0.84375,-0.8125 -0.5625,0 -1.203125,0.546875 -1.203125,1.1875 0,0.625 0.515625,0.8125 0.8125,0.8125 0.671875,0 1.234375,-0.640625 1.234375,-1.1875 z m 0,0"
               id="path174" />
          </g>
        </g>
        <g
           style="fill:#000000;fill-opacity:1"
           id="g115">
          <g
             id="use109"
             transform="translate(189.118,18.568001)">
            <path
               style="stroke:none"
               d="m 7.65625,-10.453125 c 0,-0.453125 -0.03125,-0.46875 -0.171875,-0.46875 -0.09375,0 -0.125,0.01563 -0.421875,0.390625 -0.078125,0.09375 -0.296875,0.34375 -0.375,0.4375 -0.796875,-0.828125 -1.90625,-0.859375 -2.328125,-0.859375 -2.75,0 -3.734375,1.4375 -3.734375,2.875 0,2.234375 2.515625,2.75 3.234375,2.90625 1.5625,0.3125 2.109375,0.40625 2.640625,0.859375 0.3125,0.296875 0.859375,0.84375 0.859375,1.734375 0,1.046875 -0.59375,2.375 -2.875,2.375 -2.15625,0 -2.921875,-1.625 -3.375,-3.8125 -0.0625,-0.34375 -0.0625,-0.375 -0.265625,-0.375 -0.203125,0 -0.21875,0.03125 -0.21875,0.53125 v 3.5625 c 0,0.453125 0.015625,0.46875 0.171875,0.46875 0.125,0 0.140625,-0.015625 0.265625,-0.21875 0.15625,-0.21875 0.53125,-0.828125 0.671875,-1.0625 0.5,0.65625 1.359375,1.3125 2.75,1.3125 C 6.9375,0.203125 8.25,-1.140625 8.25,-3.078125 8.25,-4.34375 7.578125,-5 7.265625,-5.296875 6.515625,-6.078125 5.65625,-6.25 4.609375,-6.4375 3.25,-6.734375 1.515625,-7.09375 1.515625,-8.59375 c 0,-0.65625 0.34375,-2.015625 2.84375,-2.015625 2.65625,0 2.796875,2.484375 2.859375,3.28125 0.015625,0.109375 0.140625,0.140625 0.21875,0.140625 0.21875,0 0.21875,-0.078125 0.21875,-0.5 z m 0,0"
               id="path178" />
          </g>
          <g
             id="use111"
             transform="translate(198.02649,18.568001)">
            <path
               style="stroke:none"
               d="m 9.4375,-5.828125 c 0.109375,-0.09375 0.109375,-0.140625 0.109375,-0.390625 0,-2.53125 -1.34375,-4.734375 -4.171875,-4.734375 -2.625,0 -4.703125,2.5 -4.703125,5.546875 0,3.21875 2.34375,5.609375 4.984375,5.609375 2.765625,0 3.859375,-2.625 3.859375,-3.15625 C 9.515625,-3.125 9.375,-3.125 9.3125,-3.125 9.140625,-3.125 9.125,-3.078125 9.015625,-2.78125 8.46875,-1.09375 7.109375,-0.25 5.828125,-0.25 4.765625,-0.25 3.6875,-0.84375 3.015625,-1.9375 2.25,-3.203125 2.25,-4.65625 2.25,-5.828125 Z M 2.28125,-6.1875 c 0.171875,-3.578125 2.078125,-4.375 3.078125,-4.375 1.671875,0 2.8125,1.59375 2.84375,4.375 z m 0,0"
               id="path182" />
          </g>
          <g
             id="use113"
             transform="translate(208.09996,18.568001)">
            <path
               style="stroke:none"
               d="m 10.28125,-7.53125 c 0,-1.265625 -0.25,-3.328125 -3.171875,-3.328125 -1.953125,0 -2.96875,1.515625 -3.34375,2.515625 h -0.03125 v -2.515625 L 0.8125,-10.578125 V -9.9375 c 1.46875,0 1.6875,0.15625 1.6875,1.34375 v 6.890625 c 0,0.9375 -0.09375,1.0625 -1.6875,1.0625 V 0 C 1.40625,-0.046875 2.5,-0.046875 3.140625,-0.046875 c 0.65625,0 1.765625,0 2.359375,0.046875 v -0.640625 c -1.578125,0 -1.6875,-0.109375 -1.6875,-1.0625 V -6.46875 c 0,-2.28125 1.390625,-3.984375 3.125,-3.984375 1.828125,0 2.03125,1.625 2.03125,2.828125 v 5.921875 c 0,0.9375 -0.09375,1.0625 -1.6875,1.0625 V 0 c 0.59375,-0.046875 1.6875,-0.046875 2.328125,-0.046875 0.65625,0 1.765625,0 2.359375,0.046875 v -0.640625 c -1.578125,0 -1.6875,-0.109375 -1.6875,-1.0625 z m 0,0"
               id="path186" />
          </g>
        </g>
        <g
           style="fill:#000000;fill-opacity:1"
           id="g119">
          <g
             id="use117"
             transform="translate(224.892,18.568001)">
            <path
               style="stroke:none"
               d="m 10.984375,-12.46875 c 0,-2.53125 -0.796875,-4.984375 -2.828125,-4.984375 -3.46875,0 -7.171875,7.265625 -7.171875,12.71875 0,1.140625 0.25,4.984375 2.859375,4.984375 3.375,0 7.140625,-7.09375 7.140625,-12.71875 z m -7.515625,3.5 c 0.375,-1.46875 0.890625,-3.546875 1.890625,-5.3125 0.8125,-1.484375 1.671875,-2.671875 2.765625,-2.671875 0.828125,0 1.359375,0.703125 1.359375,3.078125 0,0.890625 -0.0625,2.125 -0.78125,4.90625 z m 5.0625,0.734375 c -0.625,2.4375 -1.140625,4 -2.03125,5.5625 C 5.78125,-1.40625 4.90625,-0.25 3.859375,-0.25 c -0.765625,0 -1.375,-0.59375 -1.375,-3.046875 0,-1.609375 0.390625,-3.296875 0.78125,-4.9375 z m 0,0"
               id="path190" />
          </g>
        </g>
      </g>
    </g>
    <g
       id="g2639"
       transform="translate(0.55594761,0.0805712)">
      <g
         inkscape:label=""
         transform="translate(146.05007,115.07444)"
         id="g6848">
        <g
           id="g6846"
           transform="matrix(0.352778,0,0,0.352778,-0.64115838,-0.00418929)">
          <g
             style="fill:#000000;fill-opacity:1"
             id="g41">
            <g
               id="use39"
               transform="translate(0,18.59)">
              <path
                 style="stroke:none"
                 d="m 15.9375,-7.953125 c 0.375,0 0.734375,0 0.734375,-0.421875 0,-0.453125 -0.421875,-0.453125 -0.84375,-0.453125 H 1.984375 c -0.421875,0 -0.84375,0 -0.84375,0.453125 0,0.421875 0.375,0.421875 0.75,0.421875 z m -0.109375,4.40625 c 0.421875,0 0.84375,0 0.84375,-0.4375 0,-0.421875 -0.359375,-0.421875 -0.734375,-0.421875 H 1.890625 c -0.375,0 -0.75,0 -0.75,0.421875 0,0.4375 0.421875,0.4375 0.84375,0.4375 z m 0,0"
                 id="path6813" />
            </g>
          </g>
          <g
             clip-path="url(#clipPath8047)"
             clip-rule="nonzero"
             id="g6821">
            <g
               style="fill:#000000;fill-opacity:1"
               id="g45">
              <g
                 id="use43"
                 transform="translate(24.728001,18.59)">
                <path
                   style="stroke:none"
                   d="m 3.9375,-17.6875 c 0,-0.453125 0,-0.890625 -0.5,-0.890625 -0.484375,0 -0.484375,0.4375 -0.484375,0.890625 V 5.296875 c 0,0.453125 0,0.890625 0.484375,0.890625 0.5,0 0.5,-0.4375 0.5,-0.890625 z m 0,0"
                   id="path6817" />
              </g>
            </g>
          </g>
          <g
             style="fill:#000000;fill-opacity:1"
             id="g6827">
            <g
               id="g6825"
               transform="translate(31.613001,18.59)">
              <path
                 style="stroke:none"
                 d="m 11.75,-10.109375 c -0.796875,0.140625 -1.09375,0.734375 -1.09375,1.21875 0,0.59375 0.46875,0.78125 0.8125,0.78125 0.75,0 1.265625,-0.640625 1.265625,-1.3125 0,-1.03125 -1.1875,-1.5 -2.234375,-1.5 -1.5,0 -2.34375,1.484375 -2.5625,1.953125 -0.578125,-1.859375 -2.109375,-1.953125 -2.5625,-1.953125 -2.53125,0 -3.859375,3.234375 -3.859375,3.78125 0,0.109375 0.09375,0.234375 0.265625,0.234375 0.203125,0 0.25,-0.15625 0.296875,-0.25 0.84375,-2.75 2.5,-3.28125 3.21875,-3.28125 1.125,0 1.34375,1.046875 1.34375,1.640625 C 6.640625,-8.25 6.5,-7.6875 6.1875,-6.5 l -0.828125,3.40625 c -0.375,1.484375 -1.09375,2.84375 -2.40625,2.84375 -0.125,0 -0.75,0 -1.265625,-0.3125 0.890625,-0.1875 1.09375,-0.921875 1.09375,-1.21875 0,-0.5 -0.375,-0.796875 -0.84375,-0.796875 -0.59375,0 -1.25,0.515625 -1.25,1.3125 0,1.046875 1.171875,1.515625 2.234375,1.515625 1.1875,0 2.03125,-0.9375 2.5625,-1.953125 C 5.875,-0.25 7.109375,0.25 8.03125,0.25 c 2.53125,0 3.859375,-3.25 3.859375,-3.796875 0,-0.125 -0.09375,-0.21875 -0.25,-0.21875 -0.21875,0 -0.234375,0.125 -0.3125,0.328125 -0.671875,2.171875 -2.109375,3.1875 -3.21875,3.1875 -0.875,0 -1.34375,-0.640625 -1.34375,-1.65625 0,-0.546875 0.09375,-0.9375 0.5,-2.578125 L 8.125,-7.859375 C 8.5,-9.34375 9.34375,-10.4375 10.484375,-10.4375 c 0.04687,0 0.734375,0 1.265625,0.328125 z m 0,0"
                 id="path6823" />
            </g>
          </g>
          <g
             style="fill:#000000;fill-opacity:1"
             id="g6832">
            <g
               id="g6830"
               transform="translate(50.912998,18.59)">
              <path
                 style="stroke:none"
                 d="m 9.34375,-5.75 h 6.5625 c 0.34375,0 0.765625,0 0.765625,-0.421875 0,-0.4375 -0.390625,-0.4375 -0.765625,-0.4375 H 9.34375 V -13.1875 c 0,-0.34375 0,-0.765625 -0.421875,-0.765625 -0.453125,0 -0.453125,0.390625 -0.453125,0.765625 v 6.578125 h -6.5625 c -0.34375,0 -0.765625,0 -0.765625,0.421875 0,0.4375 0.390625,0.4375 0.765625,0.4375 h 6.5625 v 6.5625 c 0,0.359375 0,0.78125 0.421875,0.78125 0.453125,0 0.453125,-0.40625 0.453125,-0.78125 z m 0,0"
                 id="path86" />
            </g>
          </g>
          <g
             style="fill:#000000;fill-opacity:1"
             id="g6838">
            <g
               id="use57"
               transform="translate(74.264,18.59)">
              <path
                 style="stroke:none"
                 d="m 7.015625,-3.546875 c 0,-0.125 -0.109375,-0.21875 -0.25,-0.21875 -0.21875,0 -0.25,0.078125 -0.375,0.5 C 5.75,-1.015625 4.734375,-0.25 3.921875,-0.25 c -0.296875,0 -0.65625,-0.078125 -0.65625,-0.8125 0,-0.671875 0.296875,-1.421875 0.578125,-2.15625 l 1.734375,-4.609375 c 0.078125,-0.203125 0.25,-0.640625 0.25,-1.125 0,-1.03125 -0.75,-1.96875 -1.96875,-1.96875 -2.265625,0 -3.1875,3.59375 -3.1875,3.78125 0,0.109375 0.09375,0.234375 0.265625,0.234375 0.234375,0 0.25,-0.109375 0.34375,-0.453125 0.609375,-2.078125 1.546875,-3.078125 2.515625,-3.078125 0.21875,0 0.640625,0.03125 0.640625,0.828125 0,0.640625 -0.328125,1.453125 -0.515625,2 L 2.1875,-3 c -0.15625,0.390625 -0.296875,0.796875 -0.296875,1.234375 0,1.125 0.765625,2.015625 1.953125,2.015625 2.28125,0 3.171875,-3.625 3.171875,-3.796875 z M 6.8125,-15.46875 c 0,-0.359375 -0.296875,-0.8125 -0.84375,-0.8125 -0.5625,0 -1.203125,0.546875 -1.203125,1.1875 0,0.625 0.515625,0.8125 0.8125,0.8125 0.671875,0 1.234375,-0.640625 1.234375,-1.1875 z m 0,0"
                 id="path90" />
            </g>
            <g
               id="use59"
               transform="translate(82.542892,18.59)">
              <path
                 style="stroke:none"
                 d="M 6.515625,2.78125 C 5.84375,3.71875 4.875,4.5625 3.671875,4.5625 3.375,4.5625 2.1875,4.515625 1.8125,3.375 1.890625,3.390625 2,3.390625 2.0625,3.390625 2.796875,3.390625 3.296875,2.75 3.296875,2.1875 3.296875,1.609375 2.828125,1.40625 2.453125,1.40625 2.0625,1.40625 1.1875,1.703125 1.1875,2.921875 1.1875,4.1875 2.25,5.0625 3.671875,5.0625 c 2.46875,0 4.984375,-2.28125 5.671875,-5.03125 l 2.421875,-9.671875 c 0.03125,-0.125 0.07813,-0.265625 0.07813,-0.421875 0,-0.375 -0.296875,-0.625 -0.671875,-0.625 -0.21875,0 -0.734375,0.109375 -0.9375,0.84375 l -1.82813,7.296875 c -0.125,0.4375 -0.125,0.484375 -0.328125,0.765625 -0.5,0.6875 -1.3125,1.53125 -2.5,1.53125 C 4.1875,-0.25 4.0625,-1.609375 4.0625,-2.28125 c 0,-1.40625 0.671875,-3.3125 1.34375,-5.109375 0.265625,-0.71875 0.421875,-1.0625 0.421875,-1.5625 0,-1.03125 -0.75,-1.96875 -1.96875,-1.96875 -2.265625,0 -3.1875,3.59375 -3.1875,3.78125 0,0.109375 0.09375,0.234375 0.265625,0.234375 0.234375,0 0.25,-0.109375 0.34375,-0.453125 0.609375,-2.078125 1.546875,-3.078125 2.515625,-3.078125 0.21875,0 0.640625,0 0.640625,0.828125 0,0.640625 -0.28125,1.359375 -0.640625,2.296875 -1.21875,3.25 -1.21875,4.0625 -1.21875,4.65625 0,2.359375 1.6875,2.90625 2.921875,2.90625 0.71875,0 1.609375,-0.21875 2.484375,-1.140625 L 8,-0.875 C 7.625,0.59375 7.390625,1.5625 6.515625,2.78125 Z m 0,0"
                 id="path94" />
            </g>
          </g>
          <g
             clip-path="url(#clipPath7398)"
             clip-rule="nonzero"
             id="g67">
            <g
               style="fill:#000000;fill-opacity:1"
               id="g6843">
              <g
                 id="g6841"
                 transform="translate(95.266998,18.59)">
                <path
                   style="stroke:none"
                   d="m 3.9375,-17.6875 c 0,-0.453125 0,-0.890625 -0.5,-0.890625 -0.484375,0 -0.484375,0.4375 -0.484375,0.890625 V 5.296875 c 0,0.453125 0,0.890625 0.484375,0.890625 0.5,0 0.5,-0.4375 0.5,-0.890625 z m 0,0"
                   id="path98" />
              </g>
            </g>
          </g>
        </g>
      </g>
      <g
         inkscape:label=""
         transform="translate(138.85454,128.69578)"
         id="g7298">
        <g
           id="g7296"
           transform="matrix(0.352778,0,0,0.352778,-0.347266,-0.00194056)">
          <g
             style="fill:#000000;fill-opacity:1"
             id="g44">
            <g
               id="use42"
               transform="translate(0,18.568001)">
              <path
                 style="stroke:none"
                 d="m 10.984375,-12.46875 c 0,-2.53125 -0.796875,-4.984375 -2.828125,-4.984375 -3.46875,0 -7.171875,7.265625 -7.171875,12.71875 0,1.140625 0.25,4.984375 2.859375,4.984375 3.375,0 7.140625,-7.09375 7.140625,-12.71875 z m -7.515625,3.5 c 0.375,-1.46875 0.890625,-3.546875 1.890625,-5.3125 0.8125,-1.484375 1.671875,-2.671875 2.765625,-2.671875 0.828125,0 1.359375,0.703125 1.359375,3.078125 0,0.890625 -0.0625,2.125 -0.78125,4.90625 z m 5.0625,0.734375 c -0.625,2.4375 -1.140625,4 -2.03125,5.5625 C 5.78125,-1.40625 4.90625,-0.25 3.859375,-0.25 c -0.765625,0 -1.375,-0.59375 -1.375,-3.046875 0,-1.609375 0.390625,-3.296875 0.78125,-4.9375 z m 0,0"
                 id="path79" />
            </g>
          </g>
          <g
             style="fill:#000000;fill-opacity:1"
             id="g48">
            <g
               id="use46"
               transform="translate(18.870001,18.568001)">
              <path
                 style="stroke:none"
                 d="m 15.9375,-7.953125 c 0.375,0 0.734375,0 0.734375,-0.421875 0,-0.453125 -0.421875,-0.453125 -0.84375,-0.453125 H 1.984375 c -0.421875,0 -0.84375,0 -0.84375,0.453125 0,0.421875 0.375,0.421875 0.75,0.421875 z m -0.109375,4.40625 c 0.421875,0 0.84375,0 0.84375,-0.4375 0,-0.421875 -0.359375,-0.421875 -0.734375,-0.421875 H 1.890625 c -0.375,0 -0.75,0 -0.75,0.421875 0,0.4375 0.421875,0.4375 0.84375,0.4375 z m 0,0"
                 id="path83" />
            </g>
          </g>
          <g
             style="fill:#000000;fill-opacity:1"
             id="g56">
            <g
               id="use50"
               transform="translate(43.60257,18.568001)">
              <path
                 style="stroke:none"
                 d="m 8.921875,-6.421875 c 0,-1.625 0,-2.5 -1.046875,-3.46875 -0.90625,-0.8125 -1.984375,-1.0625 -2.8125,-1.0625 -1.96875,0 -3.375,1.53125 -3.375,3.171875 0,0.921875 0.734375,0.96875 0.890625,0.96875 0.328125,0 0.890625,-0.203125 0.890625,-0.890625 0,-0.625 -0.46875,-0.890625 -0.890625,-0.890625 -0.09375,0 -0.21875,0.015625 -0.296875,0.046875 C 2.796875,-10.109375 4.140625,-10.5625 5,-10.5625 c 1.25,0 2.609375,1.09375 2.609375,3.171875 v 1.09375 C 6.140625,-6.25 4.390625,-6.046875 3,-5.296875 1.4375,-4.4375 0.984375,-3.203125 0.984375,-2.25 c 0,1.90625 2.234375,2.453125 3.546875,2.453125 1.359375,0 2.625,-0.765625 3.171875,-2.1875 0.046875,1.09375 0.75,2.078125 1.84375,2.078125 C 10.0625,0.09375 11.375,-0.25 11.375,-2.203125 V -3.59375 h -0.453125 v 1.40625 c 0,1.515625 -0.65625,1.71875 -0.984375,1.71875 -1.015625,0 -1.015625,-1.296875 -1.015625,-2.375 z m -1.3125,2.984375 c 0,2.15625 -1.53125,3.234375 -2.90625,3.234375 C 3.46875,-0.203125 2.5,-1.109375 2.5,-2.25 2.5,-3 2.828125,-4.3125 4.265625,-5.109375 5.453125,-5.78125 6.8125,-5.875 7.609375,-5.921875 Z m 0,0"
                 id="path87" />
            </g>
            <g
               id="use52"
               transform="translate(54.969933,18.568001)">
              <path
                 style="stroke:none"
                 d="m 3.71875,-5.84375 c 0,-2.390625 1.015625,-4.609375 2.875,-4.609375 0.171875,0 0.34375,0.01563 0.515625,0.09375 0,0 -0.546875,0.171875 -0.546875,0.8125 0,0.59375 0.46875,0.84375 0.84375,0.84375 0.296875,0 0.84375,-0.171875 0.84375,-0.859375 0,-0.796875 -0.796875,-1.296875 -1.640625,-1.296875 -1.875,0 -2.6875,1.84375 -2.9375,2.703125 h -0.03125 v -2.703125 l -2.875,0.28125 V -9.9375 c 1.46875,0 1.6875,0.15625 1.6875,1.34375 v 6.890625 c 0,0.9375 -0.09375,1.0625 -1.6875,1.0625 V 0 c 0.59375,-0.046875 1.734375,-0.046875 2.375,-0.046875 0.71875,0 1.984375,0 2.65625,0.046875 v -0.640625 c -1.78125,0 -2.078125,0 -2.078125,-1.125 z m 0,0"
                 id="path91" />
            </g>
            <g
               id="use54"
               transform="translate(63.747044,18.568001)">
              <path
                 style="stroke:none"
                 d="m 2.75,-4.453125 c 0.46875,0.359375 1.296875,0.78125 2.28125,0.78125 1.953125,0 3.640625,-1.53125 3.640625,-3.59375 0,-0.640625 -0.203125,-1.625 -0.9375,-2.40625 0.6875,-0.734375 1.703125,-0.984375 2.28125,-0.984375 0.09375,0 0.25,0 0.375,0.07813 -0.109375,0.01563 -0.328125,0.125 -0.328125,0.515625 0,0.328125 0.21875,0.546875 0.546875,0.546875 0.375,0 0.5625,-0.25 0.5625,-0.578125 0,-0.46875 -0.375,-0.953125 -1.15625,-0.953125 -1,0 -1.859375,0.46875 -2.5625,1.109375 -0.734375,-0.671875 -1.625,-0.921875 -2.421875,-0.921875 -1.953125,0 -3.640625,1.546875 -3.640625,3.59375 0,1.421875 0.8125,2.3125 1.0625,2.5625 -0.75,0.859375 -0.75,1.875 -0.75,2 0,0.640625 0.25,1.59375 1.09375,2.109375 C 1.515625,-0.265625 0.5,0.71875 0.5,1.953125 0.5,3.734375 2.84375,5.0625 5.671875,5.0625 c 2.734375,0 5.1875,-1.265625 5.1875,-3.125 0,-3.375 -3.671875,-3.375 -5.578125,-3.375 -0.578125,0 -1.59375,0 -1.71875,-0.03125 -0.765625,-0.125 -1.28125,-0.8125 -1.28125,-1.671875 0,-0.234375 0,-0.78125 0.46875,-1.3125 z m 2.28125,0.359375 c -2.1875,0 -2.1875,-2.671875 -2.1875,-3.171875 0,-0.484375 0,-3.171875 2.1875,-3.171875 2.1875,0 2.1875,2.6875 2.1875,3.171875 0,0.5 0,3.171875 -2.1875,3.171875 z m 0.640625,8.734375 c -2.46875,0 -4.1875,-1.3125 -4.1875,-2.6875 0,-0.765625 0.421875,-1.484375 0.96875,-1.875 0.625,-0.421875 0.875,-0.421875 2.546875,-0.421875 2.03125,0 4.859375,0 4.859375,2.296875 0,1.375 -1.703125,2.6875 -4.1875,2.6875 z m 0,0"
                 id="path95" />
            </g>
          </g>
          <g
             clip-path="url(#clipPath3176)"
             clip-rule="nonzero"
             id="g62">
            <g
               style="fill:#000000;fill-opacity:1"
               id="g60">
              <g
                 id="use58"
                 transform="translate(75.436638,18.568001)">
                <path
                   style="stroke:none"
                   d="m 7.578125,6.046875 c 0,-0.03125 0,-0.078125 -0.0625,-0.15625 -1.140625,-1.15625 -4.1875,-4.328125 -4.1875,-12.0625 0,-7.734375 2.984375,-10.875 4.203125,-12.109375 0,-0.03125 0.046875,-0.07813 0.046875,-0.15625 0,-0.07813 -0.0625,-0.125 -0.171875,-0.125 -0.265625,0 -2.375,1.828125 -3.59375,4.5625 -1.234375,2.75 -1.578125,5.421875 -1.578125,7.8125 0,1.78125 0.171875,4.796875 1.65625,8 1.1875,2.578125 3.21875,4.375 3.515625,4.375 0.125,0 0.171875,-0.046875 0.171875,-0.140625 z m 0,0"
                   id="path99" />
              </g>
            </g>
          </g>
          <g
             style="fill:#000000;fill-opacity:1"
             id="g66">
            <g
               id="use64"
               transform="translate(84.212997,18.568001)">
              <path
                 style="stroke:none"
                 d="m 3.140625,-2 c 1.078125,-1.21875 1.9375,-1.984375 3.171875,-3.109375 1.5,-1.28125 2.140625,-1.90625 2.484375,-2.28125 1.734375,-1.703125 2.609375,-3.140625 2.609375,-3.34375 0,-0.1875 -0.203125,-0.1875 -0.25,-0.1875 -0.171875,0 -0.234375,0.09375 -0.359375,0.265625 -0.609375,1.0625 -1.203125,1.59375 -1.84375,1.59375 -0.53125,0 -0.796875,-0.234375 -1.265625,-0.828125 -0.53125,-0.609375 -0.953125,-1.03125 -1.671875,-1.03125 -1.796875,0 -2.890625,2.25 -2.890625,2.765625 0,0.078125 0.015625,0.21875 0.25,0.21875 0.1875,0 0.21875,-0.09375 0.296875,-0.265625 C 4.09375,-9.1875 5.28125,-9.375 5.75,-9.375 c 0.515625,0 1.015625,0.1875 1.53125,0.40625 0.953125,0.390625 1.34375,0.390625 1.59375,0.390625 0.171875,0 0.265625,0 0.390625,-0.015625 C 8.453125,-7.625 7.109375,-6.4375 6,-5.421875 L 3.5,-3.125 c -1.515625,1.53125 -2.4375,3 -2.4375,3.171875 0,0.15625 0.125,0.203125 0.28125,0.203125 0.140625,0 0.171875,-0.03125 0.34375,-0.328125 0.390625,-0.609375 1.1875,-1.53125 2.109375,-1.53125 0.515625,0 0.765625,0.171875 1.265625,0.796875 0.46875,0.546875 0.890625,1.0625 1.671875,1.0625 2.4375,0 3.828125,-3.15625 3.828125,-3.71875 0,-0.09375 -0.03125,-0.25 -0.28125,-0.25 -0.1875,0 -0.21875,0.09375 -0.296875,0.34375 -0.546875,1.46875 -2,2.0625 -2.96875,2.0625 C 6.5,-1.3125 6,-1.484375 5.484375,-1.703125 c -1,-0.40625 -1.265625,-0.40625 -1.59375,-0.40625 -0.25,0 -0.515625,0 -0.75,0.109375 z m 0,0"
                 id="path103" />
            </g>
          </g>
          <g
             clip-path="url(#clipPath8402)"
             clip-rule="nonzero"
             id="g72">
            <g
               style="fill:#000000;fill-opacity:1"
               id="g70">
              <g
                 id="use68"
                 transform="translate(96.592003,18.568001)">
                <path
                   style="stroke:none"
                   d="m 6.515625,-6.171875 c 0,-1.78125 -0.171875,-4.8125 -1.65625,-8 C 3.671875,-16.75 1.640625,-18.5625 1.34375,-18.5625 c -0.078125,0 -0.171875,0.03125 -0.171875,0.15625 0,0.04687 0.015625,0.0625 0.046875,0.125 1.1875,1.234375 4.203125,4.375 4.203125,12.09375 0,7.71875 -3,10.875 -4.203125,12.109375 C 1.1875,5.96875 1.171875,6 1.171875,6.046875 c 0,0.125 0.09375,0.140625 0.171875,0.140625 0.265625,0 2.375,-1.828125 3.59375,-4.546875 1.234375,-2.75 1.578125,-5.4375 1.578125,-7.8125 z m 0,0"
                   id="path107" />
              </g>
            </g>
          </g>
        </g>
      </g>
      <g
         inkscape:label=""
         transform="translate(139.06188,100.06804)"
         id="g2030">
        <g
           id="g2028"
           transform="matrix(0.352778,0,0,0.352778,-0.237023,-0.337112)">
          <g
             style="fill:#000000;fill-opacity:1"
             id="g1977">
            <g
               id="g1975"
               transform="translate(0,23.098)">
              <path
                 style="stroke:none"
                 d="m 9.640625,-10.140625 c -0.765625,0.15625 -1.171875,0.703125 -1.171875,1.25 0,0.59375 0.484375,0.78125 0.828125,0.78125 0.6875,0 1.265625,-0.59375 1.265625,-1.328125 0,-0.796875 -0.78125,-1.484375 -2.015625,-1.484375 -0.984375,0 -2.125,0.4375 -3.171875,1.953125 -0.171875,-1.3125 -1.15625,-1.953125 -2.15625,-1.953125 -0.96875,0 -1.453125,0.734375 -1.75,1.28125 -0.421875,0.890625 -0.796875,2.375 -0.796875,2.5 0,0.109375 0.09375,0.234375 0.265625,0.234375 0.203125,0 0.234375,-0.03125 0.375,-0.609375 C 1.6875,-9 2.15625,-10.4375 3.140625,-10.4375 c 0.59375,0 0.78125,0.421875 0.78125,1.140625 0,0.546875 -0.25,1.515625 -0.421875,2.28125 L 2.796875,-4.34375 c -0.09375,0.484375 -0.375,1.59375 -0.5,2.046875 C 2.125,-1.65625 1.859375,-0.5 1.859375,-0.375 1.859375,-0.03125 2.125,0.25 2.5,0.25 2.78125,0.25 3.25,0.078125 3.390625,-0.421875 3.46875,-0.625 4.390625,-4.359375 4.53125,-4.9375 4.65625,-5.484375 4.8125,-6 4.9375,-6.546875 c 0.09375,-0.34375 0.1875,-0.734375 0.265625,-1.0625 0.078125,-0.21875 0.75,-1.4375 1.359375,-1.984375 0.296875,-0.265625 0.953125,-0.84375 1.96875,-0.84375 0.390625,0 0.78125,0.07813 1.109375,0.296875 z m 0,0"
                 id="path1973" />
            </g>
          </g>
          <g
             style="fill:#000000;fill-opacity:1"
             id="g1983">
            <g
               id="g1981"
               transform="translate(18.497,23.098)">
              <path
                 style="stroke:none"
                 d="m 15.9375,-7.953125 c 0.375,0 0.734375,0 0.734375,-0.421875 0,-0.453125 -0.421875,-0.453125 -0.84375,-0.453125 H 1.984375 c -0.421875,0 -0.84375,0 -0.84375,0.453125 0,0.421875 0.375,0.421875 0.75,0.421875 z m -0.109375,4.40625 c 0.421875,0 0.84375,0 0.84375,-0.4375 0,-0.421875 -0.359375,-0.421875 -0.734375,-0.421875 H 1.890625 c -0.375,0 -0.75,0 -0.75,0.421875 0,0.4375 0.421875,0.4375 0.84375,0.4375 z m 0,0"
                 id="path1979" />
            </g>
          </g>
          <g
             style="fill:#000000;fill-opacity:1"
             id="g1989">
            <g
               id="g1987"
               transform="translate(43.229568,23.098)">
              <path
                 style="stroke:none"
                 d="m 9.34375,-5.75 h 6.5625 c 0.34375,0 0.765625,0 0.765625,-0.421875 0,-0.4375 -0.390625,-0.4375 -0.765625,-0.4375 H 9.34375 V -13.1875 c 0,-0.34375 0,-0.765625 -0.421875,-0.765625 -0.453125,0 -0.453125,0.390625 -0.453125,0.765625 v 6.578125 h -6.5625 c -0.34375,0 -0.765625,0 -0.765625,0.421875 0,0.4375 0.390625,0.4375 0.765625,0.4375 h 6.5625 v 6.5625 c 0,0.359375 0,0.78125 0.421875,0.78125 0.453125,0 0.453125,-0.40625 0.453125,-0.78125 z m 0,0"
                 id="path1985" />
            </g>
          </g>
          <g
             clip-path="url(#clipPath9195)"
             clip-rule="nonzero"
             id="g1997">
            <g
               style="fill:#000000;fill-opacity:1"
               id="g1995">
              <g
                 id="g1993"
                 transform="translate(61.067001,1.913)">
                <path
                   style="stroke:none"
                   d="m 10.140625,27.734375 c 0.734375,0 0.765625,-0.03125 1,-0.484375 L 24.21875,-0.046875 c 0.171875,-0.3125 0.171875,-0.359375 0.171875,-0.4375 0,-0.25 -0.203125,-0.46875 -0.484375,-0.46875 -0.3125,0 -0.40625,0.21875 -0.53125,0.46875 L 11.046875,25.25 5.953125,13.390625 2.625,15.953125 2.984375,16.328125 4.6875,15.03125 Z m 0,0"
                   id="path1991" />
              </g>
            </g>
          </g>
          <g
             clip-path="url(#clipPath2813)"
             clip-rule="nonzero"
             id="g2000">
            <path
               style="fill:none;stroke:#000000;stroke-width:0.956;stroke-linecap:butt;stroke-linejoin:miter;stroke-miterlimit:10;stroke-opacity:1"
               d="M -0.0014375,4.0625e-4 H 72.162625"
               transform="matrix(1,0,0,-1,84.978,1.434)"
               id="path63" />
          </g>
          <g
             style="fill:#000000;fill-opacity:1"
             id="g2006">
            <g
               id="g2004"
               transform="translate(84.977997,23.098)">
              <path
                 style="stroke:none"
                 d="m 11.75,-10.109375 c -0.796875,0.140625 -1.09375,0.734375 -1.09375,1.21875 0,0.59375 0.46875,0.78125 0.8125,0.78125 0.75,0 1.265625,-0.640625 1.265625,-1.3125 0,-1.03125 -1.1875,-1.5 -2.234375,-1.5 -1.5,0 -2.34375,1.484375 -2.5625,1.953125 -0.578125,-1.859375 -2.109375,-1.953125 -2.5625,-1.953125 -2.53125,0 -3.859375,3.234375 -3.859375,3.78125 0,0.109375 0.09375,0.234375 0.265625,0.234375 0.203125,0 0.25,-0.15625 0.296875,-0.25 0.84375,-2.75 2.5,-3.28125 3.21875,-3.28125 1.125,0 1.34375,1.046875 1.34375,1.640625 C 6.640625,-8.25 6.5,-7.6875 6.1875,-6.5 l -0.828125,3.40625 c -0.375,1.484375 -1.09375,2.84375 -2.40625,2.84375 -0.125,0 -0.75,0 -1.265625,-0.3125 0.890625,-0.1875 1.09375,-0.921875 1.09375,-1.21875 0,-0.5 -0.375,-0.796875 -0.84375,-0.796875 -0.59375,0 -1.25,0.515625 -1.25,1.3125 0,1.046875 1.171875,1.515625 2.234375,1.515625 1.1875,0 2.03125,-0.9375 2.5625,-1.953125 C 5.875,-0.25 7.109375,0.25 8.03125,0.25 c 2.53125,0 3.859375,-3.25 3.859375,-3.796875 0,-0.125 -0.09375,-0.21875 -0.25,-0.21875 -0.21875,0 -0.234375,0.125 -0.3125,0.328125 -0.671875,2.171875 -2.109375,3.1875 -3.21875,3.1875 -0.875,0 -1.34375,-0.640625 -1.34375,-1.65625 0,-0.546875 0.09375,-0.9375 0.5,-2.578125 L 8.125,-7.859375 C 8.5,-9.34375 9.34375,-10.4375 10.484375,-10.4375 c 0.04687,0 0.734375,0 1.265625,0.328125 z m 0,0"
                 id="path2002" />
            </g>
          </g>
          <g
             style="fill:#000000;fill-opacity:1"
             id="g2012">
            <g
               id="g2010"
               transform="translate(98.769997,15.937)">
              <path
                 style="stroke:none"
                 d="M 7.1875,-2.671875 H 6.875 c -0.171875,1.21875 -0.3125,1.4375 -0.390625,1.53125 C 6.40625,-1 5.171875,-1 4.921875,-1 H 1.625 c 0.609375,-0.671875 1.8125,-1.890625 3.28125,-3.3125 1.046875,-0.984375 2.28125,-2.15625 2.28125,-3.859375 0,-2.03125 -1.625,-3.203125 -3.4375,-3.203125 -1.890625,0 -3.046875,1.65625 -3.046875,3.21875 0,0.671875 0.5,0.75 0.703125,0.75 0.171875,0 0.6875,-0.09375 0.6875,-0.703125 0,-0.53125 -0.4375,-0.6875 -0.6875,-0.6875 -0.09375,0 -0.203125,0.015625 -0.265625,0.046875 0.328125,-1.453125 1.328125,-2.1875 2.375,-2.1875 1.5,0 2.46875,1.1875 2.46875,2.765625 0,1.484375 -0.875,2.78125 -1.859375,3.90625 l -3.421875,3.875 V 0 h 6.0625 z m 0,0"
                 id="path2008" />
            </g>
          </g>
          <g
             style="fill:#000000;fill-opacity:1"
             id="g2018">
            <g
               id="g2016"
               transform="translate(112.671,23.098)">
              <path
                 style="stroke:none"
                 d="m 9.34375,-5.75 h 6.5625 c 0.34375,0 0.765625,0 0.765625,-0.421875 0,-0.4375 -0.390625,-0.4375 -0.765625,-0.4375 H 9.34375 V -13.1875 c 0,-0.34375 0,-0.765625 -0.421875,-0.765625 -0.453125,0 -0.453125,0.390625 -0.453125,0.765625 v 6.578125 h -6.5625 c -0.34375,0 -0.765625,0 -0.765625,0.421875 0,0.4375 0.390625,0.4375 0.765625,0.4375 h 6.5625 v 6.5625 c 0,0.359375 0,0.78125 0.421875,0.78125 0.453125,0 0.453125,-0.40625 0.453125,-0.78125 z m 0,0"
                 id="path2014" />
            </g>
          </g>
          <g
             style="fill:#000000;fill-opacity:1"
             id="g2023">
            <g
               id="g2021"
               transform="translate(136.022,23.098)">
              <path
                 style="stroke:none"
                 d="M 6.515625,2.78125 C 5.84375,3.71875 4.875,4.5625 3.671875,4.5625 3.375,4.5625 2.1875,4.515625 1.8125,3.375 1.890625,3.390625 2,3.390625 2.0625,3.390625 2.796875,3.390625 3.296875,2.75 3.296875,2.1875 3.296875,1.609375 2.828125,1.40625 2.453125,1.40625 2.0625,1.40625 1.1875,1.703125 1.1875,2.921875 1.1875,4.1875 2.25,5.0625 3.671875,5.0625 c 2.46875,0 4.984375,-2.28125 5.671875,-5.03125 l 2.421875,-9.671875 c 0.03125,-0.125 0.07813,-0.265625 0.07813,-0.421875 0,-0.375 -0.296875,-0.625 -0.671875,-0.625 -0.21875,0 -0.734375,0.109375 -0.9375,0.84375 l -1.82813,7.296875 c -0.125,0.4375 -0.125,0.484375 -0.328125,0.765625 -0.5,0.6875 -1.3125,1.53125 -2.5,1.53125 C 4.1875,-0.25 4.0625,-1.609375 4.0625,-2.28125 c 0,-1.40625 0.671875,-3.3125 1.34375,-5.109375 0.265625,-0.71875 0.421875,-1.0625 0.421875,-1.5625 0,-1.03125 -0.75,-1.96875 -1.96875,-1.96875 -2.265625,0 -3.1875,3.59375 -3.1875,3.78125 0,0.109375 0.09375,0.234375 0.265625,0.234375 0.234375,0 0.25,-0.109375 0.34375,-0.453125 0.609375,-2.078125 1.546875,-3.078125 2.515625,-3.078125 0.21875,0 0.640625,0 0.640625,0.828125 0,0.640625 -0.28125,1.359375 -0.640625,2.296875 -1.21875,3.25 -1.21875,4.0625 -1.21875,4.65625 0,2.359375 1.6875,2.90625 2.921875,2.90625 0.71875,0 1.609375,-0.21875 2.484375,-1.140625 L 8,-0.875 C 7.625,0.59375 7.390625,1.5625 6.515625,2.78125 Z m 0,0"
                 id="path120" />
            </g>
          </g>
          <g
             style="fill:#000000;fill-opacity:1"
             id="g85">
            <g
               id="use83"
               transform="translate(148.746,15.937)">
              <path
                 style="stroke:none"
                 d="M 7.1875,-2.671875 H 6.875 c -0.171875,1.21875 -0.3125,1.4375 -0.390625,1.53125 C 6.40625,-1 5.171875,-1 4.921875,-1 H 1.625 c 0.609375,-0.671875 1.8125,-1.890625 3.28125,-3.3125 1.046875,-0.984375 2.28125,-2.15625 2.28125,-3.859375 0,-2.03125 -1.625,-3.203125 -3.4375,-3.203125 -1.890625,0 -3.046875,1.65625 -3.046875,3.21875 0,0.671875 0.5,0.75 0.703125,0.75 0.171875,0 0.6875,-0.09375 0.6875,-0.703125 0,-0.53125 -0.4375,-0.6875 -0.6875,-0.6875 -0.09375,0 -0.203125,0.015625 -0.265625,0.046875 0.328125,-1.453125 1.328125,-2.1875 2.375,-2.1875 1.5,0 2.46875,1.1875 2.46875,2.765625 0,1.484375 -0.875,2.78125 -1.859375,3.90625 l -3.421875,3.875 V 0 h 6.0625 z m 0,0"
                 id="path124" />
            </g>
          </g>
        </g>
      </g>
    </g>
  </g>
</svg>
