<?xml version="1.0" encoding="UTF-8" standalone="no"?>
<!-- Created with Inkscape (http://www.inkscape.org/) -->

<svg
   width="140.28339mm"
   height="34.954575mm"
   viewBox="0 0 140.28339 34.954575"
   version="1.1"
   id="svg5"
   sodipodi:docname="viga.svg"
   inkscape:version="1.2.2 (b0a8486541, 2022-12-01)"
   xmlns:inkscape="http://www.inkscape.org/namespaces/inkscape"
   xmlns:sodipodi="http://sodipodi.sourceforge.net/DTD/sodipodi-0.dtd"
   xmlns="http://www.w3.org/2000/svg"
   xmlns:svg="http://www.w3.org/2000/svg">
  <sodipodi:namedview
     id="namedview7"
     pagecolor="#ffffff"
     bordercolor="#000000"
     borderopacity="0.25"
     inkscape:showpageshadow="2"
     inkscape:pageopacity="0.0"
     inkscape:pagecheckerboard="0"
     inkscape:deskcolor="#d1d1d1"
     inkscape:document-units="mm"
     showgrid="false"
     inkscape:zoom="1.6819304"
     inkscape:cx="249.41579"
     inkscape:cy="59.455492"
     inkscape:window-width="1699"
     inkscape:window-height="799"
     inkscape:window-x="78"
     inkscape:window-y="20"
     inkscape:window-maximized="0"
     inkscape:current-layer="layer1" />
  <defs
     id="defs2">
    <marker
       style="overflow:visible"
       id="TriangleStart"
       refX="0"
       refY="0"
       orient="auto-start-reverse"
       inkscape:stockid="TriangleStart"
       markerWidth="5.3244081"
       markerHeight="6.155385"
       viewBox="0 0 5.3244081 6.1553851"
       inkscape:isstock="true"
       inkscape:collect="always"
       preserveAspectRatio="xMidYMid">
      <path
         transform="scale(0.5)"
         style="fill:context-stroke;fill-rule:evenodd;stroke:context-stroke;stroke-width:1pt"
         d="M 5.77,0 -2.88,5 V -5 Z"
         id="path135" />
    </marker>
    <marker
       style="overflow:visible"
       id="Arrow2"
       refX="0"
       refY="0"
       orient="auto-start-reverse"
       inkscape:stockid="Arrow2"
       markerWidth="7.6999998"
       markerHeight="5.5999999"
       viewBox="0 0 7.7 5.6"
       inkscape:isstock="true"
       inkscape:collect="always"
       preserveAspectRatio="xMidYMid">
      <path
         transform="scale(0.7)"
         d="M -2,-4 9,0 -2,4 c 2,-2.33 2,-5.66 0,-8 z"
         style="fill:context-stroke;fill-rule:evenodd;stroke:none"
         id="arrow2L" />
    </marker>
    <clipPath
       id="clipPath4788">
      <path
         clip-rule="nonzero"
         d="M 0,0 H 6 V 4.695312 H 0 Z m 0,0"
         id="path1804" />
    </clipPath>
    <clipPath
       id="clipPath2414">
      <path
         clip-rule="nonzero"
         d="m 9,0 h 3 V 10.910156 H 9 Z m 0,0"
         id="path3223" />
    </clipPath>
    <clipPath
       id="clipPath7720">
      <path
         clip-rule="nonzero"
         d="m 19,0 h 3 v 10.910156 h -3 z m 0,0"
         id="path1468" />
    </clipPath>
    <clipPath
       id="clipPath9845">
      <path
         clip-rule="nonzero"
         d="M 0,0 H 7.316406 V 7.453125 H 0 Z m 0,0"
         id="path2472" />
    </clipPath>
    <clipPath
       id="clipPath4585">
      <path
         clip-rule="nonzero"
         d="M 0,0 H 5.738281 V 6.816406 H 0 Z m 0,0"
         id="path5064" />
    </clipPath>
    <clipPath
       id="clipPath8508">
      <path
         clip-rule="nonzero"
         d="M 0,0 H 3 V 7.574219 H 0 Z m 0,0"
         id="path1426" />
    </clipPath>
    <clipPath
       id="clipPath8605">
      <path
         clip-rule="nonzero"
         d="M 0,0 H 8.625 V 7.453125 H 0 Z m 0,0"
         id="path7976" />
    </clipPath>
  </defs>
  <g
     inkscape:label="Layer 1"
     inkscape:groupmode="layer"
     id="layer1"
     transform="translate(-26.824278,-77.071986)">
    <path
       style="fill:none;stroke:#a8a8a8;stroke-width:0.400001;stroke-linecap:round;stroke-linejoin:round;stroke-opacity:1;marker-end:url(#Arrow2)"
       d="M 31.620378,111.82656 V 79.591992"
       id="path5929" />
    <path
       style="fill:none;stroke:#000100;stroke-width:0.4;stroke-linecap:round;stroke-linejoin:round"
       d="m 153.5339,91.073739 v 8.817678 c -41.40022,7.619743 -82.189613,9.131293 -121.914726,0 v -8.740566 c 39.725113,8.905229 80.514506,7.393678 121.914726,-0.07711 z"
       id="path790"
       sodipodi:nodetypes="ccccc" />
    <path
       style="fill:none;stroke:#a8a8a8;stroke-width:0.4;stroke-linecap:round;stroke-linejoin:round;stroke-opacity:1;marker-end:url(#Arrow2)"
       d="M 27.024278,95.995363 H 164.58767"
       id="path2450" />
    <path
       style="fill:none;stroke:#000100;stroke-width:0.4;stroke-linecap:round;stroke-linejoin:round;stroke-dasharray:0.8, 2.4;stroke-dashoffset:0"
       d="m 31.786026,96.16956 c 39.562011,8.86643 80.183934,7.36147 121.414174,-0.07677 m 0,0 v -2e-6"
       id="path4183"
       sodipodi:nodetypes="cccc" />
    <path
       style="fill:none;stroke:#ff0000;stroke-width:0.4;stroke-linecap:round;stroke-linejoin:round;stroke-dasharray:none;stroke-dashoffset:0;stroke-opacity:1;marker-end:url(#TriangleStart)"
       d="M 92.576537,96.012397 V 100.6215"
       id="path4185" />
    <path
       style="fill:none;stroke:#ff0000;stroke-width:0.4;stroke-linecap:round;stroke-linejoin:round;stroke-dasharray:none;stroke-dashoffset:0;stroke-opacity:1;marker-end:url(#TriangleStart)"
       d="m 123.05414,96.003916 v 2.753647"
       id="path5917" />
    <path
       style="fill:none;stroke:#ff0000;stroke-width:0.4;stroke-linecap:round;stroke-linejoin:round;stroke-dasharray:none;stroke-dashoffset:0;stroke-opacity:1;marker-end:url(#TriangleStart)"
       d="m 62.098287,95.965525 v 3.528914"
       id="path5919" />
    <path
       style="fill:none;stroke:#ff0000;stroke-width:0.399999;stroke-linecap:round;stroke-linejoin:round;stroke-dasharray:none;stroke-dashoffset:0;stroke-opacity:1;marker-end:url(#TriangleStart)"
       d="m 46.85916,96.055216 v 1.430261"
       id="path5921" />
    <path
       style="fill:none;stroke:#ff0000;stroke-width:0.4;stroke-linecap:round;stroke-linejoin:round;stroke-dasharray:none;stroke-dashoffset:0;stroke-opacity:1;marker-end:url(#TriangleStart)"
       d="m 77.337411,96.004808 v 4.434212"
       id="path5923" />
    <path
       style="fill:none;stroke:#ff0000;stroke-width:0.4;stroke-linecap:round;stroke-linejoin:round;stroke-dasharray:none;stroke-dashoffset:0;stroke-opacity:1;marker-end:url(#TriangleStart)"
       d="m 107.81534,95.991863 v 4.135877"
       id="path5925" />
    <path
       style="fill:none;stroke:#ff0000;stroke-width:0.399998;stroke-linecap:round;stroke-linejoin:round;stroke-dasharray:none;stroke-dashoffset:0;stroke-opacity:1;marker-end:url(#TriangleStart)"
       d="m 138.29294,95.934503 v 1.053903"
       id="path5927" />
    <g
       inkscape:label=""
       transform="translate(161.12304,98.108823)"
       id="g5992">
      <g
         clip-path="url(#clipPath4788)"
         id="g16"
         transform="matrix(0.352778,0,0,0.352778,-0.110243,0.046258)">
        <g
           fill="#000000"
           fill-opacity="1"
           id="g14">
          <g
             id="use12"
             transform="translate(0,4.697)">
            <path
               d="m 3.640625,-3.296875 c 0.0625,-0.28125 0.3125,-1.28125 1.078125,-1.28125 0.0625,0 0.3125,0 0.546875,0.140625 C 4.96875,-4.390625 4.75,-4.109375 4.75,-3.84375 c 0,0.171875 0.109375,0.375 0.40625,0.375 0.25,0 0.59375,-0.203125 0.59375,-0.625 0,-0.578125 -0.640625,-0.734375 -1.015625,-0.734375 -0.640625,0 -1.015625,0.578125 -1.140625,0.84375 -0.28125,-0.734375 -0.875,-0.84375 -1.1875,-0.84375 -1.125,0 -1.75,1.421875 -1.75,1.6875 0,0.109375 0.109375,0.109375 0.125,0.109375 0.09375,0 0.125,-0.015625 0.140625,-0.125 0.375,-1.15625 1.09375,-1.421875 1.46875,-1.421875 0.203125,0 0.59375,0.09375 0.59375,0.734375 0,0.328125 -0.1875,1.0625 -0.59375,2.59375 -0.171875,0.671875 -0.5625,1.125 -1.03125,1.125 -0.078125,0 -0.328125,0 -0.546875,-0.140625 0.265625,-0.046875 0.5,-0.28125 0.5,-0.578125 0,-0.296875 -0.234375,-0.390625 -0.390625,-0.390625 -0.328125,0 -0.609375,0.28125 -0.609375,0.640625 0,0.5 0.546875,0.71875 1.03125,0.71875 0.71875,0 1.109375,-0.765625 1.140625,-0.828125 C 2.625,-0.3125 3.015625,0.125 3.671875,0.125 c 1.109375,0 1.734375,-1.40625 1.734375,-1.6875 0,-0.109375 -0.09375,-0.109375 -0.125,-0.109375 -0.09375,0 -0.125,0.046875 -0.140625,0.125 C 4.78125,-0.375 4.03125,-0.125 3.6875,-0.125 c -0.421875,0 -0.59375,-0.34375 -0.59375,-0.71875 0,-0.234375 0.0625,-0.46875 0.171875,-0.953125 z m 0,0"
               id="path22" />
          </g>
        </g>
      </g>
    </g>
    <g
       inkscape:label=""
       transform="translate(107.95295,91.323519)"
       id="g6085"
       style="fill:#ff0000">
      <g
         fill="#000000"
         fill-opacity="1"
         id="g26"
         transform="matrix(0.352778,0,0,0.352778,-0.110243,-0.00357193)"
         style="fill:#ff0000">
        <g
           id="use24"
           transform="translate(0,8.1820002)"
           style="fill:#ff0000">
          <path
             d="M 5.03125,-3.703125 C 5.09375,-3.9375 5.203125,-4.34375 5.203125,-4.40625 c 0,-0.203125 -0.15625,-0.296875 -0.3125,-0.296875 -0.140625,0 -0.328125,0.09375 -0.40625,0.3125 -0.03125,0.078125 -0.546875,2.15625 -0.625,2.4375 -0.078125,0.328125 -0.09375,0.53125 -0.09375,0.71875 0,0.125 0,0.140625 0.015625,0.203125 -0.265625,0.578125 -0.578125,0.90625 -1.015625,0.90625 -0.875,0 -0.875,-0.796875 -0.875,-0.984375 0,-0.359375 0.0625,-0.78125 0.578125,-2.125 0.109375,-0.328125 0.1875,-0.46875 0.1875,-0.6875 0,-0.5 -0.359375,-0.90625 -0.90625,-0.90625 -1.03125,0 -1.4375,1.59375 -1.4375,1.6875 0,0.109375 0.109375,0.109375 0.140625,0.109375 C 0.5625,-3.03125 0.5625,-3.046875 0.625,-3.234375 0.921875,-4.25 1.34375,-4.578125 1.71875,-4.578125 1.828125,-4.578125 2,-4.5625 2,-4.21875 2,-3.953125 1.875,-3.640625 1.796875,-3.453125 1.3125,-2.171875 1.1875,-1.671875 1.1875,-1.25 c 0,0.984375 0.734375,1.375 1.546875,1.375 0.1875,0 0.703125,0 1.140625,-0.765625 0.28125,0.6875 1.03125,0.765625 1.359375,0.765625 0.8125,0 1.296875,-0.6875 1.578125,-1.34375 0.375,-0.859375 0.71875,-2.3125 0.71875,-2.84375 0,-0.59375 -0.296875,-0.765625 -0.46875,-0.765625 -0.28125,0 -0.546875,0.296875 -0.546875,0.53125 0,0.140625 0.0625,0.203125 0.15625,0.296875 0.125,0.125 0.390625,0.40625 0.390625,0.921875 0,0.375 -0.3125,1.4375 -0.59375,2 C 6.1875,-0.5 5.796875,-0.125 5.265625,-0.125 c -0.515625,0 -0.8125,-0.328125 -0.8125,-0.9375 0,-0.3125 0.078125,-0.65625 0.125,-0.796875 z m 0,0"
             id="path48"
             style="fill:#ff0000" />
        </g>
      </g>
      <g
         clip-path="url(#clipPath2414)"
         id="g32"
         transform="matrix(0.352778,0,0,0.352778,-0.110243,-0.00357193)"
         style="fill:#ff0000">
        <g
           fill="#000000"
           fill-opacity="1"
           id="g30"
           style="fill:#ff0000">
          <g
             id="use28"
             transform="translate(8.1040001,8.1820002)"
             style="fill:#ff0000">
            <path
               d="m 3.609375,2.625 c 0,-0.046875 0,-0.0625 -0.1875,-0.25 C 2.0625,1 1.71875,-1.0625 1.71875,-2.71875 c 0,-1.90625 0.40625,-3.796875 1.75,-5.171875 0.140625,-0.125 0.140625,-0.140625 0.140625,-0.1875 0,-0.0625 -0.046875,-0.09375 -0.109375,-0.09375 -0.109375,0 -1.09375,0.734375 -1.734375,2.125 -0.5625,1.1875 -0.6875,2.40625 -0.6875,3.328125 0,0.84375 0.125,2.15625 0.71875,3.390625 C 2.453125,2.015625 3.390625,2.71875 3.5,2.71875 3.5625,2.71875 3.609375,2.6875 3.609375,2.625 Z m 0,0"
               id="path52"
               style="fill:#ff0000" />
          </g>
        </g>
      </g>
      <g
         fill="#000000"
         fill-opacity="1"
         id="g36"
         transform="matrix(0.352778,0,0,0.352778,-0.110243,-0.00357193)"
         style="fill:#ff0000">
        <g
           id="use34"
           transform="translate(12.346,8.1820002)"
           style="fill:#ff0000">
          <path
             d="m 3.640625,-3.296875 c 0.0625,-0.28125 0.3125,-1.28125 1.078125,-1.28125 0.0625,0 0.3125,0 0.546875,0.140625 C 4.96875,-4.390625 4.75,-4.109375 4.75,-3.84375 c 0,0.171875 0.109375,0.375 0.40625,0.375 0.25,0 0.59375,-0.203125 0.59375,-0.625 0,-0.578125 -0.640625,-0.734375 -1.015625,-0.734375 -0.640625,0 -1.015625,0.578125 -1.140625,0.84375 -0.28125,-0.734375 -0.875,-0.84375 -1.1875,-0.84375 -1.125,0 -1.75,1.421875 -1.75,1.6875 0,0.109375 0.109375,0.109375 0.125,0.109375 0.09375,0 0.125,-0.015625 0.140625,-0.125 0.375,-1.15625 1.09375,-1.421875 1.46875,-1.421875 0.203125,0 0.59375,0.09375 0.59375,0.734375 0,0.328125 -0.1875,1.0625 -0.59375,2.59375 -0.171875,0.671875 -0.5625,1.125 -1.03125,1.125 -0.078125,0 -0.328125,0 -0.546875,-0.140625 0.265625,-0.046875 0.5,-0.28125 0.5,-0.578125 0,-0.296875 -0.234375,-0.390625 -0.390625,-0.390625 -0.328125,0 -0.609375,0.28125 -0.609375,0.640625 0,0.5 0.546875,0.71875 1.03125,0.71875 0.71875,0 1.109375,-0.765625 1.140625,-0.828125 C 2.625,-0.3125 3.015625,0.125 3.671875,0.125 c 1.109375,0 1.734375,-1.40625 1.734375,-1.6875 0,-0.109375 -0.09375,-0.109375 -0.125,-0.109375 -0.09375,0 -0.125,0.046875 -0.140625,0.125 C 4.78125,-0.375 4.03125,-0.125 3.6875,-0.125 c -0.421875,0 -0.59375,-0.34375 -0.59375,-0.71875 0,-0.234375 0.0625,-0.46875 0.171875,-0.953125 z m 0,0"
             id="path56"
             style="fill:#ff0000" />
        </g>
      </g>
      <g
         clip-path="url(#clipPath7720)"
         id="g42"
         transform="matrix(0.352778,0,0,0.352778,-0.110243,-0.00357193)"
         style="fill:#ff0000">
        <g
           fill="#000000"
           fill-opacity="1"
           id="g40"
           style="fill:#ff0000">
          <g
             id="use38"
             transform="translate(18.580999,8.1820002)"
             style="fill:#ff0000">
            <path
               d="m 3.15625,-2.71875 c 0,-0.859375 -0.125,-2.171875 -0.71875,-3.40625 -0.65625,-1.34375 -1.59375,-2.046875 -1.703125,-2.046875 -0.0625,0 -0.109375,0.03125 -0.109375,0.09375 0,0.046875 0,0.0625 0.203125,0.265625 1.0625,1.078125 1.6875,2.8125 1.6875,5.09375 0,1.859375 -0.40625,3.78125 -1.75,5.15625 C 0.625,2.5625 0.625,2.578125 0.625,2.625 c 0,0.0625 0.046875,0.09375 0.109375,0.09375 0.109375,0 1.09375,-0.734375 1.734375,-2.125 0.546875,-1.1875 0.6875,-2.40625 0.6875,-3.3125 z m 0,0"
               id="path60"
               style="fill:#ff0000" />
          </g>
        </g>
      </g>
    </g>
    <g
       inkscape:label=""
       transform="translate(28.531525,87.65278)"
       id="g6220">
      <g
         clip-path="url(#clipPath9845)"
         id="g6218"
         transform="matrix(0.352778,0,0,0.352778,-0.198437,0.0820209)">
        <g
           fill="#000000"
           fill-opacity="1"
           id="g6216">
          <g
             id="g6214"
             transform="translate(0,7.4549999)">
            <path
               d="m 7.03125,-7.578125 c 0,-0.03125 -0.015625,-0.109375 -0.109375,-0.109375 -0.0625,0 -0.078125,0.015625 -0.203125,0.15625 l -0.53125,0.625 C 5.90625,-7.421875 5.34375,-7.6875 4.640625,-7.6875 3.25,-7.6875 1.9375,-6.4375 1.9375,-5.109375 c 0,0.875 0.578125,1.375 1.140625,1.546875 L 4.25,-3.265625 c 0.390625,0.109375 1,0.265625 1,1.15625 0,0.984375 -0.890625,2.015625 -1.96875,2.015625 -0.703125,0 -1.90625,-0.25 -1.90625,-1.59375 0,-0.265625 0.046875,-0.53125 0.0625,-0.59375 0.015625,-0.046875 0.03125,-0.046875 0.03125,-0.078125 0,-0.109375 -0.078125,-0.109375 -0.140625,-0.109375 -0.046875,0 -0.078125,0 -0.109375,0.03125 C 1.171875,-2.390625 0.5625,0.09375 0.5625,0.125 c 0,0.078125 0.0625,0.109375 0.125,0.109375 0.046875,0 0.0625,0 0.203125,-0.15625 l 0.53125,-0.625 c 0.46875,0.640625 1.203125,0.78125 1.84375,0.78125 1.484375,0 2.765625,-1.4375 2.765625,-2.796875 0,-0.75 -0.375,-1.125 -0.53125,-1.28125 C 5.25,-4.09375 5.078125,-4.140625 4.109375,-4.390625 3.875,-4.453125 3.484375,-4.5625 3.375,-4.578125 3.09375,-4.671875 2.71875,-5 2.71875,-5.578125 c 0,-0.875 0.875,-1.8125 1.90625,-1.8125 0.90625,0 1.5625,0.46875 1.5625,1.703125 0,0.34375 -0.03125,0.546875 -0.03125,0.609375 0,0 0,0.109375 0.125,0.109375 0.109375,0 0.125,-0.03125 0.171875,-0.21875 z m 0,0"
               id="path6212" />
          </g>
        </g>
      </g>
    </g>
    <g
       inkscape:label=""
       transform="translate(27.641653,77.752911)"
       id="g6357">
      <g
         clip-path="url(#clipPath4585)"
         id="g6355"
         transform="matrix(0.352778,0,0,0.352778,-0.110243,0.046258)">
        <g
           fill="#000000"
           fill-opacity="1"
           id="g6353">
          <g
             id="g6351"
             transform="translate(0,4.697)">
            <path
               d="m 5.296875,-4.15625 c 0.046875,-0.15625 0.046875,-0.171875 0.046875,-0.25 0,-0.203125 -0.15625,-0.296875 -0.3125,-0.296875 -0.109375,0 -0.28125,0.0625 -0.390625,0.234375 C 4.625,-4.421875 4.53125,-4.078125 4.5,-3.875 4.421875,-3.59375 4.34375,-3.296875 4.28125,-3.015625 l -0.5,1.96875 C 3.734375,-0.890625 3.265625,-0.125 2.546875,-0.125 2,-0.125 1.875,-0.59375 1.875,-1 c 0,-0.5 0.1875,-1.1875 0.5625,-2.140625 0.171875,-0.453125 0.21875,-0.5625 0.21875,-0.78125 0,-0.5 -0.359375,-0.90625 -0.90625,-0.90625 -1.03125,0 -1.4375,1.59375 -1.4375,1.6875 0,0.109375 0.109375,0.109375 0.140625,0.109375 0.109375,0 0.109375,-0.015625 0.171875,-0.203125 0.296875,-1.015625 0.734375,-1.34375 1.09375,-1.34375 0.09375,0 0.28125,0 0.28125,0.34375 0,0.28125 -0.109375,0.5625 -0.1875,0.765625 -0.4375,1.15625 -0.640625,1.78125 -0.640625,2.296875 0,0.96875 0.6875,1.296875 1.34375,1.296875 0.421875,0 0.78125,-0.1875 1.09375,-0.5 C 3.46875,0.203125 3.34375,0.734375 2.90625,1.3125 2.625,1.671875 2.203125,2 1.703125,2 1.546875,2 1.0625,1.96875 0.875,1.53125 c 0.171875,0 0.3125,0 0.46875,-0.125 C 1.453125,1.3125 1.5625,1.171875 1.5625,0.953125 c 0,-0.328125 -0.296875,-0.375 -0.40625,-0.375 -0.25,0 -0.609375,0.171875 -0.609375,0.703125 0,0.546875 0.484375,0.953125 1.15625,0.953125 1.125,0 2.25,-0.984375 2.546875,-2.21875 z m 0,0"
               id="path6349" />
          </g>
        </g>
      </g>
    </g>
    <g
       inkscape:label=""
       transform="translate(152.55798,102.89191)"
       id="g6508">
      <g
         clip-path="url(#clipPath8508)"
         id="g6506"
         transform="matrix(0.352778,0,0,0.352778,-0.170877,-0.00476257)">
        <g
           fill="#000000"
           fill-opacity="1"
           id="g6504">
          <g
             id="g6502"
             transform="translate(0,7.5760002)">
            <path
               d="m 2.8125,-7.453125 c 0,0 0,-0.109375 -0.140625,-0.109375 -0.25,0 -1.046875,0.078125 -1.328125,0.109375 -0.09375,0 -0.203125,0.015625 -0.203125,0.21875 0,0.125 0.109375,0.125 0.265625,0.125 0.53125,0 0.53125,0.09375 0.53125,0.1875 L 1.90625,-6.703125 0.53125,-1.25 C 0.5,-1.140625 0.484375,-1.0625 0.484375,-0.890625 c 0,0.625 0.46875,1.015625 0.984375,1.015625 0.359375,0 0.640625,-0.21875 0.828125,-0.609375 C 2.484375,-0.90625 2.625,-1.53125 2.625,-1.5625 c 0,-0.109375 -0.109375,-0.109375 -0.140625,-0.109375 -0.109375,0 -0.125,0.046875 -0.15625,0.203125 C 2.15625,-0.765625 1.9375,-0.125 1.5,-0.125 c -0.328125,0 -0.328125,-0.34375 -0.328125,-0.5 0,-0.265625 0.015625,-0.3125 0.078125,-0.515625 z m 0,0"
               id="path6500" />
          </g>
        </g>
      </g>
    </g>
    <g
       inkscape:label=""
       transform="translate(27.08548,97.107712)"
       id="g6673">
      <g
         clip-path="url(#clipPath8605)"
         id="g6671"
         transform="matrix(0.352778,0,0,0.352778,-0.187413,0.0820209)">
        <g
           fill="#000000"
           fill-opacity="1"
           id="g6669">
          <g
             id="g6667"
             transform="translate(0,7.4549999)">
            <path
               d="m 8.078125,-4.75 c 0,-1.765625 -1.15625,-2.9375 -2.78125,-2.9375 -2.359375,0 -4.765625,2.46875 -4.765625,5.015625 0,1.8125 1.21875,2.90625 2.796875,2.90625 2.3125,0 4.75,-2.390625 4.75,-4.984375 z m -4.6875,4.703125 c -1.078125,0 -1.84375,-0.875 -1.84375,-2.3125 0,-0.484375 0.15625,-2.078125 1,-3.359375 0.75,-1.125 1.8125,-1.703125 2.671875,-1.703125 0.90625,0 1.875,0.609375 1.875,2.234375 0,0.796875 -0.28125,2.5 -1.375,3.828125 -0.515625,0.671875 -1.40625,1.3125 -2.328125,1.3125 z m 0,0"
               id="path6665" />
          </g>
        </g>
      </g>
    </g>
    <g
       inkscape:label=""
       transform="translate(152.89168,87.65278)"
       id="g6706">
      <g
         clip-path="url(#clipPath9845)"
         id="g6704"
         transform="matrix(0.352778,0,0,0.352778,-0.198437,0.0820209)">
        <g
           fill="#000000"
           fill-opacity="1"
           id="g6702">
          <g
             id="g6700"
             transform="translate(0,7.4549999)">
            <path
               d="m 7.03125,-7.578125 c 0,-0.03125 -0.015625,-0.109375 -0.109375,-0.109375 -0.0625,0 -0.078125,0.015625 -0.203125,0.15625 l -0.53125,0.625 C 5.90625,-7.421875 5.34375,-7.6875 4.640625,-7.6875 3.25,-7.6875 1.9375,-6.4375 1.9375,-5.109375 c 0,0.875 0.578125,1.375 1.140625,1.546875 L 4.25,-3.265625 c 0.390625,0.109375 1,0.265625 1,1.15625 0,0.984375 -0.890625,2.015625 -1.96875,2.015625 -0.703125,0 -1.90625,-0.25 -1.90625,-1.59375 0,-0.265625 0.046875,-0.53125 0.0625,-0.59375 0.015625,-0.046875 0.03125,-0.046875 0.03125,-0.078125 0,-0.109375 -0.078125,-0.109375 -0.140625,-0.109375 -0.046875,0 -0.078125,0 -0.109375,0.03125 C 1.171875,-2.390625 0.5625,0.09375 0.5625,0.125 c 0,0.078125 0.0625,0.109375 0.125,0.109375 0.046875,0 0.0625,0 0.203125,-0.15625 l 0.53125,-0.625 c 0.46875,0.640625 1.203125,0.78125 1.84375,0.78125 1.484375,0 2.765625,-1.4375 2.765625,-2.796875 0,-0.75 -0.375,-1.125 -0.53125,-1.28125 C 5.25,-4.09375 5.078125,-4.140625 4.109375,-4.390625 3.875,-4.453125 3.484375,-4.5625 3.375,-4.578125 3.09375,-4.671875 2.71875,-5 2.71875,-5.578125 c 0,-0.875 0.875,-1.8125 1.90625,-1.8125 0.90625,0 1.5625,0.46875 1.5625,1.703125 0,0.34375 -0.03125,0.546875 -0.03125,0.609375 0,0 0,0.109375 0.125,0.109375 0.109375,0 0.125,-0.03125 0.171875,-0.21875 z m 0,0"
               id="path6698" />
          </g>
        </g>
      </g>
    </g>
  </g>
</svg>
