<?xml version="1.0" encoding="UTF-8" standalone="no"?>
<!-- Created with Inkscape (http://www.inkscape.org/) -->

<svg
   width="76.242813mm"
   height="66.529327mm"
   viewBox="0 0 76.242813 66.529327"
   version="1.1"
   id="svg5"
   sodipodi:docname="fig-04b.svg"
   inkscape:version="1.2.2 (b0a8486541, 2022-12-01)"
   xmlns:inkscape="http://www.inkscape.org/namespaces/inkscape"
   xmlns:sodipodi="http://sodipodi.sourceforge.net/DTD/sodipodi-0.dtd"
   xmlns="http://www.w3.org/2000/svg"
   xmlns:svg="http://www.w3.org/2000/svg">
  <sodipodi:namedview
     id="namedview7"
     pagecolor="#ffffff"
     bordercolor="#666666"
     borderopacity="1.0"
     inkscape:showpageshadow="2"
     inkscape:pageopacity="0.0"
     inkscape:pagecheckerboard="0"
     inkscape:deskcolor="#d1d1d1"
     inkscape:document-units="mm"
     showgrid="false"
     inkscape:zoom="2.9683221"
     inkscape:cx="163.39197"
     inkscape:cy="101.74098"
     inkscape:window-width="1920"
     inkscape:window-height="1013"
     inkscape:window-x="1920"
     inkscape:window-y="0"
     inkscape:window-maximized="1"
     inkscape:current-layer="layer1" />
  <defs
     id="defs2">
    <clipPath
       id="clipPath6524">
      <path
         d="m 61,0 h 6 v 24.742188 h -6 z m 0,0"
         id="path2122" />
    </clipPath>
    <clipPath
       id="clipPath8615">
      <path
         d="m 82,0 h 7 v 24.742188 h -7 z m 0,0"
         id="path5694" />
    </clipPath>
    <clipPath
       id="clipPath8948">
      <path
         d="M 1,0 H 18.679688 V 16.9375 H 1 Z m 0,0"
         id="path6228" />
    </clipPath>
    <clipPath
       id="clipPath5422">
      <path
         d="m 118,0 h 13 v 22.03125 h -13 z m 0,0"
         id="path1556" />
    </clipPath>
    <clipPath
       id="clipPath9208">
      <path
         d="m 127,0 h 13 v 22.03125 h -13 z m 0,0"
         id="path1597" />
    </clipPath>
    <clipPath
       id="clipPath6456">
      <path
         d="M 1,0 H 14 V 22.03125 H 1 Z m 0,0"
         id="path2608" />
    </clipPath>
    <clipPath
       id="clipPath5936">
      <path
         d="m 14,3 h 8 v 11.390625 h -8 z m 0,0"
         id="path9311" />
    </clipPath>
    <clipPath
       id="clipPath8327">
      <path
         d="m 15,3 h 6 v 11.390625 h -6 z m 0,0"
         id="path3182" />
    </clipPath>
    <clipPath
       id="clipPath8962">
      <path
         d="M 0,0 H 13 V 10.671875 H 0 Z m 0,0"
         id="path6381" />
    </clipPath>
    <clipPath
       id="clipPath3223">
      <path
         d="M 0,0 H 12 V 15.492188 H 0 Z m 0,0"
         id="path8065" />
    </clipPath>
    <clipPath
       id="clipPath3399">
      <path
         d="m 11,3 h 8 v 11.390625 h -8 z m 0,0"
         id="path4190" />
    </clipPath>
    <clipPath
       id="clipPath1534">
      <path
         d="m 12,3 h 6 v 11.390625 h -6 z m 0,0"
         id="path8393" />
    </clipPath>
    <clipPath
       id="clipPath2042">
      <path
         d="m 31,8 h 9 v 12.652344 h -9 z m 0,0"
         id="path9363" />
    </clipPath>
    <clipPath
       id="clipPath6329">
      <path
         d="M 1,0 H 19 V 16.9375 H 1 Z m 0,0"
         id="path6600" />
    </clipPath>
    <clipPath
       id="clipPath4741">
      <path
         d="m 12,2 h 8 v 12.390625 h -8 z m 0,0"
         id="path6237" />
    </clipPath>
    <clipPath
       id="clipPath9639">
      <path
         d="m 12,2 h 8 v 12.390625 h -8 z m 0,0"
         id="path6100" />
    </clipPath>
    <clipPath
       id="clipPath4942">
      <path
         d="M 1,0 H 18.679688 V 16.9375 H 1 Z m 0,0"
         id="path5259" />
    </clipPath>
    <clipPath
       id="clipPath6870">
      <path
         d="M 0,0 H 15.570312 V 14.117188 H 0 Z m 0,0"
         id="path2640" />
    </clipPath>
  </defs>
  <g
     inkscape:label="Capa 1"
     inkscape:groupmode="layer"
     id="layer1"
     transform="translate(-58.1657, -112.674)">
    <g
       inkscape:label=""
       transform="translate(99.714492,144.3633)"
       id="g1851">
      <g
         id="surface1"
         transform="matrix(0.846667,0,0,0.846667,-78.2532,-63.4422)">
        <g
           style="fill:#000000;fill-opacity:1"
           id="g20">
          <g
             id="use18"
             transform="translate(91.925003,81.962997)">
            <path
               style="stroke:none"
               d="m 7.578125,-6.921875 c 0,-0.03125 -0.015625,-0.109375 -0.109375,-0.109375 -0.03125,0 -0.046875,0.015625 -0.15625,0.125 L 6.625,-6.140625 C 6.53125,-6.28125 6.078125,-7.03125 4.96875,-7.03125 2.734375,-7.03125 0.5,-4.828125 0.5,-2.515625 0.5,-0.875 1.671875,0.21875 3.203125,0.21875 c 0.859375,0 1.625,-0.390625 2.15625,-0.859375 0.921875,-0.8125 1.09375,-1.71875 1.09375,-1.75 C 6.453125,-2.5 6.34375,-2.5 6.328125,-2.5 c -0.0625,0 -0.109375,0.03125 -0.125,0.109375 -0.09375,0.28125 -0.328125,1 -1.015625,1.578125 -0.6875,0.546875 -1.3125,0.71875 -1.828125,0.71875 -0.890625,0 -1.953125,-0.515625 -1.953125,-2.0625 0,-0.578125 0.203125,-2.1875 1.203125,-3.359375 0.609375,-0.703125 1.546875,-1.203125 2.4375,-1.203125 1.015625,0 1.609375,0.765625 1.609375,1.921875 0,0.40625 -0.03125,0.40625 -0.03125,0.515625 0,0.09375 0.109375,0.09375 0.140625,0.09375 0.125,0 0.125,-0.015625 0.1875,-0.203125 z m 0,0"
               id="path31" />
          </g>
        </g>
        <g
           style="fill:#000000;fill-opacity:1"
           id="g24">
          <g
             id="use22"
             transform="translate(99.045998,83.457001)">
            <path
               style="stroke:none"
               d="m 2.328125,-4.4375 c 0,-0.1875 0,-0.1875 -0.203125,-0.1875 -0.453125,0.4375 -1.078125,0.4375 -1.359375,0.4375 v 0.25 c 0.15625,0 0.625,0 1,-0.1875 v 3.546875 c 0,0.234375 0,0.328125 -0.6875,0.328125 H 0.8125 V 0 c 0.125,0 0.984375,-0.03125 1.234375,-0.03125 0.21875,0 1.09375,0.03125 1.25,0.03125 V -0.25 H 3.03125 c -0.703125,0 -0.703125,-0.09375 -0.703125,-0.328125 z m 0,0"
               id="path35" />
          </g>
        </g>
      </g>
    </g>
    <g
       inkscape:label=""
       transform="translate(113.47638,120.56805)"
       id="g1997">
      <g
         id="g1995"
         transform="matrix(0.846667,0,0,0.846667,-78.2532,-63.4422)">
        <g
           style="fill:#000000;fill-opacity:1"
           id="g1987">
          <g
             id="g1985"
             transform="translate(91.925003,81.962997)">
            <path
               style="stroke:none"
               d="m 7.578125,-6.921875 c 0,-0.03125 -0.015625,-0.109375 -0.109375,-0.109375 -0.03125,0 -0.046875,0.015625 -0.15625,0.125 L 6.625,-6.140625 C 6.53125,-6.28125 6.078125,-7.03125 4.96875,-7.03125 2.734375,-7.03125 0.5,-4.828125 0.5,-2.515625 0.5,-0.875 1.671875,0.21875 3.203125,0.21875 c 0.859375,0 1.625,-0.390625 2.15625,-0.859375 0.921875,-0.8125 1.09375,-1.71875 1.09375,-1.75 C 6.453125,-2.5 6.34375,-2.5 6.328125,-2.5 c -0.0625,0 -0.109375,0.03125 -0.125,0.109375 -0.09375,0.28125 -0.328125,1 -1.015625,1.578125 -0.6875,0.546875 -1.3125,0.71875 -1.828125,0.71875 -0.890625,0 -1.953125,-0.515625 -1.953125,-2.0625 0,-0.578125 0.203125,-2.1875 1.203125,-3.359375 0.609375,-0.703125 1.546875,-1.203125 2.4375,-1.203125 1.015625,0 1.609375,0.765625 1.609375,1.921875 0,0.40625 -0.03125,0.40625 -0.03125,0.515625 0,0.09375 0.109375,0.09375 0.140625,0.09375 0.125,0 0.125,-0.015625 0.1875,-0.203125 z m 0,0"
               id="path1983" />
          </g>
        </g>
        <g
           style="fill:#000000;fill-opacity:1"
           id="g1993">
          <g
             id="g1991"
             transform="translate(99.045998,83.457001)">
            <path
               style="stroke:none"
               d="M 3.515625,-1.265625 H 3.28125 c -0.015625,0.15625 -0.09375,0.5625 -0.1875,0.625 C 3.046875,-0.59375 2.515625,-0.59375 2.40625,-0.59375 H 1.125 c 0.734375,-0.640625 0.984375,-0.84375 1.390625,-1.171875 0.515625,-0.40625 1,-0.84375 1,-1.5 0,-0.84375 -0.734375,-1.359375 -1.625,-1.359375 -0.859375,0 -1.453125,0.609375 -1.453125,1.25 0,0.34375 0.296875,0.390625 0.375,0.390625 0.15625,0 0.359375,-0.125 0.359375,-0.375 0,-0.125 -0.046875,-0.375 -0.40625,-0.375 C 0.984375,-4.21875 1.453125,-4.375 1.78125,-4.375 c 0.703125,0 1.0625,0.546875 1.0625,1.109375 0,0.609375 -0.4375,1.078125 -0.65625,1.328125 L 0.515625,-0.265625 C 0.4375,-0.203125 0.4375,-0.1875 0.4375,0 h 2.875 z m 0,0"
               id="path1989" />
          </g>
        </g>
      </g>
    </g>
    <path
       style="fill:none;stroke:#000000;stroke-width:0.665;stroke-linecap:butt;stroke-linejoin:miter;stroke-dasharray:none;stroke-opacity:1"
       d="m 92.518082,128.71255 0.01161,-7.59919 c -4.236294,-0.14516 -4.89735,-0.2562 -15.861272,0.43725 -8.860127,0.56039 -15.032221,13.58719 -13.765072,22.37824 2.516861,17.46113 12.450945,19.56424 20.101743,21.22866 9.125291,1.9852 18.947449,6.22981 27.816619,3.30846 13.70863,-4.51538 13.21597,-6.72687 14.96878,-13.13009 1.72526,-6.3026 -0.68261,-14.03491 -4.81455,-19.0955 -6.16144,-7.54623 -18.70533,-14.63788 -25.753672,-15.21997 l 0.09797,7.97965"
       id="path523"
       sodipodi:nodetypes="ccsssssccc" />
    <path
       style="fill:none;stroke:#000000;stroke-width:0.665;stroke-linecap:butt;stroke-linejoin:miter;stroke-dasharray:none;stroke-opacity:1;marker-mid:"
       d="m 92.665616,128.67011 c -6.60342,-1.00557 -10.38017,0.46154 -13.935103,1.71748 -5.118817,1.80845 -6.695572,9.37011 -6.368386,14.78912 0.507119,8.39915 9.016997,7.58076 13.641235,10.34347 4.902002,2.92866 8.406366,6.95854 17.673318,4.42252 3.91405,-1.07113 11.89836,-3.98019 12.97027,-7.89402 1.05506,-3.85233 -1.96024,-11.0838 -4.39023,-14.25378 -3.55759,-4.64097 -10.60114,-7.81423 -17.20456,-8.8198"
       id="path371"
       sodipodi:nodetypes="cssssssc" />
    <path
       style="fill:#000000;fill-opacity:1;stroke:#000000;stroke-width:0.264583px;stroke-linecap:butt;stroke-linejoin:miter;stroke-opacity:1"
       d="m 95.254875,124.84246 -1.260573,-2.26441 2.55466,0.0305 z"
       id="path4967" />
    <path
       style="fill:#000000;fill-opacity:1;stroke:#000000;stroke-width:0.264583px;stroke-linecap:butt;stroke-linejoin:miter;stroke-opacity:1"
       d="m 92.505275,123.79442 -1.260573,2.26441 2.55466,-0.0305 z"
       id="path2830" />
    <path
       style="fill:#000000;fill-opacity:1;stroke:#000000;stroke-width:0.264583px;stroke-linecap:butt;stroke-linejoin:miter;stroke-opacity:1"
       d="m 62.967554,133.42008 0.502634,2.54243 1.929003,-1.67516 z"
       id="path2832" />
    <path
       style="fill:#000000;fill-opacity:1;stroke:#000000;stroke-width:0.264583px;stroke-linecap:butt;stroke-linejoin:miter;stroke-opacity:1"
       d="m 88.613008,165.29596 -0.525125,2.53788 2.428447,-0.79364 z"
       id="path2834" />
    <path
       style="fill:#000000;fill-opacity:1;stroke:#000000;stroke-width:0.264583px;stroke-linecap:butt;stroke-linejoin:miter;stroke-opacity:1"
       d="m 126.39235,150.37422 -1.26058,2.26441 2.55466,-0.0305 z"
       id="path2836" />
    <path
       style="fill:#000000;fill-opacity:1;stroke:#000000;stroke-width:0.264583px;stroke-linecap:butt;stroke-linejoin:miter;stroke-opacity:1"
       d="m 117.20913,144.89371 -2.51145,0.63971 1.77726,1.83536 z"
       id="path2838" />
    <path
       style="fill:#000000;fill-opacity:1;stroke:#000000;stroke-width:0.264583px;stroke-linecap:butt;stroke-linejoin:miter;stroke-opacity:1"
       d="m 89.435492,156.14192 -2.587546,-0.1457 1.142549,2.28513 z"
       id="path2840" />
    <path
       style="fill:#000000;fill-opacity:1;stroke:#000000;stroke-width:0.264583px;stroke-linecap:butt;stroke-linejoin:miter;stroke-opacity:1"
       d="m 73.870539,135.15249 -1.853289,1.81161 2.457546,0.69835 z"
       id="path2842" />
    <path
       style="fill:#b3b3b3;stroke:none;stroke-width:3.26929;stroke-linecap:round"
       d="m 162.3813,212.55394 c -8.53659,-0.92118 -18.5145,-2.88527 -31.49928,-6.20041 -4.26166,-1.08805 -8.13137,-2.12468 -8.59933,-2.30362 -0.46797,-0.17894 -2.28265,-1.63063 -4.03264,-3.22599 -1.74998,-1.59536 -3.29238,-2.90066 -3.42755,-2.90066 -0.13517,0 -0.41946,0.88285 -0.63174,1.96188 l -0.38598,1.96187 -4.76856,-1.28666 c -2.62271,-0.70767 -10.074588,-2.49965 -16.559733,-3.98218 -12.813384,-2.9292 -18.671774,-4.57825 -24.721364,-6.9587 -26.541934,-10.444 -41.385008,-31.38973 -47.781522,-67.42667 -0.860277,-4.84666 -0.938693,-5.98596 -0.932321,-13.54556 0.0072,-8.55549 0.442874,-12.464949 2.108683,-18.922466 0.567584,-2.200243 0.645211,-2.303288 3.779946,-5.017552 1.760254,-1.524144 3.200461,-2.927697 3.200461,-3.119004 0,-0.19131 -0.871704,-0.66128 -1.937121,-1.044381 -1.065417,-0.383099 -1.937121,-0.830298 -1.937121,-0.993771 0,-0.666019 2.579418,-6.712388 4.565004,-10.700749 8.961892,-18.001365 22.34593,-30.214142 36.355636,-33.17409 2.498212,-0.527818 10.559568,-1.123182 26.457492,-1.953992 15.83222,-0.827377 21.54471,-0.96488 29.31736,-0.705687 l 7.40372,0.24689 v 4.911438 4.911438 l -2.18979,3.960735 c -1.20438,2.178404 -2.18979,4.04377 -2.18979,4.145256 0,0.101487 0.98541,0.184521 2.18979,0.184521 h 2.18979 v 3.742319 c 0,3.711275 -0.006,3.740781 -0.758,3.556879 -0.4169,-0.101992 -3.03202,-0.367516 -5.81137,-0.590054 -8.43572,-0.675436 -17.77914,-0.05229 -25.772131,1.718836 -7.712654,1.709008 -19.956608,5.902301 -23.662385,8.103861 -4.653629,2.764673 -9.27175,7.896687 -12.227639,13.588307 -1.316124,2.534219 -2.230223,3.71114 -5.29018,6.811198 -2.034527,2.061188 -3.56904,3.819124 -3.410029,3.906527 0.159011,0.0874 1.047115,0.358003 1.973564,0.60134 0.926449,0.243336 1.724904,0.471394 1.774343,0.506794 0.04944,0.0354 -0.285384,1.640988 -0.744047,3.567972 -1.676728,7.044415 -2.035689,10.598005 -2.038421,20.179705 -0.002,7.38729 0.103702,9.42075 0.613259,11.78588 1.326877,6.15872 3.984834,11.15554 8.030065,15.09612 5.471937,5.33036 10.686286,7.82592 26.559203,12.71106 9.442365,2.90604 13.308298,4.44183 17.499578,6.95192 l 3.43655,2.05809 1.90589,3.82883 c 1.04824,2.10586 2.06054,3.82857 2.24956,3.82823 0.18902,-3.3e-4 0.77449,-0.68253 1.30105,-1.516 0.52656,-0.83348 1.08985,-1.51541 1.25175,-1.51541 0.1619,0 1.55028,0.81579 3.0853,1.81287 7.37181,4.78837 13.44219,7.62428 19.82275,9.26061 14.0061,3.59194 30.01665,1.38033 51.357,-7.09418 19.75728,-7.84585 31.24936,-16.88012 33.13143,-26.04564 0.94352,-4.59485 0.77034,-10.43678 -0.49004,-16.53137 l -0.49926,-2.41414 1.19458,-4.03322 c 0.65702,-2.21828 1.19458,-4.11259 1.19458,-4.20959 0,-0.097 -0.98235,0.0587 -2.183,0.34596 -1.20065,0.28727 -2.23079,0.45609 -2.28919,0.37516 -0.0584,-0.0809 -0.83746,-2.11797 -1.73124,-4.52674 -2.97493,-8.01748 -7.6604,-16.94429 -11.93078,-22.730656 C 194.7006,79.334719 171.51605,66.549857 145.70521,61.314607 l -3.7058,-0.751653 -0.18621,-7.709803 -0.18621,-7.709802 2.27546,-4.042688 2.27545,-4.042688 -2.34191,-0.09898 -2.34191,-0.09898 v -1.83814 c 0,-2.158225 -0.29184,-2.082898 4.49266,-1.159585 27.74016,5.3533 68.77868,30.607834 89.22592,54.908405 11.84799,14.080757 19.26884,32.061287 20.83188,50.475107 l 0.37331,4.39788 -2.20733,3.97856 -2.20734,3.97856 1.96783,0.099 1.96784,0.099 -0.4659,2.93299 c -0.55731,3.50843 -3.39799,14.60379 -5.06354,19.77752 -3.30787,10.27541 -7.82929,15.48375 -18.79708,21.65289 -6.16045,3.46512 -17.70022,8.18146 -30.32016,12.39194 -6.64666,2.21758 -12.48841,3.5651 -18.0946,4.1739 -4.40915,0.47881 -15.63572,0.38489 -20.81627,-0.17415 z"
       id="path5121"
       transform="matrix(0.26458333,0,0,0.26458333,58.1657,112.674)" />
  </g>
</svg>
